<svg width="96" height="45" viewBox="0 0 96 45" fill="none" xmlns="http://www.w3.org/2000/svg">
<g opacity="0.3">
<path d="M57.4852 9.11766C57.4852 9.02197 57.5012 8.92628 57.5171 8.83059C57.246 8.78274 57.0227 8.63921 56.8473 8.43188C56.5283 8.51163 56.3051 8.79869 56.3051 9.11766C56.3051 9.46852 56.5602 9.77153 56.9111 9.81938C57.0546 9.628 57.2779 9.48447 57.5171 9.42067C57.5012 9.32498 57.4852 9.22929 57.4852 9.11766Z" fill="black"/>
<path d="M58.5696 11.2228C58.3942 11.3982 58.155 11.5258 57.9158 11.5577C57.8839 11.6534 57.8679 11.7331 57.8679 11.8288C57.8679 12.2116 58.1869 12.5305 58.5696 12.5305C58.9683 12.5305 59.2714 12.2116 59.2714 11.8288C59.2714 11.7331 59.2554 11.6374 59.2235 11.5577C58.9843 11.5098 58.7451 11.3982 58.5696 11.2228Z" fill="black"/>
<path d="M57.1662 8.22469C57.2938 8.36822 57.4693 8.46391 57.6606 8.47986C57.6766 8.47986 57.6766 8.47986 57.6925 8.47986C57.7244 8.43201 57.7563 8.40012 57.7882 8.36822C57.9477 8.19279 58.155 8.08115 58.3783 8.04926H58.3942C58.3942 8.03331 58.3942 8.03331 58.3942 8.01736C58.3783 7.93762 58.3624 7.85788 58.3624 7.77814C58.3624 7.6984 58.3783 7.61866 58.3942 7.53891C58.2986 7.25185 58.0274 7.07642 57.7244 7.07642C57.3257 7.07642 57.0227 7.39538 57.0227 7.77814C57.0227 7.87383 57.0387 7.96951 57.0705 8.04926C57.0865 8.11305 57.1184 8.17684 57.1662 8.22469Z" fill="black"/>
<path d="M59.4308 7.0603C59.1278 7.0603 58.8567 7.25168 58.761 7.53875C58.7291 7.61849 58.7131 7.69823 58.7131 7.77797C58.7131 7.85771 58.7291 7.93745 58.761 8.01719C58.761 8.03314 58.7769 8.04909 58.7769 8.06504C59.0002 8.11288 59.1916 8.20857 59.3511 8.36805C59.5424 8.16073 59.8136 8.04909 60.1006 8.04909C60.1325 7.96935 60.1485 7.87366 60.1485 7.79392C60.1485 7.37926 59.8295 7.0603 59.4308 7.0603Z" fill="black"/>
<path d="M60.2921 8.41597C60.2283 8.40003 60.1486 8.40002 60.0848 8.40002C59.8934 8.41597 59.702 8.51166 59.5745 8.6552C59.5904 8.70304 59.6223 8.75089 59.6383 8.81468C59.6702 8.91037 59.6861 9.00606 59.6861 9.11769C59.6861 9.21338 59.6702 9.32502 59.6383 9.42071C59.8775 9.4845 60.1007 9.62803 60.2443 9.83536C60.5951 9.78752 60.8503 9.4845 60.8503 9.11769C60.8503 8.78278 60.627 8.49571 60.2921 8.41597Z" fill="black"/>
<path d="M58.3144 10.7763C58.2825 10.6807 58.2666 10.569 58.2666 10.4733C58.2666 10.3776 58.2825 10.2819 58.2985 10.1863C58.0912 10.1384 57.9157 10.0268 57.7562 9.88324C57.7243 9.85135 57.6924 9.81945 57.6606 9.77161C57.6446 9.77161 57.6287 9.77161 57.6127 9.77161C57.4692 9.8035 57.3416 9.88324 57.2299 9.99488C57.1821 10.0587 57.1343 10.1225 57.1024 10.1863C57.0705 10.266 57.0386 10.3617 57.0386 10.4574C57.0386 10.8242 57.3097 11.1272 57.6765 11.1591C57.7562 11.175 57.836 11.1591 57.9157 11.1431C58.0593 11.1113 58.1709 11.0315 58.2666 10.9358C58.2825 10.9199 58.2985 10.888 58.3144 10.872C58.3463 10.8561 58.3304 10.8242 58.3144 10.7763Z" fill="black"/>
<path d="M59.8934 10.0108C59.7818 9.88324 59.6382 9.8035 59.4788 9.77161C59.4628 9.77161 59.4628 9.77161 59.4469 9.77161C59.415 9.8035 59.3831 9.85135 59.3512 9.88324C59.2076 10.0268 59.0163 10.1384 58.8089 10.1863C58.7611 10.2022 58.7292 10.2022 58.6813 10.2022C58.6654 10.2182 58.6654 10.2501 58.6494 10.2819C58.6335 10.3457 58.6176 10.4095 58.6176 10.4733C58.6176 10.5371 58.6335 10.6009 58.6494 10.6647C58.6654 10.6966 58.6654 10.7285 58.6813 10.7604C58.6973 10.8082 58.7292 10.8561 58.7611 10.888C58.777 10.9199 58.793 10.9358 58.8249 10.9518C58.9206 11.0475 59.0482 11.1272 59.1757 11.1591C59.2555 11.175 59.3352 11.191 59.415 11.175C59.7818 11.1431 60.0529 10.8401 60.0529 10.4733C60.0529 10.3776 60.0369 10.2979 60.005 10.2022C59.9891 10.1384 59.9413 10.0746 59.8934 10.0108Z" fill="black"/>
<path d="M59.3033 9.11769C59.3033 9.5164 58.9843 9.83536 58.5856 9.83536C58.1869 9.83536 57.8679 9.5164 57.8679 9.11769C57.8679 8.71899 58.1869 8.40002 58.5856 8.40002C58.9683 8.40002 59.3033 8.71899 59.3033 9.11769Z" fill="black"/>
<path d="M38.8577 9.11766C38.8577 9.02197 38.8418 8.92628 38.8258 8.83059C39.0969 8.78274 39.3202 8.63921 39.4956 8.43188C39.8146 8.51163 40.0379 8.79869 40.0379 9.11766C40.0379 9.46852 39.7827 9.77153 39.4318 9.81938C39.2883 9.628 39.065 9.48447 38.8258 9.42067C38.8418 9.32498 38.8577 9.22929 38.8577 9.11766Z" fill="black"/>
<path d="M37.7573 11.2228C37.9327 11.3982 38.156 11.5258 38.4111 11.5577C38.443 11.6534 38.459 11.7331 38.459 11.8288C38.459 12.2116 38.14 12.5305 37.7573 12.5305C37.3745 12.5305 37.0555 12.2116 37.0555 11.8288C37.0555 11.7331 37.0715 11.6374 37.1034 11.5577C37.3586 11.5098 37.5978 11.3982 37.7573 11.2228Z" fill="black"/>
<path d="M39.1766 8.22469C39.049 8.36822 38.8736 8.46391 38.6822 8.47986C38.6663 8.47986 38.6663 8.47986 38.6503 8.47986C38.6184 8.43201 38.5865 8.40012 38.5546 8.36822C38.3952 8.19279 38.1878 8.08115 37.9646 8.04926H37.9486C37.9486 8.03331 37.9486 8.03331 37.9486 8.01736C37.9646 7.93762 37.9805 7.85788 37.9805 7.77814C37.9805 7.6984 37.9805 7.61866 37.9486 7.53891C38.0443 7.25185 38.3154 7.07642 38.6184 7.07642C39.0171 7.07642 39.3361 7.39538 39.3361 7.77814C39.3361 7.87383 39.3201 7.96951 39.2723 8.04926C39.2564 8.11305 39.2085 8.17684 39.1766 8.22469Z" fill="black"/>
<path d="M36.896 7.0603C37.199 7.0603 37.4701 7.25168 37.5658 7.53875C37.5977 7.61849 37.6137 7.69823 37.6137 7.77797C37.6137 7.85771 37.5977 7.93745 37.5658 8.01719C37.5658 8.03314 37.5499 8.04909 37.5499 8.06504C37.3266 8.11288 37.1352 8.20857 36.9758 8.36805C36.7844 8.16073 36.5133 8.04909 36.2262 8.04909C36.1943 7.96935 36.1783 7.87366 36.1783 7.79392C36.1943 7.37926 36.5133 7.0603 36.896 7.0603Z" fill="black"/>
<path d="M36.0349 8.41597C36.0987 8.40003 36.1784 8.40002 36.2422 8.40002C36.4336 8.41597 36.625 8.51166 36.7526 8.6552C36.7366 8.70304 36.7047 8.75089 36.6888 8.81468C36.6569 8.91037 36.6569 9.00606 36.6569 9.11769C36.6569 9.21338 36.6728 9.32502 36.7047 9.42071C36.4655 9.4845 36.2422 9.62803 36.0987 9.83536C35.7478 9.78752 35.4927 9.4845 35.4927 9.11769C35.4927 8.78278 35.7159 8.49571 36.0349 8.41597Z" fill="black"/>
<path d="M38.0124 10.7763C38.0443 10.6807 38.0603 10.569 38.0603 10.4733C38.0603 10.3776 38.0443 10.2819 38.0284 10.1863C38.2357 10.1384 38.4111 10.0268 38.5706 9.88324C38.6025 9.85135 38.6344 9.81945 38.6503 9.77161C38.6663 9.77161 38.6822 9.77161 38.6982 9.77161C38.8417 9.8035 38.9852 9.88324 39.0809 9.99488C39.1288 10.0587 39.1766 10.1225 39.2085 10.1863C39.2404 10.266 39.2723 10.3617 39.2723 10.4574C39.2723 10.8242 39.0012 11.1272 38.6344 11.1591C38.5546 11.175 38.4749 11.1591 38.3952 11.1431C38.2676 11.1113 38.14 11.0315 38.0443 10.9358C38.0284 10.9199 38.0124 10.888 37.9965 10.872C37.9965 10.8561 38.0124 10.8242 38.0124 10.7763Z" fill="black"/>
<path d="M36.4335 10.0108C36.5452 9.88324 36.6887 9.8035 36.8482 9.77161C36.8641 9.77161 36.8641 9.77161 36.8801 9.77161C36.912 9.8035 36.9439 9.85135 36.9758 9.88324C37.1193 10.0268 37.3107 10.1384 37.518 10.1863C37.5499 10.2022 37.5977 10.2022 37.6456 10.2022C37.6615 10.2182 37.6615 10.2501 37.6775 10.2819C37.6934 10.3457 37.7094 10.4095 37.7094 10.4733C37.7094 10.5371 37.7094 10.6009 37.6775 10.6647C37.6615 10.6966 37.6615 10.7285 37.6456 10.7604C37.6296 10.8082 37.5977 10.8561 37.5659 10.888C37.5499 10.9199 37.534 10.9358 37.5021 10.9518C37.4064 11.0475 37.2788 11.1272 37.1512 11.1591C37.0715 11.175 36.9917 11.191 36.912 11.175C36.5452 11.1431 36.274 10.8401 36.274 10.4733C36.274 10.3776 36.29 10.2979 36.3219 10.2022C36.3538 10.1384 36.3857 10.0746 36.4335 10.0108Z" fill="black"/>
<path d="M38.4909 9.11769C38.4909 9.5164 38.1719 9.83536 37.7732 9.83536C37.3745 9.83536 37.0555 9.5164 37.0555 9.11769C37.0555 8.71899 37.3745 8.40002 37.7732 8.40002C38.156 8.40002 38.4909 8.71899 38.4909 9.11769Z" fill="black"/>
<path d="M47.0549 22.6257C47.0549 22.53 47.0709 22.4343 47.0868 22.3386C46.8157 22.2908 46.5924 22.1473 46.417 21.9399C46.098 22.0197 45.8748 22.3067 45.8748 22.6257C45.8748 22.9766 46.1299 23.2796 46.4808 23.3274C46.6243 23.1361 46.8476 22.9925 47.0868 22.9287C47.0709 22.8171 47.0549 22.7214 47.0549 22.6257Z" fill="black"/>
<path d="M48.1555 24.7148C47.9801 24.8903 47.7409 25.0179 47.5017 25.0498C47.4698 25.1454 47.4379 25.2252 47.4379 25.3209C47.4379 25.7196 47.7568 26.0226 48.1555 26.0226C48.5383 26.0226 48.8573 25.7036 48.8573 25.3209C48.8573 25.2252 48.8413 25.1295 48.7935 25.0498C48.5542 25.0179 48.331 24.9062 48.1555 24.7148Z" fill="black"/>
<path d="M46.7521 21.7327C46.8796 21.8762 47.0551 21.9719 47.2464 21.9879C47.2624 21.9879 47.2624 21.9879 47.2783 21.9879C47.3102 21.956 47.3421 21.9081 47.374 21.8762C47.5335 21.7008 47.7408 21.5892 47.9641 21.5573H47.9801C47.9801 21.5413 47.9801 21.5413 47.9801 21.5254C47.9641 21.4456 47.9482 21.3659 47.9482 21.2861C47.9482 21.2064 47.9641 21.1267 47.9801 21.0469C47.8844 20.7599 47.6133 20.5685 47.3102 20.5685C46.9115 20.5685 46.6085 20.8874 46.6085 21.2702C46.6085 21.3659 46.6245 21.4616 46.6564 21.5413C46.6723 21.6211 46.7042 21.6689 46.7521 21.7327Z" fill="black"/>
<path d="M49.0166 20.5685C48.7136 20.5685 48.4425 20.7599 48.3468 21.0469C48.3149 21.1267 48.299 21.2064 48.299 21.2861C48.299 21.3659 48.3149 21.4456 48.3468 21.5254C48.3468 21.5413 48.3627 21.5573 48.3627 21.5732C48.586 21.6211 48.7774 21.7168 48.9369 21.8762C49.1283 21.6689 49.3994 21.5573 49.6864 21.5573C49.7183 21.4775 49.7343 21.3978 49.7343 21.3021C49.7343 20.8874 49.4153 20.5685 49.0166 20.5685Z" fill="black"/>
<path d="M49.8778 21.924C49.814 21.9081 49.7343 21.9081 49.6705 21.9081C49.4791 21.924 49.2877 22.0197 49.1602 22.1792C49.1921 22.227 49.208 22.2749 49.224 22.3387C49.2558 22.4344 49.2718 22.5301 49.2718 22.6417C49.2718 22.7374 49.2558 22.849 49.224 22.9447C49.4632 23.0085 49.6864 23.152 49.83 23.3594C50.1808 23.3115 50.436 23.0085 50.436 22.6417C50.436 22.2908 50.1968 22.0038 49.8778 21.924Z" fill="black"/>
<path d="M47.9003 24.2844C47.8684 24.1887 47.8525 24.077 47.8525 23.9813C47.8525 23.8857 47.8684 23.79 47.8844 23.6943C47.6771 23.6464 47.5016 23.5348 47.3581 23.3753C47.3262 23.3434 47.2943 23.3115 47.2783 23.2637C47.2624 23.2637 47.2465 23.2637 47.2305 23.2637C47.087 23.2956 46.9594 23.3753 46.8477 23.4869C46.7999 23.5507 46.7521 23.6145 46.7202 23.6783C46.6883 23.774 46.6564 23.8538 46.6564 23.9654C46.6564 24.3322 46.9275 24.6352 47.2943 24.6671C47.374 24.6671 47.4538 24.6671 47.5335 24.6512C47.6771 24.6193 47.7887 24.5395 47.8844 24.4438C47.9003 24.4279 47.9163 24.396 47.9322 24.38C47.9322 24.3641 47.9163 24.3163 47.9003 24.2844Z" fill="black"/>
<path d="M49.4791 23.5189C49.3675 23.3913 49.224 23.3116 49.0645 23.2797C49.0485 23.2797 49.0485 23.2797 49.0326 23.2797C49.0007 23.3116 48.9688 23.3594 48.9369 23.3913C48.7934 23.5508 48.602 23.6465 48.3947 23.6943C48.3628 23.7103 48.3149 23.7103 48.283 23.7103C48.2671 23.7422 48.2671 23.7581 48.2511 23.79C48.2352 23.8538 48.2192 23.9176 48.2192 23.9814C48.2192 24.0452 48.2352 24.109 48.2511 24.1728C48.2671 24.2047 48.2671 24.2366 48.283 24.2685C48.299 24.3163 48.3309 24.3641 48.3628 24.396C48.3787 24.412 48.3947 24.4439 48.4266 24.4598C48.5223 24.5555 48.6498 24.6353 48.7774 24.6672C48.8572 24.6831 48.9369 24.6831 49.0166 24.6831C49.3835 24.6512 49.6546 24.3322 49.6546 23.9814C49.6546 23.8857 49.6386 23.806 49.6067 23.7103C49.5748 23.6305 49.527 23.5667 49.4791 23.5189Z" fill="black"/>
<path d="M47.5017 22.3388C47.5017 22.3547 47.4857 22.3707 47.4857 22.3866C47.4538 22.4663 47.4379 22.5461 47.4379 22.6258C47.4379 22.7056 47.4538 22.7853 47.4857 22.8651C47.4857 22.881 47.5017 22.897 47.5017 22.9129C47.5336 22.9767 47.5495 23.0245 47.5973 23.0724C47.6133 23.0883 47.6133 23.1043 47.6292 23.1043C47.7409 23.2159 47.8685 23.2957 48.012 23.3275C48.0279 23.3275 48.0598 23.3275 48.0758 23.3435C48.1396 23.3435 48.1874 23.3435 48.2512 23.3435C48.2672 23.3435 48.2991 23.3435 48.315 23.3275C48.4745 23.2957 48.6021 23.2159 48.7137 23.1043C48.7297 23.0883 48.7297 23.0883 48.7456 23.0724C48.7775 23.0245 48.8254 22.9607 48.8413 22.8969L48.8573 22.8651C48.8891 22.7853 48.9051 22.7056 48.9051 22.6099C48.9051 22.5301 48.8891 22.4345 48.8573 22.3547C48.8573 22.3388 48.8413 22.3228 48.8413 22.3228C48.8094 22.275 48.7775 22.2112 48.7456 22.1633C48.7297 22.1314 48.6978 22.1155 48.6818 22.0995C48.6021 22.0357 48.5223 21.972 48.4426 21.9401C48.3629 21.9082 48.2831 21.8922 48.2034 21.8922H48.1874H48.1715C48.0917 21.8922 47.9961 21.9082 47.9163 21.9401C47.8206 21.972 47.7409 22.0198 47.6771 22.0995C47.6452 22.1314 47.6292 22.1474 47.6133 22.1793C47.5495 22.2271 47.5176 22.275 47.5017 22.3388Z" fill="black"/>
<path d="M41.6804 16.039C41.808 15.8955 41.9196 15.72 41.9675 15.5127C41.9994 15.3373 41.9834 15.1459 41.9356 14.9705C41.808 14.5877 41.5528 14.2528 41.2817 13.9658C41.0584 13.7265 40.8033 13.5192 40.5481 13.3119C40.5002 13.28 40.4524 13.2481 40.4205 13.2162C40.4205 13.2162 40.1972 13.4554 40.1972 13.4714C40.0377 13.6627 39.8623 13.8382 39.7028 14.0295C39.5753 13.8541 39.4158 13.7106 39.2244 13.5989C39.0809 13.5033 38.9373 13.4235 38.7778 13.3278C38.7459 13.4235 38.6981 13.5033 38.6343 13.567C38.5546 13.6468 38.4429 13.6787 38.3313 13.6787C38.1559 13.6946 37.9964 13.6468 37.8369 13.6149C37.6615 13.583 37.502 13.5352 37.3266 13.4873C37.183 13.4395 37.0395 13.4076 36.88 13.3597C36.8641 13.5033 36.8322 13.6627 36.8162 13.8063C36.7843 13.9817 36.7524 14.1571 36.7205 14.3326C36.6886 14.492 36.6408 14.6675 36.561 14.811C36.5132 14.9067 36.4335 14.9864 36.3218 15.0343C36.2421 15.0662 36.1464 15.0821 36.0507 15.0662C36.0667 15.2416 36.0826 15.4011 36.0985 15.5765C36.1304 15.7998 36.1942 15.9912 36.2899 16.1825C36.0507 16.2463 35.8115 16.3261 35.5882 16.3899C35.5723 16.3899 35.2533 16.4856 35.2533 16.4856C35.2692 16.5334 35.2692 16.5972 35.2852 16.645C35.349 16.964 35.4447 17.283 35.5563 17.586C35.6998 17.9528 35.8912 18.3356 36.1783 18.6067C36.3059 18.7343 36.4813 18.8299 36.6567 18.8778C36.8481 18.9256 37.0714 18.9097 37.2628 18.8459C37.0554 19.0532 36.8481 19.2605 36.6567 19.4679C36.7365 19.5157 36.8322 19.5636 36.9119 19.5955C37.2468 19.7549 37.5977 19.8825 37.9804 19.9463C38.411 20.0261 38.8895 19.9942 39.2722 19.7549C39.3998 19.6752 39.5115 19.5795 39.5753 19.4519C39.7188 19.1968 39.7347 18.8937 39.6869 18.6067C39.6709 18.5429 39.6709 18.4631 39.6709 18.3993C39.6709 18.3037 39.6709 18.192 39.7188 18.1123C39.7666 18.0325 39.9261 17.9368 40.0218 17.9209C40.1175 17.9049 40.2132 17.9528 40.3089 18.0006C40.3727 18.0325 40.4365 18.0644 40.5002 18.1123C40.7395 18.2718 41.0106 18.3993 41.3136 18.3674C41.4571 18.3515 41.5847 18.2877 41.7123 18.2239C42.0951 17.9847 42.3183 17.57 42.4459 17.1394C42.5416 16.7726 42.5895 16.4058 42.5735 16.0231C42.5735 15.9274 42.5735 15.8317 42.5576 15.736C42.2226 15.8476 41.9515 15.9433 41.6804 16.039ZM42.3183 16.1825C42.1748 16.4696 41.9356 16.7248 41.6804 16.9481C41.5688 17.0278 41.4731 17.1235 41.3614 17.1873C41.202 17.283 41.0265 17.3627 40.8352 17.4265C40.4843 17.5541 40.1175 17.586 39.7507 17.5541C39.6709 17.5541 39.6231 17.5381 39.5434 17.57L39.5115 17.586C39.4477 17.6338 39.4317 17.6976 39.3998 17.7614C39.2722 18.0963 39.0809 18.4312 38.8257 18.6864C38.6981 18.814 38.5386 18.9575 38.3791 19.0532C38.2675 19.133 38.1399 19.1808 38.0283 19.2446C37.7253 19.3881 37.4063 19.4838 37.0714 19.4998C37.0554 19.4998 37.0235 19.4998 37.0235 19.4998L37.0076 19.4519C37.0076 19.4519 37.0395 19.4519 37.0395 19.436C37.1671 19.4041 37.2947 19.3722 37.4222 19.3243C37.6296 19.2446 37.8369 19.133 38.0442 19.0213C38.1878 18.9416 38.3153 18.8459 38.427 18.7183C38.5386 18.6067 38.6503 18.4631 38.7459 18.3356C38.9214 18.1123 39.0968 17.8731 39.2722 17.6338C39.2084 17.6338 39.1606 17.6498 39.0968 17.6498C38.9533 17.6657 38.8257 17.6817 38.6822 17.6976C38.4908 17.7136 38.2834 17.7136 38.0921 17.7136C37.7093 17.6976 37.3266 17.6338 36.9598 17.5062C36.7684 17.4425 36.577 17.3787 36.4016 17.283C36.274 17.2192 36.1464 17.1554 36.0029 17.0756C35.8593 16.9959 35.7317 16.9002 35.5085 16.7407C35.5085 16.7407 35.5244 16.6929 35.5244 16.6769C35.6042 16.7088 36.0029 16.8843 36.1464 16.9481C36.274 17.0119 36.4175 17.0597 36.561 17.1075C36.7205 17.1713 36.896 17.2192 37.0554 17.2511C37.1511 17.267 37.2468 17.2989 37.3425 17.3149C37.4382 17.3308 37.5339 17.3468 37.6136 17.3627C37.805 17.3946 37.9964 17.3946 38.1718 17.4106C38.3632 17.4106 38.5546 17.4106 38.73 17.4106C38.8257 17.4106 38.9054 17.3946 39.0011 17.3946C39.0968 17.3787 39.1287 17.3627 39.0649 17.267C38.7619 16.8045 38.4748 16.3261 38.2037 15.8476C37.8847 15.2894 37.5658 14.7313 37.2628 14.1731C37.199 14.0455 37.1192 13.9179 37.0554 13.7903C37.0554 13.7903 37.0554 13.7584 37.0714 13.7584C37.0873 13.7425 37.1192 13.7584 37.1192 13.7584C37.199 13.8701 37.2947 13.9976 37.3744 14.1093C37.7412 14.6356 38.108 15.1619 38.4748 15.6882C38.7938 16.1347 39.1128 16.5972 39.3839 17.0756C39.4477 17.1713 39.4796 17.1554 39.5274 17.0756C39.5752 16.9959 39.6231 16.9162 39.6709 16.8364C39.7666 16.6769 39.8464 16.5015 39.9102 16.3261C39.9899 16.1507 40.0537 15.9752 40.1175 15.7998C40.1494 15.7041 40.1653 15.6244 40.1972 15.5287C40.2291 15.433 40.2451 15.3373 40.261 15.2416C40.3089 15.0821 40.3248 14.9067 40.3567 14.7313C40.3727 14.5877 40.3886 14.4442 40.3886 14.3007C40.3886 14.1412 40.4046 13.7106 40.4046 13.6308L40.4683 13.6468C40.5162 13.9179 40.5481 14.0774 40.564 14.2369C40.58 14.3804 40.58 14.5239 40.58 14.6834C40.58 14.8748 40.564 15.0821 40.5321 15.2735C40.4843 15.6563 40.3727 16.0231 40.2291 16.3739C40.1494 16.5494 40.0696 16.7248 39.974 16.9002C39.9102 17.0119 39.8304 17.1235 39.7507 17.2511C39.7188 17.2989 39.6869 17.3468 39.655 17.4106C39.9421 17.3468 40.2291 17.2989 40.5162 17.2351C40.6757 17.2032 40.8352 17.1713 40.9946 17.1075C41.1541 17.0597 41.2977 16.98 41.4252 16.8843C41.6166 16.7567 41.808 16.6291 41.9675 16.4696C42.0632 16.3739 42.1429 16.2782 42.2386 16.1666C42.2386 16.1507 42.2705 16.1347 42.2705 16.1347L42.3024 16.1666C42.3502 16.1347 42.3343 16.1666 42.3183 16.1825Z" fill="black"/>
<path d="M53.8171 15.752C53.8011 15.8477 53.8011 15.9434 53.8011 16.0391C53.8011 16.4059 53.833 16.7887 53.9447 17.1555C54.0723 17.5861 54.2955 18.0007 54.6783 18.2399C54.8059 18.3197 54.9335 18.3835 55.077 18.3835C55.3641 18.4154 55.6511 18.2878 55.8904 18.1283C55.9542 18.0964 56.0179 18.0486 56.0817 18.0167C56.1615 17.9688 56.2731 17.921 56.3688 17.9369C56.4645 17.9529 56.608 18.0326 56.6718 18.1283C56.7197 18.208 56.7197 18.3197 56.7197 18.4154C56.7197 18.4951 56.7037 18.5589 56.7037 18.6227C56.6559 18.9098 56.6718 19.2128 56.8154 19.468C56.8951 19.5955 57.0067 19.6912 57.1184 19.771C57.5011 20.0102 57.9796 20.0421 58.4102 19.9623C58.777 19.8986 59.1438 19.771 59.4787 19.6115C59.5584 19.5636 59.6541 19.5317 59.7339 19.468C59.5265 19.2606 59.3192 19.0533 59.1278 18.846C59.3192 18.9098 59.5265 18.9417 59.7339 18.8779C59.9093 18.83 60.0688 18.7343 60.2123 18.6068C60.5153 18.3356 60.6908 17.9529 60.8343 17.5861C60.9459 17.2831 61.0416 16.9641 61.1054 16.6451C61.1214 16.5973 61.1214 16.5335 61.1373 16.4856C61.1373 16.4856 60.8343 16.39 60.8024 16.39C60.5632 16.3262 60.3239 16.2464 60.0847 16.1826C60.1804 15.9913 60.2442 15.7839 60.2761 15.5766C60.2921 15.4012 60.308 15.2417 60.3239 15.0663C60.2283 15.0822 60.1326 15.0663 60.0528 15.0344C59.9571 14.9865 59.8774 14.9068 59.8296 14.8111C59.7498 14.6676 59.702 14.4921 59.6701 14.3326C59.6382 14.1572 59.5903 13.9818 59.5744 13.8064C59.5425 13.6628 59.5265 13.5033 59.5106 13.3598C59.3671 13.4076 59.2235 13.4555 59.064 13.4874C58.8886 13.5352 58.7291 13.5831 58.5537 13.615C58.3942 13.6469 58.2188 13.6947 58.0593 13.6788C57.9477 13.6628 57.836 13.6309 57.7563 13.5671C57.6925 13.5033 57.6447 13.4236 57.6128 13.3279C57.4692 13.4076 57.3097 13.5033 57.1662 13.5831C56.9908 13.6947 56.8313 13.8542 56.7037 14.0137C56.5442 13.8223 56.3688 13.6469 56.2093 13.4555C56.1934 13.4395 55.986 13.2003 55.986 13.2003C55.9382 13.2322 55.8904 13.2641 55.8585 13.296C55.6033 13.4874 55.3481 13.7107 55.1248 13.9499C54.8537 14.237 54.5826 14.5719 54.471 14.9546C54.4231 15.13 54.3912 15.3214 54.4391 15.4969C54.4869 15.7042 54.5826 15.8796 54.7261 16.0231C54.7261 16.0231 54.7261 16.0231 54.7102 16.0231C54.3593 15.9434 54.0882 15.8477 53.8171 15.752ZM53.9766 16.1348L54.0085 16.1029C54.0085 16.1029 54.0244 16.1188 54.0244 16.1348C54.1042 16.2464 54.1999 16.3421 54.2955 16.4378C54.455 16.5973 54.6464 16.7408 54.8378 16.8525C54.9813 16.9481 55.1248 17.0279 55.2843 17.0757C55.4438 17.1395 55.6033 17.1714 55.7628 17.2033C56.0498 17.2671 56.3369 17.3149 56.624 17.3787C56.5921 17.3309 56.5602 17.2831 56.5283 17.2193C56.4645 17.1076 56.3848 16.996 56.305 16.8684C56.2093 16.7089 56.1136 16.5175 56.0498 16.3421C55.9063 15.9913 55.7947 15.6244 55.7468 15.2417C55.7149 15.0503 55.699 14.843 55.699 14.6516C55.699 14.5081 55.699 14.3645 55.7149 14.2051C55.7309 14.0456 55.7468 13.8861 55.8106 13.615L55.8744 13.599C55.8744 13.6788 55.8904 14.1094 55.8904 14.2688C55.8904 14.4124 55.9063 14.5559 55.9223 14.6994C55.9382 14.8749 55.9701 15.0503 56.0179 15.2098C56.0339 15.3055 56.0658 15.4012 56.0817 15.4969C56.1136 15.5925 56.1296 15.6723 56.1615 15.768C56.2253 15.9434 56.2891 16.1188 56.3529 16.2943C56.4326 16.4697 56.5123 16.6451 56.5921 16.8046C56.6399 16.8843 56.6878 16.9641 56.7356 17.0438C56.7835 17.1236 56.8154 17.1395 56.8791 17.0438C57.1662 16.5654 57.4692 16.1029 57.8041 15.6563C58.1709 15.1301 58.5378 14.6038 58.9046 14.0775C58.9843 13.9658 59.08 13.8382 59.1597 13.7266C59.1597 13.7266 59.1757 13.7107 59.2076 13.7266C59.2235 13.7426 59.2235 13.7585 59.2235 13.7585C59.1597 13.8861 59.08 14.0137 59.0162 14.1413C58.6972 14.6994 58.3783 15.2576 58.0753 15.8158C57.8041 16.2943 57.5171 16.7727 57.2141 17.2352C57.1503 17.3309 57.1822 17.3468 57.2619 17.3628C57.3576 17.3787 57.4373 17.3787 57.533 17.3787C57.7244 17.3947 57.9158 17.3947 58.0912 17.3787C58.2826 17.3787 58.474 17.3628 58.6494 17.3309C58.7451 17.315 58.8408 17.299 58.9205 17.2831C59.0162 17.2671 59.1119 17.2352 59.2076 17.2193C59.383 17.1874 59.5425 17.1395 59.702 17.0757C59.8455 17.0279 59.9731 16.98 60.1166 16.9162C60.2602 16.8525 60.6589 16.677 60.7386 16.6451C60.7386 16.6611 60.7546 16.7089 60.7546 16.7089C60.5313 16.8684 60.4037 16.9641 60.2602 17.0438C60.1326 17.1236 60.005 17.1874 59.8615 17.2512C59.686 17.3309 59.4946 17.4106 59.3033 17.4744C58.9365 17.5861 58.5537 17.6658 58.1709 17.6818C57.9796 17.6977 57.7722 17.6818 57.5809 17.6658C57.4373 17.6499 57.3097 17.6339 57.1662 17.618C57.1024 17.618 57.0546 17.602 56.9908 17.602C57.1662 17.8253 57.3416 18.0645 57.5171 18.3037C57.6128 18.4313 57.7244 18.5749 57.836 18.6865C57.9477 18.7981 58.0912 18.8938 58.2188 18.9895C58.4102 19.1011 58.6175 19.2128 58.8408 19.2925C58.9684 19.3404 59.0959 19.3723 59.2235 19.4042C59.2395 19.4042 59.2554 19.4201 59.2554 19.4201L59.2395 19.468C59.2395 19.468 59.2076 19.468 59.1916 19.468C58.8567 19.452 58.5378 19.3563 58.2347 19.2128C58.1072 19.149 57.9955 19.1011 57.8839 19.0214C57.7244 18.9257 57.5809 18.7822 57.4373 18.6546C57.1822 18.3994 56.9908 18.0805 56.8632 17.7296C56.8313 17.6658 56.8154 17.602 56.7516 17.5542L56.7197 17.5382C56.6559 17.5063 56.5921 17.5063 56.5123 17.5223C56.1455 17.5542 55.7787 17.5223 55.4279 17.3947C55.2524 17.3309 55.0611 17.2512 54.9016 17.1555C54.7899 17.0757 54.6783 16.996 54.5826 16.9162C54.3274 16.7089 54.1042 16.4537 53.9447 16.1507C53.9925 16.1667 53.9766 16.1348 53.9766 16.1348Z" fill="black"/>
<path d="M56.1296 18.7343C56.0818 18.6865 55.6193 18.8778 55.5874 18.9097C54.6305 20.0899 53.4184 19.9623 52.7965 19.7869H52.8124C53.3068 19.5317 53.6417 19.0214 53.6417 18.4951C53.6417 17.7934 53.0995 17.2192 52.4137 17.2192H52.3818C52.1426 17.2192 51.9353 17.299 51.7598 17.4425C51.5525 17.602 51.4409 17.8572 51.4249 18.1442C51.4249 18.1921 51.4249 18.3994 51.5684 18.5589C51.6641 18.6546 51.7758 18.7184 51.9193 18.7184C51.9353 18.7184 51.9672 18.7184 51.9672 18.7184C52.1745 18.7184 52.334 18.5589 52.334 18.3516C52.334 18.1761 52.2223 18.0166 52.0628 17.9688C52.1426 17.8412 52.3021 17.8093 52.3818 17.8093C52.7646 17.8093 53.0357 18.1123 53.0357 18.511C53.0357 18.9097 52.6529 19.3403 52.0309 19.3403H52.015C51.9831 19.3403 51.8555 19.3403 51.6641 19.2925C51.6322 19.2766 51.5366 19.2606 51.5047 19.2287C51.0741 19.0214 50.468 18.7822 49.6387 18.7822C48.9051 18.7822 48.4267 19.0692 48.1715 19.3084C47.9004 19.0692 47.4379 18.7822 46.7043 18.7822C45.8749 18.7822 45.2689 19.0214 44.8383 19.2287C44.8064 19.2447 44.7107 19.2766 44.6788 19.2925C44.4875 19.3244 44.3599 19.3403 44.328 19.3403H44.312C43.69 19.3403 43.3073 18.9097 43.3073 18.511C43.3073 18.0964 43.5784 17.8093 43.9612 17.8093C44.0409 17.8093 44.2004 17.8412 44.2801 17.9688C44.1207 18.0166 43.9931 18.1602 44.009 18.3516C44.009 18.5589 44.1685 18.7184 44.3758 18.7184C44.3758 18.7184 44.4077 18.7184 44.4237 18.7184C44.5672 18.7024 44.6788 18.6546 44.7745 18.5589C44.9181 18.3994 44.9181 18.1761 44.9181 18.1442C44.9021 17.8572 44.7905 17.6179 44.5831 17.4425C44.4077 17.299 44.2004 17.2192 43.9612 17.2192H43.9293C43.2435 17.2192 42.7013 17.7934 42.7013 18.4951C42.7013 19.0214 43.0362 19.5317 43.5306 19.7869H43.5465C42.9245 19.9623 41.7125 20.0899 40.7556 18.9097C40.7237 18.8778 40.2612 18.6865 40.2133 18.7343C40.1655 18.7822 40.1655 19.2447 40.1974 19.3084C40.9789 20.2972 41.9357 20.5684 42.7013 20.5843C43.5784 20.5843 44.2801 20.2494 44.2961 20.2494C44.6469 20.1059 44.934 19.9783 44.934 19.9783C45.3965 19.7709 45.9228 19.5317 46.6883 19.5317C47.4698 19.5317 47.8047 19.9464 47.8685 20.0421L47.9163 20.1059C47.9801 20.2015 48.0598 20.3132 48.1396 20.4248C48.1555 20.4408 48.1555 20.4567 48.1715 20.4567C48.1874 20.4567 48.1874 20.4408 48.2034 20.4248C48.2831 20.3132 48.3629 20.2015 48.4267 20.1059L48.4745 20.0421C48.5383 19.9623 48.8732 19.5317 49.6547 19.5317C50.4361 19.5317 50.9465 19.7709 51.409 19.9783C51.409 19.9783 51.696 20.1059 52.0469 20.2494C52.0628 20.2494 52.7646 20.6003 53.6417 20.5843C54.4232 20.5843 55.3641 20.3132 56.1456 19.3084C56.1775 19.2447 56.1615 18.7662 56.1296 18.7343Z" fill="black"/>
<path d="M46.7201 13.2002L45.3486 14.7153C45.3486 14.7153 47.4856 16.1188 49.543 15.417C49.543 15.417 52.0787 14.6196 52.6688 12.4188C52.6688 12.4188 53.1632 10.2658 50.5477 10.1701L53.1153 7.37917C53.1153 7.37917 50.9304 7.53865 49.7503 6.6934L51.361 4.98694C51.361 4.98694 49.6865 5.44944 48.1874 4.17358C48.1874 4.17358 46.8796 5.28996 45.6675 5.48133C45.6675 5.48133 45.9706 5.54513 45.9706 6.05547V10.9197L47.6292 9.88303V5.97573C47.6292 5.97573 48.5063 6.64555 49.5908 6.74124L47.9003 8.59123C47.9003 8.59123 48.5063 8.25632 49.0326 8.59123C49.0326 8.59123 49.9098 9.10157 50.6912 8.94209L48.5542 11.2705C48.5542 11.2705 47.4537 11.9882 45.7313 10.9356C45.7313 10.9356 43.0999 8.76666 45.8111 6.74124C45.8111 6.74124 44.0887 6.27874 43.3072 8.33606C43.3072 8.33606 42.5417 10.521 44.4555 12.2593C44.4555 12.2753 45.54 13.2002 46.7201 13.2002ZM48.7615 11.2865C48.7615 11.2865 50.4839 11.0951 50.9304 12.658C50.9304 12.658 51.2175 13.8382 49.5111 14.0774C49.5111 14.0774 48.2671 14.189 46.9275 13.1365L48.7615 11.2865Z" fill="black"/>
<path d="M57.3735 5.03492C57.1183 5.03492 56.8632 5.09871 56.6399 5.21035C56.4963 5.29009 56.3369 5.33793 56.1774 5.33793C55.667 5.33793 55.2524 4.90733 55.2524 4.39699C55.2524 3.8707 55.667 3.45605 56.1774 3.45605C56.4644 3.45605 56.7356 3.59958 56.911 3.8388L56.9269 3.85475H56.911C56.7037 3.91854 56.5601 4.10992 56.5601 4.31725C56.5601 4.58837 56.7834 4.7957 57.0386 4.7957C57.1502 4.7957 57.2938 4.7319 57.3735 4.66811C57.8519 4.3013 57.6446 3.75906 57.6127 3.69527C57.1981 2.78622 56.3369 2.77028 56.1774 2.77028C55.4916 2.77028 54.8856 3.21682 54.6623 3.88665V0.64917H52.8442V2.02071H50.9783V0.64917H49.1123V2.02071H47.2464V0.64917H45.3805V2.02071H43.4986V0.64917H41.7124V3.88665C41.4891 3.21682 40.8831 2.77028 40.1973 2.77028C40.0378 2.77028 39.1607 2.78622 38.762 3.69527C38.7301 3.75906 38.5228 4.3013 39.0012 4.66811C39.0809 4.7319 39.2245 4.7957 39.3361 4.7957C39.6072 4.7957 39.8146 4.57242 39.8146 4.31725C39.8146 4.10992 39.671 3.91854 39.4637 3.85475H39.4477L39.4637 3.8388C39.6391 3.59958 39.9102 3.45605 40.1973 3.45605C40.7077 3.45605 41.1223 3.88665 41.1223 4.39699C41.1223 4.92328 40.7077 5.33793 40.1973 5.33793C40.0378 5.33793 39.8783 5.29009 39.7348 5.21035C39.5115 5.09871 39.2564 5.03492 39.0012 5.03492C38.1559 5.03492 37.4542 5.68879 37.4542 6.50215L37.8051 6.90085L38.14 6.50215C38.14 6.07155 38.5387 5.72069 39.0171 5.72069C39.1607 5.72069 39.3042 5.75258 39.4477 5.81638C39.687 5.94396 39.9581 6.0237 40.2292 6.0237C40.915 6.0237 41.521 5.57716 41.7443 4.90733V10.9995C41.7443 12.7379 42.4141 14.3805 43.6421 15.6086C44.8701 16.8525 46.4968 17.5223 48.2192 17.5223C49.9416 17.5223 51.5684 16.8525 52.7964 15.6086C53.9925 14.3965 54.6783 12.706 54.6942 10.9995V4.90733C54.9175 5.57716 55.5235 6.0237 56.2093 6.0237C56.4804 6.0237 56.7515 5.95991 56.9907 5.81638C57.1343 5.75258 57.2778 5.72069 57.4213 5.72069C57.8998 5.72069 58.2825 6.07155 58.2985 6.50215L58.6334 6.90085L58.9843 6.50215C58.9045 5.68879 58.2187 5.03492 57.3735 5.03492ZM53.7852 10.9995C53.7852 14.2211 51.2813 16.6611 48.1554 16.6611C44.9658 16.6611 42.5576 14.0935 42.5576 10.9995V3.48794H53.7692V10.9995H53.7852Z" fill="black"/>
<path d="M21.5061 30.6477C20.8841 30.6477 20.4535 31.0783 20.4535 31.7003C20.4535 32.2425 20.8203 32.6731 21.2987 32.6731C21.3944 32.6731 21.4901 32.6572 21.5539 32.6412C21.6018 32.6253 21.6337 32.6253 21.6656 32.6253C21.7772 32.6253 21.8091 32.7369 21.8091 32.8964C21.8091 33.4386 21.3785 34.1085 20.6449 34.8261L20.597 34.858C20.5651 34.8899 20.5492 34.9218 20.5492 34.9697C20.5492 35.0653 20.613 35.1291 20.6927 35.1291C20.7246 35.1291 20.7565 35.1132 20.7725 35.0972L20.8203 35.0653C21.8729 34.1563 22.6224 33.1516 22.6224 32.1787C22.6384 31.2218 22.0802 30.6477 21.5061 30.6477Z" fill="black"/>
<path d="M37.3107 35.0493C34.9663 35.0493 33.2599 36.995 33.2599 39.6743C33.2599 42.4812 34.9504 44.2833 37.5499 44.2833C39.4797 44.2833 40.7715 43.1031 41.1383 41.1894C41.1383 41.1734 41.1383 41.1575 41.1383 41.1575C41.1383 41.0458 41.0426 40.9501 40.915 40.9501C40.8353 40.9501 40.7555 40.998 40.7236 41.0777C40.7077 41.1256 40.6917 41.1575 40.6917 41.1894C40.6598 41.2851 40.6598 41.317 40.6598 41.317C40.2452 42.7044 39.2245 43.5018 37.9486 43.5018C36.2422 43.5018 35.381 42.2579 35.3491 39.8178C35.3491 39.754 35.3969 39.7062 35.4607 39.7062H40.915C41.0426 39.7062 41.1383 39.6105 41.1383 39.4829C41.0266 36.8036 39.6073 35.0493 37.3107 35.0493ZM39.3042 39.0045C39.3042 39.0683 39.2564 39.1161 39.1926 39.1161H35.4448C35.381 39.1161 35.3332 39.0683 35.3332 39.0045V38.8769C35.3332 36.7239 36.0189 35.5437 37.2788 35.5437C38.5547 35.5437 39.2883 36.692 39.2883 38.6855V39.0045H39.3042Z" fill="black"/>
<path d="M33.2438 43.7254C32.4623 43.6935 31.9041 43.4702 31.8882 43.0715V32.769V30.7435C31.8882 30.6 31.8403 30.5203 31.6649 30.5203C31.649 30.5203 31.633 30.5203 31.6011 30.5203C30.7559 30.616 29.6395 30.6319 28.7145 30.6319C28.5231 30.6319 28.3317 30.6319 28.1563 30.6319C28.0287 30.6319 27.9171 30.7435 27.9171 30.8711C27.9171 30.9987 28.0128 31.1103 28.1404 31.1103C29.2567 31.1422 30.0701 31.3655 30.0701 32.131V33.0401V33.1517V34.4435V36.5327C30.0701 36.5327 30.0701 36.5487 30.0541 36.5487H30.0382C29.5279 35.6396 28.5231 35.0495 27.5024 35.0495C25.4292 35.0495 23.8822 37.0431 23.8822 39.7862C23.8822 42.6249 25.2537 44.2835 27.3589 44.2835C28.6188 44.2835 29.4003 43.6616 30.0382 42.609H30.0541C30.0701 42.609 30.0701 42.609 30.0701 42.6249V42.6568V44.0124C30.0701 44.14 30.1498 44.2197 30.2615 44.2197H33.1959C33.3235 44.2197 33.4352 44.1081 33.4352 43.9805C33.483 43.837 33.3714 43.7254 33.2438 43.7254ZM30.1179 38.9568V40.2965C30.1179 42.1465 29.2567 43.3904 27.9809 43.3904C26.7369 43.3904 26.0831 42.306 26.0831 39.6905C26.0831 37.0271 26.721 35.8789 27.9809 35.8789C29.2727 35.8789 30.1179 37.0431 30.1179 38.8452V38.9568Z" fill="black"/>
<path d="M65.0605 35.0015C62.6842 35.0015 60.7545 37.0747 60.7545 39.6264C60.7545 42.1941 62.6842 44.2674 65.0605 44.2674C67.389 44.2674 69.3665 42.1462 69.3665 39.6264C69.3665 37.0747 67.4368 35.0015 65.0605 35.0015ZM65.0605 43.773C63.6092 43.773 62.9873 42.4652 62.9873 39.6264C62.9873 36.7877 63.6092 35.4799 65.0605 35.4799C66.5118 35.4799 67.1338 36.7717 67.1338 39.6264C67.1338 42.4812 66.5118 43.773 65.0605 43.773Z" fill="black"/>
<path d="M91.6939 35.0015C89.3177 35.0015 87.3879 37.0747 87.3879 39.6264C87.3879 42.1941 89.3177 44.2674 91.6939 44.2674C94.0224 44.2674 96 42.1462 96 39.6264C96 37.0747 94.0702 35.0015 91.6939 35.0015ZM91.6939 43.773C90.2427 43.773 89.6207 42.4652 89.6207 39.6264C89.6207 36.7877 90.2427 35.4799 91.6939 35.4799C93.1452 35.4799 93.7672 36.7717 93.7672 39.6264C93.7832 42.4812 93.1612 43.773 91.6939 43.773Z" fill="black"/>
<path d="M85.0915 39.132C85.235 39.132 86.1759 39.0204 86.2078 37.6648V37.5851C86.2078 37.3299 86.16 37.0747 86.0324 36.8036C85.5061 35.6394 84.5811 35.2407 83.8953 35.0812C83.6721 35.0334 83.4329 35.0015 83.1777 35.0015H83.1139C80.6579 35.0334 78.6803 36.995 78.6803 39.7062C78.6803 42.3536 80.6738 44.2833 83.1298 44.2833C85.0596 44.2833 86.2876 42.9437 86.4471 40.8544V40.8385C86.4471 40.7109 86.3514 40.6152 86.2238 40.6152C86.0962 40.6152 86.0005 40.7109 86.0005 40.8385V40.8863C85.841 42.4971 84.8044 43.6454 83.5126 43.6454C81.9018 43.6454 80.9449 42.1622 80.9449 39.467C80.9449 36.9471 81.838 35.5437 83.3531 35.5437H83.385C84.326 35.5597 84.9958 36.1338 84.9958 36.7079C84.9958 36.995 84.8363 37.1385 84.6449 37.2183C84.5811 37.2502 84.5173 37.2661 84.4695 37.314C84.4535 37.314 84.4535 37.3299 84.4535 37.3299C84.4535 37.3299 84.4535 37.3299 84.4376 37.3299L84.4216 37.3458L84.4057 37.3618C84.3738 37.3937 84.3419 37.4096 84.31 37.4415C84.2622 37.4734 84.2303 37.5213 84.1984 37.5691C84.1505 37.6329 84.1027 37.7127 84.0708 37.7924C84.0548 37.8402 84.0389 37.8881 84.0389 37.9359C84.0229 37.9997 84.007 38.0635 84.007 38.1433C84.007 38.6855 84.4695 39.148 85.0277 39.148C85.0117 39.132 85.0755 39.132 85.0915 39.132Z" fill="black"/>
<path d="M45.9707 44.2036C46.0983 44.2036 46.2099 44.092 46.2099 43.9644C46.2099 43.8368 46.0983 43.7252 45.9707 43.7252C45.1892 43.6933 44.631 43.47 44.6151 43.0713V42.9756V32.7847V30.7593C44.6151 30.6158 44.5672 30.536 44.3918 30.536C44.3759 30.536 44.3599 30.536 44.328 30.536C43.4828 30.6317 42.0155 30.6476 41.0905 30.6476C40.963 30.6476 40.8513 30.7593 40.8513 30.8869C40.8513 31.0145 40.963 31.1261 41.0905 31.1261C42.0315 31.1899 42.7013 31.461 42.7013 32.1468V32.6571V42.9756V43.0872C42.7013 43.47 42.1272 43.7092 41.3457 43.7411C41.2181 43.7411 41.1065 43.8527 41.1065 43.9803C41.1065 44.1079 41.2181 44.2195 41.3457 44.2195H45.9707V44.2036Z" fill="black"/>
<path d="M55.986 36.9952C58.0114 36.4689 59.3191 35.2888 59.3191 33.7258C59.3191 31.6845 57.4213 30.5203 54.4071 30.5203H51.1377H50.7709H47.9002C47.7726 30.5203 47.661 30.6319 47.661 30.7595C47.661 30.8871 47.7726 30.9987 47.9002 30.9987H48.8093C49.7343 30.9987 49.8619 31.2539 49.8619 32.3065V42.4017C49.8619 43.4383 49.7662 43.7094 48.8093 43.7094H47.9002C47.7726 43.7094 47.661 43.821 47.661 43.9486C47.661 44.0762 47.7726 44.1879 47.9002 44.1879H50.7709H51.1377H53.5459C57.3894 44.1879 59.7338 42.8801 59.7338 40.5198C59.7657 38.6857 58.2187 37.378 55.986 36.9952ZM52.1424 32.4978C52.1424 31.2858 52.2541 31.0306 53.514 31.0147H53.5937C55.7148 31.0466 57.0226 31.6526 57.0226 33.9172C57.0226 35.8789 56.0338 36.7879 53.4024 36.7879H52.1424V32.4978ZM53.7054 43.7254H53.6735C52.3019 43.7094 52.1265 43.5499 52.1265 42.3219V37.2663L53.833 37.2504C56.2092 37.2504 57.4372 38.3349 57.4372 40.4241C57.4372 42.5611 56.2092 43.7254 53.7054 43.7254Z" fill="black"/>
<path d="M74.7251 38.6696C74.5656 38.6218 74.4221 38.5739 74.2626 38.542C72.8432 38.1274 71.9023 37.9679 71.9023 36.9791C71.9023 36.1817 72.5721 35.5278 73.4493 35.5278C74.6613 35.5278 75.9212 36.6761 76.4635 38.2071C76.4954 38.3028 76.5751 38.3507 76.6867 38.3507C76.8143 38.3507 76.91 38.255 76.91 38.1274L76.8781 35.2567C76.8781 35.1291 76.7824 35.0334 76.6548 35.0334C76.5432 35.0334 76.4316 35.1132 76.4316 35.2248C76.3199 35.7192 76.1604 35.9425 75.9212 35.9265C75.8415 35.9265 75.6979 35.8309 75.5225 35.7192C75.1238 35.464 74.4699 35.0334 73.4493 35.0334C71.8544 35.0334 70.6105 36.1658 70.6105 37.617C70.6105 39.18 71.8066 39.8498 73.8798 40.4558C75.5225 40.9343 76.2561 41.2851 76.2561 42.1942C76.2561 43.0554 75.4906 43.773 74.438 43.773C72.8273 43.773 71.5195 42.2739 71.2325 40.3123C71.2325 40.3123 71.2325 40.2644 71.2165 40.2325C71.2006 40.1209 71.1049 40.0412 70.9932 40.0412C70.8656 40.0412 70.77 40.1369 70.77 40.2644L70.6583 44.0442V44.0601C70.6583 44.1877 70.77 44.2834 70.8975 44.2834C71.0092 44.2834 71.0889 44.2196 71.1208 44.1239C71.3122 43.3105 71.4398 43.1989 71.6312 43.1989C71.7268 43.1989 71.8385 43.2946 72.0139 43.4062C72.4924 43.7412 73.2898 44.2993 74.454 44.2993C76.1604 44.2993 77.4841 43.1351 77.4841 41.636C77.5001 40.1847 76.6867 39.2438 74.7251 38.6696Z" fill="black"/>
<path d="M20.7725 40.743C20.6449 40.743 20.5492 40.8386 20.5492 40.9662V42.3218C20.5492 43.1511 20.294 43.4063 19.8634 43.4063C19.3531 43.4063 19.2574 43.0554 19.2574 42.258V40.5197V38.1912C19.2574 35.9904 18.141 35.1451 16.004 35.1451C13.8828 35.1451 12.6229 36.0701 12.6229 37.4417C12.6229 38.2391 13.1492 38.8132 13.8988 38.8132C13.9147 38.8132 13.9466 38.8132 13.9626 38.8132C14.1061 38.8132 14.2497 38.7813 14.3613 38.7175C14.441 38.6856 14.5208 38.6378 14.5846 38.5899C14.7122 38.4783 14.8238 38.3507 14.8876 38.1753C14.9195 38.0956 14.9354 37.9999 14.9514 37.9042C14.9514 37.8882 14.9514 37.8723 14.9514 37.8404V37.8244C14.9514 37.7606 14.9514 37.6809 14.9354 37.6171C14.9195 37.5693 14.9035 37.5214 14.9035 37.4736C14.8716 37.3938 14.8238 37.33 14.7919 37.2503C14.6962 37.1227 14.5846 37.027 14.457 36.9632C14.441 36.9632 14.441 36.9473 14.4251 36.9473C14.4091 36.9313 14.3772 36.9313 14.3613 36.9154C14.1699 36.8356 14.0264 36.8038 14.0264 36.5007C14.0264 36.1339 14.5846 35.6714 15.6531 35.6714C16.8492 35.6714 17.535 36.2296 17.5509 37.6809V37.8563C17.5509 37.968 17.519 38.3667 17.1682 38.558C17.1682 38.558 17.1522 38.574 17.1363 38.574C16.4346 38.9249 15.7009 39.0843 15.1109 39.2598C13.3406 39.7701 12.1764 40.424 12.1764 41.9072C12.1764 43.2947 13.1971 44.2675 14.6803 44.2675C15.8126 44.2675 16.8014 43.7731 17.4871 42.8641C17.5031 42.8481 17.519 42.8481 17.535 42.8481C17.5669 42.8481 17.5828 42.8641 17.5988 42.896C17.8061 43.8209 18.3643 44.2834 19.2733 44.2834C20.4854 44.2834 21.0117 43.6934 21.0117 42.3537V40.9662C20.9957 40.8546 20.9 40.743 20.7725 40.743ZM17.535 40.7589C17.535 40.8386 17.519 41.6201 17.2479 42.1304C17.2479 42.1304 17.232 42.1464 17.232 42.1623C16.7854 42.9279 16.0996 43.4222 15.366 43.4222C14.5527 43.4222 14.0742 42.8481 14.0742 41.8753C14.0742 40.5356 14.9195 40.2486 16.4824 39.483C16.6897 39.3874 16.7854 39.3395 17.1044 39.18C17.1044 39.18 17.1203 39.18 17.1203 39.1641C17.3117 39.0684 17.3755 39.0205 17.519 38.9249H17.535V38.9408V39.18V40.5356V40.7589Z" fill="black"/>
<path d="M0.310913 37.7127C0.310913 44.9372 6.21174 44.5545 6.37122 44.5545C6.54665 44.5545 10.757 44.7777 11.0121 39.0683C11.0121 38.9407 10.9005 38.8291 10.7729 38.8291C10.6453 38.8291 10.5337 38.9407 10.5337 39.0683C10.5337 39.0683 10.2945 43.7411 6.51475 43.6933C6.43501 43.6933 6.35527 43.6933 6.27553 43.6773C4.07468 43.4859 2.99021 41.4605 2.99021 37.5054C2.99021 33.3588 4.07468 31.3015 6.27553 31.2218C6.30743 31.2218 6.35527 31.2218 6.38717 31.2218C8.20526 31.2218 9.49706 32.7528 10.3104 35.9105C10.3104 35.9105 10.3423 36.0381 10.3583 36.1019C10.3902 36.1976 10.4858 36.2774 10.5815 36.2774C10.7091 36.2774 10.8208 36.1657 10.8208 36.0381L10.8048 30.8071C10.8048 30.6636 10.6932 30.552 10.5496 30.552C10.4858 30.552 10.454 30.5679 10.4061 30.5998C10.3902 30.5998 10.3902 30.6158 10.3742 30.6158C10.3742 30.6158 10.3742 30.6158 10.3583 30.6317C10.3583 30.6317 10.3583 30.6317 10.3423 30.6476C10.3423 30.6636 10.3264 30.6636 10.3264 30.6795C10.3264 30.6955 10.3104 30.6955 10.3104 30.7114L10.2785 30.7593L10.2147 30.8709C10.2147 30.8709 9.84792 31.5886 9.70439 31.8119C9.6406 31.9235 9.52896 31.9873 9.40137 31.9873C9.38542 31.9873 9.38542 31.9873 9.36948 31.9873C9.33758 31.9873 9.28974 31.9713 9.24189 31.9394C9.11431 31.8757 8.95482 31.7481 8.73155 31.5886C8.20526 31.1899 7.4557 30.5679 6.22769 30.536H6.21174C6.19579 30.536 6.17984 30.536 6.17984 30.536C5.89277 30.536 5.60571 30.5679 5.33459 30.6317C4.93588 30.7114 4.53718 30.855 4.15442 31.0464C1.88978 32.1308 0.310913 34.8101 0.310913 37.6648V37.7127Z" fill="black"/>
</g>
</svg>
