<svg width="16" height="16" viewBox="0 0 16 16" fill="none" xmlns="http://www.w3.org/2000/svg">
<path d="M12.2294 1.16343H11.6642V0.591297C11.6642 0.434216 11.6018 0.283569 11.4908 0.172497C11.3798 0.0614237 11.2292 -0.000976562 11.0722 -0.000976562C10.9152 -0.000976562 10.7646 0.0614237 10.6536 0.172497C10.5426 0.283569 10.4802 0.434216 10.4802 0.591297V1.16343H4.67452V0.591297C4.67452 0.434216 4.61215 0.283569 4.50113 0.172497C4.3901 0.0614237 4.23952 -0.000976562 4.08251 -0.000976562C3.9255 -0.000976562 3.77492 0.0614237 3.66389 0.172497C3.55287 0.283569 3.4905 0.434216 3.4905 0.591297V1.16343H2.92611C2.15035 1.16437 1.40663 1.4731 0.858077 2.02189C0.309528 2.57068 0.000940006 3.31474 0 4.09085V12.2275C0.000940006 13.0036 0.309528 13.7477 0.858077 14.2965C1.40663 14.8453 2.15035 15.154 2.92611 15.1549H12.2294C13.0051 15.154 13.7489 14.8453 14.2974 14.2965C14.846 13.7477 15.1545 13.0036 15.1555 12.2275V4.09085C15.1545 3.31474 14.846 2.57068 14.2974 2.02189C13.7489 1.4731 13.0051 1.16437 12.2294 1.16343ZM2.92611 2.34798H3.49129V3.50252C3.49129 3.6596 3.55366 3.81025 3.66468 3.92132C3.77571 4.03239 3.92629 4.09479 4.0833 4.09479C4.24031 4.09479 4.39089 4.03239 4.50191 3.92132C4.61294 3.81025 4.67531 3.6596 4.67531 3.50252V2.34759H10.4806V3.50213C10.4806 3.65921 10.5429 3.80985 10.654 3.92093C10.765 4.032 10.9156 4.0944 11.0726 4.0944C11.2296 4.0944 11.3802 4.032 11.4912 3.92093C11.6022 3.80985 11.6646 3.65921 11.6646 3.50213V2.34759H12.2298C12.6916 2.34832 13.1343 2.53224 13.4608 2.85903C13.7873 3.18582 13.9709 3.6288 13.9715 4.09085V4.65627H1.18402V4.09085C1.18454 3.62867 1.3683 3.18556 1.69496 2.85875C2.02163 2.53194 2.46453 2.34811 2.92651 2.34759L2.92611 2.34798ZM12.2294 13.9708H2.92611C2.46421 13.9701 2.0214 13.7863 1.69482 13.4595C1.36824 13.1327 1.18454 12.6896 1.18402 12.2275V5.84042H13.9715V12.2275C13.9709 12.6897 13.7872 13.1328 13.4605 13.4596C13.1339 13.7864 12.691 13.9702 12.229 13.9708H12.2294ZM5.25667 8.16924C5.25667 8.32632 5.19429 8.47697 5.08327 8.58804C4.97225 8.69912 4.82167 8.76152 4.66465 8.76152H3.50116C3.34414 8.76152 3.19356 8.69912 3.08254 8.58804C2.97152 8.47697 2.90914 8.32632 2.90914 8.16924C2.90914 8.01216 2.97152 7.86152 3.08254 7.75044C3.19356 7.63937 3.34414 7.57697 3.50116 7.57697H4.66505C4.82206 7.57697 4.97264 7.63937 5.08366 7.75044C5.19469 7.86152 5.25706 8.01216 5.25706 8.16924H5.25667ZM12.246 8.16924C12.246 8.32632 12.1836 8.47697 12.0726 8.58804C11.9615 8.69912 11.811 8.76152 11.6539 8.76152H10.4904C10.3334 8.76152 10.1828 8.69912 10.0718 8.58804C9.9608 8.47697 9.89843 8.32632 9.89843 8.16924C9.89843 8.01216 9.9608 7.86152 10.0718 7.75044C10.1828 7.63937 10.3334 7.57697 10.4904 7.57697H11.6543C11.8113 7.57697 11.9619 7.63937 12.073 7.75044C12.184 7.86152 12.2463 8.01216 12.2463 8.16924H12.246ZM8.74795 8.16924C8.74795 8.32632 8.68558 8.47697 8.57456 8.58804C8.46353 8.69912 8.31295 8.76152 8.15594 8.76152H6.99244C6.83543 8.76152 6.68485 8.69912 6.57383 8.58804C6.4628 8.47697 6.40043 8.32632 6.40043 8.16924C6.40043 8.01216 6.4628 7.86152 6.57383 7.75044C6.68485 7.63937 6.83543 7.57697 6.99244 7.57697H8.15634C8.31335 7.57697 8.46393 7.63937 8.57495 7.75044C8.68598 7.86152 8.74835 8.01216 8.74835 8.16924H8.74795ZM5.25667 11.6621C5.25667 11.8192 5.19429 11.9698 5.08327 12.0809C4.97225 12.192 4.82167 12.2544 4.66465 12.2544H3.50116C3.34414 12.2544 3.19356 12.192 3.08254 12.0809C2.97152 11.9698 2.90914 11.8192 2.90914 11.6621C2.90914 11.505 2.97152 11.3544 3.08254 11.2433C3.19356 11.1322 3.34414 11.0698 3.50116 11.0698H4.66505C4.82206 11.0698 4.97264 11.1322 5.08366 11.2433C5.19469 11.3544 5.25706 11.505 5.25706 11.6621H5.25667ZM12.246 11.6621C12.246 11.8192 12.1836 11.9698 12.0726 12.0809C11.9615 12.192 11.811 12.2544 11.6539 12.2544H10.4904C10.3334 12.2544 10.1828 12.192 10.0718 12.0809C9.9608 11.9698 9.89843 11.8192 9.89843 11.6621C9.89843 11.505 9.9608 11.3544 10.0718 11.2433C10.1828 11.1322 10.3334 11.0698 10.4904 11.0698H11.6543C11.8113 11.0698 11.9619 11.1322 12.073 11.2433C12.184 11.3544 12.2463 11.505 12.2463 11.6621H12.246ZM8.74795 11.6621C8.74795 11.8192 8.68558 11.9698 8.57456 12.0809C8.46353 12.192 8.31295 12.2544 8.15594 12.2544H6.99244C6.83543 12.2544 6.68485 12.192 6.57383 12.0809C6.4628 11.9698 6.40043 11.8192 6.40043 11.6621C6.40043 11.505 6.4628 11.3544 6.57383 11.2433C6.68485 11.1322 6.83543 11.0698 6.99244 11.0698H8.15634C8.31335 11.0698 8.46393 11.1322 8.57495 11.2433C8.68598 11.3544 8.74835 11.505 8.74835 11.6621H8.74795Z" fill="#AB8844"/>
</svg>
