<svg width="34" height="35" viewBox="0 0 34 35" fill="none" xmlns="http://www.w3.org/2000/svg">
<path d="M16.9205 0C7.57328 0 0 7.81691 0 17.4648C0 27.1127 7.57328 34.9296 16.9205 34.9296C26.2677 34.9296 33.841 27.1127 33.841 17.4648C33.9092 7.88733 26.2677 0 16.9205 0ZM21.1506 18.0986H18.4215C18.4215 22.6761 18.4215 28.2394 18.4215 28.2394H14.3278C14.3278 28.2394 14.3278 22.6761 14.3278 18.0986H12.4175V14.5775H14.3278V12.2535C14.3278 10.5634 15.0783 8.02818 18.4215 8.02818H21.4235V11.4789C21.4235 11.4789 19.5814 11.4789 19.2402 11.4789C18.8991 11.4789 18.3533 11.6901 18.3533 12.4648V14.5775H21.4917L21.1506 18.0986Z" fill="#AB8844"/>
</svg>
