<svg width="34" height="35" viewBox="0 0 34 35" fill="none" xmlns="http://www.w3.org/2000/svg">
<g clip-path="url(#clip0_639_585)">
<path d="M20.1956 17.192C20.1956 19.0095 18.7682 20.4827 17.0075 20.4827C15.2467 20.4827 13.8193 19.0095 13.8193 17.192C13.8193 15.3746 15.2467 13.9014 17.0075 13.9014C18.7682 13.9014 20.1956 15.3746 20.1956 17.192Z" fill="#AB8844"/>
<path d="M24.4641 11.37C24.3108 10.9413 24.0663 10.5534 23.7486 10.2349C23.4401 9.90698 23.0645 9.65462 22.6489 9.49643C22.3119 9.36133 21.8056 9.20052 20.8731 9.15671C19.8644 9.10923 19.5619 9.099 17.0082 9.099C14.4542 9.099 14.1517 9.10897 13.1432 9.15645C12.2108 9.20052 11.7042 9.36133 11.3675 9.49643C10.9519 9.65462 10.576 9.90698 10.2677 10.2349C9.95004 10.5534 9.70555 10.9411 9.55204 11.37C9.42115 11.7178 9.26535 12.2407 9.22291 13.2032C9.1769 14.2441 9.16699 14.5563 9.16699 17.1924C9.16699 19.8283 9.1769 20.1405 9.22291 21.1817C9.26535 22.1442 9.42115 22.6667 9.55204 23.0146C9.70555 23.4435 9.94979 23.8312 10.2675 24.1497C10.576 24.4776 10.9517 24.73 11.3672 24.8882C11.7042 25.0235 12.2108 25.1843 13.1432 25.2281C14.1517 25.2756 14.4539 25.2856 17.0079 25.2856C19.5622 25.2856 19.8646 25.2756 20.8729 25.2281C21.8054 25.1843 22.3119 25.0235 22.6489 24.8882C23.483 24.556 24.1423 23.8756 24.4641 23.0146C24.595 22.6667 24.7508 22.1442 24.7935 21.1817C24.8395 20.1405 24.8491 19.8283 24.8491 17.1924C24.8491 14.5563 24.8395 14.2441 24.7935 13.2032C24.751 12.2407 24.5952 11.7178 24.4641 11.37ZM17.0082 22.2614C14.2956 22.2614 12.0966 19.992 12.0966 17.1922C12.0966 14.3923 14.2956 12.1229 17.0082 12.1229C19.7205 12.1229 21.9195 14.3923 21.9195 17.1922C21.9195 19.992 19.7205 22.2614 17.0082 22.2614ZM22.1137 13.1071C21.4798 13.1071 20.9659 12.5767 20.9659 11.9225C20.9659 11.2682 21.4798 10.7378 22.1137 10.7378C22.7475 10.7378 23.2614 11.2682 23.2614 11.9225C23.2612 12.5767 22.7475 13.1071 22.1137 13.1071Z" fill="#AB8844"/>
<path d="M17.0079 0C7.81025 0 0.351562 7.69862 0.351562 17.1921C0.351562 26.6856 7.81025 34.3842 17.0079 34.3842C26.2055 34.3842 33.6642 26.6856 33.6642 17.1921C33.6642 7.69862 26.2055 0 17.0079 0ZM26.5145 21.2622C26.4683 22.3131 26.3064 23.0305 26.07 23.6585C25.5732 24.9846 24.5576 26.0329 23.2728 26.5458C22.6646 26.7897 21.9692 26.9566 20.9513 27.0046C19.9314 27.0526 19.6056 27.0641 17.0081 27.0641C14.4104 27.0641 14.0848 27.0526 13.0647 27.0046C12.0468 26.9566 11.3514 26.7897 10.7432 26.5458C10.1048 26.2979 9.52682 25.9093 9.04901 25.407C8.56255 24.9141 8.18615 24.3173 7.94597 23.6585C7.70961 23.0308 7.54771 22.3131 7.50145 21.2624C7.45444 20.2094 7.44351 19.8731 7.44351 17.1921C7.44351 14.5111 7.45444 14.1748 7.5012 13.122C7.54746 12.0711 7.7091 11.3537 7.94546 10.7256C8.18564 10.0669 8.5623 9.47013 9.04901 8.97721C9.52656 8.47485 10.1048 8.08634 10.7429 7.83844C11.3514 7.59447 12.0465 7.42763 13.0647 7.37962C14.0846 7.33161 14.4104 7.32007 17.0079 7.32007C19.6053 7.32007 19.9312 7.33161 20.9511 7.37988C21.9692 7.42763 22.6644 7.59447 23.2728 7.83817C23.911 8.08608 24.4892 8.47485 24.967 8.97721C25.4534 9.4704 25.8301 10.0669 26.07 10.7256C26.3066 11.3537 26.4683 12.0711 26.5148 13.122C26.5613 14.1748 26.5722 14.5111 26.5722 17.1921C26.5722 19.8731 26.5613 20.2094 26.5145 21.2622Z" fill="#AB8844"/>
</g>
<defs>
<clipPath id="clip0_639_585">
<rect width="33.3126" height="34.3842" fill="white" transform="translate(0.351562)"/>
</clipPath>
</defs>
</svg>
