<svg width="163" height="47" viewBox="0 0 163 47" fill="none" xmlns="http://www.w3.org/2000/svg">
<g clip-path="url(#clip0_918_1371)">
<path d="M72.7916 16.4397C77.4851 15.8781 79.149 13.8334 79.149 11.1284C79.149 7.92622 76.8498 5.64995 70.0948 5.64995C68.1976 5.64995 65.9027 5.98003 63.9363 6.01004H63.6338V6.30582C63.8369 6.30582 64.3987 6.6702 64.3987 8.84787V26.3464C64.3987 28.4898 63.8326 28.8885 63.6338 28.8885V29.1885H70.0905C76.0157 29.1885 81.1413 27.9325 81.1413 22.7841C81.1413 18.9861 77.511 16.9756 72.7873 16.444L72.7916 16.4397ZM66.7671 6.10863C67.934 6.01004 69.0619 5.91144 70.0948 5.91144C72.9904 5.91144 76.8195 7.03457 76.8195 11.1284C76.8195 15.2223 72.9904 16.3111 70.0948 16.3111V16.2768H66.7671V6.10863ZM70.0948 28.8842H66.7671V16.5726H70.2288C71.292 16.6069 78.7816 16.8384 78.7816 22.7798C78.7816 29.1842 70.0948 28.8885 70.0948 28.8885V28.8842Z" fill="#231F20"/>
<path d="M97.4256 26.3464V19.6762C97.4256 15.9468 96.0253 13.1732 91.7338 13.1732C88.1381 13.1732 85.813 15.7153 86.042 17.0699C86.4094 16.9713 88.8036 16.5726 90.3681 17.2028C90.8003 17.37 91.2022 17.5972 91.5307 17.8972C91.4313 17.8972 91.3621 17.8972 91.2973 17.9315C81.4782 18.2959 80.683 29.0557 87.3385 29.3214C89.668 29.42 91.8634 27.5038 92.8618 24.9618C93.8947 22.454 93.3631 18.0944 90.4675 16.9756C89.3698 16.5469 88.0041 16.6798 87.6065 16.2168C87.0058 15.5266 88.54 13.4133 91.7338 13.4133C94.9276 13.4133 95.1264 17.3099 95.1264 19.6848V29.1928H98.1905V28.8928C97.9917 28.8928 97.4256 28.5284 97.4256 26.3507V26.3464ZM92.6673 24.8932C91.9326 26.6765 90.2039 28.3912 88.1078 27.9968C86.0766 27.5982 85.2771 25.5877 85.2771 23.7401C85.2771 19.942 88.2375 18.1587 91.7684 18.1587C93.2637 19.8777 93.4971 22.8141 92.6673 24.8932Z" fill="#231F20"/>
<path d="M124.584 25.4548C123.888 26.9037 122.224 29.1157 120.327 28.4898C118.464 27.8639 118.231 24.6274 118.231 23.0456V13.5033H121.126V13.2718H116.135C118.2 12.7531 119.294 11.4242 119.324 8.85645H119.354C119.346 8.79643 119.337 8.7407 119.328 8.68926C118.879 5.95431 116.524 3.96954 113.727 3.96954C110.598 3.96954 108.053 6.49444 108.053 9.59805C108.053 11.2785 108.788 12.796 109.98 13.8334C107.716 13.006 104.548 12.886 102.988 14.4592C99.5607 17.8586 102.123 21.4209 106.38 22.6427C108.61 23.3028 111.108 23.7958 111.705 25.5148C111.804 25.8449 111.804 26.1749 111.77 26.4707C111.67 26.8994 111.402 27.3281 111.104 27.6582C110.94 27.8211 110.737 27.9882 110.503 28.1511C110.037 28.4126 109.604 28.6141 109.073 28.7427C108.109 29.0085 106.977 29.0728 105.879 28.8413C104.747 28.6098 103.649 28.1126 102.75 27.2552C102.149 26.7279 100.753 24.8118 100.918 24.0187L100.654 23.9544L99.8589 27.6196L100.123 27.7825C102.02 28.9056 103.783 29.4329 105.382 29.5658C107.046 29.6644 109.207 29.27 110.642 28.344C111.342 27.9497 111.973 27.2895 112.405 26.5265C113.304 24.9404 113.071 23.2942 111.77 22.0039C110.974 21.2452 109.743 20.585 107.945 20.0877C105.512 19.4619 104.086 18.7031 103.316 17.9444C102.318 16.9541 102.253 15.5352 103.182 14.6093C106.177 11.54 111.437 16.4569 111.372 19.1961H111.541L112.37 15.4323C112.262 15.248 112.098 15.0722 111.908 14.9008C112.09 14.9608 112.267 15.0337 112.457 15.0765L112.522 14.7936C110.058 14.2363 108.343 12.0929 108.343 9.58519C108.343 6.64019 110.758 4.2439 113.727 4.2439C116.381 4.2439 118.615 6.12578 119.043 8.71927V8.73213H116.999C116.999 13.0575 114.371 13.2547 113.805 13.2547V13.4861C115.072 13.4861 115.906 14.4078 115.906 15.5009V23.0285C115.906 25.9992 116.671 29.3 120.297 29.3C122.492 29.3 124.022 27.3495 124.856 25.5362C125.154 24.9103 125.392 24.1816 125.621 23.3928H125.318C125.12 24.1516 124.852 24.8118 124.584 25.4419V25.4548Z" fill="#231F20"/>
<path d="M129.58 26.3464V13.2718L126.451 14.4635L126.55 14.725C126.714 14.725 127.116 14.9565 127.28 16.1439V26.3464C127.28 28.5241 126.714 28.8885 126.481 28.8885V29.1885H130.34V28.8885C130.141 28.8885 129.575 28.5241 129.575 26.3464H129.58Z" fill="#231F20"/>
<path d="M128.184 10.5969C129.048 10.5969 129.748 9.90241 129.748 9.04506C129.748 8.18771 129.048 7.49326 128.184 7.49326C127.319 7.49326 126.619 8.18771 126.619 9.04506C126.619 9.90241 127.319 10.5969 128.184 10.5969Z" fill="#231F20"/>
<path d="M137.303 8.18771C138.37 8.84787 143.029 11.5228 143.029 11.5228L143.163 11.3256C143.163 11.3256 139.304 7.56185 138.375 6.73879C137.441 5.91573 136.875 5.91573 136.477 6.443C136.08 6.90597 136.244 7.53184 137.307 8.192L137.303 8.18771Z" fill="#231F20"/>
<path d="M146.456 26.3464V19.6762C146.456 15.9468 145.06 13.1732 140.764 13.1732C137.169 13.1732 134.839 15.7153 135.073 17.0699C135.44 16.9713 137.834 16.5726 139.399 17.2028C139.831 17.37 140.233 17.5972 140.566 17.8972C140.466 17.8972 140.397 17.8972 140.332 17.9315C130.513 18.2959 129.714 29.0557 136.374 29.3214C138.703 29.42 140.903 27.5038 141.897 24.9618C142.93 22.454 142.394 18.0944 139.503 16.9756C138.405 16.5469 137.043 16.6798 136.642 16.2168C136.041 15.5266 137.571 13.4133 140.769 13.4133C143.967 13.4133 144.166 17.3099 144.166 19.6848V29.1928H147.226V28.8928C147.027 28.8928 146.461 28.5284 146.461 26.3507L146.456 26.3464ZM141.698 24.8932C140.968 26.6765 139.235 28.3912 137.139 27.9968C135.107 27.5982 134.312 25.5877 134.312 23.7401C134.312 19.942 137.273 18.1587 140.799 18.1587C142.294 19.8777 142.528 22.8141 141.698 24.8932Z" fill="#231F20"/>
<path d="M162.235 26.3464V19.4147C162.235 16.444 161.47 13.1432 157.84 13.1432C155.645 13.1432 154.145 15.0894 153.281 16.907C152.714 18.193 152.217 19.8134 151.949 21.8239V13.2718H148.89V13.5676C149.088 13.5676 149.655 13.962 149.655 16.1096V26.3421C149.655 28.5198 149.088 28.8842 148.89 28.8842V29.1842H152.714V28.8842C152.52 28.8842 151.949 28.5198 151.949 26.3421C151.949 22.184 152.58 19.1147 153.544 17.0313C154.244 15.5481 155.908 13.3361 157.805 13.962C159.668 14.5878 159.902 17.8243 159.902 19.4104V26.3421C159.902 28.5198 159.335 28.8842 159.137 28.8842V29.1842H162.996V28.8842C162.797 28.8842 162.231 28.5198 162.231 26.3421L162.235 26.3464Z" fill="#231F20"/>
<path d="M51.6409 21.511C49.8214 21.1251 49.4195 21.1123 47.4444 20.9965C44.5229 20.8336 41.6489 20.7265 38.6799 20.7265C34.2111 20.7265 29.0769 21.0394 24.5131 21.3395L19.8585 21.4509C20.6624 20.7436 26.0949 18.836 27.3871 18.4631C30.2265 17.64 33.027 16.9627 35.888 16.2297C39.1898 15.3852 50.8932 12.8989 52.7213 11.5099C54.1648 10.4125 52.9374 9.33228 51.7014 9.0022C49.454 8.40634 42.4528 7.98195 39.7689 7.78476C34.2716 7.3818 28.1823 7.59185 22.4819 7.87907L22.9097 3.71234C22.9832 2.61493 24.0723 0.317227 22.4041 0.012867C19.9795 -0.428669 20.3988 5.98432 20.7315 6.48587C20.8396 6.64448 20.9649 6.67877 21.1335 6.73879C21.4922 6.8631 21.2934 6.69592 21.6002 6.89311L21.4403 7.93908C18.2508 8.192 15.2515 8.40205 11.9972 8.83501C9.38688 9.18653 6.00725 9.89813 3.31047 10.0396C5.54482 9.29798 7.85697 8.80072 10.1778 8.3849C10.7698 8.27773 10.5927 7.68187 10.0179 7.78476C7.04448 8.3206 4.09703 9.0022 1.2922 10.121C1.10204 10.1596 0.929171 10.2239 0.764943 10.3311C0.739013 10.344 0.713082 10.3525 0.68283 10.3611C0.48835 10.4425 0.41488 10.5454 0.419201 10.644C0.406236 10.6569 0.397592 10.6655 0.384627 10.6826C0.0345635 11.1156 -0.172882 11.9 0.198791 12.6074C0.981032 14.082 2.48501 13.2504 4.08839 13.1303C6.07208 12.976 9.66348 12.183 11.4268 12.0929C12.1787 12.0544 13.0517 12.4016 12.6498 11.0598C11.954 10.6826 11.5348 11.0598 10.6618 10.8326C13.8729 10.0953 17.8748 9.47374 21.181 9.27655C21.2501 10.2111 20.5543 13.6276 20.3512 14.6693L19.2794 19.9077C16.8808 20.4221 15.2861 21.9311 16.6518 22.9599C17.1445 23.3371 17.6674 23.1956 18.3459 23.2299C18.4756 23.9244 16.8765 28.4726 16.4962 29.5786C16.2801 30.2045 15.8739 31.1433 15.7658 31.7434C15.0787 31.7649 14.4693 31.8249 14.331 32.3736C14.1495 33.0895 14.6681 33.3553 14.9922 33.6853C14.8366 33.9254 14.8453 34.0197 14.7286 34.2769L13.8426 36.2274C13.4191 37.2948 13.8037 38.4736 14.9317 38.5337C16.185 38.598 16.4832 37.372 16.7339 36.4975C17.0105 35.5372 17.2698 34.487 17.434 33.5139C18.2768 33.3553 19.2016 33.2695 20.0617 33.1324C20.913 32.9952 21.4878 32.8023 22.3825 32.6694C28.6188 31.7477 44.9119 28.1983 50.4869 26.0163C51.8224 25.4933 53.4603 25.039 53.9228 23.9758C54.6747 22.2526 52.7948 21.7339 51.6452 21.4938L51.6409 21.511ZM22.2053 9.22939C24.2581 8.80929 27.91 8.76642 30.0147 8.7407C32.517 8.70641 34.9372 8.66354 37.4093 8.6764C40.4475 8.69355 48.1489 9.14795 50.6296 10.6397C48.9268 11.7329 45.599 12.5088 43.4122 13.1604C38.5372 14.6093 33.1048 15.8267 27.8797 17.3271L23.9469 18.3988C22.7757 18.8146 21.4533 19.2218 20.2734 19.5905C20.6624 16.6712 21.8898 12.8689 22.2053 9.22939ZM48.1056 25.5534C46.8134 26.0721 45.4434 26.4664 44.0864 26.8565C38.0057 28.6098 22.8622 32.4979 17.7495 31.9021C18.052 30.5089 18.1817 28.9442 18.5231 27.5038L19.5258 23.1742C25.4207 22.6684 31.2421 21.811 37.0549 21.7424C39.6912 21.7124 42.4441 21.5838 44.9378 22.0854C46.2732 22.3554 50.3703 23.0799 51.6668 23.7958L51.8181 23.8944C50.6036 24.4517 49.4757 25.0004 48.097 25.5534H48.1056Z" fill="#231F20"/>
<path d="M74.7493 35.8716C75.0432 35.9316 75.5532 35.9445 75.3457 36.4503L72.5452 43.3863L70.7647 38.9409L71.75 36.4889C71.9445 36.0045 72.4545 35.9445 72.8694 35.8716H71.7846L70.6523 38.6751L69.5329 35.8716H67.5363C67.9641 35.9445 68.4871 36.1031 68.6556 36.4974L70.1034 40.0255L68.7507 43.3863L65.7428 35.8716H63.7461C64.1739 35.9445 64.6969 36.1031 64.8654 36.4974L68.3358 44.9295L70.2115 40.2912L72.1217 44.9295L75.5316 36.4846C75.7261 36.0002 76.236 35.9402 76.6509 35.8673H74.7364L74.7493 35.8716Z" fill="#231F20"/>
<path d="M77.9735 44.3036V38.8895H76.0503C76.4393 38.9623 76.893 39.121 76.893 39.5196V44.3036C76.893 44.7023 76.4436 44.8609 76.0503 44.9338H78.8162C78.4273 44.8609 77.9778 44.7023 77.9778 44.3036H77.9735Z" fill="#231F20"/>
<path d="M77.2903 37.9507C77.5842 37.9507 77.8262 37.7106 77.8262 37.4191C77.8262 37.1276 77.5842 36.8875 77.2903 36.8875C76.9964 36.8875 76.7544 37.1276 76.7544 37.4191C76.7544 37.7106 76.9964 37.9507 77.2903 37.9507Z" fill="#231F20"/>
<path d="M86.0509 44.3036V41.0071C86.0509 39.4124 85.005 38.7008 83.5443 38.7008C82.6453 38.7008 82.0576 39.1381 81.7162 39.571V38.8937H79.793C80.1819 38.9666 80.6314 39.1252 80.6314 39.5239V44.3079C80.6314 44.7066 80.1819 44.8652 79.793 44.9381H82.5589C82.1699 44.8652 81.7205 44.7066 81.7205 44.3079V39.6311C82.1354 39.1595 82.7663 38.8937 83.4405 38.8937C84.5253 38.9066 84.9748 39.7982 84.9748 40.8742V44.3036C84.9748 44.7023 84.5253 44.8609 84.1363 44.9338H86.9023C86.5133 44.8609 86.0595 44.7023 86.0595 44.3036H86.0509Z" fill="#231F20"/>
<path d="M93.5492 41.813C93.5492 39.7125 92.257 38.6965 90.7962 38.6965C89.115 38.6965 87.7407 39.8926 87.7407 41.8988C87.7407 42.829 88.1426 43.8064 88.9335 44.4494C89.6509 45.0152 91.6001 45.8126 93.2596 44.0507C90.861 46.1169 88.7996 44.1965 88.8255 41.8988V41.813H93.5535H93.5492ZM90.7962 38.8637C91.6735 38.8637 92.5379 39.6268 92.5379 41.6416H88.8341C88.8946 40.3855 89.4305 38.8637 90.7962 38.8637Z" fill="#231F20"/>
<path d="M98.5322 38.6965C97.8019 38.6965 96.9116 39.0695 96.5702 40.0726V38.8895H94.647C95.0359 38.9623 95.4854 39.1209 95.4854 39.5196V44.3036C95.4854 44.7023 95.0359 44.8609 94.647 44.9338H97.4129C97.0239 44.8609 96.5745 44.7023 96.5745 44.3036V40.2569C97.1493 38.748 98.8261 38.9752 99.5349 39.9654L99.3145 38.9623C99.1416 38.8037 98.8261 38.6965 98.5366 38.6965H98.5322Z" fill="#231F20"/>
<path d="M105.607 38.8895C105.897 38.9495 106.424 39.0695 106.238 39.4682L104.436 43.4077L102.547 38.8895H100.624C101.013 38.9623 101.575 39.1424 101.756 39.5882L103.861 44.6637L103.74 44.9295C103.157 46.2241 102.742 46.5242 102.193 46.5242C101.644 46.5242 101.035 46.2241 100.745 45.654L100.965 46.6571C101.073 46.79 101.501 46.9957 101.843 46.9957C102.746 46.9957 103.269 46.477 103.926 45.0367L106.471 39.4682C106.653 39.0566 107.115 38.9623 107.517 38.8895H105.607Z" fill="#231F20"/>
</g>
<defs>
<clipPath id="clip0_918_1371">
<rect width="163" height="47" fill="white"/>
</clipPath>
</defs>
</svg>
