<svg width="133" height="61" viewBox="0 0 133 61" fill="none" xmlns="http://www.w3.org/2000/svg">
<path d="M79.4291 11.7648C79.4291 11.6319 79.4512 11.499 79.4734 11.366C79.0967 11.2996 78.7866 11.1002 78.5428 10.8121C78.0997 10.9229 77.7896 11.3217 77.7896 11.7648C77.7896 12.2523 78.144 12.6732 78.6315 12.7397C78.8309 12.4738 79.1411 12.2744 79.4734 12.1858C79.4512 12.0529 79.4291 11.9199 79.4291 11.7648Z" fill="black"/>
<path d="M80.9358 14.6893C80.6921 14.933 80.3597 15.1103 80.0274 15.1546C79.9831 15.2875 79.9609 15.3983 79.9609 15.5313C79.9609 16.063 80.4041 16.5061 80.9358 16.5061C81.4897 16.5061 81.9107 16.063 81.9107 15.5313C81.9107 15.3983 81.8885 15.2654 81.8442 15.1546C81.5118 15.0881 81.1795 14.933 80.9358 14.6893Z" fill="black"/>
<path d="M78.986 10.5242C79.1633 10.7236 79.407 10.8565 79.6729 10.8787C79.695 10.8787 79.695 10.8787 79.7172 10.8787C79.7615 10.8122 79.8058 10.7679 79.8501 10.7236C80.0717 10.4799 80.3597 10.3248 80.6699 10.2805H80.692C80.692 10.2583 80.692 10.2583 80.692 10.2362C80.6699 10.1254 80.6477 10.0146 80.6477 9.90382C80.6477 9.79304 80.6699 9.68226 80.692 9.57148C80.5591 9.17267 80.1824 8.92896 79.7615 8.92896C79.2076 8.92896 78.7866 9.37207 78.7866 9.90382C78.7866 10.0368 78.8088 10.1697 78.8531 10.2805C78.8752 10.3691 78.9196 10.4577 78.986 10.5242Z" fill="black"/>
<path d="M82.1318 8.90662C81.7108 8.90662 81.3342 9.17249 81.2012 9.57129C81.1569 9.68207 81.1348 9.79285 81.1348 9.90363C81.1348 10.0144 81.1569 10.1252 81.2012 10.236C81.2012 10.2581 81.2234 10.2803 81.2234 10.3024C81.5336 10.3689 81.7994 10.5018 82.021 10.7234C82.2869 10.4354 82.6635 10.2803 83.0623 10.2803C83.1066 10.1695 83.1288 10.0366 83.1288 9.92578C83.1288 9.34973 82.6857 8.90662 82.1318 8.90662Z" fill="black"/>
<path d="M83.3286 10.79C83.2399 10.7678 83.1292 10.7678 83.0405 10.7678C82.7747 10.79 82.5088 10.9229 82.3315 11.1223C82.3537 11.1888 82.398 11.2553 82.4202 11.3439C82.4645 11.4768 82.4866 11.6097 82.4866 11.7648C82.4866 11.8978 82.4645 12.0529 82.4202 12.1858C82.7525 12.2744 83.0627 12.4738 83.2621 12.7619C83.7495 12.6954 84.104 12.2744 84.104 11.7648C84.104 11.2996 83.7938 10.9008 83.3286 10.79Z" fill="black"/>
<path d="M80.5806 14.069C80.5363 13.9361 80.5141 13.781 80.5141 13.6481C80.5141 13.5151 80.5363 13.3822 80.5584 13.2493C80.2704 13.1828 80.0267 13.0277 79.8051 12.8283C79.7608 12.784 79.7165 12.7397 79.6722 12.6732C79.65 12.6732 79.6279 12.6732 79.6057 12.6732C79.4063 12.7175 79.2291 12.8283 79.074 12.9834C79.0075 13.072 78.941 13.1606 78.8967 13.2493C78.8524 13.36 78.8081 13.493 78.8081 13.6259C78.8081 14.1355 79.1848 14.5565 79.6943 14.6008C79.8051 14.6229 79.9159 14.6008 80.0267 14.5786C80.2261 14.5343 80.3812 14.4235 80.5141 14.2906C80.5363 14.2684 80.5584 14.2241 80.5806 14.202C80.6249 14.1798 80.6027 14.1355 80.5806 14.069Z" fill="black"/>
<path d="M82.7744 13.0056C82.6193 12.8283 82.4199 12.7175 82.1984 12.6732C82.1762 12.6732 82.1762 12.6732 82.1541 12.6732C82.1097 12.7175 82.0654 12.784 82.0211 12.8283C81.8217 13.0277 81.5558 13.1828 81.2678 13.2493C81.2014 13.2714 81.157 13.2714 81.0906 13.2714C81.0684 13.2936 81.0684 13.3379 81.0463 13.3822C81.0241 13.4708 81.002 13.5595 81.002 13.6481C81.002 13.7367 81.0241 13.8253 81.0463 13.9139C81.0684 13.9583 81.0684 14.0026 81.0906 14.0469C81.1127 14.1133 81.157 14.1798 81.2014 14.2241C81.2235 14.2684 81.2457 14.2906 81.29 14.3128C81.4229 14.4457 81.6002 14.5565 81.7774 14.6008C81.8882 14.6229 81.999 14.6451 82.1097 14.6229C82.6193 14.5786 82.996 14.1577 82.996 13.6481C82.996 13.5151 82.9738 13.4044 82.9295 13.2714C82.9074 13.1828 82.8409 13.0942 82.7744 13.0056Z" fill="black"/>
<path d="M81.955 11.7648C81.955 12.3187 81.5118 12.7619 80.958 12.7619C80.4041 12.7619 79.9609 12.3187 79.9609 11.7648C79.9609 11.2109 80.4041 10.7678 80.958 10.7678C81.4897 10.7678 81.955 11.2109 81.955 11.7648Z" fill="black"/>
<path d="M53.5507 11.7648C53.5507 11.6319 53.5285 11.499 53.5063 11.366C53.883 11.2996 54.1932 11.1002 54.4369 10.8121C54.88 10.9229 55.1902 11.3217 55.1902 11.7648C55.1902 12.2523 54.8357 12.6732 54.3483 12.7397C54.1489 12.4738 53.8387 12.2744 53.5063 12.1858C53.5285 12.0529 53.5507 11.9199 53.5507 11.7648Z" fill="black"/>
<path d="M52.0222 14.6893C52.2659 14.933 52.5761 15.1103 52.9306 15.1546C52.9749 15.2875 52.9971 15.3983 52.9971 15.5313C52.9971 16.063 52.554 16.5061 52.0222 16.5061C51.4905 16.5061 51.0474 16.063 51.0474 15.5313C51.0474 15.3983 51.0695 15.2654 51.1138 15.1546C51.4683 15.0881 51.8007 14.933 52.0222 14.6893Z" fill="black"/>
<path d="M53.9941 10.5242C53.8168 10.7236 53.5731 10.8565 53.3073 10.8787C53.2851 10.8787 53.2851 10.8787 53.2629 10.8787C53.2186 10.8122 53.1743 10.7679 53.13 10.7236C52.9084 10.4799 52.6204 10.3248 52.3102 10.2805H52.2881C52.2881 10.2583 52.2881 10.2583 52.2881 10.2362C52.3102 10.1254 52.3324 10.0146 52.3324 9.90382C52.3324 9.79304 52.3324 9.68226 52.2881 9.57148C52.421 9.17267 52.7977 8.92896 53.2186 8.92896C53.7725 8.92896 54.2156 9.37207 54.2156 9.90382C54.2156 10.0368 54.1935 10.1697 54.127 10.2805C54.1049 10.3691 54.0384 10.4577 53.9941 10.5242Z" fill="black"/>
<path d="M50.8261 8.90662C51.2471 8.90662 51.6237 9.17249 51.7567 9.57129C51.801 9.68207 51.8231 9.79285 51.8231 9.90363C51.8231 10.0144 51.801 10.1252 51.7567 10.236C51.7567 10.2581 51.7345 10.2803 51.7345 10.3024C51.4243 10.3689 51.1585 10.5018 50.9369 10.7234C50.671 10.4354 50.2944 10.2803 49.8956 10.2803C49.8513 10.1695 49.8291 10.0366 49.8291 9.92578C49.8513 9.34973 50.2944 8.90662 50.8261 8.90662Z" fill="black"/>
<path d="M49.6293 10.79C49.7179 10.7678 49.8287 10.7678 49.9173 10.7678C50.1832 10.79 50.449 10.9229 50.6263 11.1223C50.6041 11.1888 50.5598 11.2553 50.5377 11.3439C50.4934 11.4768 50.4934 11.6097 50.4934 11.7648C50.4934 11.8978 50.5155 12.0529 50.5598 12.1858C50.2275 12.2744 49.9173 12.4738 49.7179 12.7619C49.2305 12.6954 48.876 12.2744 48.876 11.7648C48.876 11.2996 49.1862 10.9008 49.6293 10.79Z" fill="black"/>
<path d="M52.3766 14.069C52.421 13.9361 52.4431 13.781 52.4431 13.6481C52.4431 13.5151 52.421 13.3822 52.3988 13.2493C52.6868 13.1828 52.9305 13.0277 53.1521 12.8283C53.1964 12.784 53.2407 12.7397 53.2629 12.6732C53.285 12.6732 53.3072 12.6732 53.3294 12.6732C53.5288 12.7175 53.7282 12.8283 53.8611 12.9834C53.9276 13.072 53.994 13.1606 54.0383 13.2493C54.0827 13.36 54.127 13.493 54.127 13.6259C54.127 14.1355 53.7503 14.5565 53.2407 14.6008C53.1299 14.6229 53.0192 14.6008 52.9084 14.5786C52.7311 14.5343 52.5539 14.4235 52.421 14.2906C52.3988 14.2684 52.3766 14.2241 52.3545 14.202C52.3545 14.1798 52.3766 14.1355 52.3766 14.069Z" fill="black"/>
<path d="M50.1825 13.0056C50.3376 12.8283 50.537 12.7175 50.7586 12.6732C50.7807 12.6732 50.7807 12.6732 50.8029 12.6732C50.8472 12.7175 50.8915 12.784 50.9358 12.8283C51.1352 13.0277 51.4011 13.1828 51.6891 13.2493C51.7334 13.2714 51.7999 13.2714 51.8663 13.2714C51.8885 13.2936 51.8885 13.3379 51.9107 13.3822C51.9328 13.4708 51.955 13.5595 51.955 13.6481C51.955 13.7367 51.955 13.8253 51.9107 13.9139C51.8885 13.9583 51.8885 14.0026 51.8663 14.0469C51.8442 14.1133 51.7999 14.1798 51.7556 14.2241C51.7334 14.2684 51.7113 14.2906 51.6669 14.3128C51.534 14.4457 51.3568 14.5565 51.1795 14.6008C51.0687 14.6229 50.958 14.6451 50.8472 14.6229C50.3376 14.5786 49.9609 14.1577 49.9609 13.6481C49.9609 13.5151 49.9831 13.4044 50.0274 13.2714C50.0717 13.1828 50.116 13.0942 50.1825 13.0056Z" fill="black"/>
<path d="M53.0414 11.7648C53.0414 12.3187 52.5983 12.7619 52.0444 12.7619C51.4905 12.7619 51.0474 12.3187 51.0474 11.7648C51.0474 11.2109 51.4905 10.7678 52.0444 10.7678C52.5761 10.7678 53.0414 11.2109 53.0414 11.7648Z" fill="black"/>
<path d="M64.9388 30.5307C64.9388 30.3978 64.961 30.2648 64.9832 30.1319C64.6065 30.0654 64.2963 29.866 64.0526 29.578C63.6095 29.6888 63.2993 30.0876 63.2993 30.5307C63.2993 31.0181 63.6538 31.4391 64.1412 31.5056C64.3406 31.2397 64.6508 31.0403 64.9832 30.9517C64.961 30.7966 64.9388 30.6636 64.9388 30.5307Z" fill="black"/>
<path d="M66.4677 33.4331C66.224 33.6768 65.8917 33.8541 65.5593 33.8984C65.515 34.0313 65.4707 34.1421 65.4707 34.275C65.4707 34.8289 65.9138 35.2499 66.4677 35.2499C66.9995 35.2499 67.4426 34.8068 67.4426 34.275C67.4426 34.1421 67.4204 34.0092 67.354 33.8984C67.0216 33.8541 66.7114 33.699 66.4677 33.4331Z" fill="black"/>
<path d="M64.5178 29.2901C64.695 29.4895 64.9387 29.6224 65.2046 29.6446C65.2268 29.6446 65.2268 29.6446 65.2489 29.6446C65.2932 29.6003 65.3375 29.5338 65.3818 29.4895C65.6034 29.2458 65.8914 29.0907 66.2016 29.0464H66.2238C66.2238 29.0242 66.2238 29.0242 66.2238 29.0021C66.2016 28.8913 66.1795 28.7805 66.1795 28.6697C66.1795 28.559 66.2016 28.4482 66.2238 28.3374C66.0908 27.9386 65.7142 27.6727 65.2932 27.6727C64.7393 27.6727 64.3184 28.1158 64.3184 28.6476C64.3184 28.7805 64.3405 28.9135 64.3848 29.0242C64.407 29.135 64.4513 29.2015 64.5178 29.2901Z" fill="black"/>
<path d="M67.6645 27.6727C67.2435 27.6727 66.8669 27.9386 66.734 28.3374C66.6896 28.4482 66.6675 28.559 66.6675 28.6697C66.6675 28.7805 66.6896 28.8913 66.734 29.0021C66.734 29.0242 66.7561 29.0464 66.7561 29.0685C67.0663 29.135 67.3322 29.268 67.5537 29.4895C67.8196 29.2015 68.1962 29.0464 68.595 29.0464C68.6394 28.9356 68.6615 28.8248 68.6615 28.6919C68.6615 28.1158 68.2184 27.6727 67.6645 27.6727Z" fill="black"/>
<path d="M68.8603 29.556C68.7717 29.5338 68.6609 29.5338 68.5723 29.5338C68.3064 29.556 68.0405 29.6889 67.8633 29.9105C67.9076 29.9769 67.9298 30.0434 67.9519 30.132C67.9962 30.265 68.0184 30.3979 68.0184 30.553C68.0184 30.6859 67.9962 30.841 67.9519 30.9739C68.2842 31.0626 68.5944 31.262 68.7938 31.55C69.2813 31.4835 69.6358 31.0626 69.6358 30.553C69.6358 30.0656 69.3034 29.6668 68.8603 29.556Z" fill="black"/>
<path d="M66.1129 32.835C66.0686 32.702 66.0465 32.5469 66.0465 32.414C66.0465 32.2811 66.0686 32.1481 66.0908 32.0152C65.8027 31.9487 65.559 31.7936 65.3596 31.5721C65.3153 31.5278 65.271 31.4835 65.2488 31.417C65.2267 31.417 65.2045 31.417 65.1824 31.417C64.983 31.4613 64.8057 31.5721 64.6506 31.7272C64.5842 31.8158 64.5177 31.9044 64.4734 31.993C64.4291 32.126 64.3848 32.2368 64.3848 32.3918C64.3848 32.9014 64.7614 33.3224 65.271 33.3667C65.3818 33.3667 65.4926 33.3667 65.6033 33.3446C65.8027 33.3002 65.9578 33.1895 66.0908 33.0565C66.1129 33.0344 66.1351 32.9901 66.1572 32.9679C66.1572 32.9457 66.1351 32.8793 66.1129 32.835Z" fill="black"/>
<path d="M68.3065 31.7715C68.1514 31.5943 67.952 31.4835 67.7304 31.4392C67.7083 31.4392 67.7083 31.4392 67.6861 31.4392C67.6418 31.4835 67.5975 31.55 67.5532 31.5943C67.3538 31.8159 67.0879 31.9488 66.7999 32.0153C66.7556 32.0374 66.6891 32.0374 66.6448 32.0374C66.6226 32.0817 66.6226 32.1039 66.6005 32.1482C66.5783 32.2368 66.5562 32.3254 66.5562 32.4141C66.5562 32.5027 66.5783 32.5913 66.6005 32.6799C66.6226 32.7243 66.6226 32.7686 66.6448 32.8129C66.6669 32.8793 66.7112 32.9458 66.7556 32.9901C66.7777 33.0123 66.7999 33.0566 66.8442 33.0787C66.9771 33.2117 67.1544 33.3225 67.3316 33.3668C67.4424 33.3889 67.5532 33.3889 67.6639 33.3889C68.1735 33.3446 68.5502 32.9015 68.5502 32.4141C68.5502 32.2811 68.528 32.1704 68.4837 32.0374C68.4394 31.9266 68.3729 31.838 68.3065 31.7715Z" fill="black"/>
<path d="M65.5593 30.1321C65.5593 30.1542 65.5372 30.1764 65.5372 30.1986C65.4929 30.3093 65.4707 30.4201 65.4707 30.5309C65.4707 30.6417 65.4929 30.7524 65.5372 30.8632C65.5372 30.8854 65.5593 30.9075 65.5593 30.9297C65.6036 31.0183 65.6258 31.0848 65.6923 31.1513C65.7144 31.1734 65.7144 31.1956 65.7366 31.1956C65.8917 31.3507 66.0689 31.4614 66.2683 31.5057C66.2905 31.5057 66.3348 31.5057 66.3569 31.5279C66.4456 31.5279 66.512 31.5279 66.6007 31.5279C66.6228 31.5279 66.6671 31.5279 66.6893 31.5057C66.9108 31.4614 67.0881 31.3507 67.2432 31.1956C67.2653 31.1734 67.2653 31.1734 67.2875 31.1513C67.3318 31.0848 67.3983 30.9962 67.4204 30.9075L67.4426 30.8632C67.4869 30.7524 67.509 30.6417 67.509 30.5087C67.509 30.398 67.4869 30.265 67.4426 30.1542C67.4426 30.1321 67.4204 30.1099 67.4204 30.1099C67.3761 30.0435 67.3318 29.9548 67.2875 29.8884C67.2653 29.8441 67.221 29.8219 67.1989 29.7997C67.0881 29.7111 66.9773 29.6225 66.8665 29.5782C66.7557 29.5339 66.645 29.5117 66.5342 29.5117H66.512H66.4899C66.3791 29.5117 66.2462 29.5339 66.1354 29.5782C66.0024 29.6225 65.8917 29.689 65.803 29.7997C65.7587 29.8441 65.7366 29.8662 65.7144 29.9105C65.6258 29.977 65.5815 30.0435 65.5593 30.1321Z" fill="black"/>
<path d="M57.4723 21.3802C57.6495 21.1808 57.8046 20.9371 57.8711 20.6491C57.9154 20.4053 57.8932 20.1395 57.8268 19.8958C57.6495 19.364 57.295 18.8988 56.9184 18.4999C56.6082 18.1676 56.2537 17.8796 55.8992 17.5916C55.8327 17.5472 55.7663 17.5029 55.722 17.4586C55.722 17.4586 55.4118 17.791 55.4118 17.8131C55.1902 18.079 54.9465 18.3227 54.7249 18.5886C54.5477 18.3449 54.3261 18.1454 54.0603 17.9904C53.8609 17.8574 53.6615 17.7466 53.4399 17.6137C53.3956 17.7466 53.3291 17.8574 53.2405 17.9461C53.1297 18.0568 52.9746 18.1011 52.8195 18.1011C52.5758 18.1233 52.3543 18.0568 52.1327 18.0125C51.889 17.9682 51.6674 17.9017 51.4237 17.8353C51.2243 17.7688 51.0249 17.7245 50.8034 17.658C50.7812 17.8574 50.7369 18.079 50.7147 18.2784C50.6704 18.5221 50.6261 18.7658 50.5818 19.0095C50.5375 19.2311 50.471 19.4748 50.3602 19.6742C50.2938 19.8071 50.183 19.9179 50.0279 19.9844C49.9171 20.0287 49.7842 20.0509 49.6513 20.0287C49.6734 20.2724 49.6956 20.494 49.7177 20.7377C49.762 21.0479 49.8507 21.3137 49.9836 21.5796C49.6513 21.6682 49.3189 21.779 49.0087 21.8676C48.9866 21.8676 48.5435 22.0006 48.5435 22.0006C48.5656 22.067 48.5656 22.1557 48.5878 22.2221C48.6764 22.6652 48.8093 23.1084 48.9644 23.5293C49.1638 24.0389 49.4297 24.5707 49.8285 24.9473C50.0057 25.1246 50.2495 25.2575 50.4932 25.324C50.759 25.3904 51.0692 25.3683 51.3351 25.2796C51.0471 25.5677 50.759 25.8557 50.4932 26.1437C50.604 26.2102 50.7369 26.2767 50.8477 26.321C51.3129 26.5425 51.8004 26.7198 52.3321 26.8084C52.9303 26.9192 53.595 26.8749 54.1267 26.5425C54.304 26.4317 54.4591 26.2988 54.5477 26.1216C54.7471 25.7671 54.7693 25.3461 54.7028 24.9473C54.6806 24.8587 54.6806 24.7479 54.6806 24.6593C54.6806 24.5263 54.6806 24.3713 54.7471 24.2605C54.8136 24.1497 55.0351 24.0168 55.1681 23.9946C55.301 23.9724 55.4339 24.0389 55.5669 24.1054C55.6555 24.1497 55.7441 24.194 55.8327 24.2605C56.1651 24.482 56.5417 24.6593 56.9627 24.615C57.1621 24.5928 57.3393 24.5042 57.5166 24.4156C58.0483 24.0832 58.3585 23.5072 58.5358 22.909C58.6687 22.3994 58.7352 21.8898 58.713 21.3581C58.713 21.2251 58.713 21.0922 58.6908 20.9592C58.2256 21.1143 57.8489 21.2473 57.4723 21.3802ZM58.3585 21.5796C58.1591 21.9784 57.8268 22.3329 57.4723 22.6431C57.3172 22.7539 57.1842 22.8868 57.0292 22.9754C56.8076 23.1084 56.5639 23.2191 56.298 23.3078C55.8106 23.485 55.301 23.5293 54.7914 23.485C54.6806 23.485 54.6142 23.4629 54.5034 23.5072L54.4591 23.5293C54.3704 23.5958 54.3483 23.6844 54.304 23.773C54.1267 24.2383 53.8609 24.7036 53.5064 25.0581C53.3291 25.2353 53.1076 25.4347 52.886 25.5677C52.7309 25.6784 52.5537 25.7449 52.3986 25.8335C51.9776 26.0329 51.5345 26.1659 51.0692 26.188C51.0471 26.188 51.0028 26.188 51.0028 26.188L50.9806 26.1216C50.9806 26.1216 51.0249 26.1216 51.0249 26.0994C51.2022 26.0551 51.3794 26.0108 51.5567 25.9443C51.8447 25.8335 52.1327 25.6784 52.4207 25.5234C52.6201 25.4126 52.7974 25.2796 52.9525 25.1024C53.1076 24.9473 53.2627 24.7479 53.3956 24.5707C53.6393 24.2605 53.883 23.9281 54.1267 23.5958C54.0381 23.5958 53.9716 23.618 53.883 23.618C53.6836 23.6401 53.5064 23.6623 53.307 23.6844C53.0411 23.7066 52.7531 23.7066 52.4872 23.7066C51.9555 23.6844 51.4237 23.5958 50.9141 23.4185C50.6483 23.3299 50.3824 23.2413 50.1387 23.1084C49.9614 23.0197 49.7842 22.9311 49.5848 22.8203C49.3854 22.7096 49.2081 22.5766 48.8979 22.3551C48.8979 22.3551 48.9201 22.2886 48.9201 22.2664C49.0309 22.3108 49.5848 22.5545 49.7842 22.6431C49.9614 22.7317 50.1608 22.7982 50.3602 22.8646C50.5818 22.9533 50.8255 23.0197 51.0471 23.0641C51.18 23.0862 51.3129 23.1305 51.4459 23.1527C51.5788 23.1748 51.7117 23.197 51.8225 23.2191C52.0884 23.2635 52.3543 23.2635 52.598 23.2856C52.8639 23.2856 53.1297 23.2856 53.3734 23.2856C53.5064 23.2856 53.6172 23.2635 53.7501 23.2635C53.883 23.2413 53.9273 23.2191 53.8387 23.0862C53.4177 22.4437 53.0189 21.779 52.6423 21.1143C52.1992 20.3389 51.7561 19.5634 51.3351 18.788C51.2465 18.6107 51.1357 18.4335 51.0471 18.2562C51.0471 18.2562 51.0471 18.2119 51.0692 18.2119C51.0914 18.1898 51.1357 18.2119 51.1357 18.2119C51.2465 18.367 51.3794 18.5443 51.4902 18.6993C51.9998 19.4305 52.5094 20.1616 53.0189 20.8928C53.4621 21.5131 53.9052 22.1557 54.2818 22.8203C54.3705 22.9533 54.4148 22.9311 54.4812 22.8203C54.5477 22.7096 54.6142 22.5988 54.6806 22.488C54.8136 22.2664 54.9243 22.0227 55.013 21.779C55.1237 21.5353 55.2124 21.2916 55.301 21.0479C55.3453 20.9149 55.3675 20.8042 55.4118 20.6712C55.4561 20.5383 55.4782 20.4054 55.5004 20.2724C55.5669 20.0509 55.589 19.8071 55.6333 19.5634C55.6555 19.364 55.6776 19.1646 55.6776 18.9652C55.6776 18.7437 55.6998 18.1455 55.6998 18.0347L55.7884 18.0568C55.8549 18.4335 55.8992 18.655 55.9214 18.8766C55.9435 19.076 55.9435 19.2754 55.9435 19.497C55.9435 19.7628 55.9214 20.0509 55.8771 20.3167C55.8106 20.8485 55.6555 21.3581 55.4561 21.8455C55.3453 22.0892 55.2345 22.3329 55.1016 22.5766C55.013 22.7317 54.9022 22.8868 54.7914 23.0641C54.7471 23.1305 54.7028 23.197 54.6585 23.2856C55.0573 23.197 55.4561 23.1305 55.8549 23.0419C56.0765 22.9976 56.298 22.9533 56.5196 22.8646C56.7411 22.7982 56.9405 22.6874 57.1178 22.5545C57.3836 22.3772 57.6495 22.2 57.8711 21.9784C58.004 21.8455 58.1148 21.7125 58.2477 21.5575C58.2477 21.5353 58.292 21.5131 58.292 21.5131L58.3363 21.5575C58.4028 21.5131 58.3807 21.5575 58.3585 21.5796Z" fill="black"/>
<path d="M74.3332 20.9815C74.311 21.1144 74.311 21.2473 74.311 21.3803C74.311 21.8899 74.3553 22.4216 74.5104 22.9312C74.6877 23.5294 74.9979 24.1054 75.5296 24.4378C75.7069 24.5486 75.8841 24.6372 76.0835 24.6372C76.4823 24.6815 76.8811 24.5043 77.2135 24.2827C77.3021 24.2384 77.3907 24.1719 77.4793 24.1276C77.5901 24.0611 77.7452 23.9947 77.8781 24.0168C78.0111 24.039 78.2105 24.1498 78.2991 24.2827C78.3656 24.3935 78.3656 24.5486 78.3656 24.6815C78.3656 24.7923 78.3434 24.8809 78.3434 24.9695C78.2769 25.3683 78.2991 25.7893 78.4985 26.1438C78.6093 26.321 78.7644 26.454 78.9195 26.5647C79.4512 26.8971 80.1159 26.9414 80.7141 26.8306C81.2237 26.742 81.7333 26.5647 82.1985 26.3432C82.3093 26.2767 82.4422 26.2324 82.553 26.1438C82.265 25.8558 81.977 25.5677 81.7111 25.2797C81.977 25.3683 82.265 25.4126 82.553 25.324C82.7967 25.2575 83.0183 25.1246 83.2177 24.9474C83.6387 24.5707 83.8824 24.039 84.0818 23.5294C84.2369 23.1084 84.3698 22.6653 84.4584 22.2222C84.4806 22.1557 84.4806 22.0671 84.5027 22.0006C84.5027 22.0006 84.0818 21.8677 84.0375 21.8677C83.7051 21.7791 83.3728 21.6683 83.0404 21.5797C83.1734 21.3138 83.262 21.0258 83.3063 20.7378C83.3285 20.494 83.3506 20.2725 83.3728 20.0288C83.2399 20.0509 83.1069 20.0288 82.9961 19.9844C82.8632 19.918 82.7524 19.8072 82.686 19.6743C82.5752 19.4749 82.5087 19.2312 82.4644 19.0096C82.4201 18.7659 82.3536 18.5222 82.3315 18.2785C82.2872 18.079 82.265 17.8575 82.2428 17.6581C82.0434 17.7245 81.844 17.791 81.6225 17.8353C81.3788 17.9018 81.1572 17.9683 80.9135 18.0126C80.6919 18.0569 80.4482 18.1234 80.2267 18.1012C80.0716 18.079 79.9165 18.0347 79.8057 17.9461C79.7171 17.8575 79.6506 17.7467 79.6063 17.6138C79.4069 17.7246 79.1853 17.8575 78.9859 17.9683C78.7422 18.1234 78.5207 18.3449 78.3434 18.5665C78.1218 18.3006 77.8781 18.0569 77.6566 17.791C77.6344 17.7689 77.3464 17.4365 77.3464 17.4365C77.2799 17.4808 77.2135 17.5251 77.1691 17.5695C76.8146 17.8353 76.4602 18.1455 76.15 18.4779C75.7733 18.8767 75.3967 19.3419 75.2416 19.8737C75.1751 20.1174 75.1308 20.3833 75.1973 20.627C75.2637 20.915 75.3967 21.1587 75.5961 21.3581C75.5961 21.3581 75.5961 21.3581 75.5739 21.3581C75.0865 21.2473 74.7098 21.1144 74.3332 20.9815ZM74.5548 21.5132L74.5991 21.4689C74.5991 21.4689 74.6212 21.4911 74.6212 21.5132C74.732 21.6683 74.8649 21.8012 74.9979 21.9342C75.2194 22.1557 75.4853 22.3551 75.7512 22.5102C75.9506 22.6432 76.15 22.7539 76.3715 22.8204C76.5931 22.909 76.8147 22.9533 77.0362 22.9976C77.435 23.0863 77.8338 23.1527 78.2326 23.2414C78.1883 23.1749 78.144 23.1084 78.0997 23.0198C78.0111 22.8647 77.9003 22.7096 77.7895 22.5324C77.6566 22.3108 77.5236 22.0449 77.435 21.8012C77.2356 21.3138 77.0805 20.8042 77.0141 20.2725C76.9697 20.0066 76.9476 19.7186 76.9476 19.4527C76.9476 19.2533 76.9476 19.0539 76.9697 18.8323C76.9919 18.6108 77.0141 18.3892 77.1027 18.0126L77.1913 17.9904C77.1913 18.1012 77.2135 18.6994 77.2135 18.921C77.2135 19.1204 77.2356 19.3198 77.2578 19.5192C77.2799 19.7629 77.3242 20.0066 77.3907 20.2282C77.4129 20.3611 77.4572 20.494 77.4793 20.627C77.5236 20.7599 77.5458 20.8707 77.5901 21.0036C77.6787 21.2473 77.7674 21.4911 77.856 21.7348C77.9668 21.9785 78.0775 22.2222 78.1883 22.4438C78.2548 22.5545 78.3212 22.6653 78.3877 22.7761C78.4542 22.8869 78.4985 22.909 78.5871 22.7761C78.9859 22.1114 79.4069 21.4689 79.8722 20.8485C80.3817 20.1174 80.8913 19.3862 81.4009 18.6551C81.5117 18.5 81.6446 18.3228 81.7554 18.1677C81.7554 18.1677 81.7776 18.1455 81.8219 18.1677C81.844 18.1898 81.844 18.212 81.844 18.212C81.7554 18.3892 81.6446 18.5665 81.556 18.7437C81.1129 19.5192 80.6698 20.2946 80.2488 21.0701C79.8722 21.7348 79.4734 22.3994 79.0524 23.042C78.9638 23.1749 79.0081 23.1971 79.1189 23.2192C79.2518 23.2414 79.3626 23.2414 79.4955 23.2414C79.7614 23.2635 80.0272 23.2635 80.271 23.2414C80.5368 23.2414 80.8027 23.2192 81.0464 23.1749C81.1794 23.1527 81.3123 23.1306 81.4231 23.1084C81.556 23.0863 81.6889 23.042 81.8219 23.0198C82.0656 22.9755 82.2871 22.909 82.5087 22.8204C82.7081 22.7539 82.8854 22.6875 83.0848 22.5988C83.2842 22.5102 83.8381 22.2665 83.9488 22.2222C83.9488 22.2443 83.971 22.3108 83.971 22.3108C83.6608 22.5324 83.4836 22.6653 83.2842 22.7761C83.1069 22.8869 82.9297 22.9755 82.7303 23.0641C82.4866 23.1749 82.2207 23.2857 81.9548 23.3743C81.4452 23.5294 80.9135 23.6402 80.3817 23.6623C80.1159 23.6845 79.8278 23.6623 79.562 23.6402C79.3626 23.618 79.1853 23.5959 78.9859 23.5737C78.8973 23.5737 78.8308 23.5515 78.7422 23.5515C78.9859 23.8617 79.2296 24.1941 79.4734 24.5264C79.6063 24.7037 79.7614 24.9031 79.9165 25.0581C80.0716 25.2132 80.271 25.3462 80.4482 25.4791C80.7141 25.6342 81.0021 25.7893 81.3123 25.9001C81.4895 25.9665 81.6668 26.0109 81.844 26.0552C81.8662 26.0552 81.8883 26.0773 81.8883 26.0773L81.8662 26.1438C81.8662 26.1438 81.8219 26.1438 81.7997 26.1438C81.3345 26.1216 80.8913 25.9887 80.4704 25.7893C80.2931 25.7007 80.138 25.6342 79.9829 25.5234C79.7614 25.3905 79.562 25.1911 79.3626 25.0138C79.0081 24.6593 78.7422 24.2162 78.565 23.7288C78.5207 23.6402 78.4985 23.5515 78.4099 23.4851L78.3656 23.4629C78.2769 23.4186 78.1883 23.4186 78.0775 23.4408C77.5679 23.4851 77.0584 23.4408 76.5709 23.2635C76.3272 23.1749 76.0613 23.0641 75.8398 22.9312C75.6847 22.8204 75.5296 22.7096 75.3967 22.5988C75.0422 22.3108 74.732 21.9563 74.5104 21.5354C74.5769 21.5575 74.5548 21.5132 74.5548 21.5132Z" fill="black"/>
<path d="M77.5455 25.1246C77.479 25.0581 76.8365 25.324 76.7922 25.3683C75.4628 27.0078 73.779 26.8306 72.9149 26.5869H72.937C73.6239 26.2324 74.0891 25.5234 74.0891 24.7922C74.0891 23.8174 73.3358 23.0198 72.3831 23.0198H72.3388C72.0065 23.0198 71.7185 23.1306 71.4747 23.33C71.1867 23.5515 71.0316 23.906 71.0095 24.3048C71.0095 24.3713 71.0095 24.6593 71.2089 24.8809C71.3418 25.0138 71.4969 25.1024 71.6963 25.1024C71.7185 25.1024 71.7628 25.1024 71.7628 25.1024C72.0508 25.1024 72.2724 24.8809 72.2724 24.5928C72.2724 24.3491 72.1173 24.1276 71.8957 24.0611C72.0065 23.8839 72.228 23.8395 72.3388 23.8395C72.8706 23.8395 73.2472 24.2605 73.2472 24.8144C73.2472 25.3683 72.7155 25.9665 71.8514 25.9665H71.8292C71.7849 25.9665 71.6077 25.9665 71.3418 25.9C71.2975 25.8779 71.1646 25.8557 71.1203 25.8114C70.522 25.5234 69.6801 25.191 68.528 25.191C67.5088 25.191 66.8442 25.5899 66.4897 25.9222C66.113 25.5899 65.4705 25.191 64.4513 25.191C63.2992 25.191 62.4573 25.5234 61.8591 25.8114C61.8148 25.8336 61.6819 25.8779 61.6375 25.9C61.3717 25.9444 61.1944 25.9665 61.1501 25.9665H61.128C60.2639 25.9665 59.7321 25.3683 59.7321 24.8144C59.7321 24.2383 60.1088 23.8395 60.6405 23.8395C60.7513 23.8395 60.9729 23.8839 61.0836 24.0611C60.8621 24.1276 60.6848 24.327 60.707 24.5928C60.707 24.8809 60.9285 25.1024 61.2166 25.1024C61.2166 25.1024 61.2609 25.1024 61.283 25.1024C61.4825 25.0803 61.6375 25.0138 61.7705 24.8809C61.9699 24.6593 61.9699 24.3491 61.9699 24.3048C61.9477 23.906 61.7926 23.5737 61.5046 23.33C61.2609 23.1306 60.9729 23.0198 60.6405 23.0198H60.5962C59.6435 23.0198 58.8902 23.8174 58.8902 24.7922C58.8902 25.5234 59.3555 26.2324 60.0423 26.5869H60.0645C59.2004 26.8306 57.5165 27.0078 56.1872 25.3683C56.1429 25.324 55.5004 25.0581 55.4339 25.1246C55.3674 25.1911 55.3674 25.8336 55.4117 25.9222C56.4974 27.2959 57.8267 27.6725 58.8902 27.6947C60.1088 27.6947 61.0836 27.2294 61.1058 27.2294C61.5932 27.03 61.992 26.8527 61.992 26.8527C62.6346 26.5647 63.3657 26.2324 64.4292 26.2324C65.5148 26.2324 65.9801 26.8084 66.0687 26.9414L66.1352 27.03C66.2238 27.1629 66.3346 27.318 66.4454 27.4731C66.4675 27.4953 66.4675 27.5174 66.4897 27.5174C66.5118 27.5174 66.5118 27.4953 66.534 27.4731C66.6448 27.318 66.7556 27.1629 66.8442 27.03L66.9106 26.9414C66.9993 26.8306 67.4645 26.2324 68.5502 26.2324C69.6358 26.2324 70.3448 26.5647 70.9873 26.8527C70.9873 26.8527 71.3861 27.03 71.8736 27.2294C71.8957 27.2294 72.8706 27.7168 74.0891 27.6947C75.1748 27.6947 76.482 27.318 77.5676 25.9222C77.6119 25.8336 77.5898 25.1689 77.5455 25.1246Z" fill="black"/>
<path d="M64.4739 17.4365L62.5685 19.5413C62.5685 19.5413 65.5374 21.491 68.3955 20.5161C68.3955 20.5161 71.9183 19.4083 72.738 16.3508C72.738 16.3508 73.4249 13.3598 69.7913 13.2268L73.3584 9.34957C73.3584 9.34957 70.323 9.57113 68.6835 8.39687L70.9212 6.02619C70.9212 6.02619 68.5949 6.66871 66.5122 4.89624C66.5122 4.89624 64.6954 6.44715 63.0116 6.71302C63.0116 6.71302 63.4326 6.80165 63.4326 7.51063V14.2682L65.7368 12.828V7.39985C65.7368 7.39985 66.9553 8.3304 68.4619 8.46334L66.1134 11.0334C66.1134 11.0334 66.9553 10.5681 67.6865 11.0334C67.6865 11.0334 68.9051 11.7424 69.9907 11.5208L67.0218 14.7556C67.0218 14.7556 65.4931 15.7526 63.1002 14.2903C63.1002 14.2903 59.4445 11.2771 63.211 8.46334C63.211 8.46334 60.8182 7.82082 59.7325 10.6789C59.7325 10.6789 58.669 13.7143 61.3278 16.1293C61.3278 16.1514 62.8344 17.4365 64.4739 17.4365ZM67.3098 14.7778C67.3098 14.7778 69.7027 14.5119 70.323 16.6832C70.323 16.6832 70.7218 18.3227 68.3512 18.655C68.3512 18.655 66.623 18.8101 64.7619 17.3478L67.3098 14.7778Z" fill="black"/>
<path d="M79.2742 6.09287C78.9198 6.09287 78.5653 6.18149 78.2551 6.33658C78.0557 6.44736 77.8341 6.51383 77.6126 6.51383C76.9036 6.51383 76.3275 5.91562 76.3275 5.20663C76.3275 4.47549 76.9036 3.89943 77.6126 3.89943C78.0114 3.89943 78.388 4.09884 78.6317 4.43118L78.6539 4.45333H78.6317C78.3437 4.54195 78.1443 4.80783 78.1443 5.09585C78.1443 5.4725 78.4545 5.76053 78.809 5.76053C78.9641 5.76053 79.1635 5.6719 79.2742 5.58328C79.9389 5.07369 79.6509 4.32039 79.6066 4.23177C79.0305 2.96889 77.8341 2.94673 77.6126 2.94673C76.6599 2.94673 75.8179 3.56709 75.5077 4.49764V0H72.982V1.9054H70.3897V0H67.7975V1.9054H65.2053V0H62.613V1.9054H59.9986V0H57.5172V4.49764C57.207 3.56709 56.3651 2.94673 55.4124 2.94673C55.1908 2.94673 53.9722 2.96889 53.4183 4.23177C53.374 4.32039 53.086 5.07369 53.7507 5.58328C53.8615 5.6719 54.0609 5.76053 54.216 5.76053C54.5926 5.76053 54.8806 5.45035 54.8806 5.09585C54.8806 4.80783 54.6812 4.54195 54.3932 4.45333H54.371L54.3932 4.43118C54.6369 4.09884 55.0136 3.89943 55.4124 3.89943C56.1214 3.89943 56.6974 4.49764 56.6974 5.20663C56.6974 5.93777 56.1214 6.51383 55.4124 6.51383C55.1908 6.51383 54.9693 6.44736 54.7699 6.33658C54.4597 6.18149 54.1052 6.09287 53.7507 6.09287C52.5764 6.09287 51.6016 7.00126 51.6016 8.13121L52.089 8.6851L52.5543 8.13121C52.5543 7.533 53.1082 7.04557 53.7728 7.04557C53.9722 7.04557 54.1716 7.08988 54.371 7.1785C54.7034 7.35575 55.08 7.46653 55.4567 7.46653C56.4094 7.46653 57.2513 6.84616 57.5615 5.91562V14.3792C57.5615 16.7942 58.492 19.0762 60.198 20.7822C61.904 22.5104 64.1639 23.4409 66.5568 23.4409C68.9496 23.4409 71.2095 22.5104 72.9155 20.7822C74.5772 19.0984 75.5299 16.7498 75.5521 14.3792V5.91562C75.8622 6.84616 76.7042 7.46653 77.6569 7.46653C78.0335 7.46653 78.4102 7.3779 78.7425 7.1785C78.9419 7.08988 79.1413 7.04557 79.3407 7.04557C80.0054 7.04557 80.5371 7.533 80.5593 8.13121L81.0246 8.6851L81.512 8.13121C81.4012 7.00126 80.4485 6.09287 79.2742 6.09287ZM74.2892 14.3792C74.2892 18.8546 70.8107 22.2445 66.4682 22.2445C62.037 22.2445 58.6914 18.6774 58.6914 14.3792V3.94374H74.267V14.3792H74.2892Z" fill="black"/>
<path d="M29.4452 41.6752C28.5811 41.6752 27.9829 42.2734 27.9829 43.1375C27.9829 43.8908 28.4925 44.489 29.1572 44.489C29.2901 44.489 29.423 44.4668 29.5117 44.4447C29.5781 44.4225 29.6224 44.4225 29.6668 44.4225C29.8218 44.4225 29.8662 44.5776 29.8662 44.7991C29.8662 45.5524 29.268 46.483 28.2488 47.48L28.1823 47.5243C28.138 47.5686 28.1158 47.6129 28.1158 47.6794C28.1158 47.8123 28.2045 47.901 28.3152 47.901C28.3596 47.901 28.4039 47.8788 28.426 47.8567L28.4925 47.8123C29.9548 46.5495 30.9961 45.1536 30.9961 43.8021C31.0183 42.4728 30.2428 41.6752 29.4452 41.6752Z" fill="black"/>
<path d="M51.402 47.7902C48.1451 47.7902 45.7744 50.4932 45.7744 54.2154C45.7744 58.1148 48.1229 60.6184 51.7343 60.6184C54.4152 60.6184 56.2098 58.9789 56.7194 56.3202C56.7194 56.298 56.7194 56.2759 56.7194 56.2759C56.7194 56.1208 56.5865 55.9878 56.4092 55.9878C56.2985 55.9878 56.1877 56.0543 56.1434 56.1651C56.1212 56.2316 56.0991 56.2759 56.0991 56.3202C56.0547 56.4531 56.0547 56.4974 56.0547 56.4974C55.4787 58.425 54.0607 59.5328 52.2882 59.5328C49.9176 59.5328 48.7211 57.8046 48.6768 54.4148C48.6768 54.3261 48.7433 54.2597 48.8319 54.2597H56.4092C56.5865 54.2597 56.7194 54.1267 56.7194 53.9495C56.5643 50.2273 54.5925 47.7902 51.402 47.7902ZM54.1715 53.2848C54.1715 53.3734 54.105 53.4399 54.0164 53.4399H48.8098C48.7211 53.4399 48.6547 53.3734 48.6547 53.2848V53.1076C48.6547 50.1165 49.6074 48.477 51.3577 48.477C53.1302 48.477 54.1493 50.0722 54.1493 52.8417V53.2848H54.1715Z" fill="black"/>
<path d="M45.7516 59.8432C44.666 59.7989 43.8905 59.4887 43.8683 58.9348V44.6221V41.8083C43.8683 41.6089 43.8019 41.4982 43.5582 41.4982C43.536 41.4982 43.5138 41.4982 43.4695 41.4982C42.2953 41.6311 40.7444 41.6533 39.4593 41.6533C39.1935 41.6533 38.9276 41.6533 38.6839 41.6533C38.5066 41.6533 38.3515 41.8084 38.3515 41.9856C38.3515 42.1628 38.4845 42.3179 38.6617 42.3179C40.2126 42.3623 41.3426 42.6724 41.3426 43.7359V44.9988V45.1539V46.9485V49.8509C41.3426 49.8509 41.3426 49.8731 41.3204 49.8731H41.2983C40.5893 48.6102 39.1935 47.7904 37.7755 47.7904C34.8952 47.7904 32.7461 50.5599 32.7461 54.3707C32.7461 58.3145 34.6515 60.6187 37.5761 60.6187C39.3264 60.6187 40.412 59.7546 41.2983 58.2923H41.3204C41.3426 58.2923 41.3426 58.2923 41.3426 58.3145V58.3588V60.242C41.3426 60.4193 41.4534 60.5301 41.6084 60.5301H45.6851C45.8624 60.5301 46.0175 60.375 46.0175 60.1977C46.0839 59.9983 45.9288 59.8432 45.7516 59.8432ZM41.409 53.2186V55.0797C41.409 57.6498 40.2126 59.378 38.4402 59.378C36.712 59.378 35.8036 57.8714 35.8036 54.2378C35.8036 50.5378 36.6898 48.9425 38.4402 48.9425C40.2348 48.9425 41.409 50.5599 41.409 53.0635V53.2186Z" fill="black"/>
<path d="M89.9523 47.7236C86.6511 47.7236 83.9702 50.6039 83.9702 54.1488C83.9702 57.7159 86.6511 60.5962 89.9523 60.5962C93.1871 60.5962 95.9344 57.6495 95.9344 54.1488C95.9344 50.6039 93.2535 47.7236 89.9523 47.7236ZM89.9523 59.9094C87.9361 59.9094 87.072 58.0926 87.072 54.1488C87.072 50.2051 87.9361 48.3883 89.9523 48.3883C91.9685 48.3883 92.8326 50.1829 92.8326 54.1488C92.8326 58.1147 91.9685 59.9094 89.9523 59.9094Z" fill="black"/>
<path d="M126.953 47.7236C123.652 47.7236 120.971 50.6039 120.971 54.1488C120.971 57.7159 123.652 60.5962 126.953 60.5962C130.188 60.5962 132.935 57.6495 132.935 54.1488C132.935 50.6039 130.255 47.7236 126.953 47.7236ZM126.953 59.9094C124.937 59.9094 124.073 58.0926 124.073 54.1488C124.073 50.2051 124.937 48.3883 126.953 48.3883C128.969 48.3883 129.834 50.1829 129.834 54.1488C129.856 58.1147 128.992 59.9094 126.953 59.9094Z" fill="black"/>
<path d="M117.78 53.462C117.98 53.462 119.287 53.3069 119.331 51.4237V51.3129C119.331 50.9584 119.265 50.6039 119.087 50.2272C118.356 48.6099 117.071 48.056 116.119 47.8344C115.808 47.7679 115.476 47.7236 115.121 47.7236H115.033C111.621 47.7679 108.874 50.4931 108.874 54.2596C108.874 57.9375 111.643 60.6184 115.055 60.6184C117.736 60.6184 119.442 58.7573 119.663 55.8548V55.8327C119.663 55.6554 119.531 55.5225 119.353 55.5225C119.176 55.5225 119.043 55.6554 119.043 55.8327V55.8991C118.822 58.1369 117.381 59.7321 115.587 59.7321C113.349 59.7321 112.02 57.6716 112.02 53.9273C112.02 50.4266 113.26 48.4769 115.365 48.4769H115.41C116.717 48.4991 117.647 49.2967 117.647 50.0943C117.647 50.4931 117.426 50.6925 117.16 50.8033C117.071 50.8476 116.983 50.8698 116.916 50.9362C116.894 50.9362 116.894 50.9584 116.894 50.9584C116.894 50.9584 116.894 50.9584 116.872 50.9584L116.85 50.9805L116.827 51.0027C116.783 51.047 116.739 51.0692 116.695 51.1135C116.628 51.1578 116.584 51.2243 116.539 51.2907C116.473 51.3794 116.407 51.4901 116.362 51.6009C116.34 51.6674 116.318 51.7338 116.318 51.8003C116.296 51.8889 116.274 51.9776 116.274 52.0883C116.274 52.8416 116.916 53.4842 117.692 53.4842C117.669 53.462 117.758 53.462 117.78 53.462Z" fill="black"/>
<path d="M63.4328 60.5076C63.6101 60.5076 63.7652 60.3525 63.7652 60.1753C63.7652 59.998 63.6101 59.8429 63.4328 59.8429C62.3472 59.7986 61.5717 59.4884 61.5496 58.9345V58.8016V44.644V41.8302C61.5496 41.6308 61.4831 41.52 61.2394 41.52C61.2172 41.52 61.1951 41.52 61.1508 41.52C59.9765 41.653 57.9382 41.6751 56.6531 41.6751C56.4759 41.6751 56.3208 41.8302 56.3208 42.0075C56.3208 42.1847 56.4759 42.3398 56.6531 42.3398C57.9603 42.4284 58.8909 42.8051 58.8909 43.7578V44.4667V58.8016V58.9567C58.8909 59.4884 58.0933 59.8208 57.0076 59.8651C56.8304 59.8651 56.6753 60.0202 56.6753 60.1974C56.6753 60.3747 56.8304 60.5298 57.0076 60.5298H63.4328V60.5076Z" fill="black"/>
<path d="M77.3461 50.4935C80.1599 49.7623 81.9767 48.1228 81.9767 45.9515C81.9767 43.1155 79.3402 41.4982 75.1527 41.4982H70.6107H70.1012H66.1131C65.9359 41.4982 65.7808 41.6533 65.7808 41.8305C65.7808 42.0078 65.9359 42.1628 66.1131 42.1628H67.376C68.661 42.1628 68.8383 42.5173 68.8383 43.9796V58.0043C68.8383 59.4444 68.7053 59.8211 67.376 59.8211H66.1131C65.9359 59.8211 65.7808 59.9762 65.7808 60.1534C65.7808 60.3307 65.9359 60.4858 66.1131 60.4858H70.1012H70.6107H73.9563C79.2958 60.4858 82.5528 58.669 82.5528 55.3899C82.5971 52.842 80.448 51.0252 77.3461 50.4935ZM72.0066 44.2455C72.0066 42.5616 72.1617 42.2072 73.912 42.185H74.0227C76.9695 42.2293 78.7863 43.0712 78.7863 46.2174C78.7863 48.9425 77.4126 50.2054 73.7569 50.2054H72.0066V44.2455ZM74.1778 59.8432H74.1335C72.2281 59.8211 71.9844 59.5995 71.9844 57.8935V50.8701L74.3551 50.848C77.6563 50.848 79.3623 52.3545 79.3623 55.257C79.3623 58.2259 77.6563 59.8432 74.1778 59.8432Z" fill="black"/>
<path d="M103.38 52.8196C103.158 52.7531 102.959 52.6867 102.737 52.6424C100.765 52.0663 99.4582 51.8447 99.4582 50.4711C99.4582 49.3633 100.389 48.4549 101.607 48.4549C103.291 48.4549 105.041 50.0501 105.795 52.1771C105.839 52.31 105.95 52.3765 106.105 52.3765C106.282 52.3765 106.415 52.2436 106.415 52.0663L106.371 48.0782C106.371 47.901 106.238 47.7681 106.061 47.7681C105.906 47.7681 105.75 47.8788 105.75 48.0339C105.595 48.7208 105.374 49.0309 105.041 49.0088C104.931 49.0088 104.731 48.8759 104.488 48.7208C103.934 48.3663 103.025 47.7681 101.607 47.7681C99.3917 47.7681 97.6636 49.3411 97.6636 51.3573C97.6636 53.5286 99.3253 54.4591 102.206 55.3011C104.488 55.9657 105.507 56.4532 105.507 57.7161C105.507 58.9125 104.443 59.9095 102.981 59.9095C100.743 59.9095 98.9265 57.8268 98.5277 55.1017C98.5277 55.1017 98.5277 55.0352 98.5055 54.9909C98.4833 54.8358 98.3504 54.725 98.1953 54.725C98.0181 54.725 97.8851 54.8579 97.8851 55.0352L97.73 60.2861V60.3083C97.73 60.4855 97.8851 60.6185 98.0624 60.6185C98.2175 60.6185 98.3283 60.5299 98.3726 60.3969C98.6384 59.267 98.8157 59.1119 99.0816 59.1119C99.2145 59.1119 99.3696 59.2448 99.6133 59.3999C100.278 59.8652 101.386 60.6406 103.003 60.6406C105.374 60.6406 107.213 59.0232 107.213 56.9406C107.235 54.9244 106.105 53.6172 103.38 52.8196Z" fill="black"/>
<path d="M28.4264 55.6999C28.2491 55.6999 28.1162 55.8329 28.1162 56.0101V57.8934C28.1162 59.0455 27.7617 59.4 27.1635 59.4C26.4545 59.4 26.3216 58.9125 26.3216 57.8047V55.3898V52.155C26.3216 49.0975 24.7707 47.9232 21.8018 47.9232C18.8551 47.9232 17.1047 49.2083 17.1047 51.1137C17.1047 52.2215 17.8359 53.0191 18.8772 53.0191C18.8994 53.0191 18.9437 53.0191 18.9658 53.0191C19.1652 53.0191 19.3646 52.9748 19.5197 52.8861C19.6305 52.8418 19.7413 52.7754 19.8299 52.7089C20.0072 52.5538 20.1623 52.3765 20.2509 52.1328C20.2952 52.0221 20.3173 51.8891 20.3395 51.7562C20.3395 51.734 20.3395 51.7119 20.3395 51.6676V51.6454C20.3395 51.5568 20.3395 51.446 20.3173 51.3574C20.2952 51.2909 20.273 51.2244 20.273 51.158C20.2287 51.0472 20.1623 50.9586 20.1179 50.8478C19.985 50.6705 19.8299 50.5376 19.6527 50.449C19.6305 50.449 19.6305 50.4268 19.6084 50.4268C19.5862 50.4047 19.5419 50.4047 19.5197 50.3825C19.2539 50.2717 19.0545 50.2274 19.0545 49.8065C19.0545 49.2969 19.8299 48.6544 21.3144 48.6544C22.976 48.6544 23.9288 49.4298 23.9509 51.446V51.6897C23.9509 51.8448 23.9066 52.3987 23.4192 52.6646C23.4192 52.6646 23.397 52.6867 23.3749 52.6867C22.4 53.1742 21.3808 53.3957 20.5611 53.6394C18.1018 54.3484 16.4844 55.2568 16.4844 57.3173C16.4844 59.2449 17.9024 60.5964 19.9628 60.5964C21.5359 60.5964 22.9096 59.9095 23.8623 58.6467C23.8844 58.6245 23.9066 58.6245 23.9287 58.6245C23.9731 58.6245 23.9952 58.6467 24.0174 58.691C24.3054 59.976 25.0809 60.6185 26.3437 60.6185C28.0276 60.6185 28.7587 59.7988 28.7587 57.9377V56.0101C28.7366 55.855 28.6036 55.6999 28.4264 55.6999ZM23.9287 55.7221C23.9287 55.8329 23.9066 56.9185 23.5299 57.6275C23.5299 57.6275 23.5078 57.6496 23.5078 57.6718C22.8874 58.7353 21.9347 59.4221 20.9156 59.4221C19.7856 59.4221 19.1209 58.6245 19.1209 57.273C19.1209 55.4119 20.2952 55.0131 22.4665 53.9496C22.7545 53.8167 22.8874 53.7502 23.3305 53.5287C23.3305 53.5287 23.3527 53.5287 23.3527 53.5065C23.6186 53.3736 23.7072 53.3071 23.9066 53.1742H23.9287V53.1963V53.5287V55.4119V55.7221Z" fill="black"/>
<path d="M0 51.4902C0 61.5268 8.19767 60.995 8.41923 60.995C8.66295 60.995 14.5121 61.3052 14.8666 53.3734C14.8666 53.1962 14.7115 53.0411 14.5343 53.0411C14.357 53.0411 14.2019 53.1962 14.2019 53.3734C14.2019 53.3734 13.8696 59.8651 8.61864 59.7986C8.50786 59.7986 8.39708 59.7986 8.2863 59.7765C5.22879 59.5106 3.72219 56.6968 3.72219 51.2021C3.72219 45.4416 5.22879 42.5835 8.2863 42.4727C8.33061 42.4727 8.39708 42.4727 8.44139 42.4727C10.9672 42.4727 12.7618 44.5997 13.8917 48.9866C13.8917 48.9866 13.936 49.1638 13.9582 49.2524C14.0025 49.3854 14.1354 49.4961 14.2684 49.4961C14.4456 49.4961 14.6007 49.341 14.6007 49.1638L14.5786 41.8967C14.5786 41.6973 14.4235 41.5422 14.2241 41.5422C14.1354 41.5422 14.0911 41.5643 14.0247 41.6086C14.0025 41.6086 14.0025 41.6308 13.9804 41.6308C13.9804 41.6308 13.9804 41.6308 13.9582 41.653C13.9582 41.653 13.9582 41.653 13.936 41.6751C13.936 41.6973 13.9139 41.6973 13.9139 41.7194C13.9139 41.7416 13.8917 41.7416 13.8917 41.7637L13.8474 41.8302L13.7588 41.9853C13.7588 41.9853 13.2492 42.9823 13.0498 43.2925C12.9612 43.4476 12.8061 43.5362 12.6288 43.5362C12.6067 43.5362 12.6067 43.5362 12.5845 43.5362C12.5402 43.5362 12.4738 43.514 12.4073 43.4697C12.23 43.3811 12.0085 43.2039 11.6983 42.9823C10.9672 42.4284 9.92583 41.5643 8.21983 41.52H8.19767C8.17552 41.52 8.15336 41.52 8.15336 41.52C7.75456 41.52 7.35575 41.5643 6.9791 41.653C6.4252 41.7637 5.87131 41.9631 5.33957 42.229C2.19343 43.7356 0 47.4578 0 51.4237V51.4902Z" fill="black"/>
</svg>
