<svg width="449" height="457" viewBox="0 0 449 457" fill="none" xmlns="http://www.w3.org/2000/svg">
<rect x="98" y="334" width="285" height="71" fill="#FEFDFC"/>
<path d="M177.584 379.78V380.26C180.194 380.17 182.054 379.72 184.004 378.43L183.644 373.75H183.194C182.654 377.11 180.374 379.39 177.584 379.78ZM183.194 365.14H183.644L184.004 360.46C182.354 359.11 180.164 358.72 177.584 358.66V359.14C180.164 359.44 182.054 361.27 183.194 365.14ZM166.124 369.46C166.124 375.4 169.754 379.78 175.484 380.23V379.78C172.754 379.39 170.744 377.17 170.744 369.46C170.744 361.78 172.694 359.53 175.484 359.14V358.69C169.754 359.14 166.124 363.46 166.124 369.46ZM205.323 376.78C203.883 370.78 201.573 370.03 199.623 370.09C203.013 369.79 205.323 368.5 205.323 364.63C205.323 359.95 202.023 359.02 196.773 358.93V359.35C199.293 359.44 201.213 359.98 201.213 364.63C201.213 369.25 199.353 369.82 196.773 369.91V370.42C197.823 370.57 199.593 371.14 200.283 373.48C202.203 379.99 201.573 379.99 206.163 380.02H208.683V379.57C207.903 379.51 205.923 379.06 205.323 376.78ZM194.673 358.9H189.033V359.35C190.353 359.35 191.043 359.98 191.043 361.84V376.45C191.043 378.73 190.323 379.57 189.033 379.57V380.02H196.743V379.57C195.483 379.57 194.673 378.7 194.673 376.63V358.9ZM216.902 369.61C216.902 362.23 218.642 359.62 221.612 359.17V358.69C215.732 359.2 212.612 364 212.612 369.61C212.612 375.25 215.732 379.75 221.612 380.23V379.78C218.642 379.36 216.902 376.99 216.902 369.61ZM232.712 369.61C232.712 364 229.622 359.2 223.712 358.69V359.17C226.652 359.62 228.362 362.2 228.362 369.61C228.362 377.02 226.652 379.36 223.712 379.78V380.23C229.622 379.78 232.712 375.25 232.712 369.61ZM253.681 377.26C253.681 377.26 251.701 372.13 246.181 358.9H245.761L244.051 363.46L248.041 373.42H240.301C237.841 379.57 237.091 379.54 236.191 379.57V380.02H243.211V379.57C238.771 379.75 240.331 375.07 240.751 373.87H248.191L249.151 376.27C249.511 377.11 250.441 379.57 248.461 379.57V380.02H256.171V379.57C255.361 379.51 254.701 379.66 253.681 377.26ZM258.557 358.9V364.57H259.007C259.187 359.44 264.617 359.35 265.067 359.35H266.237V376.75C266.237 378.76 265.127 379.57 263.867 379.57V380.02H272.267V379.57C271.007 379.57 269.897 378.76 269.897 376.75V359.35H271.067C271.277 359.35 276.977 359.44 277.157 364.57H277.607V358.9H258.557ZM282.671 358.9V359.35C283.991 359.35 285.011 360.01 285.011 361.87V376.6C285.011 378.64 283.961 379.57 282.671 379.57V380.02H291.041V379.57C289.781 379.57 288.701 378.64 288.701 376.6V361.87C288.701 360.01 289.751 359.35 291.041 359.35V358.9H282.671ZM313.159 377.26C313.159 377.26 311.179 372.13 305.659 358.9H305.239L303.529 363.46L307.519 373.42H299.779C297.319 379.57 296.569 379.54 295.669 379.57V380.02H302.689V379.57C298.249 379.75 299.809 375.07 300.229 373.87H307.669L308.629 376.27C308.989 377.11 309.919 379.57 307.939 379.57V380.02H315.649V379.57C314.839 379.51 314.179 379.66 313.159 377.26Z" fill="#AB8844"/>
<path d="M320.4 156.01C321.6 159.95 327.54 159.21 329.76 161.82C331.26 163.58 332.85 164.48 334.38 165.93C336.03 167.49 335.6 168.33 338.11 168.61C340.34 168.86 342.6 169.67 344.69 169.55C346.92 169.42 348.46 169.08 350.18 169.67C350.68 169.04 350.63 168.4 350.01 167.27C349.17 165.76 347.57 164.39 346.15 163.19C345.32 162.49 344.13 161.94 342.88 161.36C340.75 160.37 338.34 159.25 337.08 156.98C336.43 155.81 336.17 154.72 335.94 153.75C335.66 152.59 335.44 151.66 334.63 150.73C333.46 149.38 333.01 147.91 332.62 146.61C332.32 145.61 332.05 144.76 331.52 144.02C331.21 143.6 330.5 143.16 329.8 142.73C328.48 141.91 326.83 140.9 326.6 139.04C326.47 138 326.86 137.19 327.13 136.66C327.39 136.14 327.38 136.08 327.34 135.95C327.22 135.6 327 135.31 326.75 134.98C326.1 134.13 325.13 132.85 326.07 130.51C326.64 129.11 328.08 127.77 329.58 127.26C330.69 126.88 331.75 126.95 332.66 127.47C333.65 128.04 334.09 128.98 334.41 129.67C334.61 130.1 334.78 130.48 334.99 130.61C335.65 131 336.44 130.77 337.67 130.35L338.1 130.21C338.7 130.02 339.3 129.81 339.9 129.6C343.11 128.48 346.75 127.2 350.57 128.81C355.02 130.68 358.81 131.26 361.83 130.53C363.92 130.03 365.85 129.56 368.24 130.33C369.29 130.66 370.1 130.72 371.13 130.78C371.72 130.82 372.39 130.86 373.15 130.96C375.23 131.25 376.69 132.5 377.99 133.6C379.08 134.53 379.84 135.14 380.67 135.31C380.63 134.51 380.74 133.68 381.13 132.84C381.39 132.27 382 131.93 382.61 131.97C383.57 132.05 384.48 132.21 385.36 132.38C386.72 132.63 388.01 132.87 389.34 132.73C389.48 132.72 389.82 132.68 390.06 132.63C389.85 131.93 387.8 131.55 386.8 131.36C386.3 131.27 385.82 131.18 385.43 131.06L385.04 130.95C383.83 130.62 382 130.13 381.32 128.75C380.89 127.85 381.09 126.92 381.25 126.17C381.29 125.97 381.36 125.67 381.36 125.56C381.26 124.26 379.77 123.23 378.43 122.83C378.1 122.73 377.83 122.52 377.64 122.25C377.16 122.44 376.67 122.5 376.21 122.5C375.86 122.5 375.52 122.47 375.21 122.44C373.28 122.24 371.05 121.93 369.12 121.18C368.6 120.98 368.21 120.69 367.9 120.45C367.73 120.32 367.56 120.2 367.44 120.14C366.94 119.91 366.03 119.81 365.3 119.73C365.01 119.7 364.73 119.67 364.48 119.63C364.21 119.59 363.93 119.56 363.65 119.53C362.41 119.4 361.01 119.25 359.75 118.36C359.3 118.04 358.98 117.67 358.7 117.35C358.57 117.19 358.43 117.04 358.28 116.9C357.09 115.82 355.49 115.29 353.8 114.74C353.26 114.56 352.72 114.38 352.18 114.19C349.46 113.19 347.24 111.89 345.61 110.33C345.01 109.76 344.53 109.18 344.16 108.58C342.61 109.17 341.06 108.93 339.74 108.73C338.45 108.53 337.34 108.35 336.33 108.85C336.01 109.01 335.82 109.27 335.48 109.76C335.16 110.23 334.76 110.81 334.11 111.3C333.21 111.98 332.2 112.12 331.39 112.24C330.94 112.31 330.51 112.37 330.18 112.51C328.58 113.17 328.08 114.17 327.23 115.82C327.07 116.13 326.91 116.45 326.73 116.78C325.56 118.94 323.67 119.26 322.29 119.5C321.25 119.67 320.64 119.8 320.16 120.31C319.73 120.77 319.5 121.61 319.26 122.5C319 123.46 318.71 124.54 318.07 125.47C316.84 127.26 314.46 127.78 311.56 126.9C310.74 126.65 310.04 126.31 309.37 125.98C308.46 125.54 307.68 125.15 306.74 125.08C304.69 124.92 301.93 125.52 300.83 126.8C299.05 128.87 298.03 129.01 295.69 129.15L295.4 129.17C293.45 129.29 291.19 130.25 291.04 131.02C291.19 132.13 291.62 133.18 292.28 134.16C293.59 136.1 293.59 136.02 294.15 138C294.81 140.34 295.12 141.53 298.11 141.1C302.11 140.52 301.02 135.73 302.53 132.65C302.97 131.76 303.84 129.82 304.64 129.33C305.27 128.95 309.55 128.81 310.17 129.12C311.79 129.93 311.46 132.12 311.89 133.52C312.62 135.9 313.62 136.74 315.3 138.64C317.62 141.25 318.47 144.62 321.19 146.76C323.59 148.65 325.94 150.09 327.53 152.85C325.43 153.53 318.78 150.73 320.39 156.03L320.4 156.01Z" fill="#AB8844"/>
<path d="M406.92 185.52C406.61 185.71 406.38 185.93 406.17 186.18C405.68 187.75 406.2 188.13 408.38 189.36L409.06 189.75C411.9 191.4 413.13 193.17 414.31 195.68C414.88 196.91 415.17 198.21 415.31 199.54C416.2 198.41 417.19 197.4 418.25 196.74C419.5 195.95 420.94 195.55 422.33 195.17C423.02 194.98 423.68 194.8 424.26 194.58C424.81 194.37 425.38 194.09 425.98 193.79C426.93 193.32 427.92 192.82 428.98 192.56C430.97 192.07 433.11 192.16 435.19 192.25C435.9 192.28 436.6 192.31 437.26 192.31C438.33 192.31 439.15 192.1 440.1 191.85C440.55 191.73 441.01 191.61 441.49 191.52C442.2 191.38 443.18 191.25 444.27 191.19C444.09 190.78 443.84 190.36 443.5 189.84C443.04 189.13 442.53 188.34 442.19 187.34C441.24 184.56 442.25 181.14 442.58 180.16C443.19 178.37 444.62 176.97 446 175.63C447.22 174.44 448.49 173.21 448.45 172.26C448.42 171.53 447.63 170.73 446.97 170.18C445.28 168.79 443.77 167.48 442.37 165.53C440.44 162.82 440.37 161.19 440.67 158.13C440.91 155.63 440.74 153.04 440.57 150.54C440.48 149.14 440.38 147.69 440.35 146.26C440.35 145.76 440.39 145.23 440.43 144.72C440.52 143.59 440.63 142.31 440.14 141.7C439.59 141.01 439.21 140.91 436.89 142.5C436.32 142.89 435.74 143.29 435.15 143.58C433.29 144.51 430.84 145.42 428.39 144.27C427.42 143.81 426.66 143.09 426 142.45C425.42 141.9 424.88 141.38 424.29 141.11C423.83 140.91 423.37 140.77 422.93 140.64C421.4 140.19 419.32 139.57 419.55 136.09C419.63 134.86 420.25 133.91 420.74 133.14C421.18 132.46 421.44 132.03 421.42 131.62C421.27 129.55 417.53 128.05 415.29 127.16C414.82 126.97 414.39 126.8 414.02 126.64C410.08 124.92 408.66 121.33 407.52 118.45C406.46 115.81 404.62 114.46 402.28 112.75C401.7 112.33 401.1 111.89 400.51 111.42C400 111.44 399.5 111.45 399 111.46C398.51 111.46 398.02 111.41 397.55 111.36C396.76 111.27 395.94 111.19 395.44 111.4C394.3 111.88 393.11 112.62 392.78 113.06C392.65 113.24 392.55 113.47 392.44 113.75C392.22 114.29 391.91 115.02 391.17 115.63C390.46 116.22 389.7 116.51 388.98 116.76C387.77 117.19 386.49 117.35 385.25 117.5C383.62 117.7 382.07 117.9 380.9 118.7C380.88 118.71 380.86 118.73 380.84 118.74C380.77 118.79 380.71 118.85 380.64 118.9C380.39 119.15 380.22 119.53 380.25 120.33C382.18 121.17 384.15 122.85 384.35 125.35C384.39 125.86 384.29 126.35 384.18 126.82C384.14 127 384.08 127.27 384.06 127.45C384.44 127.7 385.42 127.96 385.81 128.07C385.98 128.11 386.13 128.16 386.26 128.19C386.54 128.27 386.92 128.34 387.34 128.42C389.33 128.79 392.66 129.41 393.04 132.32C393.15 133.21 392.98 133.95 392.52 134.53C391.76 135.5 390.49 135.63 389.65 135.72C387.87 135.91 386.31 135.62 384.8 135.34C384.41 135.27 384.03 135.2 383.66 135.14C383.66 135.34 383.69 135.55 383.73 135.77C386.44 136.38 389.48 137.61 389.42 141.59C389.4 142.85 389.38 144.41 388.83 145.77C388.5 146.6 387.92 147.24 387.41 147.81C387.04 148.22 386.65 148.65 386.55 148.96C386.38 149.5 389.02 150.66 390.02 151.09C392.33 152.1 394.51 153.06 394.87 154.99C395.06 156.03 394.66 157.06 393.66 158.04C392.87 158.82 392.01 158.94 391.44 159.03C390.99 159.1 390.94 159.12 390.85 159.22C390.64 159.45 390.52 159.57 390.88 160.3C391.01 160.56 391.19 160.78 391.41 161.04C391.9 161.64 392.57 162.45 392.58 163.87C392.58 164.1 392.56 164.32 392.53 164.54C394.18 165.48 395.3 167.62 395.45 169.27C395.48 169.56 395.48 169.84 395.49 170.11C395.49 170.55 395.51 170.81 395.59 171.03C395.85 171.7 396.4 172.52 396.99 173.12C397.27 173.41 397.53 173.43 398.4 173.4C399.39 173.36 400.88 173.3 402.11 174.67C402.27 174.84 402.39 174.99 402.49 175.11C402.53 175.16 402.57 175.2 402.6 175.24C402.77 175.27 403.06 175.31 403.2 175.32C404.98 175.53 405.54 176.76 405.88 177.5C405.97 177.71 406.06 177.89 406.16 178.04H406.18C406.56 178.02 407.2 177.98 407.88 178.35C408.68 178.78 409.24 179.47 409.48 180.34C409.76 181.36 409.59 182.54 409.02 183.5C408.4 184.56 407.7 185.04 406.92 185.52Z" fill="#DBDBDB"/>
<path d="M295.42 124.29C294.37 125.8 292.98 125.85 292.03 126.84C293.26 126.41 294.48 126.22 295.21 126.17L295.51 126.15C297.46 126.03 297.54 126.03 298.56 124.84C300.44 122.65 304.24 121.88 306.97 122.09C308.48 122.21 309.65 122.78 310.69 123.28C311.28 123.57 311.84 123.84 312.44 124.02C313.63 124.38 315.09 124.5 315.6 123.75C315.95 123.25 316.15 122.5 316.37 121.71C316.68 120.57 317.03 119.27 317.96 118.26C319.16 116.97 320.62 116.72 321.79 116.53C323.05 116.32 323.63 116.19 324.09 115.35C324.25 115.05 324.41 114.74 324.56 114.45C325.47 112.66 326.41 110.81 329.04 109.73C329.72 109.45 330.38 109.36 330.96 109.27C331.53 109.19 332.02 109.11 332.31 108.9C332.57 108.7 332.77 108.41 333.02 108.05C333.45 107.43 333.98 106.67 335.01 106.16C336.88 105.24 338.65 105.52 340.22 105.77C341.47 105.97 342.35 106.08 343.11 105.78C342.93 105.31 342.71 104.86 342.46 104.34C342.31 104.04 342.16 103.72 342 103.39C341.69 102.7 341.48 102.02 341.28 101.37C341.1 100.76 340.92 100.19 340.69 99.6802L340.46 99.2002C340.25 98.7702 340.04 98.3402 339.84 97.8902C339.31 97.9302 338.83 97.8502 338.42 97.7802C338.12 97.7302 337.84 97.6802 337.56 97.6802C335.71 97.6802 334.57 97.8402 333.09 98.7802C332.49 99.1602 331.93 99.5402 331.36 99.9302C329.89 100.93 328.38 101.97 326.52 102.71C325.13 103.26 323.72 103.22 322.47 103.18C322.15 103.18 321.84 103.13 321.52 103.16H321.51C320.64 103.16 319.83 102.94 319.12 102.75C318.46 102.57 317.84 102.4 317.38 102.47C317.02 102.52 316.63 102.73 316.18 102.98C315.56 103.32 314.79 103.74 313.82 103.85C312.1 104.05 310.44 103.88 308.83 103.72C307.78 103.61 306.79 103.51 305.8 103.51H305.74C305.47 103.51 305.2 103.51 304.94 103.51C303.51 103.49 302.28 103.48 301.15 104C300.63 104.24 299.89 105.03 299.18 105.79C298.89 106.17 298.55 106.52 298.17 106.85C298.17 106.85 298.11 106.91 298.07 106.94C297.44 107.47 296.82 107.9 296.22 108.31C294.64 109.4 293.6 110.11 293.24 111.91C293.09 112.69 293.11 113.51 293.13 114.38C293.18 116.11 293.21 118.06 291.79 119.83C294.84 120.02 297.37 121.55 295.47 124.27L295.42 124.29Z" fill="#DBDBDB"/>
<path d="M225.47 196.5C225.37 194.66 225.55 192.79 225.07 191.01C224.54 189.03 224.2 187.94 224.45 185.91C224.64 184.35 224.77 182.38 223.74 181.05C221.78 178.52 221.41 182.81 221.24 185.65C221.16 186.86 221.12 187.81 221.01 187.84C220.07 188.15 219.7 186.55 218.47 186.76C217.16 186.98 216.4 188.7 215.17 189.19C214.16 189.59 212.97 189.82 212.08 190.49C210.8 191.45 211.37 191.56 210.92 193.07C210.69 193.84 209.69 194.25 209.54 194.91C209.22 196.33 210.42 196.03 210.46 196.46C210.57 197.66 208.69 198.09 208.67 199.19C208.64 200.73 210.76 200.25 211.11 201.56C211.47 202.92 210.31 202.39 209.9 203.36C209.18 205.11 210.26 204.48 211.24 204.94C212.33 205.46 213.01 208.03 211.12 207.24C210.87 207.13 211.05 208.59 211.22 208.8C211.61 209.27 212.45 209 212.92 209.25C214.57 210.1 214.35 212.04 212.11 211.64C212.25 212.5 212.3 213.77 213.09 214.31C213.94 214.89 215.33 214.15 216.22 214.64C217.19 215.18 216.74 216 217.29 216.7C219.99 220.17 220.4 214.28 220.95 213.24C221.44 212.32 222.02 211.93 222.28 210.9C222.76 208.98 222.9 207.02 222.8 205.06C222.69 202.92 223.2 202.82 224.49 201.05C225.53 199.62 225.55 198.19 225.46 196.48L225.47 196.5ZM190.01 45.2C186.48 45.28 182.84 45.36 179.6 44.2C176.42 43.07 173.36 41.5 170.4 39.98C166.7 38.08 162.87 36.12 158.82 35.03C155.83 34.23 153.87 32.77 151.98 31.36C150.76 30.45 149.61 29.59 148.15 28.86C147.09 28.32 145.8 28.04 144.43 27.74C141.79 27.15 138.79 26.49 136.59 23.78C135.88 22.9 135.58 21.68 135.32 20.6C135.2 20.09 135.01 19.33 134.87 19.12C134.58 18.88 134.28 18.87 133.45 18.92C132.67 18.97 131.61 19.03 130.51 18.44C125.84 15.95 123.15 11.34 120.78 7.27L120.49 6.77C119.29 4.71 117.51 2.86 115.63 0.89C115.35 0.6 115.06 0.3 114.78 0C113.76 1.05 112.29 1.28 110.24 1.36C106.84 1.48 104.19 1.36 102.45 4.61C100.87 7.54 101.5 11.01 101.5 14.19C98.5302 17.94 101.89 25.39 96.2802 26.3C94.8502 26.53 93.6702 26.4 92.3602 26.77C89.6802 27.53 89.2502 27.95 86.2802 27.69C83.5902 27.45 78.8302 27.76 77.9302 30.98C77.2202 33.53 79.9002 36.39 79.8202 39.16C77.4402 40.04 74.4602 39.96 71.9402 40.07C69.6002 40.18 65.6802 40.77 63.4402 40.09C62.2702 39.73 61.3802 38.77 60.3302 38.21C57.6802 36.76 58.0002 37.19 57.1802 34.77C56.5802 33.01 56.7302 32.55 54.5602 31.96C53.1702 31.58 51.2002 31.48 49.7502 31.68C48.9602 31.79 46.7602 32.03 46.2602 32.84C44.7602 35.25 48.9802 36.27 49.9902 37.69C51.1502 39.32 51.1502 43.78 51.0702 45.87C50.9902 47.98 51.2102 47.47 52.0802 49.59C52.6102 50.88 52.7302 51.99 52.0502 53.26C50.4002 56.32 46.7202 53.89 43.8802 54.07C41.3302 54.23 38.5602 54.47 36.4402 55.53C33.4102 57.04 34.3002 56.92 32.4302 53.93C31.2802 52.1 29.0202 51.01 27.1002 49.88C23.8802 47.99 18.7802 53.26 16.9002 53.88C14.2702 54.73 11.7002 52.54 9.34024 53.55C7.16024 54.49 8.03024 55.98 5.50024 56C3.43024 56.02 1.16024 55.43 0.270239 57.76C-0.549761 59.89 0.620239 60.36 2.55024 60.37C3.43024 60.37 10.0102 59.72 8.30024 62.44C7.20024 64.22 4.29024 62.12 3.06024 62.64C2.38024 62.93 2.17024 63.65 2.37024 64.43C2.74024 65.91 4.47024 65.75 5.74024 66.15C10.2002 67.52 5.67024 69.63 3.77024 67.49C1.22024 69.11 4.80024 70.89 5.53024 71.95C6.48024 73.36 5.61024 74.84 8.22024 74.56C10.0202 74.37 11.3602 72.19 13.3602 72.99C14.9402 73.62 14.6302 74.87 16.6402 74.62C17.9502 74.45 17.7802 73.97 18.9202 74.44C19.8602 74.83 19.9902 75.48 20.4102 76.14C21.2002 77.39 21.1702 77.62 22.5302 78.22C23.4002 78.6 23.5702 78.21 24.3902 78.94C25.8102 80.19 25.9802 81.65 27.9202 79.77C28.5002 79.2 28.0602 78.78 28.8602 78.33C30.1202 77.63 31.5302 77.96 32.8702 77.94C33.4902 77.94 35.5202 77.46 35.9902 77.88C37.2102 78.98 35.0202 80.25 34.5202 81.2C33.9202 82.37 34.8902 84.29 35.4602 85.21C38.3602 89.98 41.4002 84.68 45.2002 84.51C46.2502 84.47 49.0802 84.46 49.7402 85.39C50.6802 86.73 49.2302 88.15 48.2302 88.53C45.1902 89.7 42.1502 88.59 42.7502 93.26C42.9002 94.46 43.0802 94.89 42.9802 95.92C42.8202 97.46 42.7302 97.28 43.8602 98.58C44.8902 99.77 45.6102 101.47 46.6402 102.54C47.6802 103.61 49.1702 103.47 50.5302 103.87C51.2502 104.08 52.1802 104.27 52.7402 104.81C53.3702 105.42 53.1302 105.97 53.5902 106.51C54.7102 107.8 56.4202 107.31 57.6302 108.16C59.7902 109.69 57.8002 111.9 57.6302 113.93C57.4502 116.03 56.5802 116.61 55.7702 118.44C54.6702 120.94 57.0002 120.86 58.8302 121.55C61.3302 122.51 63.3702 124.56 65.2402 126.41C67.4302 128.56 67.7002 130.79 67.7602 133.77C65.2502 134.31 65.2902 131.98 64.4002 130.19C63.6202 128.61 62.7202 127.66 61.1202 126.92C58.7902 125.84 57.5802 126.63 57.4402 129.24C57.3102 131.6 56.3902 133.15 56.3902 135.58C55.7302 136.72 55.6202 138.66 55.6802 139.95C55.7802 141.59 56.0102 141.62 57.1502 142.51C61.4202 145.82 55.6202 148.07 55.3302 151.73C55.1602 153.9 56.5902 155.4 56.7302 157.32C56.8402 158.64 56.0802 159.01 55.5002 160.21C54.1802 162.96 53.9402 165.76 51.6502 167.94C52.2002 168.39 52.6702 168.84 53.0202 169.25C54.1502 170.56 54.4102 172.09 54.6402 173.44C54.8202 174.51 54.9802 175.43 55.5202 176.06C56.2302 176.88 57.5002 176.83 59.5102 176.65C60.7602 176.54 62.0602 176.42 63.2902 176.69C65.5202 177.19 66.8002 178.61 67.9402 179.86C69.1002 181.14 70.0202 182.16 71.8502 182.4L72.1402 182.44C74.6402 182.76 75.4502 182.93 77.5902 184.52C78.9102 185.5 78.9402 185.52 80.5502 185.53H81.6402C85.1702 185.58 87.5002 185.61 90.4602 184.04C93.5002 182.43 95.5802 183.37 97.4202 184.2C98.2302 184.56 98.9902 184.91 99.8802 185.09C100.2 185.16 100.66 185.12 101.13 185.07C101.71 185.02 102.38 184.96 103.06 185.07C104.42 185.28 105.39 185.88 106.24 186.41C106.76 186.73 107.2 187.01 107.7 187.19C108.49 187.47 109.13 187.31 110.19 187.01C111.05 186.76 112.02 186.48 113.19 186.58C114.12 186.65 114.98 187.01 115.74 187.33C116.12 187.49 116.48 187.64 116.79 187.73C117.11 187.82 117.53 187.89 117.98 187.97C118.65 188.08 119.41 188.2 120.1 188.46C121.1 188.83 121.9 189.39 122.61 189.88C123.4 190.43 124.08 190.9 124.92 191.07C124.8 187.62 122.64 184.67 124.14 181.23C125.43 178.27 127.96 173.39 129.83 170.74C132.62 166.8 139.03 166.47 143.2 169.07C145.61 170.57 145.51 172.01 149.21 171.27C150.82 170.95 151.86 169.93 153.47 169.51C158.56 168.21 158.63 172.89 162.2 174.96C163.83 175.91 164.89 175.38 166.44 175.72C168.99 176.28 171.06 177.36 173.91 176.96C176.01 176.67 178.21 175.78 179.94 174.51C182.19 172.88 182.11 171.17 183.68 169.18C185.58 166.78 190.69 164.24 193.4 163.26C193.86 163.09 194.45 162.95 195.1 162.8C195.08 162.75 195.06 162.7 195.03 162.64C194.71 161.99 194.01 161.47 193.27 160.92C192.13 160.07 190.71 159.02 190.44 157.12C190.26 155.82 190.62 154.75 190.91 153.9C191.08 153.41 191.22 152.98 191.26 152.57C191.34 151.78 189.94 151.35 187.81 150.94L187.28 150.84C187.05 150.8 186.79 150.77 186.52 150.74C185.72 150.66 184.73 150.56 183.89 150.03C182.7 149.28 182.17 147.93 181.78 146.95L181.65 146.62C180.99 144.99 180.76 143.64 180.9 142.21C180.96 141.6 181.11 140.95 181.28 140.26C181.48 139.41 181.76 138.24 181.63 137.72C181.54 137.38 181.03 136.98 180.55 136.6C179.59 135.84 178.27 134.8 178.31 132.88C178.36 130.82 179.68 129.5 182.24 128.95C184.31 128.52 184.99 128.29 185.41 127.16C185.81 126.08 185.72 125.65 184.43 125.12C182.87 124.48 179.96 123.29 180.18 119.76C180.26 118.63 180.74 117.86 181.09 117.3C181.29 116.98 181.44 116.73 181.49 116.5C181.49 116.41 181.37 116.22 181.3 116.09C181 115.59 180.5 114.74 180.68 113.51C180.89 111.97 180.89 111.77 180.11 110.86C179.39 110.02 178.97 109.03 178.56 108.07C177.9 106.53 177.48 105.65 176.51 105.43C175.83 105.28 175.54 105.32 174.78 107.76C174.56 108.46 174.34 109.18 174.02 109.8C172.61 112.5 168.91 114.9 165.63 114.15C164.6 113.92 163.8 113.32 163.38 112.46C162.91 111.53 162.93 110.39 163.43 109.27C163.97 108.05 164.85 107.46 165.76 107.1C165.68 106.72 165.65 106.26 165.8 105.75C166.04 104.85 166.59 104.39 166.96 104.09C167.03 104.03 167.11 103.97 167.18 103.9C167.29 103.79 167.41 103.69 167.53 103.58C168.15 103.02 168.31 102.84 168.31 102.51C168.47 96.62 170.4 92.01 174.76 87.09C177.36 84.16 177.64 82.9 178.21 80.4C178.43 79.44 178.67 78.34 179.09 76.96C179.23 76.51 179.57 76.14 180.02 75.98C180.46 75.82 180.96 75.88 181.36 76.14C184.62 78.3 189.18 78.71 193.53 77.3C193.15 76.54 192.56 75.79 191.95 75.01C191.01 73.82 189.95 72.46 189.45 70.78C188.51 67.64 189.25 62.82 189.78 60.24C190.85 54.93 193.23 50.77 195.53 46.75C195.81 46.27 196.08 45.78 196.36 45.3C194.38 45.05 192.23 45.1 189.98 45.14L190.01 45.2Z" fill="#DBDBDB"/>
<path d="M378.45 232.308C376.85 230.928 374.63 231.178 372.83 230.428C369.84 229.198 367.54 226.058 364.45 224.488C359.88 222.158 358.1 221.828 354.62 218.038C351.72 214.888 350.17 214.188 345.92 213.348C343.57 212.888 334.19 212.718 334.38 209.008C334.47 207.318 337.52 207.268 338.12 205.468C339.13 202.438 336.19 201.248 333.87 200.908C329.52 200.258 324.93 201.018 320.53 200.728C316.65 200.488 315.39 199.008 313.16 195.888C311.73 193.878 308.59 190.628 307.85 188.188C307.35 186.558 307.95 185.468 306.25 184.268C303.78 182.518 301.79 183.168 300.64 179.818C299.32 175.948 299.15 172.288 296.6 168.828C295.47 167.288 293.76 167.328 292.17 166.498C290.12 165.438 289.39 164.308 288.26 162.518C285.64 158.378 281 158.068 276.93 155.708C272.96 153.398 273.63 151.648 273.05 147.698C272.87 146.518 272.92 145.858 272.02 144.928C271.29 144.178 269.44 144.018 269.06 143.178C268.49 141.888 271.58 138.618 271.9 137.138C272.61 133.818 270.04 133.478 268.97 131.038C266.99 126.548 273.59 126.988 276.1 126.838C279.1 126.658 280.82 124.488 283.39 123.188C284.02 121.308 285.53 120.318 286.8 119.508C287.53 119.038 288.22 118.598 288.81 117.998C289.75 117.048 289.77 115.998 289.72 114.228C289.7 113.278 289.67 112.208 289.89 111.098C290.49 108.098 292.42 106.778 294.11 105.608C294.64 105.248 295.18 104.868 295.69 104.448C295.95 104.178 296.21 103.908 296.46 103.648C296.82 103.148 297.12 102.498 297.08 101.708C297.07 101.548 297.03 101.458 297.02 101.438C296.93 101.358 296.54 101.178 295.02 101.288C292.89 101.438 290.33 101.518 287.42 100.948C285.95 100.658 284.34 100.338 282.97 99.3083C282.66 99.0683 282.4 98.7783 282.18 98.5283C282.05 98.3783 281.86 98.1583 281.77 98.0983C281.39 97.9483 280.53 97.9583 279.78 97.9783C279.08 97.9883 278.36 98.0083 277.67 97.8983L277.07 97.7983C275.01 97.4683 272.88 97.1283 270.87 96.1183C269.47 95.4083 268.63 94.2783 267.89 93.2683C267.1 92.1983 266.58 91.5283 265.72 91.2383C264.9 90.9683 264.31 91.1283 263.17 91.5083L263.01 91.5583C261.59 92.0183 260.75 91.6683 260.09 91.3783C259.86 91.2783 259.64 91.1783 259.35 91.1083C258.48 90.8783 256.93 91.1183 256.34 91.5883C256.15 91.7383 255.99 92.0183 255.79 92.3683C255.42 93.0283 254.9 93.9383 253.74 94.4583C251.99 95.2383 249.12 95.7983 246.79 94.8283C246.28 94.6183 245.84 94.3183 245.45 93.9883C244.87 94.9183 243.95 95.2483 243.33 95.4583C243.12 95.5283 242.81 95.6383 242.73 95.7083C242.52 96.1283 242.5 97.3483 242.48 98.3283C242.44 100.618 242.39 103.228 240.36 104.258C239.53 104.678 238.64 104.698 237.86 104.708C237.29 104.708 236.7 104.728 236.38 104.918C236.167 105.045 236.077 105.405 236.11 105.998L236.14 106.478C236.14 106.588 236.16 106.718 236.17 106.848C236.24 107.688 236.34 108.838 235.66 109.768C234.54 111.338 232.14 111.298 230.43 110.788C229.45 110.498 228.78 109.868 228.24 109.358C227.97 109.108 227.66 108.818 227.46 108.728C227.38 108.738 227.29 108.768 227.21 108.798C226.96 108.868 226.66 108.958 226.3 108.978C224.73 109.078 223.75 108.588 222.79 108.098L222.6 107.998C222.44 107.918 222.29 107.828 222.14 107.738C221.9 107.598 221.57 107.418 221.47 107.428C220.67 107.568 220.8 109.508 221.01 111.488C221.12 112.538 221.22 113.448 221.11 114.198C220.95 115.258 220.42 116.088 219.57 116.588C217.89 117.588 215.56 116.988 214.31 116.538C212.07 115.728 211.57 114.118 211.26 112.538C211.23 112.358 211.2 112.168 211.17 111.968C211.14 111.738 211.08 111.348 211.01 111.138C210.98 111.138 210.94 111.138 210.91 111.128C210.65 111.088 210.29 111.038 209.88 110.868C207.87 110.038 207.82 108.368 207.79 107.478C207.78 107.128 207.77 106.828 207.69 106.588C207.47 105.908 206.48 105.188 205.77 105.398C205.48 105.618 205.23 107.028 205.12 107.628C205.04 108.078 204.96 108.508 204.87 108.868C203.87 112.728 200.68 116.528 196.52 116.308C196.11 116.288 195.68 116.228 195.24 116.168C194.51 116.068 193.76 115.958 193.29 116.128C193.01 116.228 192.67 116.538 192.31 116.878C191.71 117.428 190.96 118.118 189.89 118.368C189.07 118.558 188.15 118.458 187.34 118.378C186.73 118.318 186.2 118.308 185.66 118.288C185.14 118.278 184.65 118.258 184.27 118.348C184.1 118.388 183.94 118.458 183.77 118.528C183.62 118.588 183.46 118.648 183.3 118.708C183.03 119.138 182.89 119.388 182.86 119.738C182.79 120.818 183.31 121.328 185.25 122.118C187.94 123.218 188.89 125.298 187.91 127.968C186.88 130.748 184.6 131.218 182.59 131.638C181.01 131.978 181 132.368 181 132.708C181 133.068 181.27 133.348 182.1 133.998C182.89 134.628 183.88 135.398 184.22 136.698C184.55 137.948 184.2 139.408 183.89 140.698C183.75 141.278 183.62 141.828 183.58 142.238C183.49 143.178 183.65 144.078 184.12 145.238L184.26 145.598C184.5 146.198 184.83 147.018 185.19 147.248C185.43 147.398 186.04 147.458 186.52 147.518C186.89 147.558 187.24 147.598 187.56 147.658L188.06 147.758C190.08 148.148 194.28 148.948 193.93 152.618C193.85 153.378 193.63 154.038 193.44 154.628C193.2 155.328 193.02 155.878 193.1 156.468C193.19 157.088 193.78 157.558 194.74 158.278C195.69 158.978 196.76 159.778 197.4 161.078C197.54 161.368 197.67 161.648 197.77 161.938C199.25 161.598 200.64 161.168 201.42 160.498C203.83 158.438 204.43 154.828 207.37 152.738C211.67 149.698 217.94 149.918 223.13 149.688C226.93 149.518 230.18 148.798 232.82 151.498C234.67 153.388 235.78 157.418 236.83 159.838C237.98 162.488 239.72 163.928 241.08 166.298C242.51 168.738 242.67 172.278 243.8 174.968C245.44 178.898 247.62 179.478 250.66 181.608C253.58 183.648 253.72 187.558 256.2 189.528C259.06 191.798 263.06 190.768 265.24 194.638C266.38 196.658 266.26 198.958 267.15 201.028C268.19 203.438 270.09 204.658 271.95 206.378C273.62 207.908 275.28 207.278 276.86 208.118C278.85 209.168 279.74 210.858 281.17 212.408C284.68 216.228 287.59 216.618 293.03 216.878C298.36 217.128 305.53 221.348 308.1 225.878C310.17 229.528 314.19 227.278 316.61 229.238C319.16 227.998 320.35 232.998 320.58 234.598C321.14 238.528 323.07 239.668 327.25 239.978C330.84 240.238 329.27 240.238 330.5 242.768C331.37 244.548 336.12 246.788 336.69 243.878C338.55 244.038 337.62 253.268 338.07 255.268C338.75 258.328 340.05 260.308 341.46 262.998C342.32 264.648 343.14 266.738 342.74 268.648C342.21 271.118 341.2 270.158 339.46 271.258C337.65 272.408 338.2 273.698 338.06 275.648C337.95 277.278 337.7 279.478 336.44 280.688C335.55 281.538 333.74 281.468 332.69 282.408C332.38 281.238 330.66 279.848 328.78 281.528C328.27 281.988 328.05 282.828 327.54 283.238C326.97 283.698 326.34 283.488 325.65 283.558C324.83 283.638 324.68 284.448 324.22 284.978C322.71 286.708 320.37 284.388 318.58 284.578C316.6 284.788 316.05 286.928 314.97 288.228C314.05 289.328 312.36 289.548 310.97 289.528C309.23 289.498 307.53 288.918 305.78 288.928C304.92 288.928 304.02 288.928 303.25 289.358C302.25 289.918 301.87 291.288 300.65 291.538C297.19 292.238 293.92 287.118 290.84 286.168C286.75 284.898 288.26 293.478 282.89 290.138C280.46 288.628 280.74 287.598 278.34 290.218C277.97 290.628 277.18 291.228 277.03 291.788C276.8 292.638 277.53 293.218 277.28 294.168C276.81 295.918 275.61 295.808 276.49 297.808C277.12 299.238 278.58 300.828 279.94 301.578C281.68 302.548 283.53 301.038 285.45 301.778C286.36 302.128 287.39 302.488 288.32 302.878C290.44 303.768 291.58 305.908 293.61 306.888C294.75 307.438 295.99 306.958 296.96 307.288C298.09 307.668 298.17 308.848 299.15 309.378C301.99 310.888 305.14 309.998 307.9 311.118C311.52 312.588 310.62 315.478 312.65 317.888C314.87 320.518 317.74 319.438 320.52 319.638C322.87 319.808 326.05 320.188 323.23 316.638C325.3 312.898 328.32 311.968 327.14 307.488C326.43 304.768 324.6 305.008 323.73 302.768C322.98 300.838 324.44 299.928 325.41 298.618C326.47 297.188 325.6 296.818 325.59 295.368C325.59 294.828 326.78 292.198 328.03 289.548C329.45 286.518 330.93 283.448 330.75 283.388C331.27 283.558 331.67 283.598 331.97 283.558C331.54 285.558 333.44 288.728 334.92 289.628C337.16 290.988 338.96 287.868 341.49 287.548C341.43 287.918 341.59 288.418 341.48 288.798C346.76 290.178 344.34 285.028 345.49 282.558C346.07 281.318 347.17 281.638 348.12 280.718C349.17 279.698 349.3 278.378 349.69 277.058C350.2 275.368 349.95 273.458 350.4 271.598C351.06 268.848 352.62 268.758 355.15 268.398C362.39 267.358 356.88 257.778 354.33 254.358C352.52 251.928 347.89 251.388 347.84 248.268C347.8 245.538 350.61 244.188 348.91 241.098C350 240.478 352.81 240.548 353.44 239.428C353.75 238.878 353.37 237.618 353.44 237.008C353.73 234.578 354.54 233.418 357.33 232.538C359.49 231.858 359.63 232.208 361.32 233.628C363.16 235.178 363.04 234.988 364.91 235.018C369.65 235.088 370.73 235.658 371.4 240.148C371.71 242.218 373.05 246.378 375.62 246.478C379.21 246.608 378.15 241.498 378.49 239.228C378.87 236.618 380.76 234.308 378.38 232.268L378.45 232.308ZM227.55 230.248C227.41 229.428 227.75 228.098 227.01 227.478C226.55 227.088 225.32 227.398 225.01 226.778C224.47 225.698 226.84 225.818 226.78 224.838C226.74 224.128 225.7 224.628 225.32 224.388C224.89 224.118 224.87 223.198 224.75 222.718C224.41 221.408 223.92 220.208 222.58 219.648C222.55 219.678 222.53 219.708 222.5 219.738C222.63 220.258 222.36 220.928 222.47 221.458C220.98 221.668 220.36 220.518 220.55 219.148C217.72 219.338 218.8 220.058 217.81 221.638C217 222.938 216.36 222.808 215.19 223.718C214.15 224.518 213.73 226.108 212.89 226.968C212.08 227.798 211.78 227.868 210.72 227.658C210.02 227.518 209.73 227.578 209.59 227.748C209.36 228.028 209.51 228.598 208.9 229.158C208.39 229.618 207.44 229.318 206.86 229.258C206.16 229.188 205.12 228.928 204.54 228.498C203.95 228.058 203.93 227.408 203.47 226.868C203.1 226.438 201.53 226.048 201.06 226.558C200.46 227.198 201.68 228.078 201.88 228.658C202.11 229.328 201.57 230.118 201.59 230.818C201.62 231.648 202.02 232.698 201.43 233.428C201.2 233.718 200.77 233.628 200.9 234.398C201.16 235.948 202.61 235.118 203.65 235.518C204.93 236.008 205.36 237.838 205.19 239.078C205.02 240.278 206.38 241.098 206.58 242.318C206.84 243.868 206.62 245.458 205.55 246.658C205.05 247.218 205.02 247.248 205.06 247.978C205.1 248.698 205.08 249.758 205.66 250.288C206.3 250.868 207.38 250.618 208.04 251.188C209.31 252.278 206.79 252.948 206.3 253.698C205.75 254.538 206.04 255.478 206.14 256.428C206.19 256.838 206.53 257.868 206.32 258.198C206.07 258.578 205.37 258.408 205.05 258.708C204.43 259.288 204.81 259.988 204.92 260.678C205.03 261.388 204.78 261.758 204.76 262.458C204.76 263.038 205.04 263.148 204.74 263.748C204.61 264.018 204.23 264.168 204.11 264.448C203.85 265.068 204.01 265.358 204.57 265.798C204.98 266.128 205.55 266.398 205.47 267.028C205.35 267.988 204.64 267.158 204.1 267.648C203.75 267.968 203.77 269.278 203.88 269.708C204.01 270.188 204.58 271.398 205.13 271.548C206.18 271.838 206.1 270.468 206.53 270.018C207.96 268.538 208.47 271.988 208.99 272.468C209.59 273.028 210.65 273.328 211.45 273.218C213.16 272.988 215.07 271.228 215.91 269.548C216.45 268.468 215.95 266.618 216.73 265.718C217.38 264.968 219.87 265.428 220.81 265.718C221.91 266.058 222.62 267.228 223.87 267.218C225.92 267.208 225.76 264.918 225.87 263.388C226.04 260.918 227.06 259.118 227.37 256.798C227.65 254.698 226.54 252.778 227.04 250.648C227.41 249.088 228.13 247.038 227.47 245.458C226.9 244.098 225.52 243.638 226.12 241.988C226.59 240.678 227.84 239.768 228.75 238.788C230.29 237.128 229.48 235.288 228.51 233.598C227.98 232.678 227.69 231.258 227.51 230.218L227.55 230.248Z" fill="#DBDBDB"/>
</svg>
