<svg width="112" height="55" viewBox="0 0 112 55" fill="none" xmlns="http://www.w3.org/2000/svg">
<g clip-path="url(#clip0_669_778)">
<path d="M87.2587 28.6098V30.0826L87.1223 30.3771C87.252 31.3484 87.2055 32.183 86.9793 32.8878C87.0059 34.0239 86.9128 35.0022 86.6999 35.8368C86.2509 36.2961 85.9716 36.7941 85.8618 37.3095C86.9261 37.2675 87.6744 36.7274 88.1001 35.686V35.2477L87.9638 33.6242C87.9771 32.993 88.017 32.453 88.1001 32.0077V29.0516C88.0602 28.1399 88.1068 27.3545 88.2432 26.6917L87.6844 26.548L87.262 28.6133L87.2587 28.6098ZM71.1779 24.9209C69.658 28.6589 70.0804 31.5062 72.4318 33.4769C71.8098 32.0252 71.5238 30.7032 71.5936 29.4935L72.2954 29.0481C74.5171 29.2936 75.6845 28.3083 75.7943 26.0991C75.1391 24.5037 74.0216 23.8129 72.4318 24.0338L71.1779 24.9174V24.9209ZM81.2454 21.0883C80.8763 22.2104 80.7332 22.2104 80.8297 21.0883H81.2454ZM81.2454 14.8993C81.1024 15.5164 80.9095 15.5164 80.6867 14.8993H81.2454ZM80.8297 12.094C81.1989 12.2448 81.1989 12.3956 80.8297 12.5324V12.094ZM80.5503 10.0322C81.016 10.183 81.159 10.4775 80.9661 10.9158C80.5703 10.758 80.4273 10.4635 80.5503 10.0322ZM66.9839 8.99777C66.8609 9.64648 66.8143 10.183 66.8409 10.6213V11.5049C66.4784 12.7848 66.3919 14.0156 66.5616 15.1938L66.4185 15.4884C66.4584 16.344 66.4185 17.0768 66.2822 17.694L66.4185 17.9885V19.4613C66.8077 20.9796 66.9507 22.3086 66.8409 23.4447L67.3997 23.5955L67.5427 23.1501L67.8221 22.8556L67.9584 22.4173L68.1014 22.1157C68.2844 21.3618 68.4706 20.7692 68.6602 20.3449L69.0759 19.4613C68.9728 19.3666 68.9263 19.2684 68.9396 19.1667L68.7966 18.7284L69.0759 17.5502V15.6286L68.3808 14.8958C69.0294 13.1916 68.9396 11.7188 68.1014 10.467L67.9584 9.14504L66.9839 8.99426V8.99777ZM81.2454 8.55945C81.7177 8.82595 81.6678 9.01881 81.1091 9.14855L81.2454 8.55945ZM80.9661 3.69238C81.7177 4.16576 81.7177 4.80746 80.9661 5.61046C80.7133 4.90564 80.7133 4.26745 80.9661 3.69238ZM83.6268 2.21964H81.8042L80.271 2.3634C79.2965 2.15301 78.4583 2.20561 77.7532 2.51419V2.9525C78.5248 3.30666 79.1302 3.80108 79.5659 4.43226L79.7089 7.67581L79.5659 8.11412V8.99777L79.4295 9.4431C79.5858 10.1549 79.5858 10.7931 79.4295 11.3542L79.5659 13.8648L79.4295 14.7485L79.5659 15.4884L79.7089 16.372L79.5659 16.8103V17.9885L79.4295 20.3484L79.2865 20.9375C79.3829 21.73 79.3829 22.4173 79.2865 23.0064C79.2998 24.6755 79.2033 25.8537 79.0071 26.5445L79.2865 27.4281C79.0736 28.4064 78.9805 29.248 79.0071 29.9318C78.0393 31.7131 76.7754 32.993 75.2289 33.7714V34.5043C77.4173 34.4166 79.1435 33.533 80.404 31.8499L80.547 31.4045L81.1058 30.3771L81.6645 28.0172V26.9828L81.8009 26.5445L82.0802 25.3663C82.1202 24.1004 82.2166 23.066 82.3596 22.2665V21.2321C82.3131 20.2397 82.353 19.4052 82.5026 18.7284V16.6666C82.4893 15.3586 82.5359 14.2786 82.639 13.423C82.5359 12.6481 82.5359 11.9573 82.639 11.3507V10.6178L82.5026 10.1725L82.639 9.73414V8.69971L82.5026 8.2614V6.63787C82.6723 5.7402 82.7221 5.00733 82.639 4.42875L83.0614 3.68887C84.9239 3.3803 85.2964 2.7912 84.1789 1.92158L83.6201 2.21613L83.6268 2.21964ZM87.1256 0.452343C87.5081 1.20625 87.7409 1.94963 87.8208 2.66146C87.7177 3.57316 87.6711 4.36564 87.6844 5.02837V12.1046C87.6445 12.8444 87.691 13.4861 87.8208 14.0261V16.0915L87.6844 16.5298V17.2697L87.9638 18.2971L87.8208 18.7424C87.9172 19.4402 87.9638 20.0363 87.9638 20.5097H88.5225C88.4261 19.7348 88.476 19.051 88.6589 18.4444L88.8019 17.5607L88.6589 16.8208C88.5824 15.8285 88.5824 14.9869 88.6589 14.3172L88.5225 13.4335V9.88843L88.6589 7.97737V5.61747L88.8019 5.02837L88.6589 4.58304C88.6722 3.85719 88.7188 3.26108 88.8019 2.81575V1.32898C88.4128 0.529487 87.9006 0.0841568 87.2587 0L87.1223 0.44533L87.1256 0.452343ZM49.6626 28.4205C50.1116 28.6379 50.065 28.7816 49.5196 28.8658L49.6626 28.4205ZM63.9208 3.35225C62.6303 3.76251 61.4197 3.90628 60.2856 3.79758L59.8698 4.23589V4.82499C60.6414 4.85304 61.2467 5.04941 61.6824 5.41409L62.1048 10.2812L61.9618 10.5757V14.8537C62.0982 16.1686 62.0982 17.3048 61.9618 18.241L62.1048 18.8301V22.6698L61.9618 23.2588V24.437L62.1048 24.8754V25.6152C61.8853 26.9582 61.7988 28.0453 61.8255 28.8588C60.5284 31.4817 58.6193 32.7616 56.0916 32.6914C54.0262 32.6774 52.4896 31.8428 51.4752 30.1878V29.5987C51.3721 29.4549 51.3256 29.3111 51.3389 29.1533V28.5642L51.0595 28.1189C51.2158 26.832 51.2158 25.745 51.0595 24.8754L51.1958 24.437V22.8135C51.3455 22.2665 51.3854 21.7791 51.3389 21.3408C51.1493 20.636 51.0994 20.0048 51.1958 19.4192V18.6863L51.0595 17.9464V17.5081C51.1892 17.0979 51.2358 16.7086 51.1958 16.3299V14.2681L51.0595 13.5282V12.7953C50.9098 12.1782 50.9098 11.6382 51.0595 11.1718C50.8832 10.4039 50.8333 9.7131 50.9165 9.10647L50.7801 8.66114C50.8267 7.62671 50.7868 6.73956 50.6371 6.00669C51.1426 5.25279 51.7479 4.80746 52.4597 4.68473L52.5961 4.2394L51.9009 3.80108H49.799L47.4176 3.94485C46.942 4.07459 46.5229 4.12369 46.1637 4.09563C45.5784 4.80746 45.6715 5.30539 46.4431 5.56838C47.2546 5.62448 47.7668 6.01371 47.9764 6.74657V8.21932L48.1194 8.65763L48.2557 12.4973L48.3988 12.7918C48.3455 13.6054 48.3921 14.3382 48.5351 14.9974C48.4586 15.9127 48.4586 16.7016 48.5351 17.3573V19.2789C48.6449 19.3806 48.6914 19.4718 48.6781 19.5735L48.5351 20.0188C48.6848 21.1549 48.7347 22.1332 48.6781 22.9678V23.4061C48.7047 24.658 48.6083 25.6924 48.3988 26.5059V26.9442C48.5085 28.0312 48.5484 28.9149 48.5351 29.6057C49.4963 31.2888 50.7568 32.467 52.3134 33.1438C56.4175 34.2238 59.7734 33.4383 62.3875 30.7839L62.5239 30.3385L62.9463 29.3111C62.9463 28.729 63.0361 28.189 63.2257 27.6876C63.2257 27.0389 63.2722 26.5024 63.362 26.0641C63.2456 25.475 63.2456 24.9841 63.362 24.5913L63.505 23.7077C63.4086 22.796 63.4086 22.0105 63.505 21.3478V18.5426L63.362 17.9535V16.926L63.505 16.0424V15.1588L63.362 14.4189V12.357C63.2456 11.5716 63.2456 10.8843 63.362 10.2917L63.2257 9.84635L63.362 9.25725V8.81894C63.1093 8.07204 63.0228 7.43736 63.0826 6.90086L62.9463 5.87345C63.5948 5.15461 64.25 4.6146 64.9019 4.24992C64.7024 3.71693 64.3764 3.42238 63.9208 3.36627V3.35225ZM30.2726 1.79184C23.7172 7.69684 21.5753 15.1167 23.8402 24.0618V24.9455C24.1063 25.4785 24.2427 25.9729 24.256 26.4182C24.6052 26.7864 24.8347 27.1792 24.9578 27.5964C26.2748 28.7466 27.256 29.8336 27.8979 30.84H28.3136C29.3014 31.3204 30.1894 31.5658 30.9743 31.5799C32.4144 32.197 33.8113 32.4916 35.1683 32.4635C35.8767 32.0673 36.5253 31.8218 37.1239 31.7236C37.7226 31.3344 38.2847 31.0924 38.8002 30.9908L38.9432 30.5454L39.7813 29.9563L40.1971 29.8126L40.4764 29.518C41.3013 29.1218 41.9565 28.7255 42.4354 28.3398C42.2658 27.649 41.85 27.4036 41.1815 27.5999C37.8257 31.4186 34.5597 32.3092 31.3867 30.2544C29.1783 28.7957 27.9211 26.832 27.6152 24.3599C26.7504 22.3542 26.4212 20.3835 26.634 18.4619L26.777 16.102C26.6806 15.3691 26.6806 14.7274 26.777 14.1839L26.9134 13.7386V13.3003L27.0564 12.7112V11.6768L27.1928 10.6493L27.3358 7.9949C30.0397 1.30092 34.0042 0.417278 39.2259 5.33344C39.8545 5.26331 39.9909 4.91616 39.6416 4.29901C39.5385 4.19732 39.492 4.10615 39.5053 4.00446L39.2259 3.85368C38.8368 2.91744 38.4609 2.17756 38.1084 1.64807C36.798 2.29678 35.6339 2.19509 34.6095 1.35352C33.8945 1.32547 33.2858 1.22378 32.7869 1.05897L30.2692 1.79184H30.2726Z" fill="#231F20"/>
<path d="M65.1147 48.1448L65.241 48.1939C65.261 48.0501 65.261 47.9729 65.241 47.9554C65.2211 47.9379 65.1778 48.001 65.1147 48.1448ZM68.1579 51.1218C68.0315 51.3743 67.8984 51.6268 67.7521 51.8792C67.6058 52.1317 67.4494 52.3561 67.2831 52.5525C67.1169 52.7488 66.9472 52.9137 66.7776 53.0469C66.6047 53.1802 66.4317 53.2503 66.2554 53.2608C66.0792 53.2713 65.9195 53.2292 65.7798 53.1276C65.6401 53.0294 65.5204 52.8891 65.4206 52.7068C65.3209 52.5244 65.241 52.314 65.1778 52.0721C65.1147 51.8301 65.0681 51.5671 65.0382 51.2831C65.414 51.2165 65.7599 51.1323 66.0758 51.0271C66.3951 50.9219 66.7177 50.7642 67.0503 50.5503C67.3829 50.3364 67.7355 50.0523 68.1046 49.6947C68.4738 49.337 68.9029 48.8741 69.3918 48.3061L68.1579 51.1183V51.1218ZM65.1147 48.1448C64.9683 48.4639 64.8619 48.8566 64.7954 49.33C64.7289 49.8034 64.7155 50.2838 64.7555 50.7782C64.7022 50.7677 64.6457 50.7606 64.5825 50.7606C64.5293 50.7606 64.4794 50.7536 64.4262 50.7431C64.0603 50.701 63.7544 50.5503 63.5049 50.2978C63.2555 50.0453 63.0792 49.7297 62.9728 49.351C62.8697 48.9723 62.8364 48.5515 62.8796 48.0852C62.9229 47.6188 63.0526 47.1559 63.2688 46.6931C63.2887 46.637 63.312 46.5879 63.3386 46.5353C63.3652 46.4862 63.3885 46.4336 63.4085 46.3775C63.761 46.367 64.1601 46.3599 64.6025 46.3529C65.0448 46.3494 65.4905 46.3459 65.9361 46.3459H69.8241C69.9372 46.3459 70.0037 46.3705 70.0204 46.4196C70.037 46.4686 70.0204 46.5598 69.9672 46.6896C69.904 46.8438 69.8275 47.0051 69.741 47.177C69.6512 47.3453 69.5614 47.5101 69.4683 47.6714C69.3751 47.8292 69.2853 47.9729 69.2022 48.0992C69.119 48.2254 69.0525 48.3166 68.9993 48.3727C68.823 48.5691 68.6035 48.804 68.3441 49.0705C68.0847 49.3405 67.7854 49.5965 67.4461 49.8454C67.1069 50.0944 66.7344 50.3048 66.322 50.4871C65.9095 50.6695 65.4705 50.7642 65.0016 50.7747C64.9816 50.3574 64.9916 49.9226 65.0315 49.4667C65.0747 49.0109 65.1413 48.5936 65.2344 48.2079L65.108 48.1413L65.1147 48.1448ZM71.2643 46.3354C71.4838 46.3354 71.6767 46.3354 71.8496 46.3424C72.0226 46.3494 72.1689 46.3564 72.2953 46.367C72.7642 46.4336 72.9971 46.6685 72.9971 47.0753C72.9971 47.6118 72.7144 48.1833 72.1556 48.7865C72.0725 48.8952 72.0292 48.9793 72.0292 49.0319C72.0292 49.0424 72.0392 49.0495 72.0592 49.0495C72.0991 49.0495 72.1689 49.0004 72.262 48.9022C72.7609 48.4078 73.0636 48.0291 73.1667 47.7661C73.2199 47.6574 73.2432 47.5241 73.2432 47.3698C73.2432 47.1524 73.1866 46.942 73.0702 46.7457C72.9571 46.5493 72.8208 46.3845 72.6645 46.2512C72.7277 46.2407 72.7476 46.2302 72.7277 46.2197C72.7077 46.2092 72.6711 46.1951 72.6179 46.1776C72.5647 46.1601 72.5082 46.146 72.445 46.1285C72.3818 46.111 72.3419 46.0934 72.3186 46.0724C72.0991 46.0303 71.9028 46.0023 71.7266 45.9988C71.5503 45.9918 71.3208 45.9988 71.0381 46.0233C70.486 46.0128 69.8873 46.0058 69.2421 46.0058H67.2765C66.6113 46.0058 65.9628 46.0058 65.3342 46.0128C64.7056 46.0163 64.1335 46.0198 63.6246 46.0198C64.0005 45.4482 64.4295 45.0064 64.9184 44.6943C65.4073 44.3823 65.8962 44.1613 66.3852 44.0281C66.8741 43.8948 67.3364 43.8317 67.7754 43.8317C68.2144 43.8317 68.557 43.8528 68.8064 43.8984C68.9095 43.9089 69.0026 43.8949 69.0791 43.8493C69.1556 43.8072 69.2122 43.7546 69.2421 43.6915C69.272 43.6319 69.2754 43.5722 69.2488 43.5091C69.2222 43.4495 69.159 43.4004 69.0525 43.3689C68.833 43.3128 68.6135 43.2216 68.3907 43.0883C68.1678 42.9551 67.965 42.7868 67.782 42.5799C67.5991 42.373 67.4528 42.1241 67.3463 41.84C67.2366 41.556 67.1933 41.2299 67.2133 40.8687C67.2333 40.4725 67.3364 40.1464 67.5193 39.8904C67.7022 39.6344 67.9184 39.431 68.1678 39.2908C68.4173 39.147 68.6734 39.0664 68.9328 39.0453C69.1922 39.0243 69.4184 39.0488 69.6046 39.126C69.8241 39.2031 69.9971 39.3364 70.1268 39.5222C70.2565 39.708 70.333 39.9184 70.353 40.1464C70.3729 40.2901 70.4162 40.3638 70.486 40.3673C70.5525 40.3743 70.6124 40.3357 70.6656 40.2621C70.7188 40.1849 70.7554 40.0797 70.782 39.95C70.8086 39.8168 70.7887 39.687 70.7288 39.5538C70.6456 39.3328 70.5026 39.133 70.2997 38.9436C70.0969 38.7578 69.8507 38.6596 69.5581 38.6456C69.2887 38.635 68.996 38.6771 68.6833 38.7683C68.3707 38.863 68.078 39.0032 67.802 39.1891C67.5259 39.3749 67.2831 39.6029 67.067 39.8729C66.8541 40.1429 66.7044 40.4444 66.6213 40.7846C66.5581 41.0686 66.5481 41.3281 66.5914 41.5595C66.6313 41.7909 66.6978 41.9908 66.7876 42.1696C66.8774 42.345 66.9738 42.4957 67.0836 42.622C67.1933 42.7482 67.2798 42.8499 67.3397 42.927C67.3796 42.9586 67.3829 43.0182 67.3463 43.0989C67.3098 43.183 67.2466 43.2391 67.1501 43.2707C66.7843 43.3583 66.4151 43.4916 66.0326 43.6669C65.6535 43.8423 65.2843 44.0526 64.9251 44.2911C64.5659 44.533 64.23 44.7995 63.9173 45.0906C63.6047 45.3816 63.3353 45.6902 63.1058 46.0198C62.7533 46.0303 62.4539 46.0373 62.2145 46.0373H61.7156C61.506 46.0479 61.3697 46.0689 61.3032 46.0934C61.2366 46.1215 61.1801 46.2127 61.1402 46.3635C61.1202 46.4301 61.1302 46.5002 61.1701 46.5773C61.2134 46.6545 61.2633 46.7211 61.3264 46.7737C61.3896 46.8298 61.4528 46.8684 61.5227 46.8964C61.5892 46.9245 61.6457 46.9105 61.6856 46.8544C61.7488 46.7772 61.8087 46.7036 61.8652 46.6335C61.9218 46.5633 61.9916 46.5107 62.0748 46.4757C62.1147 46.4546 62.2045 46.4406 62.3408 46.4336C62.4772 46.4266 62.6468 46.4196 62.8564 46.409C62.5238 46.9806 62.3109 47.5487 62.2178 48.1202C62.1247 48.6918 62.1413 49.2108 62.2743 49.6736C62.404 50.14 62.6402 50.5257 62.9761 50.8273C63.3153 51.1288 63.7477 51.2971 64.2799 51.3287H64.5459C64.6391 51.3287 64.7322 51.3217 64.8253 51.3112C64.8685 51.6197 64.9251 51.9073 65.0049 52.1738C65.0847 52.4438 65.1812 52.6752 65.3009 52.8716C65.4206 53.0679 65.5603 53.2222 65.7233 53.3309C65.8829 53.4396 66.0692 53.4852 66.2787 53.4642C66.6313 53.4326 66.9539 53.2678 67.2466 52.9698C67.5392 52.6752 67.792 52.3456 68.0115 51.9809C68.0747 51.8933 68.1346 51.8021 68.1911 51.7109C68.2477 51.6162 68.2975 51.5216 68.3408 51.4234C68.4239 51.2586 68.5038 51.0973 68.5736 50.9395C68.6468 50.7817 68.7133 50.6344 68.7765 50.5047C68.9528 50.1435 69.1357 49.7613 69.3219 49.3615C69.5082 48.9618 69.6878 48.5761 69.8607 48.2079C70.0337 47.8397 70.19 47.4961 70.3297 47.17C70.4694 46.8474 70.5858 46.5738 70.6822 46.3564L71.2609 46.3249L71.2643 46.3354ZM70.3264 37.1518C69.4616 38.9962 67.2632 40.732 63.7244 42.3695C62.2377 43.0603 60.648 43.6739 58.965 44.2139C57.2788 44.7504 55.4861 45.2273 53.5804 45.6446C53.6103 45.5885 53.6369 45.5359 53.6602 45.4798C53.6802 45.4237 53.7001 45.3711 53.7234 45.315H53.7068C54.2788 43.9124 54.8975 42.5764 55.5626 41.307C56.2278 40.0412 56.9562 38.8314 57.7478 37.6778C60.3386 33.8276 62.8929 31.8429 65.4107 31.7202C66.8973 31.6641 68.1612 32.0989 69.2022 33.0211C70.2432 33.9082 70.7055 34.9357 70.5924 36.0998C70.5725 36.2857 70.5392 36.4645 70.4993 36.6363C70.4594 36.8046 70.3995 36.98 70.3264 37.1553V37.1518ZM52.2201 49.3931C52.2301 49.9086 52.3332 50.2943 52.5327 50.5538C52.7323 50.8097 52.9817 50.964 53.2811 51.0061C53.5837 51.0482 53.9196 50.9886 54.2955 50.8238C54.6713 50.659 55.0405 50.4065 55.403 50.0663C55.5161 49.9576 55.6391 49.8314 55.7688 49.6876C55.8986 49.5439 56.005 49.4176 56.0881 49.3089C56.1713 49.1862 56.1946 49.1196 56.158 49.1021C56.1214 49.0845 56.0615 49.1196 55.9784 49.2073C55.8653 49.3405 55.7522 49.4632 55.6425 49.5789C55.5327 49.6947 55.4096 49.8069 55.2766 49.9156C55.0272 50.1119 54.7578 50.2732 54.4717 50.403C54.1857 50.5292 53.9196 50.5748 53.6768 50.5432C53.4307 50.5117 53.2279 50.3784 53.0682 50.147C52.9086 49.9156 52.8354 49.5439 52.8587 49.0284C52.8687 48.5796 52.9352 48.0711 53.0549 47.5066C53.1746 46.942 53.3243 46.402 53.5006 45.8866C55.0837 45.5675 56.6336 45.1853 58.1602 44.7364C59.6834 44.2876 61.1901 43.7581 62.6768 43.155C67.0071 41.4333 69.6645 39.5783 70.6523 37.5936C70.8286 37.2079 70.945 36.8046 70.9949 36.3768C71.098 35.0619 70.5691 33.8872 69.4017 32.8563C68.2576 31.8148 66.924 31.338 65.4073 31.4256C60.9939 31.7237 56.8664 36.4715 53.015 45.6762V45.7253C52.7556 46.3599 52.5527 46.9911 52.4064 47.6083C52.26 48.2289 52.1968 48.8215 52.2201 49.3931ZM51.954 44.0456C51.984 43.9474 51.954 43.8493 51.8509 43.7581C51.7511 43.6634 51.6447 43.6284 51.5316 43.6494C51.3853 43.681 51.1924 43.8317 50.9529 44.0947C50.7135 44.3472 50.5937 44.5506 50.5937 44.7049C50.5937 44.8486 50.7068 44.9398 50.9363 44.9854C51.0926 45.0169 51.2855 44.9188 51.515 44.6873C51.7744 44.4454 51.9208 44.2315 51.9507 44.0456H51.954ZM52.9385 49.1301C53.0017 49.074 53.0483 49.0144 53.0782 48.9478C53.1081 48.8811 53.1214 48.832 53.1181 48.8005C53.1115 48.7689 53.0882 48.7584 53.0483 48.7689C53.0083 48.7795 52.9385 48.8356 52.8454 48.9337C52.699 49.0775 52.4928 49.2528 52.2201 49.4597C51.9507 49.6666 51.658 49.877 51.3454 50.0839C51.0328 50.2943 50.7301 50.4801 50.4308 50.6449C50.1348 50.8097 49.8886 50.9149 49.6891 50.957C49.586 50.9781 49.4796 50.9921 49.3698 50.9991C49.26 51.0061 49.1702 50.9745 49.0971 50.9079C49.0239 50.8413 48.9906 50.7361 48.9973 50.5853C49.004 50.438 49.0671 50.2276 49.1935 49.9506C49.3199 49.6771 49.3997 49.4948 49.4363 49.4071C49.4729 49.3195 49.4962 49.2598 49.5062 49.2248C49.5161 49.1932 49.5294 49.1582 49.5461 49.1196C49.5627 49.081 49.6093 48.9723 49.6924 48.8005C49.7756 48.6252 49.9152 48.3481 50.1048 47.9694C50.2977 47.5907 50.5705 47.0507 50.923 46.3494C51.0161 46.1531 51.0427 45.9918 50.9995 45.8725C50.9596 45.7533 50.8897 45.6762 50.7966 45.6411C50.7035 45.6095 50.6037 45.6166 50.5006 45.6656C50.3975 45.7147 50.3343 45.8059 50.3144 45.9357C50.3044 45.9812 50.2578 46.097 50.1747 46.2898C50.0915 46.4827 49.9884 46.7106 49.862 46.9806C49.7356 47.2506 49.6026 47.5452 49.4563 47.8713C49.3099 48.1939 49.1769 48.513 49.0505 48.825C48.9241 49.1371 48.821 49.4352 48.7379 49.7122C48.6547 49.9927 48.6115 50.2206 48.6115 50.396C48.6115 50.5923 48.6614 50.7606 48.7612 50.8974C48.8609 51.0342 48.974 51.1429 49.1037 51.227C49.2334 51.3077 49.3631 51.3603 49.4929 51.3848C49.6226 51.4058 49.719 51.4058 49.7822 51.3848C50.0117 51.2761 50.2811 51.1218 50.5937 50.9219C50.9064 50.7256 51.2157 50.5117 51.5217 50.2873C51.8276 50.0628 52.1103 49.8454 52.3664 49.6386C52.6225 49.4317 52.8121 49.2598 52.9352 49.1301H52.9385ZM46.5095 39.5538C46.3632 39.5327 46.2168 39.5117 46.0738 39.4941C45.9275 39.4766 45.7778 39.4696 45.6215 39.4696C44.4441 39.4696 43.1703 39.8203 41.7967 40.5216C40.5894 41.1247 39.6182 41.8155 38.8766 42.5939C38.8566 42.4852 38.8466 42.373 38.8466 42.2643C38.8466 41.7138 39.0961 41.1598 39.595 40.6022C40.157 39.9781 40.9054 39.4661 41.8433 39.0734C42.8211 38.6456 43.8222 38.4317 44.8399 38.4317C44.9863 38.4317 45.1359 38.4387 45.2922 38.4492C45.4485 38.4597 45.5982 38.4773 45.7446 38.4983C46.3698 38.607 46.9219 38.7928 47.4075 39.0488C47.8931 39.3083 48.2989 39.659 48.6314 40.1113C49.2135 40.9108 49.5062 41.833 49.5062 42.8744C49.5062 44.1894 49.0073 45.4973 48.0062 46.7912C47.5472 47.3944 47.0317 47.9414 46.453 48.4288C45.8743 48.9162 45.2324 49.358 44.5239 49.7543C43.1304 50.5222 41.82 50.8729 40.5894 50.8062C39.4253 50.7501 38.514 50.424 37.8588 49.8279C37.2036 49.2318 36.8744 48.4218 36.8744 47.4014C36.8744 47.1805 36.891 46.9596 36.9209 46.7351C36.9509 46.5107 36.9941 46.2758 37.0473 46.0373C37.1737 45.599 37.3998 45.073 37.7324 44.4559C37.9087 44.1578 38.0783 43.9089 38.2413 43.6985C38.401 43.4916 38.5573 43.3128 38.7003 43.1725C38.8134 43.5232 39.0528 43.8528 39.4187 44.1613C39.6149 44.3156 39.8178 44.4313 40.0273 44.5155C40.2369 44.5962 40.453 44.6452 40.6825 44.6558C40.8488 44.6873 40.932 44.6488 40.932 44.5401C40.932 44.4629 40.8754 44.4243 40.759 44.4243C40.3333 44.4243 39.9275 44.27 39.5417 43.965C39.3655 43.8107 39.2191 43.6494 39.106 43.4811C38.993 43.3128 38.9231 43.1339 38.9032 42.9481C39.3089 42.3344 40.167 41.6717 41.4774 40.9564C42.9874 40.1113 44.3643 39.6905 45.6148 39.6905C45.9275 39.6905 46.2202 39.7221 46.4896 39.7887C46.6026 39.8238 46.6625 39.7817 46.6625 39.673C46.6625 39.6064 46.6093 39.5678 46.5062 39.5573L46.5095 39.5538ZM36.8012 46.0198C36.6748 46.5142 36.6149 46.9911 36.6149 47.4505C36.6149 48.6252 37.0373 49.5719 37.8788 50.2978C38.6171 50.9219 39.5218 51.2621 40.5961 51.3182C41.7501 51.3848 42.9674 51.1043 44.2479 50.4801C45.6514 49.7999 46.8222 48.8987 47.7601 47.7801C48.3022 47.1103 48.7346 46.4125 49.0638 45.6902C49.3931 44.9678 49.6126 44.1999 49.7257 43.3864C49.7356 43.3303 49.7423 43.2672 49.749 43.1971C49.7556 43.1269 49.7556 43.0533 49.7556 42.9761C49.7556 41.9873 49.4529 41.044 48.851 40.1464C48.1425 39.0383 47.1747 38.3861 45.9474 38.1897C45.5716 38.1231 45.1825 38.0915 44.7767 38.0915C43.7557 38.0915 42.7745 38.2879 41.8266 38.6841C40.8388 39.1225 40.0306 39.7221 39.4087 40.4795C38.8666 41.1703 38.5972 41.8225 38.5972 42.4361C38.5972 42.6115 38.6171 42.7693 38.6604 42.913C37.6826 43.9229 37.0639 44.9573 36.8045 46.0233L36.8012 46.0198ZM30.309 45.4272C30.1826 45.6236 30.0163 45.8059 29.8035 45.9707C29.5906 46.1355 29.3545 46.2793 29.0917 46.4055C28.8323 46.5318 28.5563 46.6264 28.2636 46.6931C27.9709 46.7597 27.6915 46.7912 27.4221 46.7912C27.7747 46.3845 28.1505 45.9918 28.5463 45.6131C28.9421 45.2343 29.3312 44.9293 29.717 44.7014C29.8733 44.6137 30.0097 44.5681 30.1294 44.5611C30.2491 44.5541 30.3389 44.5891 30.4021 44.6593C30.4653 44.7294 30.4919 44.8311 30.4786 44.9643C30.4687 45.0976 30.4121 45.2484 30.3057 45.4237L30.309 45.4272ZM32.8201 46.2021C32.8733 46.125 32.8799 46.0759 32.8434 46.0549C32.8068 46.0338 32.7635 46.0619 32.7103 46.1355C32.5839 46.2547 32.411 46.3775 32.1882 46.4967C31.9653 46.6159 31.7425 46.6896 31.5263 46.7106C31.36 46.7316 31.1604 46.7492 30.9243 46.7597C30.6915 46.7702 30.4387 46.7772 30.166 46.7842C29.8966 46.7912 29.6106 46.7912 29.3079 46.7912H28.4498C28.9687 46.7036 29.4343 46.5563 29.8401 46.3459C30.2458 46.1355 30.5285 45.8795 30.6815 45.571C30.7746 45.4062 30.8146 45.2273 30.7979 45.0275C30.7813 44.8311 30.7314 44.6523 30.6416 44.4945C30.5518 44.3367 30.4321 44.2139 30.2758 44.1333C30.1194 44.0526 29.9432 44.0421 29.7436 44.1087C29.3778 44.263 28.972 44.5295 28.5197 44.9082C28.0673 45.2869 27.635 45.7358 27.2226 46.2583C26.8102 46.7807 26.4643 47.3418 26.1782 47.9449C25.8922 48.548 25.7326 49.1511 25.7026 49.7543C25.6926 49.9752 25.7392 50.1786 25.8423 50.3714C25.9454 50.5643 26.0751 50.7291 26.2314 50.8729C26.3878 51.0166 26.5574 51.1218 26.747 51.1919C26.9332 51.2621 27.1062 51.2831 27.2625 51.2481C27.4487 51.2165 27.645 51.1569 27.8478 51.0762C28.0507 50.9956 28.2469 50.9044 28.4332 50.8062C28.6194 50.708 28.7924 50.6064 28.9487 50.5012C29.105 50.396 29.2414 50.3013 29.3545 50.2136C29.4376 50.1575 29.4576 50.1119 29.4177 50.0734C29.3778 50.0348 29.3146 50.0418 29.2314 50.0979C28.9487 50.2627 28.6161 50.4205 28.2237 50.5748C27.8345 50.7291 27.4654 50.8308 27.1228 50.8869C26.9864 50.8974 26.8534 50.8869 26.7237 50.8623C26.594 50.8343 26.4776 50.7817 26.3811 50.6975C26.2813 50.6169 26.2048 50.4977 26.1483 50.3434C26.0918 50.1891 26.0685 49.9927 26.0785 49.7508C26.0884 49.4878 26.135 49.2318 26.2181 48.9863C26.3013 48.7409 26.4011 48.5024 26.5142 48.271C26.6272 48.0396 26.7503 47.8257 26.88 47.6223C27.0097 47.4189 27.1328 47.2366 27.2458 47.0718H28.3401C28.7558 47.0718 29.1716 47.0648 29.5873 47.0542C30.003 47.0437 30.3855 47.0332 30.7347 47.0227C31.084 47.0122 31.3467 46.9911 31.523 46.9561C31.8156 46.914 32.0784 46.8053 32.3112 46.6335C32.544 46.4651 32.7136 46.3179 32.8167 46.1986L32.8201 46.2021ZM21.2858 51.0903C21.4122 51.1008 21.5087 51.0973 21.5818 51.0727C21.645 51.0517 21.6916 51.0306 21.7215 51.0061C21.7514 50.9851 21.7681 50.9745 21.7681 50.9745C21.9776 50.9745 22.2004 50.8553 22.4399 50.6134C22.9721 50.14 23.6173 49.4282 24.3756 48.4744C24.7082 48.0571 25.0009 47.6749 25.2503 47.3313C25.4997 46.9841 25.7126 46.6755 25.8889 46.402C25.982 46.2828 26.0452 46.2372 26.0751 46.2688C26.1283 46.3249 26.1949 46.3705 26.278 46.409C26.3612 46.4476 26.4609 46.4827 26.574 46.5142C26.7204 46.5458 26.7935 46.5072 26.7935 46.3985C26.7935 46.367 26.7769 46.3389 26.747 46.3179C26.6206 46.2197 26.5541 46.104 26.5441 45.9707C26.5241 45.7638 26.6638 45.4342 26.9665 44.9819C26.9765 44.9714 26.9665 44.9433 26.9432 44.9012C26.9199 44.8591 26.88 44.8171 26.8334 44.7785C26.7869 44.7399 26.7403 44.7084 26.6937 44.6803C26.6472 44.6523 26.6139 44.6452 26.5906 44.6558C26.5175 44.6978 26.431 44.761 26.3246 44.8381C26.2215 44.9153 26.0951 45.0134 25.9487 45.1362C25.8756 45.343 25.8257 45.5219 25.7991 45.6621C25.7725 45.8059 25.7459 45.9041 25.7126 45.9567C25.4532 46.3424 25.1938 46.7211 24.941 47.0928C24.6849 47.4645 24.4222 47.8432 24.1528 48.2289C23.757 48.79 23.4078 49.2598 23.1084 49.6456C22.8058 50.0313 22.5463 50.3153 22.3268 50.5012C22.1705 50.6344 22.0408 50.6975 21.9377 50.6975C21.7814 50.6975 21.7049 50.5783 21.7049 50.3364C21.7049 50.2382 21.7215 50.1225 21.7514 49.9927C21.9809 49.1161 22.5696 47.8853 23.5142 46.3073C23.5242 46.2863 23.5341 46.2653 23.5441 46.2512C23.5541 46.2337 23.5607 46.2162 23.5607 46.1951C23.5607 46.0514 23.4776 45.9812 23.3113 45.9812C23.2381 45.9812 23.1849 46.0023 23.155 46.0479C21.8645 47.9239 21.0896 49.4702 20.8302 50.687C20.8002 50.7747 20.8335 50.8623 20.9399 50.95C21.043 51.0377 21.1594 51.0868 21.2825 51.0973L21.2858 51.0903ZM20.6938 44.0491C20.7237 43.951 20.6938 43.8528 20.594 43.7616C20.4943 43.6669 20.3878 43.6319 20.2747 43.6529C20.1284 43.6845 19.9355 43.8352 19.696 44.0982C19.4566 44.3507 19.3368 44.5541 19.3368 44.7084C19.3368 44.8521 19.4499 44.9433 19.6794 44.9889C19.8357 45.0204 20.0286 44.9223 20.2581 44.6908C20.5175 44.4489 20.6639 44.235 20.6938 44.0491ZM21.6783 49.1336C21.7415 49.0775 21.788 49.0179 21.818 48.9513C21.8479 48.8846 21.8612 48.8356 21.8579 48.804C21.8512 48.7724 21.8279 48.7619 21.788 48.7724C21.7481 48.783 21.6783 48.8391 21.5852 48.9372C21.4388 49.081 21.2326 49.2563 20.9599 49.4632C20.6905 49.6701 20.3978 49.8805 20.0852 50.0874C19.7725 50.2978 19.4699 50.4836 19.1739 50.6484C18.8779 50.8132 18.6284 50.9184 18.4322 50.9605C18.3291 50.9816 18.2227 50.9956 18.1129 51.0026C18.0031 51.0096 17.9133 50.9781 17.8402 50.9114C17.767 50.8448 17.7337 50.7396 17.7404 50.5888C17.7437 50.4416 17.8102 50.2312 17.9366 49.9541C18.063 49.6806 18.1428 49.4983 18.1794 49.4106C18.216 49.323 18.2393 49.2634 18.2493 49.2283C18.2592 49.1967 18.2725 49.1617 18.2892 49.1231C18.3058 49.0845 18.3557 48.9758 18.4388 48.804C18.522 48.6287 18.6617 48.3517 18.8513 47.9729C19.0442 47.5942 19.3169 47.0542 19.6694 46.3529C19.7626 46.1566 19.7892 45.9953 19.7493 45.876C19.7093 45.7568 19.6395 45.6797 19.5464 45.6446C19.4532 45.6131 19.3535 45.6201 19.2504 45.6692C19.1473 45.7182 19.0841 45.8094 19.0641 45.9392C19.0541 45.9847 19.0076 46.1005 18.9244 46.2933C18.8413 46.4862 18.7382 46.7141 18.6118 46.9841C18.4854 47.2541 18.3524 47.5487 18.206 47.8748C18.0597 48.1974 17.9233 48.5165 17.8003 48.8285C17.6739 49.1406 17.5708 49.4387 17.4876 49.7157C17.4045 49.9962 17.3612 50.2241 17.3612 50.3995C17.3612 50.5958 17.4111 50.7642 17.5109 50.9009C17.6107 51.0377 17.7238 51.1464 17.8535 51.2305C17.9832 51.3112 18.1129 51.3638 18.2426 51.3883C18.3723 51.4094 18.4688 51.4094 18.532 51.3883C18.7615 51.2796 19.0309 51.1253 19.3435 50.9254C19.6561 50.7291 19.9654 50.5152 20.2714 50.2908C20.5774 50.0663 20.8601 49.8489 21.1129 49.6421C21.369 49.4352 21.5585 49.2634 21.6816 49.1336H21.6783ZM30.1228 37.1553C29.258 38.9997 27.0596 40.7355 23.5208 42.373C22.0341 43.0638 20.4477 43.6774 18.7615 44.2175C17.0752 44.754 15.2826 45.2308 13.3768 45.6481C13.4067 45.592 13.4333 45.5394 13.4533 45.4833C13.4733 45.4272 13.4932 45.3746 13.5165 45.3185H13.4999C14.0719 43.9159 14.6905 42.5799 15.3557 41.3105C16.0209 40.0447 16.7493 38.8349 17.5408 37.6813C20.1317 33.8311 22.686 31.8464 25.2037 31.7237C26.6904 31.6676 27.9543 32.1024 28.9953 33.0246C30.0363 33.9117 30.4986 34.9392 30.3855 36.1033C30.3656 36.2892 30.3323 36.468 30.2924 36.6398C30.2525 36.8081 30.1926 36.9835 30.1194 37.1588L30.1228 37.1553ZM12.0165 49.3966C12.0265 49.9121 12.1296 50.2978 12.3291 50.5573C12.5254 50.8132 12.7781 50.9675 13.0775 51.0096C13.3801 51.0517 13.7161 50.9921 14.0919 50.8273C14.4677 50.6625 14.8369 50.41 15.1994 50.0699C15.3125 49.9612 15.4355 49.8349 15.5653 49.6912C15.695 49.5474 15.8014 49.4212 15.8845 49.3124C15.9677 49.1897 15.991 49.1231 15.9544 49.1056C15.9178 49.088 15.8579 49.1231 15.7748 49.2108C15.6617 49.344 15.5486 49.4667 15.4389 49.5824C15.3291 49.6982 15.2061 49.8104 15.073 49.9191C14.8236 50.1154 14.5542 50.2767 14.2682 50.4065C13.9821 50.5327 13.7161 50.5783 13.4733 50.5467C13.2305 50.5152 13.0243 50.3819 12.8646 50.1505C12.7016 49.9191 12.6318 49.5474 12.6551 49.0319C12.6651 48.5831 12.7316 48.0746 12.8513 47.5101C12.971 46.9455 13.1207 46.4055 13.297 45.8901C14.8801 45.571 16.43 45.1888 17.9566 44.7399C19.4799 44.2911 20.9865 43.7616 22.4765 43.1585C26.8035 41.4368 29.4642 39.5818 30.452 37.5971C30.6283 37.2114 30.7447 36.8081 30.7946 36.3803C30.8977 35.0654 30.3689 33.8907 29.2015 32.8598C28.0574 31.8183 26.7237 31.3415 25.2071 31.4291C20.7969 31.7272 16.6628 36.475 12.8147 45.6797V45.7288C12.5553 46.3635 12.3524 46.9946 12.2061 47.6118C12.0597 48.2324 11.9966 48.825 12.0198 49.3966H12.0165ZM9.89458 39.5573C9.74824 39.5362 9.6019 39.5152 9.45889 39.4977C9.31255 39.4801 9.16288 39.4731 9.00656 39.4731C7.82919 39.4731 6.55537 39.8238 5.18177 40.5251C3.97446 41.1282 3.0033 41.819 2.26162 42.5974C2.24166 42.4887 2.23169 42.3765 2.23169 42.2678C2.23169 41.7173 2.48113 41.1633 2.98001 40.6057C3.54209 39.9816 4.29042 39.4696 5.22833 39.0769C6.20615 38.6491 7.20392 38.4352 8.22497 38.4352C8.37131 38.4352 8.52098 38.4422 8.6773 38.4527C8.83362 38.4632 8.98328 38.4808 9.12962 38.5018C9.75489 38.6105 10.307 38.7964 10.7926 39.0523C11.2748 39.3118 11.6839 39.6625 12.0165 40.1148C12.5985 40.9143 12.8912 41.8365 12.8912 42.878C12.8912 44.1929 12.3923 45.5008 11.3946 46.7948C10.9356 47.3979 10.4201 47.9449 9.84137 48.4323C9.26266 48.9197 8.62076 49.3615 7.91234 49.7578C6.51878 50.5257 5.20837 50.8764 3.97779 50.8097C2.81372 50.7536 1.90242 50.4275 1.24722 49.8314C0.592012 49.2353 0.262747 48.4253 0.262747 47.4049C0.262747 47.184 0.279376 46.9631 0.30931 46.7386C0.339243 46.5142 0.38248 46.2793 0.435694 46.0408C0.562079 45.6025 0.788241 45.0766 1.12416 44.4594C1.30043 44.1613 1.47005 43.9124 1.6297 43.702C1.79267 43.4951 1.94566 43.3163 2.08867 43.176C2.20175 43.5267 2.44122 43.8563 2.80707 44.1649C3.0033 44.3191 3.2095 44.4349 3.41571 44.519C3.62524 44.5997 3.84143 44.6488 4.07091 44.6593C4.23721 44.6908 4.32036 44.6523 4.32036 44.5436C4.32036 44.4664 4.26382 44.4278 4.14741 44.4278C3.72169 44.4278 3.31593 44.2736 2.93013 43.9685C2.75385 43.8142 2.60751 43.6529 2.49443 43.4846C2.38135 43.3163 2.31151 43.1374 2.29155 42.9516C2.69731 42.3379 3.5554 41.6752 4.86581 40.9599C6.37577 40.1148 7.75269 39.694 8.99991 39.694C9.31255 39.694 9.60523 39.7256 9.87463 39.7922C9.98771 39.8273 10.0476 39.7852 10.0476 39.6765C10.0476 39.6099 9.99436 39.5713 9.89125 39.5608L9.89458 39.5573ZM0.186251 46.0198C0.0598664 46.5142 0 46.9911 0 47.4505C0 48.6252 0.42239 49.5719 1.26385 50.2978C2.0022 50.9219 2.90684 51.2621 3.98111 51.3182C5.1352 51.3848 6.35249 51.1043 7.63296 50.4801C9.0365 49.7999 10.2072 48.8987 11.1451 47.7801C11.6872 47.1103 12.1196 46.4125 12.4489 45.6902C12.7748 44.9678 12.9977 44.1999 13.1107 43.3864C13.1207 43.3303 13.1274 43.2672 13.134 43.1971C13.1407 43.1269 13.1407 43.0533 13.1407 42.9761C13.1407 41.9873 12.838 41.044 12.236 40.1464C11.5276 39.0383 10.5598 38.3861 9.3325 38.1897C8.95667 38.1231 8.56754 38.0915 8.16178 38.0915C7.14073 38.0915 6.15958 38.2879 5.2117 38.6841C4.22391 39.1225 3.41571 39.7221 2.79376 40.4795C2.25164 41.1703 1.98224 41.8225 1.98224 42.4361C1.98224 42.6115 2.0022 42.7693 2.04543 42.913C1.06762 43.9229 0.448998 44.9573 0.189577 46.0233L0.186251 46.0198Z" fill="#231F20"/>
<path d="M109.443 45.4307C109.316 45.6271 109.15 45.8094 108.934 45.9742C108.721 46.139 108.485 46.2828 108.222 46.409C107.963 46.5353 107.686 46.6299 107.394 46.6966C107.101 46.7632 106.822 46.7947 106.552 46.7947C106.905 46.388 107.281 45.9952 107.677 45.6165C108.072 45.2378 108.461 44.9328 108.847 44.7048C109.004 44.6172 109.14 44.5716 109.26 44.5646C109.379 44.5576 109.469 44.5926 109.532 44.6628C109.596 44.7329 109.622 44.8346 109.609 44.9678C109.599 45.1011 109.542 45.2519 109.436 45.4272L109.443 45.4307ZM111.947 46.2021C112 46.125 112.007 46.0759 111.97 46.0549C111.934 46.0338 111.89 46.0619 111.837 46.1355C111.711 46.2547 111.538 46.3775 111.315 46.4967C111.092 46.6159 110.869 46.6895 110.653 46.7106C110.487 46.7316 110.287 46.7492 110.051 46.7597C109.818 46.7702 109.566 46.7772 109.293 46.7842C109.023 46.7912 108.737 46.7912 108.435 46.7912H107.577C108.096 46.7036 108.561 46.5563 108.967 46.3459C109.373 46.1355 109.652 45.8795 109.808 45.571C109.902 45.4061 109.941 45.2238 109.925 45.0274C109.908 44.8311 109.858 44.6522 109.769 44.4944C109.679 44.3367 109.559 44.2139 109.403 44.1333C109.246 44.0526 109.07 44.0421 108.871 44.1087C108.508 44.263 108.099 44.5295 107.647 44.9082C107.194 45.2869 106.762 45.7358 106.353 46.2582C105.94 46.7807 105.594 47.3418 105.308 47.9449C105.022 48.548 104.863 49.1511 104.833 49.7542C104.823 49.9717 104.869 50.1785 104.973 50.3714C105.076 50.5643 105.205 50.7291 105.362 50.8728C105.518 51.0166 105.691 51.1218 105.877 51.1954C106.063 51.2656 106.236 51.2866 106.393 51.2515C106.579 51.22 106.775 51.1604 106.978 51.0797C107.181 50.9991 107.377 50.9079 107.563 50.8097C107.75 50.7115 107.923 50.6098 108.079 50.5046C108.235 50.3995 108.372 50.3048 108.485 50.2171C108.568 50.161 108.588 50.1154 108.548 50.0768C108.508 50.0383 108.445 50.0453 108.362 50.1014C108.082 50.2662 107.746 50.424 107.354 50.5783C106.965 50.7326 106.596 50.8343 106.253 50.8904C106.117 50.9009 105.984 50.8904 105.854 50.8658C105.724 50.8378 105.608 50.7852 105.511 50.701C105.412 50.6204 105.335 50.5011 105.279 50.3469C105.222 50.1926 105.199 49.9962 105.209 49.7542C105.219 49.4913 105.265 49.2353 105.348 48.9898C105.432 48.7444 105.531 48.5059 105.644 48.2745C105.757 48.0431 105.881 47.8292 106.01 47.6258C106.14 47.4224 106.263 47.2401 106.376 47.0753H107.467C107.883 47.0753 108.298 47.0682 108.714 47.0577C109.13 47.0472 109.512 47.0367 109.862 47.0262C110.211 47.0156 110.474 46.9946 110.65 46.9595C110.943 46.9175 111.205 46.8088 111.438 46.6369C111.671 46.4686 111.841 46.3214 111.944 46.2021H111.947ZM98.477 50.8763C98.9028 50.7782 99.1688 50.6554 99.2719 50.5152C99.8872 49.7578 100.486 49.0845 101.075 48.4919C101.663 47.8993 102.252 47.3838 102.847 46.9455C102.93 46.8894 103.014 46.8614 103.097 46.8614C103.283 46.8614 103.376 46.949 103.376 47.1243C103.376 47.191 103.359 47.2436 103.33 47.2892C103.027 47.7275 102.744 48.1798 102.478 48.6462C102.212 49.1126 101.959 49.5965 101.72 50.1014C101.128 51.2971 100.799 52.2895 100.735 53.0784C100.682 53.7797 100.802 54.2952 101.095 54.6248C101.364 54.9089 101.71 55.0316 102.126 54.986C103.29 54.8528 104.374 54.2672 105.372 53.2257C105.737 52.84 106.037 52.4753 106.276 52.1247C106.516 51.774 106.682 51.4374 106.775 51.1218C106.838 50.9254 106.868 50.7641 106.868 50.6449C106.868 50.3924 106.779 50.2662 106.602 50.2662C106.529 50.2662 106.449 50.2872 106.359 50.3328C106.27 50.3784 106.226 50.431 106.226 50.4976C106.226 50.5292 106.246 50.5467 106.29 50.5467C106.343 50.5467 106.399 50.5537 106.463 50.5713C106.526 50.5888 106.579 50.6204 106.626 50.6695C106.672 50.7185 106.695 50.7992 106.695 50.9079C106.695 51.4444 106.2 52.1597 105.212 53.0469C104.317 53.8464 103.572 54.3373 102.98 54.5126C102.844 54.5547 102.694 54.5792 102.528 54.5792C102.175 54.5792 101.889 54.4565 101.67 54.2181C101.43 53.9446 101.331 53.5553 101.374 53.0504C101.414 52.2825 101.723 51.2515 102.295 49.9576C102.887 48.6532 103.556 47.4995 104.294 46.5002C104.45 46.3038 104.454 46.1776 104.311 46.1215C104.174 46.0549 103.995 46.0759 103.765 46.1881C103.652 46.2302 103.522 46.3214 103.376 46.4511C103.107 46.5598 102.581 46.9455 101.8 47.6012C101.467 47.8853 101.141 48.1763 100.825 48.4638C100.509 48.7549 100.203 49.0494 99.9105 49.344C99.8473 49.4211 99.7841 49.4597 99.7243 49.4597C99.6411 49.4597 99.5979 49.4001 99.5979 49.2774C99.5979 49.1897 99.6178 49.1196 99.6611 49.0635C99.8706 48.569 100.117 48.0851 100.403 47.6083C100.689 47.1314 101.031 46.651 101.424 46.1671C101.454 46.1355 101.47 46.0969 101.47 46.0513C101.46 46.0408 101.424 46.0408 101.361 46.0513C101.248 46.0724 101.161 46.1004 101.105 46.132C101.048 46.1636 101.005 46.2091 100.971 46.2652C100.762 46.5282 100.539 46.8333 100.3 47.1805C100.06 47.5241 99.8041 47.9168 99.5347 48.3587C98.9626 49.2809 98.5569 50.0102 98.3174 50.5467C98.2542 50.68 98.2442 50.7676 98.2875 50.8097C98.2974 50.8763 98.3606 50.8974 98.4737 50.8763H98.477ZM98.3207 44.0456C98.3507 43.9474 98.3207 43.8492 98.2209 43.7581C98.1212 43.6634 98.0147 43.6283 97.9016 43.6494C97.7553 43.6809 97.5624 43.8317 97.3229 44.0947C97.0835 44.3472 96.9638 44.5506 96.9638 44.7048C96.9638 44.8486 97.0768 44.9398 97.3063 44.9854C97.4626 45.0169 97.6555 44.9187 97.885 44.6873C98.1444 44.4454 98.2908 44.2315 98.3207 44.0456ZM99.3052 49.1301C99.3684 49.074 99.4149 49.0144 99.4449 48.9477C99.4748 48.8811 99.4881 48.832 99.4848 48.8005C99.4781 48.7689 99.4549 48.7584 99.4149 48.7689C99.375 48.7794 99.3052 48.8355 99.2121 48.9337C99.0657 49.0775 98.8595 49.2528 98.5868 49.4597C98.3174 49.6666 98.0247 49.877 97.7121 50.0839C97.3994 50.2907 97.0968 50.4801 96.8008 50.6449C96.5048 50.8097 96.2587 50.9149 96.0591 50.957C95.956 50.978 95.8496 50.9921 95.7398 50.9991C95.6301 51.0061 95.5403 50.9745 95.4671 50.9079C95.3939 50.8413 95.3607 50.7361 95.3673 50.5853C95.374 50.438 95.4372 50.2276 95.5635 49.9506C95.6899 49.6771 95.7697 49.4948 95.8063 49.4071C95.8429 49.3194 95.8662 49.2598 95.8762 49.2248C95.8862 49.1932 95.8995 49.1546 95.9161 49.1161C95.9327 49.0775 95.9826 48.9723 96.0658 48.797C96.1489 48.6216 96.2886 48.3446 96.4782 47.9659C96.6711 47.5872 96.9438 47.0472 97.2963 46.3459C97.3895 46.1495 97.4161 45.9882 97.3728 45.869C97.3329 45.7498 97.2631 45.6726 97.17 45.6376C97.0768 45.6025 96.977 45.613 96.8739 45.6621C96.7708 45.7112 96.7076 45.8024 96.6877 45.9321C96.6777 45.9777 96.6312 46.0934 96.548 46.2863C96.4649 46.4791 96.3618 46.7071 96.2354 46.9771C96.109 47.2471 95.976 47.5416 95.8296 47.8677C95.6833 48.1903 95.5502 48.5094 95.4239 48.8215C95.2975 49.1336 95.1944 49.4316 95.1112 49.7087C95.0281 49.9892 94.9848 50.2171 94.9848 50.3924C94.9848 50.5888 95.0347 50.7571 95.1345 50.8939C95.2343 51.0306 95.3474 51.1393 95.4771 51.2235C95.6068 51.3041 95.7365 51.3567 95.8662 51.3813C95.9959 51.4023 96.0924 51.4023 96.1555 51.3813C96.385 51.2726 96.6544 51.1183 96.9671 50.9184C97.2797 50.7221 97.589 50.5117 97.895 50.2837C98.201 50.0593 98.4837 49.8419 98.7365 49.635C98.9926 49.4281 99.1821 49.2563 99.3052 49.1266V49.1301ZM83.5271 51.2515C83.7133 50.9991 83.8829 50.7571 84.0326 50.5292C84.1823 50.2978 84.322 50.1084 84.445 49.9541C85.6091 48.5059 86.6335 47.2436 87.5182 46.1706C88.4029 45.0941 89.1512 44.1859 89.7665 43.439C89.8396 43.3618 89.9062 43.3233 89.9694 43.3233C90.0326 43.3233 90.0625 43.3724 90.0625 43.4705C90.0625 43.5687 90.0425 43.6564 89.9993 43.7335C88.9915 45.7638 88.486 47.6398 88.486 49.3615V49.6911C88.486 49.7788 88.4927 49.8735 88.5026 49.9717C88.5326 50.41 88.6889 50.7676 88.9716 51.0411C89.251 51.3147 89.5902 51.4514 89.986 51.4514C90.0392 51.4514 90.0924 51.4514 90.149 51.4444C90.2055 51.4374 90.2654 51.4304 90.3286 51.4199C91.037 51.255 91.9782 50.5958 93.1523 49.4457C93.7443 48.8531 94.2897 48.2429 94.782 47.6188C95.2775 46.9946 95.7265 46.3284 96.1323 45.6271C97.0702 44.0456 97.5358 42.7131 97.5358 41.6296C97.5358 40.7951 97.3762 40.1884 97.0535 39.8027C96.9604 39.6835 96.8806 39.6204 96.8207 39.6204C96.7908 39.6204 96.7742 39.6414 96.7742 39.687C96.7742 39.7536 96.8108 39.8237 96.8839 39.9009C97.1034 40.2726 97.2065 40.8512 97.1966 41.6296C97.1766 42.2012 97.0469 42.8183 96.8074 43.4881C96.568 44.1578 96.2088 44.8872 95.7298 45.6761C94.9283 47.0156 93.9605 48.2359 92.8263 49.344C91.6922 50.4626 90.8374 51.0622 90.2654 51.1393C90.2255 51.1498 90.1822 51.1569 90.139 51.1569H90.0126C89.67 51.1569 89.3873 51.0447 89.1711 50.8202C88.9516 50.5958 88.8485 50.3083 88.8585 49.9576C88.8685 48.8706 89.0414 47.7906 89.374 46.7141C89.5204 46.2407 89.7133 45.7182 89.9594 45.1432C90.2055 44.5681 90.4915 43.9439 90.8241 43.2742C90.8441 43.2321 90.8541 43.176 90.8541 43.1094C90.8541 42.9551 90.8075 42.7903 90.7144 42.6149C90.6212 42.4396 90.5181 42.3309 90.4017 42.2853C90.3186 42.2643 90.2354 42.3449 90.1523 42.5308C89.996 42.7833 89.9195 42.92 89.9195 42.9411C88.8385 44.2455 87.8574 45.4272 86.9794 46.4791C86.1013 47.5311 85.3231 48.4709 84.6446 49.2914C84.5515 49.3896 84.4716 49.4457 84.4118 49.4562C84.3486 49.4772 84.3186 49.4457 84.3186 49.358C84.3186 49.3265 84.3452 49.2423 84.3985 49.1126C84.8574 48.3236 85.2798 47.5311 85.669 46.7421C86.0581 45.9532 86.4206 45.1467 86.7532 44.3226C87.5947 42.2713 88.0004 40.7565 87.9705 39.7817C87.9505 39.2767 87.721 38.8594 87.2854 38.5298C86.8264 38.1687 86.3341 38.0214 85.802 38.0845C84.3453 38.3054 82.7056 39.0874 80.8863 40.4374C79.0537 41.8084 78.026 43.0217 77.7965 44.0737C77.7766 44.1298 77.7666 44.2104 77.7666 44.3191C77.7666 44.5506 77.8132 44.782 77.9063 45.0169C77.9994 45.2519 78.1092 45.4026 78.2322 45.4693C78.4916 45.613 78.8043 45.613 79.1701 45.4693C79.2965 45.4482 79.3564 45.4132 79.3564 45.3711C79.3564 45.35 79.2998 45.3395 79.1834 45.3395C78.7344 45.3395 78.4285 45.2694 78.2622 45.1256C78.0426 44.9187 78.0127 44.5646 78.169 44.0737C78.5548 42.9095 79.7289 41.6752 81.6978 40.3708C82.6657 39.7466 83.5304 39.2697 84.2954 38.9471C85.0603 38.6245 85.7388 38.4597 86.3308 38.4597C87.1423 38.4597 87.5913 38.898 87.6745 39.7747C87.8208 41.1352 86.2344 44.8416 82.9151 50.8974C82.8952 50.964 82.8852 51.0166 82.8852 51.0622C82.8852 51.2586 83.0215 51.3602 83.2909 51.3602C83.394 51.3602 83.4739 51.3217 83.5237 51.2445L83.5271 51.2515Z" fill="#231F20"/>
</g>
<defs>
<clipPath id="clip0_669_778">
<rect width="112" height="55" fill="white"/>
</clipPath>
</defs>
</svg>
