<svg width="56" height="62" viewBox="0 0 56 62" fill="none" xmlns="http://www.w3.org/2000/svg">
<path d="M44.2373 48.3535L44.1457 48.35L44.1318 48.7542L44.2235 48.7577L44.3446 48.7611L44.329 48.3552L44.2373 48.3517V48.3535ZM43.5609 46.7965L43.7426 46.8034L43.8965 46.7794L43.8896 46.9815L43.7374 46.9764L43.5852 46.9713L43.5609 46.7965ZM42.7444 46.6527C43.0143 46.7777 43.1942 46.8411 43.3153 46.8753C43.1769 46.9438 43.0662 46.9884 42.9797 47.0038C43.1371 47.0038 43.2824 46.9952 43.4018 47.0226C43.5229 47.0261 43.6146 47.0295 43.7357 47.0637C43.8568 47.0672 43.9779 47.1014 44.0989 47.134L44.0868 46.6133L43.7512 46.6304L43.4156 46.6475L42.7461 46.6527H42.7444ZM24.6857 49.8778H24.6546L24.6771 50.109L25.1027 50.0953H25.1338L25.1078 49.9515L25.1113 49.8641L24.684 49.8778H24.6857ZM24.4487 47.9612C24.5646 48.1102 24.6235 48.1993 24.6217 48.2558C24.6529 48.2558 24.684 48.2284 24.7446 48.2318C24.774 48.2318 24.8068 48.2044 24.8674 48.1787C24.9591 48.1531 25.0213 48.1257 25.0525 48.1274C25.0542 48.0691 24.9971 47.9527 24.9124 47.8037C24.8812 47.8037 24.8207 47.8293 24.7584 47.8568L24.6961 47.8842C24.5733 47.9372 24.511 47.9647 24.4505 47.9629M24.8311 41.4973L24.748 42.131L24.9625 42.1087V42.0796L25.075 41.5041L24.9833 41.5007L24.8311 41.4955V41.4973ZM24.7515 42.912L24.7359 42.5061L24.4937 42.4975L24.5093 42.9326L24.7532 42.912H24.7515ZM24.8985 47.372C24.8674 47.3994 24.8051 47.4268 24.774 47.4543C24.5871 47.5639 24.492 47.6769 24.4868 47.8208C24.5491 47.766 24.6425 47.7112 24.7653 47.6855C24.8276 47.6581 24.9193 47.6324 25.011 47.6358C24.9504 47.6341 24.9227 47.5467 24.8985 47.372ZM24.3571 49.7836L23.9004 49.7973L23.9228 50.0011L24.3795 49.9874L24.3571 49.7836ZM17.4374 43.991L17.164 43.9825L17.1606 44.0698L17.1571 44.1572L17.4304 44.1949L17.6432 44.2017L18.0065 44.2428L18.0134 44.0698L17.6501 44.0287L17.4391 43.9928L17.4374 43.991ZM17.6363 44.3747H17.6069L17.51 44.5443L17.6311 44.5768L17.8716 44.671L17.9062 44.5271L17.638 44.373L17.6363 44.3747ZM17.0014 29.6021C16.8803 29.5987 16.8198 29.5679 16.761 29.5079L16.7904 30.4054C16.8544 30.3215 16.9167 30.265 16.9807 30.2102C17.1398 30.0132 17.2384 29.8145 17.2142 29.6107C17.1225 29.6073 17.062 29.6056 17.0014 29.6038M17.3145 42.7167C17.2799 42.7167 17.2523 42.715 17.2384 42.7133C17.2384 42.7287 17.2661 42.727 17.3145 42.7167ZM17.6173 47.4988C17.7366 47.4919 17.8283 47.4868 17.9079 47.4817C17.8076 47.4577 17.7193 47.4645 17.6173 47.4988ZM18.0722 47.5433C18.0861 47.5313 18.0982 47.5056 18.1103 47.4782C18.0792 47.4731 18.01 47.4748 17.9079 47.4817C17.9581 47.4936 18.0117 47.5125 18.0722 47.5433ZM17.2384 36.6399C17.3266 36.7015 17.3855 36.7615 17.4149 36.8197C17.4149 36.8488 17.4425 36.9071 17.4408 36.9362C17.5342 36.8814 17.5965 36.854 17.6899 36.8009C17.6899 36.7717 17.7228 36.7443 17.7522 36.7443C17.7833 36.7443 17.8439 36.7478 17.9044 36.7495C18.176 36.8163 18.3577 36.8522 18.4459 36.9139C18.3542 36.9105 18.202 36.9345 17.9581 36.9259H17.8975L17.683 36.9447L17.4391 36.9362H17.4097C17.2263 36.9584 17.1035 36.9824 17.1312 37.0698C17.1069 36.866 17.1433 36.7238 17.2384 36.6399ZM18.3871 35.1463C18.1743 35.1395 18.0203 35.1618 17.9615 35.1309C17.9304 35.1309 17.901 35.1292 17.901 35.1292L17.9633 35.0744L18.1847 34.8209C18.3317 34.9699 18.3888 35.059 18.3871 35.1463ZM17.4633 35.4615L17.683 35.2662L17.7418 35.3262L17.8006 35.3861L17.7384 35.4426L17.4875 35.6653L17.4581 35.6362L17.3699 35.5471L17.4633 35.4632V35.4615ZM17.9598 34.3225L17.7764 34.3448L17.4996 34.4218H17.4391L17.4443 34.2745L17.5066 34.2471L17.7816 34.1992L17.9667 34.1478L17.9598 34.3208V34.3225ZM18.0446 31.0289L17.8923 31.0237L17.7176 30.7856L17.9027 30.7051L18.0428 31.0289H18.0446ZM17.5533 32.8632L17.6155 32.8358L17.6311 33.2709L17.5394 33.2674L17.4183 33.264L17.4028 32.8581L17.555 32.8632H17.5533ZM17.6086 31.3029L17.7003 31.3063L17.709 31.9144L17.5861 31.9383L17.4944 31.9349L17.4564 31.2978L17.6086 31.3029ZM18.5082 39.4608L17.8058 39.495C18.0515 39.4454 18.1795 39.2758 18.1881 39.0172C18.183 39.1611 18.2989 39.3101 18.5082 39.4625M16.9184 28.4169L16.7125 29.0746L17.0204 28.9992L17.2661 28.9496L17.4737 29.1294C17.401 29.4737 17.3266 29.8179 17.2851 30.1348C17.2125 30.4499 17.0827 30.6777 16.9564 30.8182C16.8942 30.8456 16.863 30.873 16.8336 30.8713L16.8907 32.6954L17.0533 38.428C17.145 38.4023 17.2678 38.4074 17.3578 38.4092C17.4495 38.3835 17.5412 38.3869 17.6328 38.3903C17.6934 38.392 17.7851 38.3954 17.8456 38.3972C18.1189 38.4057 18.3317 38.4434 18.5116 38.5068L18.503 38.738L17.8335 38.7449L17.619 38.7654L17.3457 38.7568L17.1018 38.7774L17.1658 40.4285L17.2869 40.4319C17.3785 40.4353 17.4702 40.4388 17.5619 40.4131C17.6225 40.4148 17.7141 40.4182 17.7747 40.4199C18.1397 40.4319 18.413 40.4422 18.5635 40.4765L18.5843 40.7659L18.4909 40.8498C18.2176 40.8396 17.9754 40.8036 17.7626 40.795C17.6709 40.7916 17.6103 40.7899 17.5498 40.7882C17.4581 40.7848 17.3682 40.7813 17.2765 40.7796C17.1848 40.7762 17.1242 40.7745 17.062 40.8019L17.2505 41.5024V41.5606C17.254 41.3876 17.3491 41.2746 17.5325 41.2523C17.5948 41.2249 17.6553 41.1992 17.747 41.2027C18.112 41.1855 18.4096 41.4288 18.6051 41.898C18.4822 41.922 18.3905 41.9494 18.33 41.946C18.2072 41.97 18.0619 41.7919 17.8923 41.4099C17.8595 41.4664 17.7972 41.5212 17.7349 41.5778C17.6415 41.6326 17.5792 41.66 17.5187 41.6857C17.4252 41.7405 17.3336 41.7662 17.2401 41.7919C17.1796 41.7901 17.1485 41.7884 17.0879 41.7867L17.1035 42.1926C17.1035 42.2218 17.1329 42.2235 17.2246 42.2252C17.2851 42.2269 17.3768 42.2012 17.4996 42.2063C17.5308 42.2063 17.5913 42.2098 17.683 42.1841H17.7141C17.9269 42.1926 18.0757 42.3125 18.1259 42.5763C17.9425 42.5695 17.8214 42.5951 17.6986 42.6191C17.638 42.6174 17.5463 42.6431 17.4841 42.6688C17.4131 42.6928 17.3561 42.7116 17.3145 42.7202C17.3578 42.7202 17.4131 42.7236 17.4823 42.7253C17.5135 42.7253 17.574 42.7287 17.6034 42.7287L17.6951 42.7322C17.8473 42.7373 17.9996 42.7424 18.1207 42.7476L18.1535 43.5577C17.9702 43.58 17.7885 43.5748 17.6657 43.5988C17.574 43.5954 17.5135 43.6228 17.4512 43.6485C17.3284 43.6742 17.2367 43.6999 17.1744 43.7256C17.1744 43.7547 17.1433 43.753 17.1433 43.753H17.1744C17.2661 43.7564 17.3561 43.7598 17.4495 43.7341C17.51 43.7358 17.6017 43.7393 17.664 43.7119C17.8473 43.7187 18.0307 43.6673 18.1535 43.6416L18.1985 44.9742C18.1051 45.029 17.8906 45.0495 17.6173 45.041C17.5567 45.0393 17.465 45.0358 17.4045 45.0341C17.3128 45.0307 17.2523 45.029 17.1917 45.0273C17.2523 45.0581 17.3128 45.0598 17.4028 45.0924C17.4633 45.0941 17.5533 45.1266 17.6138 45.1283C17.856 45.1951 18.0359 45.2585 18.1881 45.2636L18.2522 46.8856C18.0965 46.9952 18.003 47.05 17.9408 47.0774C17.8231 46.9575 17.7349 46.8976 17.6121 46.9216L17.5498 46.949C17.4581 46.9747 17.3958 47.0021 17.3336 47.0278L17.2419 47.0535L17.3336 47.0569L17.5463 47.0637C18.0013 47.1083 18.2452 47.1168 18.2452 47.1168C18.2124 47.1734 18.1795 47.259 18.1466 47.3446C18.1449 47.3943 18.1328 47.4405 18.1155 47.4799C18.1276 47.4817 18.1414 47.4834 18.1414 47.4902C18.2314 47.5228 18.2573 47.6683 18.2781 47.9287C18.2695 48.1599 18.2331 48.3329 18.1086 48.4151C18.0515 48.326 18.0549 48.2113 18.0878 48.1257C18.1241 47.9527 18.1276 47.867 18.1276 47.867L17.5187 47.8756L17.3042 47.8979H17.273C17.273 47.8979 17.273 47.9253 17.3024 47.927C17.3301 47.9852 17.3906 48.016 17.4789 48.0777H17.51C17.6294 48.1411 17.6882 48.201 17.7193 48.201L17.9702 47.9784C18.0273 48.0674 18.0567 48.0965 18.0255 48.1548C17.8058 48.3209 17.6173 48.487 17.4927 48.5984L17.3993 48.6532L17.491 48.6566C17.8871 48.6412 18.1328 48.5915 18.1968 48.5076C18.2556 48.5675 18.3127 48.6566 18.3075 48.8005L18.1172 48.9957L17.4806 48.9443L17.299 48.9084C17.3595 48.9392 17.4201 48.9409 17.4789 48.9718C17.6899 49.0368 17.9027 49.0437 18.0843 49.0797L18.3213 49.2612L18.1328 49.4291C17.9529 49.3657 17.7712 49.3297 17.5567 49.3811C17.5879 49.3811 17.5861 49.4102 17.5827 49.5267C17.5792 49.614 17.6398 49.6449 17.7609 49.6483C18.0048 49.6569 18.1587 49.6038 18.2522 49.5198C18.311 49.5798 18.3386 49.6671 18.3335 49.7836C18.0549 49.8898 17.8404 49.9686 17.6571 49.9908C17.5688 49.9292 17.5083 49.8984 17.4477 49.8966C17.3872 49.8949 17.3561 49.9223 17.3249 49.9497L17.446 49.9823C17.9875 50.145 18.2902 50.2135 18.4424 50.1895L23.7429 50.0833L23.1115 28.2816L18.2054 28.4015L17.9927 28.3946L17.7176 28.4135L17.0481 28.4186L16.927 28.4135L16.9184 28.4169ZM17.6778 43.1364L17.5585 43.0747L17.4616 43.2152L17.6709 43.3094L17.8214 43.3436L17.856 43.2289L17.6761 43.1364H17.6778ZM17.3474 46.4797L17.2246 46.5037L17.2177 46.6767L17.3388 46.6801L17.5533 46.6287L17.9511 46.5568L17.9269 46.3821L17.5602 46.4266L17.3457 46.4763L17.3474 46.4797ZM2.15002 48.3843L4.00969 48.3329L4.89368 48.3055C4.89195 48.3637 4.85908 48.4202 4.82448 48.5641C4.75874 48.6772 4.72587 48.7628 4.72241 48.8793C4.87984 48.7405 4.97325 48.6857 5.06494 48.66C5.12722 48.6326 5.15663 48.6343 5.1843 48.7217L5.05802 48.833L4.9646 48.917C4.99401 48.9461 5.02342 48.9769 5.0511 49.0351C5.19814 49.2133 5.34346 49.364 5.46282 49.4548C5.55278 49.5164 5.64273 49.5472 5.70155 49.5798C5.70155 49.5798 5.60987 49.5764 5.45936 49.5421C5.36941 49.5096 5.2189 49.4753 5.03726 49.4411L4.82621 49.4051C4.82621 49.4342 4.82448 49.4633 4.79161 49.5198C4.76047 49.5472 4.72587 49.6329 4.75355 49.7493C4.75009 49.8367 4.77777 49.9241 4.866 50.0131C4.92482 50.0731 4.95423 50.1022 5.01477 50.133C5.04245 50.1912 5.07186 50.2221 5.10127 50.2512C5.07013 50.2786 5.00785 50.306 5.00612 50.3351C4.94385 50.3625 4.94212 50.419 4.94039 50.4773C4.94039 50.5064 4.96979 50.5355 4.99747 50.5663L3.93184 50.5869L2.2244 50.6434L2.15175 48.3843H2.15002ZM7.52143 32.4881L8.25146 32.4847C8.34315 32.459 8.43483 32.4624 8.52479 32.495C8.91748 32.596 9.18043 32.8941 9.31363 33.4473C9.36553 33.6802 9.3811 34.1153 9.41743 34.8106C9.42089 35.5625 9.43473 36.0541 9.39667 36.2562C9.25136 36.9447 8.93305 37.3096 8.38466 37.3198H8.35526L7.68578 37.325L7.52143 32.4898V32.4881ZM5.67733 48.5059C5.64619 48.5333 5.58046 48.648 5.51472 48.7902L5.48358 48.8176C5.41784 48.9307 5.35557 49.0163 5.3227 49.0728C5.39017 48.9015 5.39709 48.6703 5.35038 48.2935C5.34692 48.4083 5.40574 48.4682 5.49569 48.5007C5.55624 48.5025 5.61679 48.5042 5.67733 48.5076M4.69301 28.9222L1.46324 28.9838L1.89053 43.604C1.93724 43.5817 1.99432 43.5629 2.04795 43.544V43.5988L1.89053 43.604L2.09466 50.7839L3.92319 50.7308L4.98882 50.7102L5.41611 50.6965L7.88472 50.6366L8.06636 50.6434L7.9764 48.0075L7.77573 40.7419L8.23243 40.7282L8.44694 40.7077C8.81196 40.7197 9.1095 40.9338 9.33958 41.2883C9.51258 41.5538 9.59388 41.8467 9.61464 42.107L9.86375 50.5903L15.4393 50.4653L15.2109 42.2714C15.1763 40.6786 14.1176 39.6303 12.0954 39.1268C12.1576 39.072 12.2216 39.0155 12.251 39.0172C13.4724 38.9144 14.2837 38.3646 14.6539 37.3644C14.9186 36.7666 15.012 35.8434 14.9947 34.6274C14.9169 32.5138 14.4221 31.022 13.5104 30.0937C12.5988 29.1945 10.9692 28.7629 8.68394 28.828H8.65453L6.18593 28.8862L5.75864 28.8999L4.69301 28.9204V28.9222ZM2.68456 26.1321C2.56347 26.0995 2.44411 26.0653 2.32128 26.0618C2.17078 26.0276 2.01681 26.0516 1.86285 26.1047C1.83171 26.1047 1.8023 26.1029 1.77116 26.1304L1.86285 26.1338L2.10677 26.1132C2.28841 26.1201 2.31782 26.1783 2.19154 26.3188L2.31436 26.2948L2.68456 26.1629H2.74511C2.71397 26.1629 2.7157 26.1355 2.68456 26.1338M2.48735 25.6936C2.58077 25.6097 2.61364 25.5532 2.55309 25.5514L2.33858 25.5737L2.06525 25.5651C2.06179 25.6525 2.11888 25.769 2.17597 25.8871C2.23651 25.8889 2.26765 25.8615 2.32993 25.834C2.39221 25.7775 2.45448 25.7518 2.48735 25.6953M1.89399 25.2705L2.01162 25.3613C2.01508 25.274 1.95627 25.214 1.89572 25.1832C1.83517 25.1815 1.80576 25.1507 1.77462 25.1507C1.75387 25.1689 1.76367 25.1883 1.80403 25.2089L1.89226 25.2705H1.89399ZM2.30744 26.4986L1.9753 26.401L1.97011 26.5448L2.30052 26.6716L2.60153 26.7692L2.63786 26.6253L2.30744 26.4986ZM1.44594 25.0222L1.17261 25.0136L1.16569 25.2157L1.44075 25.1969L1.56184 25.2003L1.56876 25.0273L1.44767 25.0239L1.44594 25.0222ZM1.06536 24.6043C1.00481 24.6026 0.944261 24.5991 0.883714 24.5974C0.944261 24.6283 1.00308 24.6591 1.06363 24.6625C1.21413 24.7259 1.33349 24.7584 1.45459 24.791C1.60509 24.8543 1.75733 24.8595 1.90783 24.8937C2.06006 24.8989 2.21057 24.9331 2.36453 24.9092V24.9383C2.27111 24.964 2.20884 24.9914 2.14829 25.0171C2.21057 24.9897 2.27111 24.9931 2.3628 24.9674C2.42508 24.9109 2.48735 24.8852 2.52022 24.8287C2.61018 24.8903 2.669 24.9211 2.72954 24.952C2.79009 24.9828 2.85064 24.9845 2.91118 24.9879C2.85064 24.9571 2.79182 24.8972 2.733 24.8663C2.61364 24.8047 2.49427 24.743 2.37491 24.6796C2.2244 24.6454 2.07217 24.6111 1.92167 24.606C1.89053 24.606 1.86112 24.6043 1.82998 24.6026C1.70889 24.5991 1.58606 24.594 1.46497 24.5906C1.34387 24.5872 1.22105 24.582 1.06882 24.606M1.08438 24.1727C1.02384 24.171 0.96329 24.1692 0.902743 24.1658C0.96329 24.1966 1.02211 24.2275 1.08265 24.2583C1.23316 24.3217 1.35252 24.3542 1.44421 24.3868L1.47189 24.445L1.58952 24.5358C1.68121 24.5392 1.74349 24.4844 1.80576 24.4279C1.8369 24.4005 1.86804 24.3731 1.92859 24.3748C1.95973 24.3474 1.99086 24.3183 2.05314 24.2926L2.28841 24.5032L2.3801 24.4775C2.59634 24.3696 2.75203 24.2874 2.75376 24.2292L2.7849 24.2018H2.75376C2.63267 24.1966 2.51157 24.1915 2.38875 24.2172C2.20711 24.2103 2.05487 24.2052 1.93205 24.2018C1.77981 24.1966 1.62758 24.1915 1.47535 24.1864C1.35425 24.1829 1.20202 24.1761 1.0792 24.1727M1.09303 23.7685C0.97194 23.765 0.850845 23.7599 0.759159 23.7565L1.09303 23.7976L1.48573 23.8695L1.9407 23.914C2.0912 23.9483 2.24343 23.9534 2.39394 23.9877C2.54617 23.9928 2.69667 24.0271 2.75722 24.0288C2.82642 24.0476 2.86275 24.0562 2.87832 24.0596C2.88178 24.0014 2.91464 23.9175 2.97865 23.777C2.91637 23.8044 2.85583 23.801 2.76414 23.7993C2.67246 23.7959 2.52022 23.7907 2.39913 23.7873C2.24689 23.7822 2.09466 23.777 1.94243 23.7719L1.85074 23.7685C1.72965 23.765 1.60682 23.7599 1.48573 23.7565C1.33349 23.7513 1.21067 23.7753 1.08957 23.7719M1.1086 23.2238C0.987509 23.2204 0.866414 23.1861 0.74532 23.1827C0.767809 23.3865 0.887174 23.4773 1.06882 23.4841H1.09995L1.49611 23.4704L1.9234 23.4567H1.95281C2.10504 23.4636 2.25727 23.4396 2.40951 23.4447C2.56347 23.4208 2.68456 23.4259 2.77452 23.4276L2.86621 23.4019L2.77452 23.3985C2.65343 23.3951 2.53233 23.3608 2.41124 23.3574C2.22959 23.3505 2.07736 23.3163 1.95627 23.3129C1.80576 23.2786 1.65353 23.2735 1.5013 23.2683C1.3802 23.2358 1.22797 23.2306 1.10687 23.2255M1.12071 22.8213C0.939071 22.8144 0.786838 22.7802 0.634605 22.7751C0.693422 22.835 0.875064 22.8693 1.11725 22.9069C1.23835 22.9104 1.35944 22.9446 1.51168 22.9498C1.60336 22.9532 1.66391 22.9549 1.7556 22.9583C1.81614 22.96 1.87669 22.9617 1.96838 22.9652C2.15002 22.972 2.30225 23.0063 2.42162 23.0388C2.57212 23.0731 2.66208 23.1056 2.69148 23.1347L2.6984 22.9326L2.42508 22.8949C2.24343 22.8881 2.0912 22.883 1.96838 22.8795C1.81787 22.8453 1.66564 22.8401 1.51341 22.835C1.39231 22.8316 1.24008 22.8264 1.11725 22.8213M0.670933 21.6481C0.807597 21.6018 0.96502 21.5795 1.10687 21.5573C1.04114 21.5316 0.954641 21.5059 0.861225 21.4802L0.672663 21.6481H0.670933ZM1.15358 21.7799C0.783378 21.9118 0.598276 21.9923 0.598276 21.9923C0.75051 21.9975 0.932152 22.0043 1.14493 22.0403C1.26603 22.0437 1.41826 22.0488 1.53935 22.0831C1.68986 22.1173 1.84209 22.1225 1.9926 22.1567L2.11369 22.1893C2.20365 22.2218 2.26419 22.2527 2.26419 22.2527C2.20192 22.3075 2.07736 22.3623 1.98568 22.388C1.89399 22.3845 1.83344 22.4119 1.74176 22.4085C1.68121 22.4068 1.62066 22.4051 1.52898 22.4017C1.43729 22.3982 1.3456 22.3948 1.22624 22.3623L1.13455 22.3589C0.984049 22.3246 0.861225 22.3212 0.800677 22.3177C0.74013 22.316 0.708991 22.3434 0.707261 22.4017C0.707261 22.4308 0.703802 22.489 0.73321 22.5473C0.887174 22.5233 1.00827 22.5284 1.12936 22.5318C1.2816 22.537 1.43383 22.5421 1.52552 22.5455C1.76943 22.5541 1.89053 22.5575 1.98049 22.5901C1.98049 22.6095 1.99029 22.6192 2.00989 22.6192C2.10158 22.6226 2.16559 22.5387 2.23132 22.3948C2.26073 22.4256 2.31955 22.4856 2.43892 22.5473H2.46832C2.58769 22.6106 2.64651 22.6706 2.67592 22.6997C2.73992 22.5866 2.80393 22.501 2.80739 22.4154C2.65516 22.4102 2.53406 22.3777 2.44584 22.2869C2.4147 22.2869 2.41643 22.2578 2.38529 22.2561L2.44757 22.2287C2.6344 22.1191 2.78663 22.0968 2.81777 22.0968C2.69667 22.0643 2.57731 22.03 2.45621 21.9975C2.27457 21.9615 2.12407 21.9289 2.00297 21.8947C1.82133 21.8604 1.6691 21.8536 1.548 21.8502C1.548 21.8502 1.51687 21.8502 1.48746 21.8484C1.5186 21.821 1.54973 21.821 1.54973 21.7936C1.79884 21.6583 1.9234 21.547 1.89572 21.4871C1.80403 21.4836 1.68294 21.4802 1.56011 21.5042C1.43902 21.5008 1.28506 21.523 1.16223 21.5487C1.14493 21.5521 1.12417 21.5556 1.10687 21.5573C1.12417 21.5641 1.14839 21.571 1.1605 21.5778C1.25219 21.5813 1.311 21.6121 1.34387 21.5847L1.34041 21.6994L1.15531 21.7799H1.15358ZM2.72954 21.1411C2.71224 21.1411 2.69321 21.1411 2.66554 21.1394C2.70705 21.1702 2.72781 21.1993 2.72781 21.2284C2.72781 21.2284 2.72781 21.1993 2.76068 21.1719C2.76068 21.1525 2.75088 21.1428 2.73127 21.1428M0.579247 20.8944C0.722831 21.1599 0.901013 21.2815 1.08265 21.2884C1.17434 21.2918 1.17607 21.2336 1.11725 21.1736C1.06017 21.0846 1.0913 21.0571 1.18299 21.0606C1.21413 21.0606 1.33349 21.1239 1.51168 21.2456C1.53244 21.2456 1.55262 21.2461 1.57222 21.2473C1.69505 21.2233 1.84728 21.2284 2.03065 21.2062L2.09293 21.1788C2.2763 21.1565 2.3974 21.1599 2.49081 21.1342C2.52022 21.1342 2.5825 21.1377 2.5825 21.1377C2.62229 21.1377 2.64824 21.1394 2.67073 21.1411C2.62921 21.1102 2.57039 21.0794 2.496 21.0486C2.37491 21.016 2.2244 20.9818 2.04276 20.9749H1.98222L1.58606 20.9595L1.19164 20.9167C0.978859 20.9099 0.766079 20.903 0.584437 20.8962M0.568867 20.4628C0.568867 20.4919 0.655364 20.581 0.776458 20.6427C0.926962 20.706 1.04633 20.7386 1.16915 20.7437H1.20029C1.29198 20.7489 1.35252 20.7506 1.41134 20.7814C1.47189 20.8122 1.53071 20.8431 1.59125 20.8465C1.61201 20.8465 1.63219 20.8471 1.6518 20.8482C1.68294 20.8208 1.8369 20.7968 2.05141 20.7454C2.20538 20.6923 2.35934 20.6684 2.51157 20.6461C2.39048 20.6427 2.23824 20.6358 2.0566 20.6016C1.93551 20.5981 1.84555 20.5656 1.72273 20.5604L1.60163 20.5279C1.48054 20.5245 1.3283 20.4902 1.20721 20.4851C0.96502 20.4474 0.752239 20.4406 0.568867 20.4628ZM2.58769 20.1854L2.56693 20.2145C2.59807 20.2367 2.6344 20.2641 2.67592 20.3035C2.70705 20.2761 2.67764 20.2453 2.58942 20.1854M0.586167 20.0295H0.555028L0.584437 20.0586C0.764349 20.122 0.9754 20.1871 1.21932 20.1956C1.34041 20.2282 1.49265 20.2333 1.61374 20.2385C1.76597 20.2145 1.91821 20.2196 2.07217 20.1973H2.13272L2.39913 20.4114L2.52541 20.271L2.56693 20.2145C2.55309 20.2042 2.53752 20.1939 2.52714 20.1836C2.37664 20.1203 2.25727 20.0877 2.13445 20.1117L2.07217 20.1391C1.70543 20.1836 1.5826 20.2093 1.7037 20.2128C1.67256 20.2128 1.64315 20.211 1.61374 20.1802V20.1511C1.61547 20.122 1.6172 20.0929 1.6172 20.0929C1.6172 20.0637 1.64834 20.0655 1.65007 20.0363H1.61893C1.59817 20.0352 1.57799 20.0244 1.55838 20.0038L1.22278 20.0209L0.582707 20.0278L0.586167 20.0295ZM13.673 15.7973C13.7111 15.5969 13.6869 15.4222 13.6609 15.2766C13.4533 15.1241 13.3028 15.0608 13.1506 15.0556C12.9984 15.0796 12.8444 15.131 12.6558 15.2988C12.5884 15.4701 12.5832 15.6431 12.668 15.8195C12.8461 15.9411 12.9966 16.0045 13.1177 16.0079C13.1489 16.0079 13.1783 16.0096 13.1783 16.0096C13.3305 16.0148 13.4862 15.9343 13.673 15.7955M4.14289 7.2283C4.02353 8.0333 3.9699 8.69785 3.98374 9.1603C3.95433 9.13118 3.89378 9.12776 3.86437 9.09864C3.74674 9.00786 3.65851 8.9188 3.66197 8.80233C3.67235 8.51288 3.74501 8.16861 3.91281 7.7113C3.97855 7.56914 4.04602 7.39787 4.14289 7.2283ZM3.63948 8.57111L3.63429 8.71498L3.30042 8.67388L2.93713 8.63277L2.48216 8.58824L2.23997 8.55056L2.21576 8.37586L2.48908 8.41354L2.94405 8.45807L3.30734 8.52829L3.64121 8.5694L3.63948 8.57111ZM2.47005 8.90681L2.92675 8.89311L3.29177 8.87769L3.56683 8.85885L3.55991 9.06096L3.28658 9.0524L2.92156 9.06781L2.46486 9.08151L2.00816 9.09522L1.82652 9.08836L1.8023 8.91366L2.01681 8.89311L2.47351 8.90852L2.47005 8.90681ZM3.43881 9.95331C3.52877 9.98585 3.58931 9.98757 3.62045 9.98757C3.68619 9.84541 3.72771 9.55766 3.71214 9.12262L3.86091 9.24423L4.0391 9.36583C3.91108 10.4021 3.81939 11.2961 3.76231 12.0463C3.71214 12.6235 3.6637 13.1134 3.64986 13.5176C3.46476 13.5981 3.34367 13.5946 3.25371 13.5039C3.3454 13.5073 3.43881 13.4234 3.53396 13.312C3.5132 13.0226 3.52012 12.8479 3.52531 12.704C3.62045 12.591 3.65332 12.507 3.65678 12.4197C3.66024 12.3049 3.63256 12.245 3.60488 12.1576C3.57721 12.0994 3.5478 12.0412 3.54953 11.9829C3.43016 11.9213 3.30734 11.9161 3.18797 11.8836C3.06688 11.8511 2.91637 11.8168 2.82469 11.8134C2.733 11.8099 2.70359 11.8082 2.64132 11.8065C2.54963 11.8031 2.45967 11.7997 2.36799 11.7962C2.21576 11.7911 2.06352 11.786 1.91302 11.7517C1.79192 11.7466 1.63969 11.7123 1.52033 11.6798C1.64315 11.6558 1.76424 11.6592 1.91648 11.6644C2.06871 11.6695 2.18981 11.6746 2.37318 11.6798C2.49427 11.6832 2.64651 11.6883 2.82815 11.7243C2.94924 11.7294 3.07207 11.7329 3.19316 11.7363C3.31426 11.7688 3.43535 11.774 3.55645 11.7774C3.55991 11.6626 3.5651 11.5171 3.54088 11.3441C3.66543 11.2619 3.7329 11.0906 3.73982 10.8594L3.70522 10.1349C3.52531 10.0424 3.37653 9.94988 3.25544 9.91734C3.31599 9.91905 3.37653 9.92077 3.43708 9.95331M3.2762 13.6495C3.21565 13.6477 3.18451 13.646 3.12224 13.6734C3.06169 13.6717 2.99941 13.6974 2.90772 13.7231C2.84545 13.7505 2.7849 13.7762 2.75376 13.7762C2.66208 13.8019 2.56866 13.8276 2.53925 13.8259C2.44757 13.8224 2.38875 13.7916 2.30052 13.7025H2.26938C2.15175 13.6101 2.06179 13.5501 1.97011 13.5758C2.09293 13.5518 2.18462 13.5535 2.30571 13.5587C2.45794 13.5638 2.61018 13.569 2.76241 13.5741C2.88351 13.5775 3.03574 13.6118 3.1257 13.6152C3.18624 13.6169 3.21738 13.6186 3.2762 13.6495ZM1.83863 13.8601C1.95281 13.8858 2.02373 13.9321 2.08082 13.9886C2.15867 13.9886 2.22959 13.9886 2.29187 13.992C2.35415 13.9646 2.47524 13.9697 2.59807 13.944C2.56693 13.9715 2.47524 13.968 2.29187 13.992C2.22959 14.0194 2.16905 14.016 2.13791 14.0451C2.12407 14.0228 2.09985 14.0074 2.08082 13.9903C2.00643 13.9903 1.9234 13.9954 1.83344 14.0057C1.71235 14.0023 1.59125 13.9971 1.43729 14.0211C1.28506 14.016 1.10341 14.0091 0.920042 14.0314C1.07574 13.9218 1.2297 13.8687 1.44421 13.8464C1.50476 13.8481 1.5653 13.8498 1.62585 13.8533C1.71754 13.8276 1.77808 13.8584 1.83863 13.8601ZM1.78327 13.6854L1.45113 13.6169L1.14839 13.5484L1.12244 13.4028L1.45632 13.4439L1.75906 13.4833L1.78154 13.6871L1.78327 13.6854ZM1.42172 14.4253C1.57568 14.4014 1.69678 14.4065 1.81787 14.4099C1.97011 14.4151 2.12234 14.4202 2.27457 14.4253C2.42681 14.4305 2.57904 14.4356 2.73127 14.4407C2.88351 14.4459 3.0046 14.4784 3.09456 14.4819C3.18451 14.5144 3.24333 14.5161 3.27447 14.5452C3.27447 14.5452 3.2762 14.5452 3.27793 14.5452C3.30907 14.5452 3.37134 14.4904 3.4959 14.3808C3.4094 14.2626 3.29004 14.1718 3.11013 14.1068C3.02017 14.0742 2.86794 14.0691 2.74684 14.0657C2.89908 14.0417 3.0219 14.0468 3.11186 14.0485C3.26409 14.0537 3.35405 14.0862 3.41459 14.0879C3.444 14.0879 3.50801 14.004 3.54434 13.8601C3.61007 13.7471 3.67062 13.7197 3.70176 13.7214C3.59969 14.0074 3.5824 14.4973 3.58931 15.1635C3.49936 15.131 3.31772 15.0967 3.0738 15.0882C2.98211 15.0847 2.83161 15.0796 2.70878 15.0762C2.58769 15.0728 2.46486 15.0676 2.37491 15.0642C2.31436 15.0625 2.28322 15.0608 2.25381 15.0608C2.13272 15.0573 1.98049 15.0505 1.80057 14.9871C1.67948 14.9837 1.55838 14.9494 1.40788 14.8878C1.34733 14.8861 1.25738 14.8535 1.16742 14.821C1.25911 14.8244 1.31965 14.8261 1.40961 14.8295C1.53071 14.833 1.65353 14.8381 1.80576 14.8432C1.958 14.8484 2.07909 14.8518 2.26073 14.8878C2.38183 14.8912 2.53406 14.8981 2.71743 14.9032C2.83853 14.9357 2.95962 14.9409 3.08072 14.9443L3.32291 14.982C3.48033 14.8141 3.51666 14.6703 3.43016 14.523C3.38518 14.535 3.33329 14.5401 3.27793 14.5452C3.27793 14.5452 3.27793 14.5452 3.2762 14.5452C3.21738 14.5504 3.15683 14.5555 3.09456 14.5692C3.00287 14.5658 2.85237 14.5606 2.72954 14.5572C2.57731 14.5521 2.42508 14.5469 2.27457 14.5127L2.18289 14.5093C2.06179 14.5058 1.93897 14.5007 1.8196 14.4682C1.66737 14.463 1.54627 14.4579 1.42345 14.4545C1.15012 14.4442 0.96675 14.439 0.816247 14.4339C1.03076 14.4116 1.24354 14.4202 1.42518 14.4253M1.38885 15.465L1.11552 15.4564L1.12071 15.3125L1.39577 15.2937L1.51687 15.2988L1.51168 15.4427L1.38885 15.4684V15.465ZM1.3802 15.6962L1.53244 15.7013L1.52552 15.8743L1.37155 15.8983L0.73148 15.9052L0.549838 15.8983L0.556758 15.7253L0.74013 15.7031L1.3802 15.6962ZM0.567138 16.3042L0.570597 16.1895L0.726291 16.0781L0.817977 16.0525L0.875064 16.1706L0.719371 16.2511L0.565408 16.3042H0.567138ZM0.920042 16.6639L1.34733 16.6502L1.6518 16.6314L1.67429 16.8352L1.33868 16.8523L0.911392 16.866L0.918312 16.6639H0.920042ZM1.75387 16.3453L1.35944 16.3025L1.23835 16.2991L1.2124 16.1535L1.36463 16.1586L1.76079 16.1724L2.21576 16.2169L2.42854 16.2237L2.42162 16.3967L2.20884 16.3899L1.75387 16.3453ZM2.69667 15.5095L2.23997 15.4941L1.785 15.4496L1.66391 15.4461L1.63969 15.2714L1.79019 15.3057L2.24689 15.3211L2.70359 15.3365L2.94578 15.3742L2.94059 15.5181L2.69667 15.5095ZM1.77289 16.6639C1.9234 16.6982 2.04622 16.7016 2.19673 16.7084C2.34896 16.7136 2.49946 16.7478 2.6517 16.753C2.77279 16.7564 2.89562 16.7615 3.01671 16.7376H3.07726C3.2589 16.7461 3.35405 16.6622 3.35924 16.5183C3.26928 16.4858 3.17932 16.455 3.02709 16.4498C2.9354 16.4464 2.81431 16.443 2.69321 16.4378C2.69494 16.3796 2.75722 16.3539 2.88005 16.3282C2.94232 16.3008 3.00287 16.3042 3.03228 16.3042C3.09283 16.3059 3.15337 16.3077 3.18278 16.3385C3.25198 16.109 3.31945 15.9377 3.35405 15.7955C3.2589 15.9086 3.16548 15.9634 3.04266 15.9874C3.01152 16.0148 2.98038 16.0131 2.91983 16.0114C2.85929 16.0096 2.7676 16.0062 2.67592 16.0028C2.52368 15.9976 2.37318 15.9634 2.22267 15.9291C2.10158 15.924 1.98049 15.8915 1.82998 15.8572H1.76943C1.92167 15.8606 2.0739 15.8658 2.22613 15.8418C2.37837 15.8469 2.5306 15.8229 2.68456 15.8007C2.80566 15.8041 2.92848 15.7801 3.05131 15.7562C3.1724 15.7596 3.26582 15.7339 3.35751 15.7082C3.35751 15.6791 3.39037 15.6226 3.42497 15.5369C3.45784 15.4513 3.49071 15.3948 3.52185 15.3948C3.47341 16.753 3.40421 17.8491 3.31253 18.7432L2.94751 18.7312L2.76414 18.7535C2.82988 18.6404 2.89216 18.5548 2.95616 18.5C3.05131 18.4161 3.11359 18.3613 3.17586 18.3047C3.11532 18.2739 3.02536 18.2414 2.96481 18.2397C2.81431 18.1763 2.69494 18.1437 2.60499 18.1112C2.75549 18.1455 2.87832 18.1489 2.96827 18.1523H2.99941L3.28485 17.8457V17.7875L2.98211 17.7772L2.70705 17.7961C2.83161 17.7138 2.92675 17.6299 2.99076 17.546C3.14818 17.4073 3.21565 17.236 3.15856 17.0887C3.1551 17.176 3.24506 17.2069 3.36788 17.212L3.34886 16.8643L3.07034 16.9705C3.07034 16.9705 3.04093 16.9705 3.00979 16.9688C2.9181 16.9654 2.79874 16.9328 2.64824 16.8694H2.6171C2.43719 16.8044 2.28495 16.7701 2.195 16.7667C2.0739 16.7615 1.95281 16.729 1.77289 16.6656M2.70878 17.7686L2.6171 17.7652L2.37318 17.7858L2.3801 17.5837L2.62402 17.5922L2.68629 17.5648L2.71051 17.7686H2.70878ZM2.58942 18.5462L2.71224 18.5205L2.73473 18.7244L2.5825 18.7192L2.1258 18.7329L1.88188 18.7535L1.85766 18.5497L2.13272 18.5308L2.58942 18.5462ZM3.60661 7.82263L3.33502 7.75584L3.09456 7.68904L3.10148 7.51605L3.34194 7.58285L3.61526 7.62224L3.60834 7.82435L3.60661 7.82263ZM3.01152 12.6321L2.79528 12.74L2.70186 12.7948L2.70705 12.6218L2.80047 12.567L2.95443 12.5139L3.01152 12.6321ZM12.7077 27.7472L14.019 27.7061L14.0294 27.4166L13.6834 16.5286L13.1039 16.5372L11.0314 16.5817L8.89845 16.6519L7.04051 16.6742L7.14258 19.8308C7.60101 19.7897 7.96602 19.8017 8.23589 19.8976L8.35353 23.4602C8.34315 23.7496 8.27222 24.0356 8.14248 24.2908C7.94699 24.6317 7.66675 24.8235 7.33287 24.8115C7.08895 24.8321 6.90731 24.7687 6.73086 24.618C6.70145 24.5889 6.64263 24.5289 6.61495 24.469C6.46964 24.2908 6.3866 24.0562 6.36238 23.8524C6.3347 23.7941 6.3347 23.765 6.33643 23.7359L5.98872 11.142C5.95412 10.4175 6.23956 10.0526 6.85022 10.015H6.88136C7.03359 10.0218 7.15469 10.0252 7.24464 10.0578C7.4557 10.0938 7.6062 10.1571 7.66156 10.3027C7.74805 10.4209 7.79995 10.7121 7.78265 11.1745L7.65637 11.315C7.74632 11.3766 7.77227 11.4931 7.76708 11.637C7.76708 11.6661 7.76362 11.7243 7.72902 11.8373C7.72556 11.9247 7.7221 12.0103 7.7221 12.0395C7.72556 11.923 7.72902 11.8373 7.7913 11.7808L7.87434 14.6189L8.97111 14.5983L11.1041 14.5572L13.1766 14.4836L13.6333 14.4699L13.5641 12.1251C13.5502 11.6335 13.4776 11.1385 13.3115 10.6418C13.1471 10.116 12.9223 9.58678 12.5763 9.05411C12.2303 8.49232 11.822 8.01618 11.348 7.65307C10.8429 7.28825 10.3032 7.0673 9.69768 6.9594C9.63713 6.92857 9.48663 6.89432 9.24444 6.85663C9.06452 6.79326 8.82234 6.75558 8.5196 6.68707C7.9764 6.55348 7.64426 6.48325 7.55257 6.47983L7.3692 6.50209C7.21697 6.49695 7.09587 6.49353 6.97305 6.51751C6.18074 6.51751 5.6929 6.56033 5.44725 6.61C5.01823 6.68193 4.4958 6.83779 3.94049 7.05018C3.75539 7.10156 3.57029 7.18206 3.35405 7.26085C3.23122 7.31394 3.10667 7.39615 2.98211 7.45096L2.85756 7.50406C2.9181 7.53489 2.94578 7.59484 2.97519 7.62395C2.97519 7.65307 2.97346 7.68219 2.97173 7.7113C2.95097 7.72957 2.94002 7.74841 2.93886 7.76782C2.81777 7.73528 2.66554 7.73014 2.51157 7.81064C2.41989 7.83633 2.32647 7.89114 2.20192 7.94424C2.2936 7.94766 2.38356 7.95109 2.50638 7.95452C2.62748 7.95794 2.77971 7.96308 2.96135 7.99905C3.08245 8.00247 3.20354 8.03673 3.32464 8.06927C3.44573 8.07441 3.53742 8.10524 3.65678 8.13949L3.49936 8.30734L3.31772 8.27138C3.19662 8.23883 3.07726 8.20458 2.95443 8.20115C2.77279 8.16519 2.62229 8.13093 2.50119 8.1275C2.34896 8.12237 2.25727 8.11894 2.16732 8.11552C2.13791 8.11552 2.10677 8.1138 2.04449 8.14121C1.92167 8.16519 1.79711 8.27652 1.63796 8.44437C1.47881 8.64133 1.31619 8.92565 1.12244 9.26478C1.15358 9.26478 1.18299 9.26649 1.21413 9.23909C1.24527 9.21168 1.30755 9.18428 1.39923 9.1877C1.49092 9.19113 1.52033 9.22025 1.45632 9.27677C1.39231 9.36069 1.42172 9.39152 1.51341 9.36583C1.54281 9.36583 1.57395 9.36755 1.60509 9.36926C1.69678 9.37268 1.78846 9.34699 1.91129 9.3213C1.9407 9.3213 1.97184 9.32301 2.00297 9.32473C2.1258 9.29903 2.21749 9.27506 2.27803 9.27677C2.30917 9.27677 2.36972 9.28019 2.45967 9.31274C2.55136 9.31616 2.70186 9.35042 2.91291 9.38639C3.00287 9.41893 3.15337 9.45318 3.27447 9.48573H3.33502L3.36269 9.5765L3.27101 9.57308L2.90599 9.58849L2.53925 9.60562L2.44757 9.60219C2.29533 9.59705 2.1431 9.59192 1.9926 9.55766C1.8715 9.55424 1.71927 9.51998 1.59817 9.51484C1.35771 9.44804 1.14666 9.38296 0.96675 9.31959H0.935611C0.933882 9.37611 0.901013 9.46175 0.804137 9.57479L0.954641 9.60904C1.16569 9.64501 1.37847 9.68098 1.58952 9.71695C1.74003 9.7512 1.86285 9.75463 1.98222 9.78888C2.13445 9.79402 2.28495 9.82828 2.43546 9.86253C2.58769 9.86767 2.73819 9.90193 2.89043 9.90706C2.98211 9.91049 3.07207 9.94303 3.16375 9.94475L2.89043 9.93447L2.43373 9.94817L1.97703 9.96187L1.58087 9.97729C1.30755 9.96872 1.09303 9.98928 0.940801 9.98414C0.849115 9.98071 0.759159 9.97729 0.696882 9.97558C0.755699 10.0355 0.845655 10.0972 0.935611 10.128C0.996159 10.1588 1.02557 10.1588 1.08611 10.1914C1.20721 10.1948 1.35944 10.1999 1.54281 10.1777L1.57395 10.1503C1.72619 10.1554 1.78846 10.128 1.75733 10.128C1.84901 10.1314 1.87842 10.1606 1.84555 10.2171C1.81268 10.3027 1.84209 10.3335 1.93205 10.3353L1.96319 10.3079L2.20711 10.3164C2.26765 10.3181 2.3282 10.3198 2.41989 10.3233C2.57212 10.2993 2.72435 10.3044 2.87659 10.3096C2.99768 10.3421 3.14991 10.3472 3.23987 10.3507C3.39037 10.3849 3.51147 10.4175 3.60142 10.45L3.23641 10.4671L2.89908 10.5134H2.86794C2.68629 10.5065 2.53406 10.4723 2.41297 10.4671C2.26073 10.462 2.1085 10.4569 1.95627 10.4517C1.83517 10.4192 1.68294 10.414 1.56184 10.4089C1.31965 10.4003 1.10514 10.3935 0.923502 10.3866C0.800677 10.4106 0.679583 10.4072 0.587897 10.4038C0.646714 10.4637 0.767809 10.4963 0.918312 10.5305C1.06882 10.5648 1.2816 10.6007 1.55492 10.611L1.64661 10.6144C1.7677 10.647 1.85939 10.6504 1.94935 10.6538C2.13099 10.6607 2.25381 10.6641 2.40432 10.6984C2.55655 10.7035 2.70705 10.7378 2.85756 10.772C2.9181 10.7737 3.00806 10.8063 3.06861 10.808C3.06515 10.8953 3.03401 10.9227 2.97173 10.9501L2.85064 10.945L2.39394 10.9296L1.93897 10.8851L1.54281 10.8714L0.906203 10.82L0.601736 10.8097C0.721101 10.9005 0.653634 11.0426 0.433933 11.267C0.496211 11.2105 0.525619 11.2413 0.555028 11.2995C0.582707 11.3869 0.580977 11.4451 0.5187 11.4725C0.670933 11.4777 0.762619 11.4811 0.883714 11.4845C1.15704 11.4931 1.33868 11.5291 1.42864 11.5907C1.42691 11.6489 1.39404 11.7055 1.33176 11.7329L0.875064 11.7466H0.814517L0.696882 11.625L0.442583 11.9059C0.593086 11.9401 0.715911 11.9435 0.868144 11.9504C1.0792 11.9864 1.32311 11.9949 1.50476 12.0018C1.65699 12.036 1.77808 12.0395 1.89918 12.0446C2.08255 12.0514 2.20365 12.0549 2.35588 12.0309C2.50811 12.036 2.66035 12.0121 2.81258 12.0172C2.84372 11.9898 2.87486 11.9898 2.90427 11.9915C2.93367 12.0206 2.96135 12.0806 2.99076 12.1097C3.01844 12.1679 3.07726 12.2279 3.10667 12.2587C2.98384 12.3118 2.89043 12.3666 2.79701 12.3923C2.67419 12.4163 2.55136 12.442 2.43027 12.4368C2.36972 12.4351 2.34031 12.4043 2.34204 12.3769V12.3478L2.34377 12.3186V12.2604C2.31609 12.2313 2.28668 12.2296 2.22613 12.2279C2.16559 12.2261 2.04449 12.221 1.89226 12.2159C1.80057 12.2124 1.67948 12.209 1.52898 12.1748H1.49784C1.19337 12.1628 0.980589 12.1559 0.859495 12.1508H0.798947C0.7384 12.1474 0.612116 12.2587 0.452963 12.4539L0.849115 12.4385L1.24527 12.4231C1.30409 12.4539 1.39577 12.4574 1.48573 12.5173C1.54627 12.519 1.60682 12.5499 1.66737 12.5533C1.75733 12.5858 1.81787 12.6167 1.87669 12.6475C1.96838 12.6509 2.02892 12.6526 2.05833 12.6543C2.15002 12.6578 2.18116 12.6304 2.12407 12.5413C2.06525 12.4813 2.06698 12.4522 2.15694 12.4557C2.21922 12.4283 2.27976 12.43 2.34031 12.4334C2.58423 12.442 2.70532 12.4454 2.76414 12.4779C2.63786 12.6184 2.57385 12.7023 2.57212 12.7605L2.3282 12.752L1.87323 12.7074L1.47881 12.6646C1.20548 12.656 0.992699 12.6475 0.842196 12.6132C0.660554 12.6064 0.568867 12.6047 0.568867 12.5756C0.565408 12.6903 0.593086 12.7503 0.681313 12.8102C0.74186 12.841 0.769539 12.8993 0.830086 12.9318C0.861225 12.9318 0.890633 12.9626 0.920042 12.9935L1.25565 12.9763L1.46843 12.9832C1.62066 12.9883 1.74176 12.9918 1.86458 12.9678C2.04622 12.9746 2.16905 12.978 2.32128 12.9832C2.47351 12.9883 2.62575 12.9935 2.77798 12.9986C2.93021 13.0037 3.08072 13.038 3.14126 13.0397H3.1724L3.34886 13.1921C3.28658 13.2195 3.22603 13.2161 3.13435 13.2127C3.04266 13.2093 2.89216 13.2041 2.76933 13.2007C2.6171 13.1956 2.46486 13.1904 2.31263 13.1853C2.1604 13.1802 2.00816 13.2041 1.85593 13.199C1.7037 13.1939 1.5826 13.1904 1.45978 13.1853C1.21759 13.1767 1.00308 13.1699 0.821436 13.163C0.639794 13.1562 0.487561 13.151 0.364736 13.1767C0.664013 13.3035 0.812787 13.4234 0.776458 13.5672C0.683042 13.6512 0.589627 13.6769 0.468532 13.6717C0.586167 13.7625 0.707261 13.795 0.797217 13.8567C0.828356 13.8567 0.887173 13.8892 0.918312 13.8892C0.856035 13.9166 0.826626 13.9149 0.795488 13.9423C0.5187 14.0194 0.392415 14.1307 0.390685 14.2181C0.387225 14.3328 0.414904 14.3928 0.50486 14.4253C0.496211 14.6566 0.52216 14.773 0.52216 14.8021C0.613845 14.7765 0.705532 14.7799 0.766079 14.7816C0.857765 14.785 0.916582 14.8158 0.945991 14.845C0.883714 14.8724 0.823166 14.8981 0.760889 14.9255C0.638064 14.9512 0.51697 14.946 0.394145 14.9426L0.458152 16.5937C0.549838 16.5971 0.641524 16.6005 0.702072 16.6023C0.793758 16.6057 0.854305 16.6074 0.883714 16.6382C0.821436 16.6656 0.760889 16.6913 0.698612 16.6896L0.29035 17.0219C0.319758 17.0219 0.442583 17.027 0.686502 17.0356L1.32484 17.0578H1.38539C1.50649 17.0647 1.62931 17.0681 1.71927 17.0716C1.8715 17.0767 2.02373 17.0818 2.17597 17.087C2.3282 17.0921 2.48043 17.0972 2.63267 17.0733C2.72435 17.0767 2.84545 17.0801 2.93713 17.0835C2.96654 17.1144 2.99595 17.1435 2.99422 17.1726L3.02363 17.2017L2.99249 17.2291C2.9008 17.2257 2.77971 17.2514 2.62575 17.2737C2.47351 17.2685 2.32128 17.2925 2.16905 17.2874C2.01681 17.2822 1.86458 17.3062 1.71235 17.3011C1.59125 17.2959 1.47016 17.2925 1.31619 17.2874C1.10168 17.3096 0.888903 17.3011 0.676123 17.2942C0.523889 17.2891 0.402795 17.2856 0.250561 17.2788C0.247102 17.3935 0.366466 17.4569 0.579247 17.4638C0.610386 17.4638 0.639794 17.4655 0.670933 17.4672C0.852575 17.4741 1.06536 17.51 1.24527 17.6025H1.30582L1.70197 17.5888L2.15867 17.5751H2.21922L2.2417 17.7806L2.15002 17.7772L1.69332 17.7909L1.29717 17.8063H1.26776L1.24354 17.6025C0.997889 17.6813 0.812787 17.7327 0.658824 17.7858C0.598276 17.7841 0.535999 17.8098 0.475452 17.808C0.535999 17.8389 0.594816 17.8697 0.655364 17.9005C0.805867 17.9639 0.925232 17.9964 1.04633 18.0307C0.954641 18.0564 0.830086 18.1095 0.648444 18.1043C0.587897 18.1026 0.556758 18.13 0.494481 18.1283C0.494481 18.1574 0.52216 18.2157 0.549838 18.303C0.606926 18.3921 0.605196 18.4486 0.634605 18.5086C0.909663 18.4897 1.12244 18.4966 1.27468 18.5017C1.39577 18.5051 1.48746 18.5086 1.51687 18.5394L1.27122 18.5891C0.994429 18.6661 0.779918 18.7158 0.625955 18.7689L0.50313 18.7946L0.624225 18.8271C0.866414 18.8648 1.07747 18.9008 1.26084 18.9076C1.41134 18.9419 1.53244 18.9744 1.65353 18.9796C1.74522 18.983 1.83517 19.0155 1.92686 19.0172C1.93032 18.9316 1.96319 18.8734 1.99605 18.7877C2.0566 18.8186 2.08601 18.8494 2.11369 18.8785C2.20365 18.9402 2.26246 19.0001 2.29187 19.0292L2.1085 19.0515L1.65007 19.0943L1.25219 19.1389L0.610386 19.2039C0.762619 19.2091 0.97367 19.245 1.247 19.2844C1.42864 19.2913 1.54973 19.3238 1.64142 19.3273C1.73311 19.3307 1.79365 19.3324 1.82306 19.3341L2.09639 19.3444C2.18808 19.3478 2.34031 19.353 2.55136 19.3889C2.70186 19.4232 2.79355 19.4266 2.85583 19.3701C2.73992 19.2211 2.71224 19.1046 2.74511 19.0772C2.8368 19.0515 2.90081 18.995 2.93194 18.9385C2.96308 18.9111 2.99422 18.9111 2.99422 18.8819L3.20181 19.0635L3.21565 19.5551C3.14645 19.7846 3.11186 19.8993 3.04958 19.9541C2.96308 19.8068 2.9354 19.7195 2.90772 19.6595L2.54271 19.6475L2.08774 19.603L1.63277 19.5585L1.23835 19.5157C1.02557 19.5088 0.812787 19.5002 0.662283 19.466C0.660553 19.5242 0.658824 19.5516 0.717641 19.6407C0.74532 19.6989 0.774728 19.7298 0.772999 19.788L1.02211 19.6527C1.08265 19.6544 1.1432 19.6561 1.23489 19.6595C1.35598 19.663 1.47708 19.6972 1.62758 19.7315C1.77981 19.7366 1.90091 19.7692 2.08082 19.8051C2.20192 19.8377 2.35242 19.8719 2.53406 19.9079C2.62575 19.9113 2.7157 19.9421 2.80566 19.9747L2.89562 20.0363L3.07553 20.1288C3.12051 20.5639 3.11532 20.7369 3.11878 20.6221C3.15164 21.4322 3.07207 23.6862 2.88178 27.3533C3.00114 27.4149 3.0911 27.4766 3.21046 27.5382C4.13597 28.0624 5.13068 28.3278 6.19631 28.3347C6.22745 28.3347 6.288 28.3381 6.34854 28.3398C6.44023 28.3141 6.53192 28.3176 6.59246 28.3193C7.32595 28.2576 7.97121 28.0778 8.50057 27.7198C9.02993 27.3909 9.44165 26.9422 9.79801 26.3479C10.0506 26.9354 10.2461 27.4338 10.3862 27.7849L10.6301 27.7934L12.7026 27.7489L12.7077 27.7472ZM11.0816 16.0353C11.2338 16.0405 11.3895 15.9583 11.5452 15.8195C11.6733 15.6208 11.649 15.4479 11.5331 15.2988C11.3844 15.1772 11.2356 15.1156 11.0833 15.0813H11.0522C10.9 15.1036 10.7131 15.1841 10.5263 15.3228C10.49 15.4667 10.4848 15.6397 10.5384 15.8435C10.7477 15.9668 10.8965 16.0285 11.0487 16.0336H11.0799L11.0816 16.0353ZM8.94862 16.1073C9.10085 16.0833 9.25482 16.0302 9.44511 15.8641C9.54198 15.7219 9.51776 15.5489 9.433 15.3434C9.25482 15.2218 9.10431 15.1584 8.95208 15.1533H8.92094C8.76871 15.1464 8.61301 15.2286 8.45732 15.3674C8.35872 15.566 8.35353 15.739 8.46943 15.888C8.6182 16.0096 8.79639 16.1021 8.91921 16.1056H8.95035L8.94862 16.1073ZM7.29827 15.4153C7.21005 15.3245 7.1495 15.2937 7.05954 15.2629C6.97132 15.2012 6.87963 15.1978 6.81908 15.1961C6.75854 15.1944 6.69626 15.2218 6.66685 15.2201C6.54403 15.244 6.45061 15.328 6.32433 15.4393C6.22572 15.638 6.24994 15.8127 6.33816 15.9309C6.4558 16.0216 6.54576 16.0833 6.63571 16.1141C6.69626 16.1449 6.75681 16.1467 6.84849 16.1501C6.90904 16.1518 6.97132 16.1261 7.03359 16.0987C7.12528 16.073 7.22043 15.9891 7.31384 15.9052C7.38131 15.7048 7.38823 15.5318 7.30173 15.4136M7.10798 14.0177L7.22734 14.0794L7.29481 13.9081L7.1149 13.8156L6.99381 13.783L6.95921 13.9269L7.10798 14.0194V14.0177ZM6.59765 12.0617L6.34508 12.3135L6.77238 12.2998C6.53019 12.2621 6.50251 12.1748 6.59765 12.0617ZM6.70145 10.8508L6.6063 10.9621L6.81389 11.1146L6.90385 11.1745L6.99727 11.0906L6.82081 10.9107L6.70145 10.8491V10.8508ZM15.3078 28.3861L15.1763 28.6704H15.1452L15.0258 28.5779L15.1573 28.3227V28.3518L15.3078 28.3861ZM15.358 27.8089L15.1746 27.8311L14.8407 27.8191C14.8304 28.1086 14.8217 28.3398 14.7266 28.4511L13.9948 28.4837H13.9637C13.9637 28.4837 13.9637 28.5111 13.9913 28.571C13.9913 28.6002 14.019 28.6584 14.0173 28.7166C14.0727 28.8622 14.1003 28.9513 14.0986 28.9804L14.4636 28.9924L14.685 28.768C14.7145 28.7988 14.7127 28.8554 14.6799 28.9119C14.7404 28.9427 14.801 28.9444 14.8304 28.9753L15.1348 28.9564L15.3787 28.965L15.358 27.8071V27.8089ZM21.9749 6.28286C21.8556 6.2212 21.7968 6.16125 21.7068 6.09959C21.648 6.03965 21.5892 5.9797 21.5598 5.95058C21.7085 6.07219 21.6739 6.15783 21.4612 6.14926C21.4612 6.14926 21.5511 6.18181 21.7016 6.24347C21.8521 6.27772 21.9421 6.31026 21.9749 6.28115M24.2654 6.09959C24.1477 5.9797 24.0906 5.89064 24.0924 5.83412C24.0612 5.86152 24.0301 5.86152 23.999 5.88892C23.9125 5.966 23.8433 6.01224 23.7983 6.01567C23.8536 6.03965 23.9211 6.06534 23.992 6.09103C24.0837 6.09446 24.1737 6.09788 24.2654 6.10131M27.5903 5.89749L27.4415 5.805L27.3135 5.97456L27.5816 6.12871L27.7321 6.19208L27.829 6.05164L27.5903 5.8992V5.89749ZM29.2631 5.9266C29.3565 5.8718 29.4171 5.87351 29.4776 5.87693C29.3565 5.8718 29.2977 5.81185 29.27 5.7245C29.27 5.69538 29.2735 5.63715 29.2735 5.60974C29.1213 5.60461 29.1178 5.69196 29.2648 5.84097L29.2943 5.87008L29.2631 5.89749C29.1697 5.9523 29.1074 5.9797 29.078 5.97799C29.1092 5.97799 29.1697 5.9523 29.2631 5.9266ZM29.2458 6.41817C29.2233 6.41817 29.2026 6.41474 29.1801 6.41303C29.2008 6.43358 29.2181 6.45071 29.2441 6.4764C29.2752 6.4764 29.3046 6.50723 29.3046 6.50723C29.2614 6.88233 29.2233 7.08272 29.2545 7.08443C29.315 7.08614 29.4067 7.06045 29.5624 6.97995L29.5451 6.60315C29.4569 6.51408 29.3669 6.48154 29.2475 6.41988M29.0676 6.32739C29.0538 6.34281 29.0451 6.36165 29.0348 6.38049C29.0469 6.38049 29.0538 6.38391 29.0659 6.38563C29.104 6.40447 29.142 6.41132 29.1818 6.41645C29.1316 6.36678 29.0901 6.3291 29.0676 6.3291M28.54 5.73306C28.5262 5.76732 28.5141 5.80157 28.5037 5.83754C28.5573 5.82898 28.5988 5.81356 28.5988 5.79301C28.5694 5.76389 28.54 5.73306 28.54 5.73306ZM24.5595 7.24372C24.5595 7.20261 24.5629 7.15979 24.5595 7.11184C24.4954 7.13068 24.4937 7.17863 24.5595 7.24372ZM26.3153 6.66823L26.3309 6.64083H26.3153H26.2842L26.2876 6.72475L26.3136 6.67166L26.3153 6.66823ZM25.1632 8.2474L25.3154 8.25254L25.4365 8.25596L25.4607 8.43066L25.3068 8.45464L25.1546 8.4495L25.1615 8.2474H25.1632ZM26.0264 7.93054C26.1233 7.78838 26.1579 7.67534 26.1579 7.64622H26.189C26.2185 7.67705 26.2479 7.70788 26.2755 7.76611C26.3032 7.82435 26.3309 7.91341 26.3586 8.00076V8.02988C26.3274 8.02988 26.298 7.99905 26.2669 7.99733C26.2358 7.99733 26.2063 7.9665 26.1769 7.96479C26.1164 7.93396 26.087 7.93225 26.0264 7.93054ZM26.3932 7.04675L26.3015 7.04333V7.07244L26.2876 6.72133L26.215 6.86691L26.0956 6.80525L26.2271 6.52093L26.3171 6.55348H26.3776L26.3292 6.64083H26.4053L26.4658 6.64596L26.4814 7.05189L26.3897 7.04846L26.3932 7.04675ZM26.7219 8.1001C26.7547 8.04358 26.817 7.98706 26.9433 7.87573C27.0384 7.76269 27.0713 7.67705 27.0748 7.59141C26.9813 7.64622 26.9191 7.67362 26.8291 7.6702L27.1128 7.39102C27.2616 7.48351 27.4121 7.54688 27.5332 7.5503C27.6249 7.55373 27.6854 7.55544 27.7477 7.52804C27.6889 7.46809 27.6301 7.43726 27.5384 7.40472C27.4467 7.40129 27.3567 7.39787 27.2339 7.39444C27.1128 7.39102 27.0229 7.35847 26.9312 7.32593C26.8724 7.26599 26.843 7.23516 26.8118 7.23516C26.9381 7.09471 27.0903 7.09985 27.2097 7.16151C27.2651 7.06388 27.3187 6.98338 27.3723 6.90802C27.3723 6.90802 27.374 6.9063 27.3758 6.90459C27.445 6.80354 27.5107 6.7179 27.5643 6.65453C27.6283 6.5706 27.6595 6.54149 27.7218 6.51579C27.6595 6.57232 27.5955 6.62712 27.5643 6.68365C27.5021 6.76757 27.438 6.84978 27.3775 6.90459C27.3775 6.90459 27.3775 6.9063 27.3758 6.90802C27.4052 6.93713 27.4657 6.93885 27.5574 6.91316C27.5868 6.88746 27.6405 6.86177 27.6733 6.83608C27.6578 6.86349 27.6214 6.95084 27.5505 7.11526C27.637 7.26256 27.6941 7.35162 27.7252 7.35334C27.7252 7.35334 27.7529 7.41157 27.7494 7.52804C27.7131 7.67191 27.6802 7.78666 27.6162 7.87059C27.5557 7.86888 27.5557 7.83976 27.6508 7.75584C27.682 7.72843 27.6508 7.72672 27.5297 7.72329C27.509 7.72329 27.4888 7.72272 27.4692 7.72158C27.1959 7.71302 27.0678 7.88087 27.0886 8.17204C27.1474 8.23198 27.1751 8.29022 27.1734 8.34845C26.9641 8.25425 26.8153 8.16347 26.7253 8.10181M27.3135 7.83291C27.3135 7.83291 27.3723 7.89286 27.4294 8.01104C27.4588 8.04015 27.4882 8.07098 27.5176 8.1001C27.5764 8.16005 27.637 8.19088 27.6975 8.19259C27.6664 8.19259 27.6059 8.21828 27.5124 8.27309C27.419 8.3279 27.3879 8.3553 27.3273 8.35359L27.3152 7.83291H27.3135ZM27.7996 6.98167L27.9934 6.66994L28.0574 6.58602L28.1767 6.64768H28.2079L28.175 6.70591L27.983 6.98852L27.9501 7.04504L27.7996 6.98167ZM28.0141 7.79865C28.0418 7.88601 28.0695 7.94595 28.1283 8.0059L28.1577 8.03502C28.2217 7.95109 28.2252 7.83462 28.2304 7.69075C28.258 7.74898 28.2874 7.80722 28.3151 7.86716C28.4293 8.0727 28.4206 8.30392 28.2909 8.53172C28.2338 8.44265 28.175 8.38271 28.1162 8.32276C28.0885 8.26453 28.0591 8.20458 28.0297 8.17546L28.0124 7.79865H28.0141ZM28.4725 7.72843L28.3255 7.57942L28.1785 7.4287L28.2736 7.34477L28.3341 7.3756L28.5694 7.58627L28.4725 7.72843ZM28.3463 7.00051L28.284 7.05703L28.1646 6.96625V6.93713L28.1663 6.90802L28.3549 6.74188L28.4483 6.68707L28.566 6.77785L28.3445 7.00222L28.3463 7.00051ZM28.5746 8.28165C28.6075 8.19602 28.6421 8.11038 28.7338 8.05557C28.7649 8.05557 28.796 8.02816 28.8272 8.00076C28.8583 8.00076 28.8583 7.97336 28.8306 7.88601C28.8047 7.76954 28.8064 7.7113 28.8376 7.6839L29.1905 8.01446L29.251 8.04529C29.2302 8.06356 29.2095 8.08183 29.1887 8.1001C29.0642 8.18231 28.9085 8.26453 28.7251 8.28679C28.6646 8.28508 28.604 8.28165 28.5729 8.28165M25.1113 7.14952L25.0162 7.23344L24.9867 7.20433L24.838 7.08272L24.9331 6.96968L24.9919 7.02962L25.1096 7.14952H25.1113ZM25.094 6.77271L25.0283 6.91487H24.9989L24.6684 6.78641L24.6425 6.64083L25.004 6.74017L25.094 6.77271ZM25.0975 6.65795L25.0058 6.65453L24.9141 6.6511L24.8933 6.36165L25.0144 6.36507L25.1061 6.3685L25.0957 6.65795H25.0975ZM23.8139 9.21682H23.8796L23.973 9.16373C24.2169 9.14317 24.5214 9.12433 24.9193 9.10892C25.011 9.11234 25.1338 9.08665 25.2843 9.09179C25.5282 9.10035 25.8327 9.08151 26.1371 9.09179L26.2288 9.09522L26.3205 9.09864C26.6544 9.11063 27.0505 9.12433 27.4761 9.13803L27.9034 9.12433L28.085 9.13118L28.2667 9.13803L28.6922 9.18257L28.905 9.18942C28.9379 9.1329 28.9708 9.07638 29.0019 9.01985C29.0348 8.96333 29.0676 8.90681 29.0988 8.87941C29.1299 8.87941 29.1265 8.93764 29.1541 9.05411V9.11234C29.1801 9.17058 29.2406 9.20312 29.3306 9.20483C29.514 9.18257 29.6056 9.15688 29.5797 9.04041V8.20115C29.5797 8.20115 29.4863 8.22684 29.3635 8.27994C29.3012 8.30734 29.2406 8.30392 29.1801 8.30221L29.1507 8.27309L29.1818 8.24569C29.3392 8.10695 29.4949 7.99562 29.5883 7.94081L29.552 7.21631C29.4603 7.24201 29.3358 7.2951 29.2112 7.40643C29.2112 7.43555 29.1801 7.43384 29.1784 7.46295C29.0019 7.28311 28.886 7.1341 28.7978 7.01592C28.7978 7.04504 28.8254 7.10327 28.8843 7.16322C28.9414 7.25228 28.9396 7.31052 28.9085 7.33792C28.9344 7.48351 28.8704 7.56743 28.7476 7.56401V7.53489C28.7199 7.50577 28.6922 7.3893 28.6075 7.21118C28.5815 7.09471 28.4933 7.00393 28.4033 6.94399L28.5919 6.77785C28.6525 6.77956 28.6819 6.81039 28.7718 6.84122C28.8618 6.87376 28.9223 6.87548 28.9535 6.87548C28.9344 6.6511 28.9621 6.49353 29.0313 6.3822C28.9016 6.37364 28.8185 6.34452 28.7926 6.29142C28.7614 6.29142 28.7632 6.26059 28.7632 6.26059C28.7666 6.17324 28.7061 6.17153 28.5833 6.1681C28.4622 6.16297 28.4328 6.10473 28.4674 6.01909C28.4691 5.94887 28.4847 5.89235 28.502 5.83754C28.4829 5.84097 28.4674 5.8461 28.4431 5.84439C28.4224 5.84439 28.4022 5.84382 28.3826 5.84268C28.2909 5.83925 28.2321 5.80842 28.2027 5.77759C28.2027 5.77759 28.2027 5.74848 28.2044 5.71936C28.1733 5.71936 28.1439 5.71765 28.0228 5.71251L27.9311 5.70908C27.81 5.67654 27.6889 5.6714 27.5972 5.66798C27.7477 5.73135 27.8982 5.7656 28.0193 5.79815C28.0799 5.82898 28.1404 5.83069 28.1992 5.86152C28.2598 5.86323 28.3203 5.86495 28.3809 5.89749L28.2978 6.50209C28.2684 6.50209 28.2373 6.50038 28.1767 6.46955C28.1162 6.46784 28.0556 6.43701 27.9968 6.40618C27.9674 6.37706 27.9691 6.34794 27.938 6.34623C27.9709 6.28971 28.002 6.26231 28.0037 6.20407L28.0072 6.08932V6.0602C27.8515 6.16982 27.6958 6.28115 27.5713 6.36336C27.3221 6.52778 27.1336 6.66652 26.9796 6.74702C26.8637 6.56889 26.8066 6.45242 26.7807 6.36507L26.971 6.16982C27.0315 6.17153 27.0921 6.17324 27.182 6.20578C27.2426 6.23661 27.3325 6.24004 27.3637 6.24175C27.3031 6.21092 27.2737 6.18009 27.1838 6.14926C27.0938 6.11672 27.035 6.05677 27.0056 6.02766C27.1319 5.88721 27.227 5.77588 27.291 5.69024C27.1647 5.80157 27.0713 5.85638 26.9796 5.88207C26.862 5.76218 26.7738 5.67312 26.7132 5.64229C26.6527 5.61146 26.5627 5.60803 26.4693 5.63372L26.4382 5.66113L26.3465 5.6577C26.3153 5.6577 26.2859 5.65599 26.2548 5.68339H26.2236C26.2427 6.02937 26.0835 6.22634 25.7479 6.24347C25.8102 6.18866 25.8448 6.10302 25.8759 6.0739C25.8777 6.01567 25.7894 5.9266 25.6718 5.83583C25.5542 5.74505 25.4642 5.68339 25.4037 5.68168C25.4556 5.91462 25.4504 6.0876 25.3846 6.20236L25.3535 6.22976L25.1753 6.07904C25.2393 5.99512 25.2428 5.87865 25.2497 5.70566C25.2497 5.70566 25.1891 5.70395 25.0646 5.75704C25.0646 5.75704 25.0335 5.75704 25.0335 5.78445C24.9729 5.78273 24.9124 5.78102 24.883 5.75019C24.9418 5.81014 24.9694 5.86837 25.0283 5.92832C25.1148 6.0465 25.1736 6.13556 25.1718 6.1938C25.1407 6.2212 25.0802 6.21949 25.0179 6.24689C24.9867 6.24689 24.9573 6.24518 24.9262 6.24347L24.6909 6.0328C24.6321 5.97285 24.6356 5.85809 24.6702 5.74334L24.2429 5.75704C24.3328 5.78958 24.3899 5.87865 24.4764 6.02594C24.5629 6.17324 24.6511 6.26402 24.71 6.29485C24.5543 6.40447 24.4591 6.51751 24.4833 6.66309C24.4833 6.69221 24.5093 6.77956 24.5352 6.92515C24.5491 7.00051 24.5543 7.06045 24.556 7.11184C24.5802 7.10499 24.6096 7.10156 24.6511 7.10327C24.7117 7.1341 24.7394 7.16322 24.8293 7.22488C24.8881 7.28483 24.9175 7.31394 24.9764 7.34648V7.3756C24.6667 7.5092 24.4505 7.58798 24.2965 7.64108C24.4193 7.58798 24.5422 7.59141 24.6321 7.62395C24.7826 7.65821 24.9054 7.66163 24.9348 7.66335H24.966C25.0265 7.66677 25.0594 7.61025 25.0006 7.5503C24.9729 7.49207 25.004 7.43555 25.0957 7.43726C25.1874 7.44069 25.2445 7.52975 25.2376 7.73186C25.2705 7.67534 25.3033 7.5897 25.3362 7.53318C25.4729 7.13239 25.5749 6.78984 25.5853 6.5295C25.4625 6.58259 25.3725 6.52265 25.3794 6.31883C25.5611 6.32568 25.7427 6.35993 25.8604 6.50894C25.8604 6.53806 25.8569 6.6237 25.8223 6.73845C25.8188 6.85321 25.7842 6.93885 25.8137 6.96968C25.9399 6.82923 26.0005 6.86006 25.9953 7.00565C25.9019 7.10841 25.7946 7.13239 25.6856 7.07758C25.8102 7.17178 25.9244 7.24201 26.0161 7.26599C25.8863 7.49378 25.7894 7.66335 25.7254 7.74727C25.6372 7.65649 25.5801 7.56914 25.5801 7.54003C25.6078 7.59826 25.6061 7.65649 25.6355 7.71473C25.6355 7.74385 25.5715 7.79865 25.478 7.85346C25.4158 7.88087 25.3518 7.96479 25.3189 8.05043C25.2895 8.05043 25.2878 8.07783 25.2878 8.07783C25.1684 7.98706 25.0508 7.89628 24.9608 7.83462C24.7809 7.74213 24.6598 7.73699 24.5958 7.82263C24.6581 7.76782 24.7497 7.79865 24.8951 7.94938C24.8328 7.97678 24.7411 8.00247 24.5283 7.99391C24.3138 8.01618 24.2827 8.0727 24.3674 8.21999L23.954 7.8586C23.9869 7.80208 24.0474 7.77468 24.1391 7.7781C24.2602 7.81064 24.3501 7.84319 24.4107 7.8449C24.2308 7.75241 24.0509 7.68732 23.9298 7.65478C23.9004 7.62567 23.8709 7.62395 23.8415 7.59484C23.8744 7.5092 23.9073 7.45268 23.9401 7.36704C24.037 7.22659 24.1616 7.11526 24.2861 7.06045C24.2256 7.05874 24.165 7.02791 24.0768 6.96625C24.0163 6.93542 23.9886 6.9063 23.9574 6.87548C23.9574 6.84636 23.9592 6.81724 23.9609 6.78812V6.72989L24.2619 6.88575C24.2117 6.59458 24.2481 6.39419 24.3744 6.28286C24.3138 6.28115 24.1893 6.33424 24.0336 6.44557C24.0336 6.44557 24.0024 6.47298 23.9713 6.47298C23.8779 6.5569 23.7845 6.58259 23.7239 6.60828L23.8087 9.21511L23.8139 9.21682ZM28.8237 9.76662L28.6698 9.7906L28.5175 9.78546L28.5244 9.58335L28.6767 9.58849L28.7978 9.59192L28.822 9.76662H28.8237ZM28.3999 9.69468L28.3065 9.77861L28.2459 9.74778L28.1283 9.62788L28.2234 9.51484L28.2528 9.54567L28.3999 9.69468ZM26.9692 9.70325L26.298 9.7375L26.2063 9.73408L26.1147 9.73065L25.7791 9.74778L25.7566 9.54396L26.1216 9.55595L26.2133 9.53026L26.3049 9.53368L26.9744 9.52854L26.9675 9.70153L26.9692 9.70325ZM25.4815 9.56451L25.4746 9.7375L25.2601 9.75977L25.0784 9.75292L25.0854 9.57993L25.2687 9.55766L25.4815 9.56451ZM24.9003 9.66043L23.9246 9.68441L23.9315 9.4823L24.9072 9.45832L24.9003 9.66043ZM21.9179 9.6159L21.5823 9.63302L21.3989 9.62617L21.4058 9.42407L21.5874 9.43092L21.9231 9.41379L21.9161 9.6159H21.9179ZM20.4284 9.5354L20.1533 9.55424L19.9717 9.54738L19.4545 9.55937L19.4614 9.38639L19.9786 9.37611L20.162 9.35384L20.4353 9.36412L20.4284 9.53711V9.5354ZM19.3472 7.415L19.451 7.04333L19.5427 7.04675L19.605 7.01935L19.5323 7.3345L19.496 7.47837L19.3455 7.415H19.3472ZM19.669 6.93371C19.6084 6.932 19.579 6.90117 19.5496 6.87205C19.489 6.84122 19.4302 6.81039 19.4008 6.75216C19.451 6.62199 19.496 6.53635 19.5323 6.47126C19.5029 6.41817 19.4683 6.35651 19.4475 6.28971C19.4769 6.31883 19.5063 6.34966 19.5652 6.38049V6.4096C19.5565 6.42331 19.5427 6.45071 19.5306 6.47126C19.5409 6.4901 19.5531 6.51066 19.56 6.52607C19.6153 6.70077 19.6707 6.84807 19.6672 6.93542M19.899 6.42331C19.9925 6.3685 20.0547 6.34109 20.0859 6.31369C20.1481 6.25888 20.1793 6.25888 20.2104 6.26059L20.245 7.01421C20.2208 6.81039 20.1654 6.66481 20.0772 6.57403C20.0495 6.48668 19.9907 6.45585 19.899 6.42331ZM19.9509 7.55373C19.9838 7.49721 20.0167 7.44069 20.0478 7.38417C20.1101 7.35847 20.1724 7.30195 20.2346 7.24543C20.3592 7.16322 20.4838 7.08101 20.6083 6.99879C20.482 7.13924 20.3575 7.22145 20.2935 7.27626C20.4111 7.39616 20.4993 7.48522 20.4976 7.51434L20.2225 7.53318L20.0409 7.52632L19.9492 7.55202L19.9509 7.55373ZM20.1187 7.96479L20.1326 7.56058L20.2243 7.56401L20.316 7.56743L20.3315 7.97336L20.2104 7.96993L20.1187 7.96651V7.96479ZM20.6239 8.30049L20.7502 8.18916L20.7796 8.21999L20.9283 8.3416L20.8038 8.42381L20.7744 8.3947L20.6256 8.30221L20.6239 8.30049ZM20.9837 8.45807L21.0823 8.23027L21.1152 8.17375L21.2657 8.208L21.1325 8.52144L21.0719 8.49061L20.982 8.45807H20.9837ZM21.2761 7.94766L21.0927 7.94081H21.0616L20.9266 7.44411L21.11 7.42185L21.2743 7.94766H21.2761ZM21.4473 8.27138C21.584 7.87059 21.6307 7.38074 21.5909 6.77271C21.6151 6.94741 21.6411 7.093 21.6653 7.23858C21.7449 7.55887 21.7674 7.82092 21.7881 8.05214C21.757 8.05214 21.6964 8.07783 21.6324 8.13436V8.16347C21.5373 8.21828 21.5061 8.2748 21.4456 8.27309M28.5539 25.9591C29.4344 25.1507 29.9274 24.1264 30.0035 22.8573L30.0139 22.5678C30.0174 22.4805 30.0191 22.3948 29.9931 22.3075L29.6264 9.42407C29.5953 9.42407 29.5659 9.42235 29.5036 9.47716C29.4724 9.50457 29.4102 9.53197 29.2891 9.52683C29.2285 9.52512 29.168 9.52341 29.1386 9.49258C29.119 9.47317 29.0994 9.45318 29.0797 9.43263C29.0521 9.34528 28.9933 9.31445 28.8704 9.30931L28.6871 9.33158L28.2598 9.34528L28.0764 9.33843L27.8947 9.33158L27.4675 9.34528L26.3084 9.39152L26.2167 9.3881L26.125 9.38467L25.2722 9.41208L24.9072 9.40009L24.7549 9.42407C24.6632 9.42064 24.6338 9.39152 24.6978 9.30589C24.7619 9.22196 24.7324 9.19113 24.6408 9.1877C24.5491 9.18428 24.4263 9.20997 24.274 9.20483L23.8779 9.22025L23.8139 9.30417L23.8104 9.21682H23.7862L23.8139 11.0101L24.1806 23.0542C24.1875 23.7205 23.9004 24.0853 23.352 24.1247C23.352 24.1247 23.3226 24.1247 23.2914 24.123C22.7742 24.135 22.4801 23.8353 22.4386 23.2546L22.0303 8.92394L22.0251 8.92737V9.00958C22.0251 9.00958 21.9922 8.99416 21.9628 8.97361L21.8435 9.06096L21.5978 9.11063L21.0477 9.15002L20.7415 9.19798L20.6187 9.22367C20.4665 9.21853 20.3142 9.2134 20.162 9.20826C20.1014 9.20655 20.0409 9.20483 19.9803 9.20141C19.7987 9.16544 19.6171 9.13118 19.4683 9.06781L19.4077 9.03698H19.4683C19.6517 9.01643 19.8368 8.96505 19.989 8.94107C20.0495 8.94278 20.1101 8.94449 20.1724 8.9188C20.3869 8.89825 20.5685 8.90339 20.7519 8.88112C20.8436 8.88455 20.9647 8.88797 21.0564 8.8914C21.238 8.89825 21.3902 8.90339 21.5736 8.90852C21.5442 8.85029 21.5771 8.79377 21.6117 8.70813H21.6428C21.8002 8.85029 21.9006 8.9325 21.9628 8.97532L22.0251 8.92908L21.9611 6.55176C21.93 6.55176 21.9006 6.55005 21.8988 6.60828C21.8677 6.63569 21.8054 6.66309 21.6843 6.65795C21.5321 6.65282 21.3522 6.56033 21.1775 6.38049C21.2467 6.15098 21.283 6.00882 21.2847 5.95058C21.2847 5.92147 21.2259 5.89064 21.1653 5.88892H21.1048C20.9837 5.88207 20.9214 5.90948 20.8591 5.93688C20.8297 5.93688 20.828 5.96429 20.828 5.96429H20.8574C21.0097 5.97114 21.0996 6.00197 21.1584 6.06191V6.09103C21.0961 6.11843 21.0027 6.14413 20.9422 6.16982L21.1429 6.52436L21.1705 6.58259C21.1705 6.58259 21.1394 6.58259 21.1394 6.61C21.0788 6.60828 21.0477 6.63569 21.046 6.66481C21.046 6.69392 21.0737 6.72304 21.1342 6.75387C21.1653 6.75387 21.1948 6.7847 21.2242 6.81553C21.3435 6.87719 21.4023 6.93713 21.4318 6.96796C21.3401 6.99366 21.2501 6.96111 21.129 6.92857C21.0079 6.89603 20.918 6.86349 20.8263 6.86006H20.7951L20.6723 6.88404C20.5322 6.56033 20.4492 6.32739 20.4526 6.21092C20.5702 6.3017 20.6602 6.36336 20.7208 6.39419C20.5703 6.33082 20.546 6.15611 20.5858 5.89749C20.5547 5.89749 20.463 5.92147 20.2814 5.91633L20.1897 5.94202C20.1585 5.94202 20.1291 5.94031 20.098 5.93859C20.0668 5.93859 20.0668 5.966 20.0651 5.99512C20.0945 6.02423 20.0634 6.05335 19.9717 6.04992C19.8506 6.04479 19.8212 6.01567 19.8541 5.93003C19.8558 5.8718 19.8264 5.84268 19.7364 5.83925L19.5842 5.83412L16.1105 5.91633L16.5776 22.042C16.6312 23.9808 17.3405 25.4521 18.7054 26.4249C18.7331 26.4832 18.7936 26.514 18.8542 26.5466C19.0029 26.6682 19.1811 26.7606 19.361 26.8531C19.4216 26.884 19.4804 26.9148 19.5409 26.9456C19.7209 27.0381 19.899 27.1323 20.1101 27.1957C20.2 27.2282 20.29 27.2608 20.4111 27.2933C20.591 27.3567 20.7727 27.4218 20.9543 27.456C21.648 27.6239 22.4057 27.7095 23.2291 27.7078C23.3814 27.7129 23.5025 27.7164 23.6253 27.7215C23.8398 27.6992 24.0526 27.6787 24.2654 27.6855C24.3882 27.6599 24.5093 27.665 24.6321 27.641C24.9072 27.5931 25.2134 27.5451 25.4902 27.4971L25.5818 27.4714L25.6735 27.4458C26.0731 27.3447 26.4728 27.2128 26.8447 27.0518C26.9986 26.9987 27.1543 26.9182 27.2789 26.836C27.3412 26.8086 27.4017 26.7829 27.464 26.7555C27.5263 26.7007 27.5886 26.6733 27.6508 26.6459C27.7442 26.5911 27.8377 26.5363 27.9311 26.4524C27.9622 26.4249 28.0245 26.3975 28.0868 26.3701C28.2442 26.2314 28.4016 26.0927 28.559 25.9522M29.6575 44.7566C29.8669 44.8457 29.9672 45.0615 29.917 45.2671L29.6524 45.2739L29.642 44.7532C29.642 44.7532 29.6524 44.7549 29.6558 44.7566M28.0989 48.374L28.5296 48.3637C28.5556 48.4014 28.5833 48.4374 28.6075 48.4751C28.6749 48.4973 28.7424 48.5179 28.8133 48.5367C28.8289 48.5127 28.8531 48.4905 28.8843 48.4631C28.8843 48.4631 28.8843 48.4939 28.8825 48.5521C28.9448 48.5675 29.0088 48.5795 29.0728 48.5898C29.1195 48.5007 29.187 48.4185 29.2735 48.3449L29.4932 48.3397C29.5088 48.4014 29.5191 48.4836 29.5295 48.5898C29.6766 48.5504 29.7873 48.4511 29.8375 48.3312L30.9325 48.3055C30.9031 48.3312 30.8719 48.3552 30.8356 48.3757C30.9948 48.4237 31.1089 48.5025 31.1937 48.5967L28.1767 48.6669C28.156 48.5675 28.13 48.4699 28.1023 48.3706M28.1681 46.3135C28.1093 46.3803 28.0608 46.43 28.0158 46.4728C28.021 46.4232 28.0383 46.3701 28.0798 46.3135H28.1698H28.1681ZM27.983 46.4334L27.8878 46.5465L27.8723 46.5379V46.5876C27.8723 46.5876 27.8688 46.591 27.8671 46.591C27.8307 46.5688 27.7944 46.5431 27.7598 46.5191V46.4454L27.7096 46.3941L27.7598 46.3358V46.317H27.8723V46.3427L27.9812 46.4317L27.983 46.4334ZM27.5695 48.6806L25.7358 48.7234L25.7272 48.4254L26.734 48.4014C26.7028 48.4185 26.67 48.4322 26.6406 48.4528C26.6423 48.4648 26.6423 48.4819 26.644 48.4956C26.6752 48.4699 26.7167 48.4357 26.7582 48.4014L27.4173 48.386C27.3723 48.4648 27.3239 48.5436 27.2858 48.6241C27.3291 48.6189 27.3723 48.6104 27.4173 48.6121C27.4484 48.6121 27.4778 48.6138 27.509 48.6155C27.5228 48.6292 27.5453 48.6515 27.5695 48.6806ZM26.3828 46.5002C26.3067 46.5516 26.2254 46.5962 26.1389 46.6321L25.824 46.4026C25.8448 46.3838 25.8586 46.3666 25.8777 46.3478L26.3741 46.341L26.3828 46.5002ZM31.6227 48.5864C31.6331 48.5675 31.6452 48.5487 31.6521 48.5282C31.7162 48.4442 31.7784 48.3877 31.8701 48.3911C31.9912 48.3963 31.9912 48.4237 31.9272 48.5093C31.9116 48.535 31.9064 48.5607 31.9134 48.5795L31.6227 48.5864ZM32.1504 48.5744C32.1953 48.5453 32.2386 48.5059 32.2645 48.4631C32.3043 48.3928 32.3441 48.3329 32.3839 48.2712L32.5707 48.2661L32.6642 48.3603V48.4939C32.6884 48.4853 32.7091 48.4733 32.7333 48.4665C32.9565 48.4065 33.2108 48.422 33.4513 48.4939V48.5419L32.1521 48.5727L32.1504 48.5744ZM33.4893 48.523C33.4893 48.523 33.5049 48.5196 33.5135 48.5179C33.5551 48.5316 33.5983 48.5453 33.6381 48.5624C33.581 48.5504 33.5308 48.5367 33.4893 48.523ZM31.4532 43.8078L31.0069 28.0007L30.4274 28.0093L30.0312 28.0247L29.3116 28.0452V28.0058L24.9989 28.0709L25.1009 33.1732C25.1044 33.3531 25.1788 33.6888 25.3241 34.1752C25.3673 34.3174 25.4019 34.4407 25.4313 34.5554L25.459 35.5266C25.4296 35.6019 25.4019 35.679 25.3552 35.7612C25.2237 35.9959 25.1597 36.1894 25.1632 36.3436L25.3431 45.3664C25.312 45.4606 25.2929 45.7586 25.286 46.2536L25.2445 46.257L25.2393 46.4009L25.3431 49.8024C25.3431 49.8024 25.3431 49.8161 25.3431 49.8247L25.3518 50.1073L25.5957 50.1159L25.587 49.8179L35.259 49.5901V49.5216H35.3023L35.1777 45.2653C35.1656 45.2653 35.1466 45.2636 35.1328 45.2636L35.1276 45.0992L32.4652 45.1609C32.4652 45.1763 32.4652 45.1883 32.4652 45.202L31.8148 45.2174C31.813 45.2037 31.813 45.1917 31.8096 45.1763C31.6867 45.1797 31.5726 45.1848 31.4653 45.1951L31.2249 45.0992C31.0155 44.9759 30.8668 44.9125 30.7439 44.9091C30.6522 44.9057 30.59 44.9622 30.5571 45.0478C30.5242 45.1043 30.462 45.1609 30.3409 45.1557C30.0969 45.1763 29.9188 45.0547 29.8357 44.82C29.7786 44.7018 29.7527 44.5854 29.7579 44.4124C29.7631 44.2668 29.7977 44.1246 29.8617 44.039C29.9568 43.926 30.1419 43.8746 30.3858 43.854C30.6903 43.8352 30.8079 43.9551 30.7699 44.1846L30.6107 44.3816C30.462 44.2891 30.3426 44.2274 30.2509 44.1949C30.2509 44.1949 30.3391 44.2839 30.5467 44.4364C30.4827 44.5203 30.3599 44.5751 30.1765 44.5682C30.2077 44.5682 30.2665 44.6008 30.4187 44.6059C30.5381 44.6676 30.628 44.7001 30.6592 44.7001C30.7318 44.385 31.0155 44.0767 31.4515 43.8026M34.1951 27.355L34.3162 27.3584L34.4373 27.3618L34.4183 27.0433L34.3266 27.0398L34.2055 27.0364L34.1934 27.3533L34.1951 27.355ZM31.474 44.8731L31.6573 44.8508L31.6521 44.1281L31.4999 44.1229L31.3165 44.1452L31.3511 44.8697L31.4722 44.8731H31.474ZM43.9536 26.043C43.8914 26.0995 43.8274 26.1543 43.7979 26.1526L43.8049 25.9796C43.7789 25.8632 43.7789 25.834 43.8412 25.8084C43.8723 25.781 43.9035 25.7809 43.964 25.7827L43.9934 25.8135C44.0834 25.846 44.1145 25.846 44.1439 25.8477C44.0799 25.9317 44.0159 26.0173 43.9536 26.043ZM43.6423 26.2639C43.5817 26.2622 43.4312 26.228 43.2478 26.2211C43.2271 26.2211 43.2069 26.2109 43.1873 26.1903C43.0056 26.1834 42.8551 26.1218 42.7358 26.0584C42.7963 26.0892 42.888 26.0636 43.0126 25.9813C43.0126 25.9813 42.9831 25.9813 42.9537 25.9505C42.8621 25.9471 42.8326 25.918 42.805 25.858C42.805 25.858 42.8655 25.8889 42.9537 25.9505C43.0454 25.9248 43.1077 25.8974 43.1994 25.9008C43.3534 25.8477 43.5073 25.8255 43.6284 25.8289L43.644 26.2639H43.6423ZM33.37 25.7638L33.6744 25.7741L33.6969 25.9779H33.6658L33.3613 25.995L33.37 25.7638ZM34.0637 25.9608L34.1553 25.9351L34.247 25.9385L34.2643 26.2862L34.1432 26.2828L34.0515 26.2794L34.0637 25.9625V25.9608ZM36.1811 26.3239L36.1672 26.2965H36.2468L36.1811 26.3239ZM38.8625 26.2725C38.8227 26.2725 38.8019 26.2639 38.795 26.252L38.9801 26.2485C38.9472 26.2742 38.8901 26.2725 38.8625 26.2725ZM43.9277 26.7949L44.5383 26.7589L44.5245 26.2674C44.22 26.2862 44.0678 26.2811 44.0384 26.2211C44.2546 26.1132 44.4121 26.0019 44.5072 25.8906L44.4622 23.2992L44.0349 23.3129L43.2738 23.3163L41.1702 23.3882L40.9885 23.3814L40.8969 23.3779L40.1962 23.4122L39.5873 23.4208L39.4299 18.774L40.3744 18.7483L41.075 18.7432L41.1667 18.7466L41.3501 18.7244L43.452 18.6815H43.5125L43.4935 17.498L43.4001 14.1102L41.511 14.1599L41.3293 14.153L41.2377 14.1496L40.537 14.1838L39.4091 14.2027L39.288 14.1992L39.1687 9.82828L39.5648 9.81286L40.6927 9.79402L41.3933 9.75977L41.485 9.76319L41.6667 9.77004L43.5263 9.71866L43.388 5L41.8345 5.03254L41.6528 5.02569L41.5611 5.02227L40.8605 5.05652L39.7344 5.07536L38.7293 5.09763L37.7847 5.12332L37.3574 5.13702L37.1135 5.12846L36.7779 5.14558L35.1033 5.1747L34.8888 5.19697L34.401 5.20896L33.9737 5.22266L33.8526 5.21752L33.7004 5.21238L33.5793 5.20724H33.5481L33.4565 5.23122H32.6347L32.998 18.2602L33.0378 19.7075L33.0586 19.9678L33.1087 22.0231L33.1727 24.5409L33.2419 26.019L33.2471 26.7418C33.2437 26.8583 33.3008 26.9456 33.4219 26.9799C33.5118 27.0124 33.5724 27.0141 33.5724 27.0141C33.5724 27.0141 33.6035 26.9867 33.6346 26.9576C33.6675 26.9011 33.7609 26.8463 33.8855 26.7641C34.0083 26.711 34.1017 26.6562 34.1346 26.5997C34.1553 26.5814 34.1761 26.5625 34.1969 26.5431C34.3145 26.663 34.3404 26.7795 34.247 26.8634C34.2782 26.8634 34.3076 26.8651 34.3387 26.8668C34.4927 26.8137 34.8594 26.7983 35.3767 26.7863C35.4978 26.7898 35.5912 26.7367 35.5964 26.6202C35.6016 26.4763 35.6344 26.4198 35.6344 26.4198C35.7244 26.4815 35.7797 26.6271 35.7694 26.8874C35.861 26.8908 35.9233 26.8634 36.015 26.8377C36.0756 26.8394 36.169 26.8137 36.2313 26.7589C36.2918 26.7607 36.3229 26.7332 36.3541 26.735C36.4786 26.6819 36.5392 26.6545 36.5997 26.6562H36.6309C36.7226 26.6596 36.7831 26.663 36.8125 26.6921C36.8108 26.7504 36.8402 26.7795 36.8385 26.8377C36.8056 26.9234 36.8039 26.9816 36.8021 27.0107C36.835 26.9251 36.899 26.8686 36.9319 26.7846C36.963 26.7572 36.9941 26.7298 37.0253 26.7007C37.0876 26.6733 37.117 26.675 37.2087 26.6784C37.3003 26.6527 37.3592 26.7127 37.3868 26.8C37.3851 26.8583 37.4733 26.9182 37.5962 26.8942C37.6879 26.8977 37.8384 26.9028 37.9612 26.8788C38.2656 26.86 38.603 26.8137 38.9715 26.7401C39.186 26.6904 39.4005 26.639 39.6773 26.5911C39.6773 26.6202 39.7049 26.6493 39.7966 26.6819C39.9177 26.687 39.9765 26.7452 40.0354 26.8052C39.8814 26.8583 39.8191 26.9131 39.8779 26.973C39.9402 26.9456 40.0025 26.9199 40.0942 26.8942C40.2464 26.8703 40.4921 26.8497 40.7965 26.8326H40.8571L40.8882 26.836C40.9505 26.8086 41.011 26.812 41.0716 26.8137C41.1944 26.7898 41.2878 26.735 41.3501 26.6784C41.4677 26.7983 41.4331 26.9131 41.3069 27.0244C41.7117 26.7487 42.2047 26.5928 42.7842 26.5842C42.8759 26.5877 42.9658 26.6202 42.9935 26.7076C43.0541 26.7384 43.1129 26.7692 43.1734 26.8C43.2046 26.8 43.234 26.8018 43.2651 26.8035L43.9346 26.7983L43.9277 26.7949ZM45.9119 27.6718L46.2164 27.6821L46.2216 27.5382L45.9171 27.5571L45.9136 27.6736L45.9119 27.6718ZM46.8876 27.6479L47.3754 27.6359L47.3339 26.2451L46.8461 26.2571C46.9204 26.7213 46.9343 27.1854 46.8876 27.6461M47.6176 27.6427L48.0449 27.629L48.0501 27.4851L47.6228 27.4989L47.6176 27.6427ZM44.3463 49.5986C44.4138 49.6671 44.4761 49.7185 44.5366 49.7613C44.4622 49.65 44.393 49.5729 44.3463 49.5986ZM44.9743 49.8692L44.8238 49.8761C44.7304 49.8727 44.6369 49.8333 44.5366 49.7631C44.7027 50.0131 44.8999 50.4379 44.9674 50.2991C44.9968 50.2306 44.9933 50.0662 44.9743 49.8692ZM43.9415 42.095H43.9104L43.5748 42.1104L42.0213 42.143L42.8344 32.9163L43.6578 39.7999L43.9225 41.8056L43.9433 42.095H43.9415ZM51.4875 48.2438C51.2747 48.237 51.1224 48.2318 51.0325 48.1993C50.7972 47.9595 50.6519 48.6326 50.6311 48.3723C50.6363 48.2421 50.6381 48.1616 50.6398 48.1411C50.4062 47.8722 50.2679 47.4919 50.2557 46.9713C50.2627 46.7691 50.2661 46.6527 50.3007 46.567C50.4184 46.6869 50.4754 46.776 50.4754 46.776C50.4703 46.9199 50.4945 47.0946 50.5481 47.3275C50.6 47.5604 50.6259 47.706 50.6225 47.7934C50.6294 47.6204 50.5775 47.3583 50.5291 47.0089C50.4806 46.6595 50.4581 46.4283 50.4633 46.2827C50.4599 46.3975 50.4564 46.4848 50.3941 46.5413C50.1952 46.1303 50.0533 45.8648 49.9703 45.6302C48.531 38.0889 47.4896 32.2398 46.7821 28.1377L44.9535 28.1617L44.4051 28.172L44.0695 28.1891L38.1895 28.333L35.8092 50.0885L41.9954 49.9258C42.094 47.9903 42.1718 46.663 42.2272 45.9419L43.445 45.9265L43.7806 45.9093L44.329 45.8991L44.4813 45.9042C44.4536 45.8168 44.4847 46.6852 44.5401 48.5384C46.0641 48.5042 47.007 48.5076 47.4014 48.5504C46.7578 48.672 45.8738 48.6994 44.7788 48.6909C44.7978 48.7525 44.9345 49.4068 44.9795 49.871L51.3767 49.5849L51.4926 48.2455L51.4875 48.2438Z" fill="black"/>
<g style="mix-blend-mode:multiply">
<path d="M50.4874 57.4568C50.906 57.4568 51.0582 57.2119 51.0582 56.9499C51.0582 56.5936 50.8403 56.4857 50.5617 56.3795C50.3455 56.2973 50.2521 56.2459 50.2521 56.0524C50.2521 55.8828 50.3438 55.7732 50.5566 55.7732C50.6344 55.7732 50.7001 55.7869 50.7572 55.8177L50.8282 56.0644H50.9769V55.7115C50.8645 55.6516 50.7244 55.6139 50.5635 55.6139C50.2331 55.6139 50.041 55.7766 50.041 56.0729C50.041 56.3692 50.176 56.4874 50.4908 56.609C50.6915 56.6844 50.8403 56.7512 50.8403 56.9619C50.8403 57.1263 50.7676 57.2993 50.4735 57.2993C50.3801 57.2993 50.3126 57.2907 50.2331 57.2496L50.1708 56.9944H50.0168V57.3404C50.1258 57.4174 50.2919 57.4568 50.4908 57.4568M49.4511 56.2665H49.3283L49.2868 56.4258H48.9408V55.7989H49.4425L49.484 56.0318H49.6328V55.6482H48.5187V55.7749L48.7003 55.7972V57.277L48.5187 57.2976V57.4243H49.6674V57.0321H49.5186L49.4771 57.2719H48.9408V56.5748H49.2868L49.3283 56.7341H49.4511V56.2648V56.2665ZM47.8475 55.7972V56.6107C47.8475 56.8008 47.8579 57.0184 47.87 57.1366H47.8648C47.825 57.0149 47.7558 56.8659 47.6641 56.6981L47.0881 55.6464H46.6971V55.7732L46.877 55.7972V57.277L46.6971 57.2976V57.4243H47.2403V57.2976L47.0586 57.277V56.5148C47.0586 56.3093 47.0517 56.0815 47.0379 55.9547H47.0431C47.0846 56.0729 47.1313 56.1654 47.2541 56.3898L47.8198 57.4226H48.0274V55.7972L48.2039 55.7732V55.6464H47.6624V55.7732L47.844 55.7972H47.8475ZM45.7647 57.4226H46.3684V57.2958L46.1868 57.2753V55.7955L46.3684 55.7715V55.6447H45.7647V55.7715L45.9463 55.7955V57.2753L45.7647 57.2958V57.4226ZM45.538 55.6464H44.9914V55.7732L45.1817 55.7972L45.026 56.6005C44.9741 56.8659 44.9378 57.0509 44.917 57.2085H44.9118C44.8962 57.0492 44.8565 56.8197 44.808 56.6005L44.59 55.6464H44.379L44.1714 56.6124C44.1195 56.8522 44.0901 57.0817 44.0728 57.2085H44.0676C44.0538 57.0817 44.0278 56.9122 43.9707 56.6347L43.8012 55.7972L43.9915 55.7732V55.6464H43.3895V55.7732L43.559 55.7972L43.9102 57.4226H44.187L44.3773 56.5251C44.4274 56.2939 44.4586 56.0455 44.4707 55.9376H44.4759C44.4897 56.0455 44.526 56.2939 44.5745 56.5234L44.77 57.4226H45.0433L45.372 55.7972L45.5415 55.7732V55.6464H45.538ZM42.0194 57.4551C42.1941 57.4551 42.3584 57.4209 42.4778 57.3524V56.9995H42.3429L42.2858 57.2496C42.2131 57.2839 42.1249 57.301 42.0246 57.301C41.6699 57.301 41.5661 57.0115 41.5661 56.5302C41.5661 56.0489 41.6578 55.7663 42.0263 55.7663C42.1093 55.7663 42.1906 55.7766 42.2547 55.8074L42.3169 56.0781H42.4622V55.7218C42.3584 55.6413 42.1785 55.6105 42.0177 55.6105C41.5125 55.6105 41.3067 55.9839 41.3067 56.5388C41.3067 57.0937 41.5229 57.4534 42.0177 57.4534M40.3604 57.4192H40.9641V57.2924L40.7825 57.2719V55.792L40.9641 55.7681V55.6413H40.3604V55.7681L40.542 55.792V57.2719L40.3604 57.2924V57.4192ZM38.2776 55.643V55.7698L38.4592 55.7937V57.2701L38.2776 57.2907V57.4192H38.8242V57.2907L38.6426 57.2701V56.3727C38.6426 56.1089 38.6322 55.9273 38.6287 55.8674H38.6339C38.6478 55.9239 38.7014 56.1637 38.774 56.3727L39.0249 57.0886H39.2117L39.4747 56.3418C39.5456 56.1431 39.6079 55.9239 39.6182 55.8674H39.6234C39.62 55.9325 39.6079 56.0712 39.6079 56.3692V57.2684L39.4262 57.289V57.4174H40.03V57.289L39.8483 57.2684V55.792L40.03 55.7681V55.6413H39.5387L39.2446 56.496C39.1875 56.6638 39.1615 56.7666 39.146 56.8574H39.1408C39.1287 56.7649 39.1062 56.6638 39.0491 56.496L38.7654 55.6413H38.2793L38.2776 55.643ZM37.1375 56.2802C37.1929 56.0866 37.2258 55.9787 37.2448 55.8451H37.25C37.269 55.9736 37.295 56.1003 37.3486 56.2785L37.4818 56.7238H37.013L37.1375 56.2802ZM37.6427 57.2701L37.4576 57.2941V57.4209H38.0509V57.2941L37.9056 57.2701L37.3953 55.6447H37.1531L36.6635 57.2701L36.5078 57.2941V57.4209H37.0597V57.2941L36.8625 57.2684L36.9715 56.8745H37.525L37.6427 57.2719V57.2701ZM35.9923 55.7937V56.6073C35.9923 56.7974 36.0027 57.0149 36.0165 57.1331H36.0114C35.9716 57.0115 35.9024 56.8625 35.8107 56.6947L35.2346 55.643H34.8437V55.7698L35.0236 55.7937V57.2736L34.8437 57.2941V57.4209H35.3869V57.2941L35.2052 57.2736V56.5114C35.2052 56.3059 35.1983 56.0781 35.1845 55.9513H35.1896C35.2312 56.0695 35.2779 56.162 35.4007 56.3864L35.9664 57.4192H36.174V55.7937L36.3504 55.7698V55.643H35.809V55.7698L35.9906 55.7937H35.9923ZM33.5583 57.4192H34.1776V57.2924L33.9873 57.2719V56.7084L34.4302 55.7937L34.5945 55.7698V55.643H34.0444V55.7698L34.2451 55.7937L34.0168 56.2956C33.9597 56.424 33.9337 56.4651 33.9078 56.5559C33.8818 56.4703 33.8472 56.4018 33.8005 56.299L33.5722 55.7937L33.7728 55.7698V55.643H33.1449V55.7698L33.3092 55.7937L33.7486 56.7032V57.2719L33.5583 57.2924V57.4192ZM31.6312 55.643V55.7698L31.8128 55.792V57.2719L31.6312 57.2924V57.4192H32.228C32.728 57.4192 32.9857 57.2239 32.9857 56.5268C32.9857 55.8297 32.7591 55.643 32.273 55.643H31.6329H31.6312ZM32.0533 57.2701V55.7955H32.3007C32.6518 55.7955 32.7331 56.0198 32.7331 56.5319C32.7331 57.0441 32.6415 57.2684 32.2955 57.2684H32.0533V57.2701ZM30.6244 57.2958C30.3268 57.2958 30.2161 57.0509 30.2161 56.5268C30.2161 56.0027 30.3286 55.7681 30.6244 55.7681C30.9202 55.7681 31.0309 56.0233 31.0309 56.5474C31.0309 57.0715 30.9219 57.2958 30.6244 57.2958ZM30.6278 57.4534C31.0724 57.4534 31.2887 57.1417 31.2887 56.5251C31.2887 55.9085 31.0551 55.6105 30.6226 55.6105C30.1902 55.6105 29.9583 55.9376 29.9583 56.5388C29.9583 57.14 30.1815 57.4534 30.6278 57.4534ZM29.0104 57.4192H29.6141V57.2924L29.4325 57.2719V55.792L29.6141 55.7681V55.6413H29.0104V55.7681L29.192 55.792V57.2719L29.0104 57.2924V57.4192ZM27.3981 55.643V55.7698L27.5797 55.792V57.2719L27.3981 57.2924V57.4192H28.1367C28.4706 57.4192 28.7042 57.2753 28.7042 56.9225C28.7042 56.6587 28.545 56.5148 28.3634 56.4771C28.5294 56.4309 28.6228 56.3041 28.6228 56.1192C28.6228 55.84 28.4845 55.6447 28.1073 55.6447H27.3963L27.3981 55.643ZM27.8202 56.4206V55.7937H28.1021C28.3132 55.7937 28.3737 55.9359 28.3737 56.1209C28.3737 56.3059 28.327 56.4206 28.116 56.4206H27.8219H27.8202ZM27.8202 57.2684V56.5731H28.1229C28.3703 56.5731 28.4516 56.6947 28.4516 56.9088C28.4516 57.1383 28.3634 57.2701 28.1125 57.2701H27.8202V57.2684ZM26.156 56.7341C26.258 56.7341 26.3324 56.657 26.3324 56.5559C26.3324 56.4549 26.2563 56.3778 26.156 56.3778C26.0556 56.3778 25.9795 56.4549 25.9795 56.5559C25.9795 56.657 26.0574 56.7341 26.156 56.7341ZM24.1043 56.2785C24.1596 56.0849 24.1925 55.977 24.2115 55.8434H24.2167C24.2358 55.9719 24.2617 56.0986 24.3153 56.2767L24.4485 56.7221H23.9797L24.1043 56.2785ZM24.6094 57.2684L24.4243 57.2924V57.4192H25.0177V57.2924L24.8724 57.2684L24.362 55.643H24.1199L23.6303 57.2684L23.4746 57.2924V57.4192H24.0264V57.2924L23.8292 57.2667L23.9382 56.8728H24.4935L24.6112 57.2701L24.6094 57.2684ZM22.9591 55.792V56.6056C22.9591 56.7957 22.9695 57.0132 22.9816 57.1314H22.9764C22.9366 57.0098 22.8674 56.8608 22.7757 56.6929L22.1996 55.6413H21.8087V55.7681L21.9886 55.792V57.2719L21.8087 57.2924V57.4192H22.3519V57.2924L22.1702 57.2719V56.5097C22.1702 56.3041 22.1633 56.0764 22.1495 55.9496H22.1547C22.1962 56.0678 22.2429 56.1603 22.3657 56.3846L22.9314 57.4174H23.139V55.792L23.3154 55.7681V55.6413H22.774V55.7681L22.9556 55.792H22.9591ZM20.8762 57.4174H21.48V57.2907L21.2983 57.2701V55.7903L21.48 55.7663V55.6396H20.8762V55.7663L21.0579 55.7903V57.2701L20.8762 57.2907V57.4174ZM20.4853 55.792L20.6496 55.7681V55.6413H20.0926V55.7681L20.2881 55.7937L20.0061 56.7803C19.9282 57.056 19.9248 57.1177 19.9075 57.2153H19.9023C19.8833 57.1177 19.8764 57.0561 19.8002 56.782L19.5269 55.7903L19.7085 55.7663V55.6396H19.1013V55.7663L19.2674 55.7903L19.757 57.4157H19.9888L20.4836 55.7903L20.4853 55.792ZM17.3835 56.2785C17.4389 56.0849 17.4718 55.977 17.4908 55.8434H17.496C17.5133 55.9719 17.541 56.0986 17.5946 56.2767L17.7278 56.7221H17.259L17.3835 56.2785ZM17.8887 57.2684L17.7036 57.2924V57.4192H18.2969V57.2924L18.1516 57.2684L17.6413 55.643H17.3991L16.9095 57.2684L16.7538 57.2924V57.4192H17.3057V57.2924L17.1085 57.2667L17.2175 56.8728H17.7728L17.8904 57.2701L17.8887 57.2684ZM16.2383 55.792V56.6056C16.2383 56.7957 16.2487 57.0132 16.2625 57.1314H16.2573C16.2176 57.0098 16.1484 56.8608 16.0567 56.6929L15.4806 55.6413H15.0897V55.7681L15.2696 55.792V57.2719L15.0897 57.2924V57.4192H15.6328V57.2924L15.4512 57.2719V56.5097C15.4512 56.3041 15.4443 56.0764 15.4304 55.9496H15.4356C15.4772 56.0678 15.5239 56.1603 15.6467 56.3846L16.2124 57.4174H16.42V55.792L16.5964 55.7681V55.6413H16.0549V55.7681L16.2366 55.792H16.2383ZM14.2057 55.5317H14.3562L14.6745 55.1874L14.6087 55.1104L14.28 55.3244L13.9514 55.1104L13.8856 55.1874L14.2039 55.5317H14.2057ZM14.3025 57.4517C14.4773 57.4517 14.6416 57.4174 14.761 57.3489V56.9961H14.626L14.5689 57.2462C14.4963 57.2804 14.4081 57.2976 14.3077 57.2976C13.9531 57.2976 13.8493 57.0081 13.8493 56.5268C13.8493 56.0455 13.941 55.7629 14.3095 55.7629C14.3925 55.7629 14.4738 55.7732 14.5378 55.804L14.6001 56.0746H14.7454V55.7184C14.6416 55.6379 14.4617 55.6071 14.3008 55.6071C13.7957 55.6071 13.5898 55.9804 13.5898 56.5354C13.5898 57.0903 13.806 57.45 14.3008 57.45M12.6435 57.4157H13.2473V57.289L13.0656 57.2684V55.7886L13.2473 55.7646V55.6379H12.6435V55.7646L12.8252 55.7886V57.2684L12.6435 57.289V57.4157ZM10.5607 55.6396V55.7663L10.7424 55.7903V57.2667L10.5607 57.2873V57.4157H11.1074V57.2873L10.9257 57.2667V56.3692C10.9257 56.1055 10.9153 55.9239 10.9136 55.864H10.9188C10.9326 55.9205 10.9863 56.1603 11.0589 56.3692L11.308 57.0852H11.4949L11.7578 56.3384C11.8287 56.1397 11.891 55.9205 11.9014 55.864H11.9066C11.9049 55.9291 11.891 56.0678 11.891 56.3658V57.265L11.7094 57.2856V57.414H12.3131V57.2856L12.1315 57.265V55.7886L12.3131 55.7646V55.6379H11.8218L11.5277 56.4926C11.4707 56.6604 11.4447 56.7632 11.4291 56.8539H11.4239C11.4118 56.7615 11.3893 56.6604 11.3323 56.4926L11.0485 55.6379H10.5624L10.5607 55.6396ZM9.42069 56.2767C9.47605 56.0832 9.50892 55.9753 9.52795 55.8417H9.53314C9.55044 55.9702 9.57811 56.0969 9.63174 56.275L9.76495 56.7204H9.29614L9.42069 56.2767ZM9.92583 57.2667L9.74073 57.2907V57.4174H10.3341V57.2907L10.1888 57.2667L9.67845 55.6413H9.43626L8.94669 57.2667L8.791 57.2907V57.4174H9.34284V57.2907L9.14563 57.265L9.25462 56.8711H9.80992L9.92756 57.2684L9.92583 57.2667ZM8.27548 55.7903V56.6039C8.27548 56.794 8.28586 57.0115 8.2997 57.1297H8.29451C8.25472 57.0081 8.18552 56.8591 8.09384 56.6912L7.51777 55.6396H7.12854V55.7663L7.30845 55.7903V57.2701L7.12854 57.2907V57.4174H7.67174V57.2907L7.4901 57.2701V56.508C7.4901 56.3024 7.48318 56.0746 7.46934 55.9479H7.47453C7.51604 56.0661 7.56275 56.1586 7.68558 56.3829L8.25126 57.4157H8.45885V55.7903L8.63531 55.7663V55.6396H8.09384V55.7663L8.27548 55.7903ZM6.19265 57.4157H6.7964V57.289L6.61475 57.2684V55.7886L6.7964 55.7646V55.6379H6.19265V55.7646L6.37429 55.7886V57.2684L6.19265 57.289V57.4157ZM4.4956 55.6396V55.7663L4.67724 55.7886V57.2684L4.4956 57.289V57.4157H5.09242C5.59237 57.4157 5.85013 57.2205 5.85013 56.5234C5.85013 55.8263 5.62351 55.6396 5.1374 55.6396H4.49733H4.4956ZM4.9177 57.2667V55.792H5.16508C5.51625 55.792 5.59756 56.0164 5.59756 56.5285C5.59756 57.0406 5.50587 57.265 5.15989 57.265H4.9177V57.2667ZM3.48878 57.2924C3.19123 57.2924 3.08052 57.0475 3.08052 56.5234C3.08052 55.9993 3.19296 55.7646 3.48878 55.7646C3.7846 55.7646 3.89531 56.0198 3.89531 56.5439C3.89531 57.068 3.78633 57.2924 3.48878 57.2924ZM3.49224 57.45C3.93683 57.45 4.15307 57.1383 4.15307 56.5217C4.15307 55.9051 3.91953 55.6071 3.48705 55.6071C3.05457 55.6071 2.82276 55.9342 2.82276 56.5354C2.82276 57.1366 3.04592 57.45 3.49224 57.45ZM1.87476 57.4157H2.4785V57.289L2.29686 57.2684V55.7886L2.4785 55.7646V55.6379H1.87476V55.7646L2.0564 55.7886V57.2684L1.87476 57.289V57.4157ZM0.262472 55.6396V55.7663L0.444114 55.7886V57.2684L0.262472 57.289V57.4157H0.99942C1.3333 57.4157 1.56683 57.2719 1.56683 56.919C1.56683 56.6553 1.40768 56.5114 1.22604 56.4737C1.39211 56.4275 1.48553 56.3007 1.48553 56.1157C1.48553 55.8366 1.34713 55.6413 0.970011 55.6413H0.260742L0.262472 55.6396ZM0.684574 56.4172V55.7903H0.966551C1.1776 55.7903 1.23815 55.9325 1.23815 56.1175C1.23815 56.3024 1.19144 56.4172 0.980391 56.4172H0.686304H0.684574ZM0.684574 57.265V56.5696H0.98731C1.23469 56.5696 1.316 56.6912 1.316 56.9053C1.316 57.1348 1.22777 57.2667 0.976931 57.2667H0.684574V57.265Z" fill="black"/>
</g>
<g style="mix-blend-mode:multiply">
<path d="M49.9717 60.014C50.0392 59.7896 50.0877 59.6132 50.1084 59.4659H50.1119C50.1344 59.6098 50.1707 59.7965 50.2382 60.014L50.4769 60.783H49.7399L49.97 60.014H49.9717ZM50.726 61.6051L50.4648 61.6377V61.7781H51.2121V61.6377L50.9993 61.6051L50.2589 59.2484H50.0063L49.2729 61.6051L49.0428 61.6377V61.7781H49.7572V61.6377L49.4926 61.6017L49.6898 60.9509H50.5236L50.7243 61.6068L50.726 61.6051ZM46.851 59.4179V60.8464C46.851 61.105 46.8631 61.326 46.8769 61.4938H46.8734C46.8181 61.3311 46.7402 61.1632 46.6209 60.9337L45.7438 59.2467H45.2335V59.3871L45.4982 59.4162V61.6137L45.2335 61.636V61.7764H45.9583V61.636L45.6988 61.6137V60.2521C45.6988 59.9575 45.6867 59.704 45.6729 59.531H45.6763C45.7317 59.6817 45.8026 59.841 45.9479 60.1167L46.8146 61.7781H47.0534V59.4179L47.3146 59.3888V59.2484H46.5897V59.3888L46.8544 59.4179H46.851ZM42.4483 61.7781H43.2337V61.6377L42.969 61.6154V59.4179L43.2337 59.3888V59.2484H42.4483V59.3888L42.713 59.4179V61.6154L42.4483 61.6377V61.7781ZM39.4884 59.4179L39.7531 59.3888V59.2484H38.9677V59.3888L39.2324 59.4179V61.6154L38.9677 61.6377V61.7781H40.5627V61.2266H40.4035L40.3516 61.6137H39.4884V59.4196V59.4179ZM36.0337 61.6428C35.577 61.6428 35.3937 61.2711 35.3937 60.5124C35.3937 59.7536 35.584 59.3854 36.0337 59.3854C36.4835 59.3854 36.6738 59.7725 36.6738 60.5347C36.6738 61.2968 36.4991 61.6428 36.0337 61.6428ZM36.0407 61.8158C36.6652 61.8158 36.9489 61.3739 36.9489 60.509C36.9489 59.644 36.6323 59.2124 36.0337 59.2124C35.4352 59.2124 35.1186 59.68 35.1186 60.5227C35.1186 61.3653 35.4162 61.8158 36.0407 61.8158ZM31.209 59.2501V59.3905L31.4737 59.4196V61.6171L31.209 61.6394V61.7798H32.0342C32.7521 61.7798 33.0756 61.4698 33.0756 60.5278C33.0756 59.5858 32.7849 59.2501 32.067 59.2501H31.2073H31.209ZM31.7297 61.6137V59.4145H32.0982C32.6673 59.4145 32.8126 59.7571 32.8126 60.5295C32.8126 61.302 32.6569 61.612 32.0947 61.612H31.7297V61.6137ZM25.7424 60.0157C25.8099 59.7913 25.8583 59.6149 25.8808 59.4676H25.8843C25.9068 59.6115 25.9431 59.7982 26.0106 60.0157L26.2493 60.7847H25.5123L25.7424 60.0157ZM26.4967 61.6068L26.2355 61.6394V61.7798H26.9828V61.6394L26.77 61.6068L26.0296 59.2501H25.777L25.0435 61.6068L24.8135 61.6394V61.7798H25.5279V61.6394L25.2632 61.6034L25.4604 60.9526H26.2943L26.4949 61.6086L26.4967 61.6068ZM22.8898 61.6171L22.0421 60.3976L22.8535 59.4214L23.0991 59.3888V59.2484H22.3552V59.3888L22.6268 59.4248L21.7792 60.437L22.7047 61.7764H23.1545V61.636L22.8898 61.6137V61.6171ZM21.1979 61.7798H21.9833V61.6394L21.7186 61.6171V59.4196L21.9833 59.3905V59.2501H21.1979V59.3905L21.4626 59.4196V61.6171L21.1979 61.6394V61.7798ZM18.4318 61.8175C18.975 61.8175 19.205 61.4972 19.205 61.1221C19.205 60.6477 18.9265 60.5004 18.5165 60.3343C18.1965 60.2058 18.0373 60.1202 18.0373 59.8221C18.0373 59.5464 18.2051 59.3871 18.5062 59.3871C18.6584 59.3871 18.7656 59.4162 18.8591 59.4642L18.9334 59.8136H19.0926V59.3563C18.9404 59.2672 18.7501 59.2124 18.5079 59.2124C18.0841 59.2124 17.809 59.4368 17.809 59.8341C17.809 60.2538 18.0356 60.4079 18.437 60.5706C18.7605 60.6991 18.9611 60.7984 18.9611 61.1307C18.9611 61.4099 18.8279 61.6462 18.4145 61.6462C18.2328 61.6462 18.1014 61.6137 17.9872 61.5315L17.9197 61.1564H17.7554V61.6137C17.9111 61.749 18.1377 61.8158 18.4283 61.8158M15.7348 59.4231L15.9735 59.3905V59.2501H15.2556V59.3905L15.5151 59.4265L15.0463 61.0091C14.946 61.3482 14.9304 61.4835 14.9166 61.5623H14.9096C14.8941 61.4852 14.8768 61.3414 14.7834 61.0142L14.318 59.4231L14.5775 59.3905V59.2501H13.8181V59.3905L14.0481 59.4231L14.7626 61.7798H15.0082L15.7331 59.4231H15.7348ZM11.1644 60.0157C11.2318 59.7913 11.2803 59.6149 11.3028 59.4676H11.3062C11.3287 59.6115 11.365 59.7982 11.4325 60.0157L11.6712 60.7847H10.9343L11.1644 60.0157ZM11.9186 61.6068L11.6574 61.6394V61.7798H12.4047V61.6394L12.1919 61.6068L11.4515 59.2501H11.199L10.4655 61.6068L10.2354 61.6394V61.7798H10.9498V61.6394L10.6852 61.6034L10.8824 60.9526H11.7162L11.9169 61.6086L11.9186 61.6068ZM6.96064 59.2501V59.3905L7.22532 59.4196V61.6171L6.96064 61.6394V61.7798H7.83771V61.636L7.48135 61.6171V60.7488H7.90172C8.40686 60.7488 8.65251 60.4764 8.65251 59.9831C8.65251 59.4899 8.4034 59.2501 7.88615 59.2501H6.96064ZM7.48135 60.5826V59.4111H7.87231C8.23732 59.4111 8.3861 59.6132 8.3861 59.9934C8.3861 60.3737 8.22522 60.5826 7.89826 60.5826H7.48135ZM4.17546 61.7798H4.96085V61.6394L4.69617 61.6171V59.4196L4.96085 59.3905V59.2501H4.17546V59.3905L4.44014 59.4196V61.6171L4.17546 61.6394V61.7798ZM2.09955 59.4231L2.33828 59.3905V59.2501H1.62037V59.3905L1.88158 59.4265L1.41277 61.0091C1.31244 61.3482 1.29687 61.4835 1.28303 61.5623H1.27611C1.26054 61.4852 1.24324 61.3414 1.14983 61.0142L0.684476 59.4231L0.945695 59.3905V59.2501H0.187988V59.3905L0.418068 59.4231L1.13253 61.7798H1.37818L2.10301 59.4231H2.09955Z" fill="black"/>
</g>
</svg>
