<svg width="95" height="57" viewBox="0 0 95 57" fill="none" xmlns="http://www.w3.org/2000/svg">
<g clip-path="url(#clip0_669_775)">
<path d="M86.2999 12.3511C86.2553 12.4166 86.1843 12.482 86.1843 12.5474C86.1843 12.5902 86.2526 12.6355 86.4603 12.7663C86.7573 12.9853 88.5891 14.3014 88.7731 14.4322C88.9571 14.5857 89.0491 14.6512 89.1174 14.6512C89.2094 14.6512 89.3224 14.5857 89.5064 14.4322C89.7587 14.2133 91.8403 12.3713 92.0689 12.1523C92.1372 12.0643 92.2056 11.9988 92.2056 11.9107C92.2056 11.8227 92.1372 11.7346 92.0453 11.7346C91.9769 11.7346 91.8166 11.8 91.6326 11.9535C91.0833 12.3914 90.2134 13.0708 89.6877 13.3351C89.5038 13.4231 89.4118 13.4458 89.3224 13.4458C89.2541 13.4458 89.1857 13.403 89.0938 13.3577C88.7968 13.2269 87.6298 12.3285 87.1725 11.8453C87.1042 11.7572 87.0569 11.7371 86.9885 11.7371C86.9202 11.7371 86.8755 11.7799 86.7835 11.868L86.3026 12.3511H86.2999ZM85.706 29.1811C88.7495 24.951 91.6799 20.7888 94.6104 16.4932C94.7024 16.385 94.7234 16.2516 94.7234 16.1635C94.7234 16.0528 94.6104 16.01 94.3108 16.01H88.6811C88.0398 16.01 87.0779 16.0327 85.1567 15.9673C84.631 15.9446 84.4917 15.8364 84.3104 15.8364C84.1974 15.8364 84.1501 15.9245 84.1264 16.1862C84.0108 16.7549 83.7138 18.4434 83.7138 18.6624C83.7138 18.8159 83.7374 18.9039 83.8294 18.9039C83.9424 18.9039 84.0581 18.8612 84.1028 18.5743C84.1711 18.1364 84.539 17.457 85.246 17.1047C85.8873 16.775 87.0779 16.7977 88.1082 16.7977H92.3659C89.5957 20.9398 86.6206 25.0818 83.6008 29.2667C83.3484 29.6165 83.3248 29.7498 83.3248 29.8354C83.3248 29.9662 83.4615 29.9889 83.6901 29.9889C87.2146 29.9889 90.626 30.0795 93.9902 30.0795C94.4475 30.0795 94.4711 30.0568 94.5841 29.5938C94.7208 29.1333 94.9968 28.0386 94.9968 27.4473C94.9968 27.0975 94.9521 27.0296 94.8364 27.0296C94.7208 27.0296 94.6525 27.1403 94.6078 27.3139C94.5395 27.5756 94.4028 28.0814 94.1952 28.323C93.7378 28.8489 93.1885 29.1786 91.0597 29.1786H85.7033L85.706 29.1811ZM70.4728 24.644C70.4728 26.4407 70.4728 27.9103 70.3571 28.6753C70.2651 29.2239 70.2204 29.5963 69.8315 29.6618C69.6475 29.6844 69.3952 29.7498 69.2138 29.7498C69.0982 29.7498 69.0535 29.8379 69.0535 29.9033C69.0535 30.0166 69.1665 30.0594 69.3741 30.0594C69.6948 30.0594 70.1521 30.0367 70.5411 30.0166C70.9747 29.9914 71.3637 29.9914 71.411 29.9914C71.708 29.9914 72.2337 29.9914 73.0826 30.0392C73.9078 30.0619 75.0748 30.1046 76.5834 30.1046C77.3613 30.1046 77.569 30.1046 77.7056 29.619C77.8213 29.2239 77.979 27.9531 77.979 27.8222C77.979 27.6914 77.9553 27.5379 77.8423 27.5379C77.7293 27.5379 77.682 27.6033 77.6373 27.8222C77.5217 28.5671 77.2483 28.8968 76.7227 29.1157C76.197 29.312 75.2351 29.312 74.7095 29.312C72.7173 29.312 72.3519 29.0704 72.3073 27.8222C72.2836 27.4498 72.3073 25.2806 72.3073 24.644V23.0888C72.3073 23.0234 72.3309 22.9579 72.4439 22.9579C72.7882 22.9579 74.9381 22.9806 75.4874 23.046C76.2654 23.1341 76.4493 23.353 76.5177 23.6147C76.6097 23.8563 76.6097 24.0526 76.6097 24.2287C76.6097 24.337 76.6544 24.4049 76.7463 24.4049C76.883 24.4049 76.9303 24.2086 76.9303 24.0551C76.9303 23.9243 76.975 23.2222 77.0223 22.8497C77.067 22.2357 77.1826 21.9287 77.1826 21.8205C77.1826 21.7123 77.1353 21.667 77.067 21.667C76.9986 21.667 76.9067 21.7777 76.77 21.9086C76.565 22.1049 76.2654 22.1275 75.787 22.1703C75.3297 22.2131 72.6726 22.2131 72.4229 22.2131C72.3073 22.2131 72.3073 22.1476 72.3073 22.0168V16.9537C72.3073 16.8228 72.3309 16.7574 72.4229 16.7574C72.6516 16.7574 74.9854 16.7801 75.3297 16.8228C76.4283 16.9537 76.6333 17.0846 76.7726 17.3916C76.8646 17.6105 76.8883 17.9175 76.8883 18.0484C76.8883 18.2019 76.9329 18.2899 77.0486 18.2899C77.1406 18.2899 77.2089 18.1792 77.2326 18.0937C77.2799 17.8747 77.3245 17.0418 77.3482 16.8656C77.3929 16.3397 77.5085 16.1208 77.5085 15.9899C77.5085 15.9018 77.4849 15.8138 77.4165 15.8138C77.3245 15.8138 77.2326 15.8792 77.1406 15.9018C76.9802 15.9245 76.6149 15.9899 76.2259 16.0126C75.7686 16.0352 71.5556 16.0126 71.4189 16.0126C71.3033 16.0126 69.9997 15.9698 69.085 15.9698C68.8564 15.9698 68.7644 16.0126 68.7644 16.1233C68.7644 16.1887 68.8564 16.2768 68.9247 16.2768C69.1087 16.2768 69.4504 16.2994 69.6107 16.3196C70.273 16.4076 70.3886 16.7146 70.4333 17.3488C70.478 17.9402 70.478 18.4661 70.478 21.36V24.6465L70.4728 24.644ZM55.1502 24.644C55.1502 26.4407 55.1502 27.9103 55.0345 28.6753C54.9425 29.2239 54.8979 29.5737 54.5089 29.6618C54.3249 29.7045 54.0726 29.7498 53.8913 29.7498C53.7756 29.7498 53.7309 29.8379 53.7309 29.9033C53.7309 30.0166 53.8439 30.0594 54.0516 30.0594C54.6692 30.0594 55.9728 29.9939 56.0438 29.9939C56.1358 29.9939 57.463 30.0594 58.5616 30.0594C58.7903 30.0594 58.8823 29.9889 58.8823 29.9033C58.8823 29.8379 58.8376 29.7498 58.7219 29.7498C58.538 29.7498 58.1043 29.707 57.8283 29.6618C57.2107 29.5737 57.0951 29.2239 57.0267 28.6753C56.9347 27.9078 56.9347 26.4407 56.9347 24.644V17.0619C56.9347 16.8656 56.9794 16.7323 57.0951 16.7121C57.3001 16.6693 57.873 16.5813 58.2173 16.5813C58.6746 16.5813 59.8889 16.4731 60.9402 17.4796C62.0151 18.4887 62.0861 19.6941 62.0861 20.3056C62.0861 21.9941 60.5302 23.3077 58.354 23.3077C57.9414 23.3077 57.8283 23.353 57.8283 23.5065C57.8283 23.5946 57.944 23.6827 58.0333 23.6827C58.1464 23.7053 58.4907 23.7053 58.6063 23.7053C61.6971 23.7053 63.8023 21.9312 63.8023 19.2563C63.8023 18.2472 63.253 17.4167 62.7957 17.0216C62.4514 16.7373 61.5368 15.9698 58.9506 15.9698C58.036 15.9698 56.5247 16.0126 56.0885 16.0126C55.9281 16.0126 54.6692 15.9698 53.7546 15.9698C53.5259 15.9698 53.4339 16.0126 53.4339 16.1233C53.4339 16.1887 53.5259 16.2768 53.5943 16.2768C53.7782 16.2768 54.1199 16.2994 54.2802 16.3196C54.9425 16.4076 55.0582 16.7146 55.1029 17.3488C55.1475 17.9402 55.1475 18.4661 55.1475 21.36V24.6465L55.1502 24.644ZM39.8723 24.0954C39.8039 24.0954 39.7803 24.0526 39.8039 23.9645L41.6805 18.8587C41.7935 18.5743 41.9091 18.5743 42.0248 18.8587L44.017 23.9645C44.0406 24.0526 44.0406 24.0954 43.9487 24.0954H39.8749H39.8723ZM36.9655 27.9959C36.5765 28.937 36.1875 29.5963 35.2729 29.7045C35.1126 29.7272 34.8103 29.7473 34.6736 29.7473C34.5816 29.7473 34.4897 29.8127 34.4897 29.9008C34.4897 30.0141 34.6263 30.0568 34.8786 30.0568C35.7065 30.0568 36.7131 29.9914 36.9208 29.9914C37.1494 29.9914 38.248 30.0568 38.729 30.0568C38.913 30.0568 39.026 30.0141 39.026 29.9008C39.026 29.8127 38.9787 29.7473 38.821 29.7473H38.637C38.2927 29.7473 37.951 29.6165 37.951 29.244C37.951 28.9144 38.0667 28.4539 38.248 27.9959L39.3913 25.0139C39.436 24.9057 39.5043 24.8604 39.5963 24.8604H44.243C44.356 24.8604 44.3797 24.883 44.427 24.9711L46.2352 29.244C46.3719 29.551 46.1669 29.7045 46.0512 29.7473C45.9593 29.7901 45.9146 29.7901 45.9146 29.8782C45.9146 29.9889 46.2352 29.9889 46.6242 30.0141C48.0198 30.0568 49.5074 30.0568 49.807 30.0568C50.0356 30.0568 50.2643 30.0141 50.2643 29.9008C50.2643 29.7876 50.1276 29.7473 50.012 29.7473C49.807 29.7473 49.5074 29.7247 49.2104 29.6391C48.7767 29.5082 48.2274 29.2667 47.4941 27.6008C46.2589 24.7748 43.0314 17.082 42.6635 16.2919C42.4585 15.8767 42.3901 15.6124 42.1825 15.6124C42.0458 15.6124 41.9538 15.7232 41.7015 16.3347L36.9628 27.9933L36.9655 27.9959ZM22.6495 16.9512C22.6495 16.843 22.7178 16.775 22.8098 16.7323C23.0148 16.6895 23.6561 16.6241 24.2527 16.6241C26.4052 16.6241 27.7325 17.9603 27.7325 20.283C27.7325 21.7073 27.2068 22.6937 26.5182 23.1316C26.0373 23.4386 25.488 23.4612 25.007 23.4612C24.1134 23.4612 23.0858 23.3304 22.7861 23.1769C22.6942 23.1114 22.6495 23.046 22.6495 22.9353V16.9537V16.9512ZM20.9096 24.644C20.9096 26.4407 20.9096 27.9103 20.794 28.6753C20.702 29.2239 20.6573 29.5737 20.2683 29.6618C20.0843 29.7045 19.832 29.7498 19.6507 29.7498C19.535 29.7498 19.4904 29.8379 19.4904 29.9033C19.4904 30.0166 19.6034 30.0594 19.811 30.0594C20.4286 30.0594 21.7795 29.9939 21.8032 29.9939C21.8952 29.9939 23.1778 30.0594 24.2764 30.0594C24.505 30.0594 24.597 29.9889 24.597 29.9033C24.597 29.8379 24.5733 29.7498 24.4367 29.7498C24.2527 29.7498 23.819 29.707 23.5431 29.6618C22.9254 29.5737 22.8098 29.2239 22.7415 28.6753C22.6495 27.9078 22.6495 26.4634 22.6495 24.6641V24.2262C22.6495 24.1155 22.6942 24.0727 22.7861 24.0727L25.3487 24.1155C25.4853 24.1155 25.5326 24.1382 25.622 24.2262C26.0583 24.7295 26.9493 25.9349 27.7956 26.944C28.9415 28.3457 29.6721 29.244 30.5421 29.6844C31.0467 29.9461 31.5487 30.0594 32.6946 30.0594H33.9535C34.3188 30.0594 34.4345 30.0166 34.4345 29.9033C34.4345 29.8379 34.3661 29.7498 34.2505 29.7498C34.1348 29.7498 33.9298 29.7498 33.5409 29.6844C33.0362 29.619 32.3739 29.4428 31.299 28.3909C30.1321 27.2309 28.7365 25.5423 27.0859 23.5694C28.9625 22.0344 29.5591 20.6982 29.5591 19.3192C29.5591 18.0257 28.6655 17.1273 28.1635 16.7776C27.1096 16.0755 25.6903 15.9673 24.4104 15.9673C23.7928 15.9673 22.0976 16.01 21.8926 16.01C21.7769 16.01 20.4286 15.9673 19.5114 15.9673C19.2827 15.9673 19.1907 16.01 19.1907 16.1208C19.1907 16.1862 19.2827 16.2743 19.3511 16.2743C19.535 16.2743 19.8767 16.2969 20.037 16.317C20.6993 16.4051 20.815 16.7121 20.8597 17.3463C20.907 17.9376 20.907 18.4636 20.907 21.3575V24.644H20.9096ZM63.2714 5.91658C63.2241 5.91658 63.2083 5.88638 63.2241 5.82598L64.533 2.26521C64.6118 2.06641 64.6933 2.06641 64.7721 2.26521L66.1598 5.82598C66.1756 5.88638 66.1756 5.91658 66.1125 5.91658H63.2714ZM61.2424 8.63685C60.9717 9.29365 60.6984 9.75164 60.0623 9.82965C59.9493 9.84475 59.7391 9.85985 59.6444 9.85985C59.5814 9.85985 59.5157 9.90514 59.5157 9.96805C59.5157 10.0461 59.6103 10.0763 59.7864 10.0763C60.3646 10.0763 61.0663 10.031 61.2109 10.031C61.3712 10.031 62.136 10.0763 62.4724 10.0763C62.6012 10.0763 62.6801 10.0461 62.6801 9.96805C62.6801 9.90766 62.6485 9.85985 62.5355 9.85985H62.4067C62.1675 9.85985 61.9284 9.76925 61.9284 9.50754C61.9284 9.27855 62.0072 8.95644 62.136 8.63685L62.935 6.55827C62.9665 6.48278 63.0138 6.45258 63.0795 6.45258H66.3202C66.399 6.45258 66.4148 6.46768 66.4489 6.52807L67.7105 9.51006C67.8051 9.72396 67.6632 9.83216 67.5817 9.86236C67.5186 9.89256 67.4871 9.89256 67.4871 9.95295C67.4871 10.0284 67.7105 10.0284 67.9812 10.0461C68.9563 10.0763 69.9918 10.0763 70.1994 10.0763C70.3597 10.0763 70.5174 10.0461 70.5174 9.96805C70.5174 9.89004 70.4228 9.85985 70.3413 9.85985C70.1968 9.85985 69.9892 9.84475 69.7815 9.78435C69.4793 9.69376 69.0956 9.52516 68.5831 8.36256C67.721 6.38967 65.4712 1.02461 65.2137 0.476021C65.0691 0.18663 65.0218 0.00292969 64.8773 0.00292969C64.7826 0.00292969 64.7169 0.078423 64.5408 0.506219L61.2372 8.63937L61.2424 8.63685ZM47.0211 2.17211C47.4521 2.6301 49.0317 4.22049 50.6612 5.85618C52.1461 7.33837 54.1725 9.25087 54.317 9.37166C55.1002 10.0612 55.2422 10.1694 55.3867 10.1694C55.4813 10.1694 55.4997 10.0939 55.4997 9.23325L55.5313 1.621C55.5313 0.840906 55.5628 0.581712 56.0254 0.49112C56.1857 0.460923 56.2961 0.460923 56.3618 0.460923C56.4564 0.460923 56.5221 0.385429 56.5221 0.337617C56.5221 0.262124 56.4091 0.247025 56.2672 0.247025C55.6916 0.247025 55.229 0.277222 55.0687 0.277222C54.9084 0.277222 54.2382 0.247025 53.5995 0.247025C53.4392 0.247025 53.3288 0.262124 53.3288 0.337617C53.3288 0.382913 53.3446 0.460923 53.4392 0.460923C53.5522 0.460923 53.8702 0.476021 54.1252 0.521317C54.5562 0.596811 54.635 0.888718 54.6508 1.72921L54.7954 8.24177C54.3643 7.81398 52.8636 6.26888 51.4759 4.8949C49.305 2.75592 47.2602 0.674821 47.0368 0.460923C46.8923 0.322518 46.6531 0.0633244 46.4928 0.0633244C46.3824 0.0633244 46.3009 0.201729 46.3009 0.720117V8.16376C46.3009 9.34146 46.2536 9.69124 45.9014 9.78435C45.6938 9.84475 45.4389 9.85985 45.3259 9.85985C45.2628 9.85985 45.2155 9.90514 45.2155 9.96805C45.2155 10.0612 45.2943 10.0763 45.4389 10.0763C46.0775 10.0763 46.6689 10.031 46.795 10.031C46.9212 10.031 47.481 10.0763 48.28 10.0763C48.4403 10.0763 48.5349 10.0461 48.5349 9.96805C48.5349 9.90766 48.4876 9.85985 48.4245 9.85985C48.2957 9.85985 47.9777 9.84475 47.7228 9.78435C47.3391 9.69376 47.2129 9.37166 47.1787 8.30217L47.0184 2.17211H47.0211ZM39.4596 4.00659C39.4596 1.9884 39.4596 1.621 39.4754 1.20831C39.507 0.750314 39.5858 0.566613 39.9695 0.49112C40.1298 0.460923 40.2245 0.460923 40.3217 0.460923C40.369 0.460923 40.4347 0.400528 40.4347 0.355232C40.4347 0.279739 40.3716 0.247025 40.2113 0.247025C39.7803 0.247025 38.8709 0.277222 38.8052 0.277222C38.7264 0.277222 37.8459 0.247025 37.3833 0.247025C37.223 0.247025 37.1599 0.277222 37.1599 0.355232C37.1599 0.400528 37.2072 0.460923 37.273 0.460923C37.3676 0.460923 37.5437 0.476021 37.704 0.506219C38.0062 0.566613 38.1192 0.765413 38.1508 1.20831C38.1823 1.621 38.1823 1.9884 38.1823 4.00659V6.29908C38.1823 7.55227 38.1665 8.57646 38.1035 9.11246C38.0562 9.49496 38.0089 9.73906 37.7355 9.79945C37.6067 9.82965 37.4333 9.85985 37.3045 9.85985C37.2256 9.85985 37.1941 9.92024 37.1941 9.96805C37.1941 10.0461 37.273 10.0763 37.4175 10.0763C37.8485 10.0763 38.7264 10.031 38.8052 10.031C38.8683 10.031 39.7777 10.0763 40.5609 10.0763C40.7212 10.0763 40.7843 10.0284 40.7843 9.96805C40.7843 9.92276 40.7527 9.85985 40.6739 9.85985C40.5451 9.85985 40.2429 9.82965 40.0352 9.79945C39.62 9.73906 39.5727 9.49244 39.5253 9.11246C39.4623 8.57646 39.4623 7.55227 39.4623 6.29908V4.00408L39.4596 4.00659ZM25.6719 1.8349C25.4643 1.314 25.2882 0.918916 25.2882 0.750314C25.2882 0.659722 25.304 0.581712 25.4485 0.521317C25.5773 0.476021 25.8007 0.460923 25.9584 0.460923C26.053 0.460923 26.103 0.400528 26.103 0.337617C26.103 0.274706 25.9742 0.247025 25.7193 0.247025C25.1778 0.247025 24.5549 0.277222 24.4104 0.277222C24.2343 0.277222 23.4353 0.247025 22.7651 0.247025C22.5391 0.247025 22.3945 0.262124 22.3945 0.337617C22.3945 0.382913 22.4261 0.460923 22.5049 0.460923C22.5838 0.460923 22.8282 0.460923 23.0516 0.506219C23.5142 0.614426 23.706 0.750314 24.0267 1.48512L27.4749 9.44967C27.7456 10.0788 27.8429 10.2474 28.0032 10.2474C28.1477 10.2474 28.2266 10.0486 28.6103 9.26596C28.9283 8.62427 29.5512 7.21758 30.4133 5.32269C31.1308 3.7323 31.8194 2.17462 31.9771 1.80722C32.345 0.921432 32.5684 0.737732 32.7603 0.614426C33.0152 0.460923 33.3359 0.460923 33.4305 0.460923C33.5435 0.460923 33.5908 0.400528 33.5908 0.337617C33.5908 0.274706 33.512 0.247025 33.3674 0.247025C32.9521 0.247025 32.345 0.277222 32.2662 0.277222C32.0901 0.277222 31.4514 0.247025 30.8942 0.247025C30.6708 0.247025 30.5762 0.277222 30.5762 0.355232C30.5762 0.415627 30.6551 0.460923 30.7365 0.460923C30.8969 0.460923 31.0546 0.460923 31.2149 0.506219C31.3594 0.551515 31.4067 0.674821 31.4067 0.780511C31.4067 0.886202 31.3437 1.0699 31.278 1.2687C30.9757 2.2023 29.1386 6.63376 28.3238 8.37766L25.6746 1.8349H25.6719ZM1.9916 23.7028C1.9916 25.8066 1.9916 27.5379 1.87595 28.4589C1.78397 29.0956 1.67095 29.5762 1.21364 29.6643C1.00864 29.707 0.732673 29.7523 0.527671 29.7523C0.391003 29.7523 0.343695 29.8178 0.343695 29.8832C0.343695 30.0191 0.456709 30.0619 0.709019 30.0619C1.39499 30.0619 2.72224 29.9964 2.90622 29.9964C3.0902 29.9964 4.41745 30.0619 5.53708 30.0619C5.78939 30.0619 5.9024 29.9914 5.9024 29.8832C5.9024 29.8178 5.85772 29.7523 5.71843 29.7523C5.51342 29.7523 5.14547 29.7096 4.82483 29.6643C4.13886 29.5762 3.99956 29.0956 3.93123 28.4589C3.81559 27.5379 3.81559 25.8066 3.81559 23.7028V21.5563H3.93123C5.02983 22.8497 9.88154 27.8675 10.9118 28.6778C11.8948 29.4227 12.4677 29.9058 13.682 30.0191C14.1866 30.0619 14.6202 30.0619 15.2615 30.0619H16.4285C16.8174 30.0619 16.9331 29.9914 16.9331 29.8832C16.9331 29.7951 16.7964 29.7523 16.6361 29.7523C16.4758 29.7523 15.8135 29.7096 15.2168 29.468C14.1182 29.0301 13.7293 28.6778 11.8054 26.9692C10.8671 26.1362 6.1074 21.4254 5.5108 20.7888C5.99176 20.2402 9.97353 16.5158 10.5465 15.9899C11.5767 15.0488 12.0814 14.5002 13.0196 14.1051C13.477 13.9088 13.9579 13.7981 14.3022 13.7981C14.4862 13.7981 14.5309 13.7553 14.5309 13.6446C14.5309 13.5339 14.4389 13.4911 14.1866 13.4911C13.6136 13.4911 12.1024 13.5565 11.9894 13.5565C11.4401 13.5565 10.7305 13.4911 10.2731 13.4911C10.1128 13.4911 9.99718 13.5339 9.99718 13.6446C9.99718 13.7327 10.0892 13.7754 10.2022 13.8207C10.3862 13.8862 10.4992 14.017 10.4992 14.2812C10.4992 14.6537 9.9052 15.2224 9.26391 15.8591C8.43864 16.7146 4.29655 20.746 3.90757 21.1637H3.81559V19.8501C3.81559 16.4303 3.81559 15.8163 3.86027 15.1167C3.90495 14.3492 4.08892 13.9768 4.70656 13.8685C4.97989 13.8258 5.11919 13.8031 5.27951 13.8031C5.3715 13.8031 5.46349 13.7603 5.46349 13.6723C5.46349 13.5414 5.35047 13.4961 5.09816 13.4961C4.4122 13.4961 3.08494 13.5615 2.87731 13.5615C2.74064 13.5615 1.38973 13.4961 0.359465 13.4961C0.107155 13.4961 -0.00585938 13.5389 -0.00585938 13.6723C-0.00585938 13.7603 0.0861287 13.8031 0.178117 13.8031C0.383119 13.8031 0.772097 13.8258 0.956073 13.8685C1.71037 14.022 1.89435 14.3718 1.93903 15.1167C1.98634 15.8188 1.98634 16.4303 1.98634 19.8501V23.7078L1.9916 23.7028Z" fill="#231F20"/>
<path fill-rule="evenodd" clip-rule="evenodd" d="M59.6264 47.9408C59.6606 47.9081 59.7894 47.9786 59.8183 48.0843C59.8183 48.1522 59.8157 48.2227 59.75 48.2202C59.6527 48.2529 59.4924 48.0742 59.6264 47.9408ZM49.4263 49.3752C49.4605 49.3425 49.5262 49.2746 49.5577 49.3098L49.6523 49.4155L49.4841 49.5841C49.4841 49.5161 49.3553 49.5111 49.4237 49.3752H49.4263ZM23.9298 39.936C23.8983 39.9788 23.8299 39.9889 23.8299 39.9889C23.7511 39.9234 23.6013 39.8706 23.6223 39.7548C23.7432 39.5862 23.9508 39.8203 23.9324 39.9385L23.9298 39.936ZM48.5826 43.1017C48.5616 43.2175 48.3513 43.2477 48.2725 43.1848C48.1621 43.1621 48.1831 43.0464 48.283 42.9935C48.3829 42.9407 48.5931 42.9105 48.5826 43.1017ZM53.9758 39.7096C53.9153 39.7951 53.8838 39.8354 53.776 39.8152C53.7366 39.7825 53.6577 39.7196 53.6761 39.6013C53.6656 39.5258 53.7681 39.4755 53.8075 39.5057C53.8864 39.5711 53.9968 39.5913 53.9758 39.7096ZM55.4922 38.9999C55.5028 39.0754 55.4003 39.1257 55.2925 39.1056C55.2531 39.0729 55.1742 39.01 55.1926 38.8917C55.2426 38.7332 55.4817 38.9269 55.4922 38.9999ZM55.7314 39.1937C55.7419 39.2692 55.6999 39.2365 55.671 39.2792L55.692 39.1635L55.7314 39.1962V39.1937ZM34.3008 45.213C27.3281 42.1203 34.0196 46.1038 36.4113 46.9267C36.9921 47.1507 37.4442 47.3696 38.0934 47.4552C38.3509 47.4929 38.5034 47.6892 38.7136 47.7848C38.2694 47.9308 37.8069 48.0365 37.2865 48.0465C36.9974 48.0113 36.7346 48.2026 36.4533 48.2428C35.4415 48.4265 34.4191 48.5347 33.4808 48.4416C32.9814 48.4366 32.5005 48.3183 32.0221 48.1975C31.6831 48.0566 31.3441 47.9157 30.9656 47.7446C30.3979 47.4854 29.7671 47.3117 29.2204 46.9343C29.0601 46.8059 29.3834 46.5316 29.365 46.3832C29.3545 46.3077 29.273 46.509 29.2047 46.5191C29.0338 46.582 28.9445 46.7078 28.7631 46.6952C28.6922 46.7053 28.7132 46.5895 28.6633 46.4813C28.5345 46.3102 28.3742 46.1818 28.1245 46.1793C27.4648 46.046 27.2703 45.3565 26.721 44.9815C26.0929 44.5411 25.8195 43.7862 25.1809 43.2728C25.031 43.2175 25.2518 42.9985 25.1651 42.8601C24.5632 41.773 24.2505 40.4544 24.261 39.1308C24.2741 38.6753 24.4476 38.3482 24.6105 37.9455C24.805 37.2359 25.4962 37.0622 25.901 36.5866C25.9325 36.5439 25.8826 36.4382 25.8116 36.4482C25.123 36.3576 24.8576 37.0773 24.445 37.4775C24.1217 37.7518 23.8799 38.089 23.5987 38.3935C23.0651 38.9622 23.1703 39.5158 23.2149 40.1524C23.2912 40.7463 23.257 41.3201 23.533 41.8108C23.8299 42.45 24.0954 43.1294 24.5501 43.6327C24.8865 44.0378 25.215 44.37 25.5225 44.8179C25.9693 45.51 26.7867 45.7717 27.3334 46.4134L27.3518 46.5618C27.5226 46.4989 27.5515 46.7229 27.6908 46.7028C28.0903 46.7581 28.3374 47.2916 28.7474 47.4225C29.2572 47.5005 29.6252 47.8653 30.143 48.0163C30.9525 48.2026 31.7094 48.5473 32.5189 48.736C33.1391 48.8367 33.7174 49.1689 34.3692 48.9625C34.95 48.7662 35.4993 48.877 36.1616 48.7436C36.7135 48.5876 37.163 48.4869 37.7333 48.4794C37.9435 48.4492 38.1039 48.3133 38.3141 48.2831C38.711 48.3007 39.0238 48.1371 39.347 47.9987C40.3221 48.3057 41.2814 48.5901 42.2696 48.8442C42.8215 48.9625 43.3998 49.2544 44.0279 48.96C44.1278 48.9273 44.1225 49.1362 44.2513 49.2066C45.25 49.7527 46.5195 49.7502 47.689 49.9892C48.5011 50.115 49.3448 50.2761 50.1569 50.3315C50.9375 50.3516 51.6209 50.4749 52.4356 50.4598C53.5132 50.3843 54.6854 50.417 55.763 50.3415C56.4805 50.2912 57.2032 50.0345 58.0206 49.9515C58.6409 49.8634 59.1954 49.9137 59.792 49.5136C60.6199 49.0179 61.4005 49.038 62.139 48.1598C62.2731 47.9559 62.6331 47.9308 62.7698 47.7269C63.1456 47.0123 63.6792 46.4738 63.9604 45.5829C64.2732 44.7273 64.0576 44.2039 64.0103 43.5119C63.9604 41.5415 62.0786 39.7297 61.5818 41.4434C62.1128 42.3896 62.9275 43.2452 62.7908 44.3499C62.7646 44.5562 62.4781 45.5251 62.3966 45.6534C62.1364 46.0686 61.5135 46.1466 61.1666 46.4662C60.7829 46.8185 61.1377 47.2815 60.7487 47.5609C60.6725 47.6162 60.6199 47.5508 60.5227 47.5206C60.2651 47.4376 59.8709 47.503 59.7027 47.7395C59.5345 47.9761 59.2164 47.8402 59.0141 47.9635C58.2256 48.4366 57.2374 48.9248 56.4226 48.9197C55.5763 48.9147 55.0323 49.3475 54.2175 49.2519C53.5368 49.1714 53.1925 48.8845 52.4409 49.1135C52.044 49.2343 51.5998 49.1135 51.2634 49.2217C51.1057 49.272 50.9769 48.9726 50.8114 49.0707V49.1387C50.7772 49.1714 50.906 49.2444 50.9007 49.3828C50.856 49.8986 50.4434 49.3702 50.1201 49.2922C49.6313 49.2444 49.2213 48.7159 48.7587 48.9801C48.1989 49.2066 48.0386 49.0984 47.6154 49.0531C46.48 48.8493 45.3105 48.6127 44.1777 48.3384C43.0187 48.1019 41.9095 47.805 40.8188 47.4803C41.0291 47.3822 41.2367 47.2866 41.4706 47.2211C42.1619 47.045 42.7243 46.7002 43.4155 46.5241C43.7257 46.441 43.907 46.1894 44.2592 46.1391C44.3301 46.129 44.4905 45.9931 44.3617 45.822C44.3617 45.822 44.4221 45.7364 44.4616 45.7692C44.7191 46.1114 45.003 45.8044 45.3026 45.6484C45.7021 45.3716 46.0017 45.213 46.3644 44.9714C46.8874 44.594 47.4499 44.2467 48.0622 44.0076C48.5038 43.8315 48.8665 43.5899 49.308 43.4138C49.4394 43.3181 49.5603 43.1495 49.7995 43.0791C50.1674 42.8299 50.5774 42.6966 50.8587 42.3896C51.2713 41.9894 51.7917 41.8762 52.2148 41.5516C52.546 41.3528 53.4606 40.9577 53.5526 40.5651C53.6551 40.2481 54.4672 40.1701 54.7379 40.0543C54.8483 40.077 54.9797 39.9813 54.9587 39.8329C54.9797 39.7171 55.0297 39.5586 55.2504 39.6013C55.6604 39.7322 55.9627 39.3094 56.3648 39.1006C56.7958 38.8489 57.1875 38.8313 57.629 38.6552C57.8997 38.5394 58.11 38.5092 58.4017 38.2802C58.7328 38.0814 59.1323 38.1368 59.4845 38.0864C60.9484 37.7996 62.3677 37.7492 63.779 37.8851C64.3205 37.9204 64.7068 38.167 65.1694 38.1393C65.2798 38.1619 65.2509 37.938 65.1405 37.9153C64.2521 37.6637 63.3638 37.4146 62.4833 37.2359C62.3729 37.2132 62.3046 36.9591 62.2153 37.0849C61.8526 37.3265 61.5056 37.1101 61.0746 37.0975C60.5437 37.1352 60.0654 37.0144 59.6028 37.0446C58.2019 36.9817 56.8878 37.3214 55.6657 37.7996C55.4949 37.8625 55.3556 37.8826 55.3529 38.1468C55.3004 38.5696 54.9035 37.9833 54.7616 38.2701C54.6486 38.5142 55.0402 38.4941 55.0297 38.6854C55.0402 38.7608 54.9298 38.7382 54.9298 38.7382C54.7301 38.5771 54.5434 38.2274 54.3411 38.3305C53.9495 38.6149 53.939 38.5394 53.5763 38.781C53.4449 38.8766 53.2346 38.9068 53.1847 39.0653C53.1636 39.1811 53.0822 39.3824 52.9034 39.3698C52.8246 39.3044 52.8141 39.2314 52.8036 39.1559C52.7037 38.942 52.2516 39.5762 52.1097 39.5963C51.6787 39.848 51.0321 40.6582 50.6405 40.9426C50.0176 41.3729 49.3527 41.7705 48.6956 42.2512C48.3329 42.4927 48.0123 42.7645 47.6391 42.9331C47.1003 43.2301 46.6062 43.5673 46.1541 43.9347C45.6627 44.2693 45.1896 44.4883 44.6981 44.8255C44.1751 45.203 43.6021 45.4747 42.9608 45.7566C42.7611 45.8623 42.6192 46.1466 42.4089 46.1768C41.6861 46.3932 41.1842 46.9217 40.4614 47.1381C40.3405 47.1758 40.2222 47.2186 40.104 47.2614C38.8766 46.8839 37.6676 46.4788 36.4376 46.0963C35.6596 45.8673 35.0814 45.5754 34.3061 45.2105L34.3008 45.213ZM43.4076 54.0483V54.1237L43.3735 54.086L43.4076 54.0483ZM42.4273 54.5213C42.5324 54.4811 42.5351 54.5566 42.5692 54.5918C42.606 54.6296 42.5351 54.705 42.5009 54.7428C42.3248 54.7856 42.3196 54.5591 42.4247 54.5188L42.4273 54.5213ZM40.2564 55.5481C40.2564 55.4726 40.3615 55.5078 40.3615 55.5078L40.5061 55.6537C40.4036 55.7695 40.2222 55.6613 40.2564 55.5481ZM45.8519 54.1011C45.8519 54.1766 45.8887 54.2118 45.9623 54.2873C46.0332 54.2873 46.1042 54.2848 46.1016 54.2093C46.1699 54.1313 46.0989 54.0583 46.028 54.0608C45.9912 54.0231 45.9202 54.0256 45.8519 54.1036V54.1011ZM27.265 55.3719C27.2677 55.5229 27.3413 55.6714 27.52 55.7041C28.269 55.9482 28.9813 56.157 29.7277 56.3256C30.4032 56.4968 31.0076 56.6704 31.6831 56.766C32.5688 56.8566 33.3862 57.0252 34.2719 56.9673C35.4756 56.9397 36.7188 57.1712 37.841 56.6956C38.1564 56.5748 38.4744 56.5295 38.8266 56.4464C39.4968 56.3181 40.0251 56.1923 40.6559 55.9532C41.8149 55.5128 42.9346 54.9617 44.0542 54.4081C44.9294 53.9753 45.8046 53.5399 46.7166 53.1449C46.8559 53.0668 47.1029 53.0241 47.1686 52.7951C47.4367 52.1131 47.7731 52.8932 48.0806 52.3975C48.2883 52.1685 48.8218 52.3421 48.9532 51.8891C49.0163 51.5872 49.1713 52.1081 49.4526 52.0275C49.8783 51.786 50.4145 52.1106 50.7982 51.7633C50.8324 51.7256 50.7956 51.6123 50.722 51.5394C49.8599 50.9606 48.8008 51.3657 47.7758 51.4286C47.4919 51.4362 47.2422 51.255 46.9216 51.2248C46.7429 51.1921 46.6377 51.2324 46.4248 51.1619C45.9255 51.0235 45.5707 50.9581 45.0398 50.9329C44.5457 50.9455 43.6442 50.2535 43.4444 50.8574C43.3814 51.1594 44.1199 50.953 44.4747 51.021C45.3289 51.3003 46.2146 51.3179 47.0714 51.5972C47.1424 51.5972 47.3237 51.7784 47.2527 51.8564C47.1502 52.0477 46.9741 52.0879 46.8349 52.166C46.0622 52.4855 45.2895 52.7271 44.6639 53.1927C44.5614 53.3084 44.5325 53.6456 44.4248 53.5349C44.0279 53.2078 43.8597 53.5475 43.5075 53.706C43.2263 53.7865 42.9424 53.7941 42.7348 53.9501C42.3196 54.3351 41.786 54.2345 41.334 54.5843C41.1947 54.7378 41.0527 54.6673 40.8057 54.7101C40.3484 54.8334 40.0698 55.0649 39.6808 55.1127C39.2945 55.2335 38.9791 55.4298 38.5927 55.5506C38.2064 55.6714 37.8542 55.7569 37.5388 55.8752C37.3627 55.918 37.1866 55.9582 36.9737 55.9633C36.4428 56.0136 36.0249 56.2476 35.4231 56.225C35.0683 56.2325 34.7187 56.3911 34.4007 56.4364C33.2022 56.615 31.8566 56.6477 30.7185 56.3005C30.5398 56.2678 30.2928 56.235 30.114 56.2023C29.1179 56.001 28.3321 55.5707 27.4043 55.2914L27.265 55.3694V55.3719ZM70.2445 41.841C70.3654 41.6724 70.4653 41.6195 70.439 41.3981C70.2366 40.3663 69.1774 39.9134 68.431 39.3774C68.042 39.1308 67.6636 38.9571 67.2851 38.786C66.9855 38.6778 66.7069 38.4513 66.3863 38.4614C66.1655 38.4161 65.9184 38.1494 65.766 38.3607C65.7371 38.4035 65.7844 38.5092 65.8238 38.5419C66.2811 39.0452 66.9513 38.9848 67.4796 39.478C67.837 39.7674 68.2444 40.1625 68.5125 40.5777C68.82 41.0257 69.1065 41.3251 69.2431 41.8359C69.3693 42.2713 68.6281 42.606 68.954 42.9382C69.0329 43.0036 69.1354 42.9507 69.2353 42.8979C69.548 42.5506 69.8897 42.1606 70.2419 41.846L70.2445 41.841Z" fill="#231F20"/>
</g>
<defs>
<clipPath id="clip0_669_775">
<rect width="95" height="57" fill="white"/>
</clipPath>
</defs>
</svg>
