<svg width="449" height="457" viewBox="0 0 449 457" fill="none" xmlns="http://www.w3.org/2000/svg">
<rect x="98" y="334" width="285" height="71" fill="#FEFDFC"/>
<path d="M181.187 372.76H180.737V378.52C180.737 378.52 182.747 380.05 187.367 380.26V379.78C183.047 379.24 181.667 375.28 181.187 372.76ZM191.267 369.07L186.497 365.89C182.777 363.49 183.737 359.92 186.287 359.14V358.69C182.627 359.02 181.397 360.94 181.397 360.94C178.997 364.36 181.187 367.21 184.727 369.49L189.527 372.55C192.767 374.89 192.437 379.03 189.467 379.81V380.26C193.367 379.93 194.507 377.83 194.507 377.83C196.427 374.98 195.257 371.68 191.267 369.07ZM194.177 365.11H194.627V360.07C194.627 360.07 192.467 358.87 188.387 358.66V359.14C192.437 359.62 193.757 363.01 194.177 365.11ZM216.825 373.63H216.375C215.625 378.64 211.035 379.39 208.365 379.54V380.02H216.825V373.63ZM206.235 358.9H200.865V359.35C202.185 359.35 202.515 360.7 202.515 362.56V376.21C202.515 378.25 202.125 379.57 200.865 379.57V380.02H206.235V358.9ZM215.985 364.45H216.435V358.9H208.365V359.38C211.005 359.5 215.595 360.16 215.985 364.45ZM212.265 372.64H212.715V366.04H212.265C211.965 368.53 209.775 368.98 208.365 369.07V369.64C209.775 369.73 211.965 370.15 212.265 372.64ZM238.725 376.78C237.285 370.78 234.975 370.03 233.025 370.09C236.415 369.79 238.725 368.5 238.725 364.63C238.725 359.95 235.425 359.02 230.175 358.93V359.35C232.695 359.44 234.615 359.98 234.615 364.63C234.615 369.25 232.755 369.82 230.175 369.91V370.42C231.225 370.57 232.995 371.14 233.685 373.48C235.605 379.99 234.975 379.99 239.565 380.02H242.085V379.57C241.305 379.51 239.325 379.06 238.725 376.78ZM228.075 358.9H222.435V359.35C223.755 359.35 224.445 359.98 224.445 361.84V376.45C224.445 378.73 223.725 379.57 222.435 379.57V380.02H230.145V379.57C228.885 379.57 228.075 378.7 228.075 376.63V358.9ZM262.351 374.65C262.351 369.55 257.701 369.19 255.751 369.19C256.351 369.19 260.941 368.59 260.941 364C260.941 359.32 257.731 358.96 253.981 358.9V359.38C255.481 359.53 257.251 360.25 257.251 363.97C257.251 367.93 255.601 368.89 253.981 369.07V369.55C256.021 369.61 258.481 370.15 258.481 374.5C258.481 379.09 256.381 379.51 253.981 379.57V380.02C258.721 379.99 262.351 379.57 262.351 374.65ZM246.421 359.14C247.741 359.14 248.161 360.88 248.161 362.74V376.15C248.161 378.19 247.711 379.75 246.421 379.75V380.02H251.881V358.9H246.421V359.14ZM268.178 358.9V359.35C269.498 359.35 270.518 360.01 270.518 361.87V376.6C270.518 378.64 269.468 379.57 268.178 379.57V380.02H276.548V379.57C275.288 379.57 274.208 378.64 274.208 376.6V361.87C274.208 360.01 275.258 359.35 276.548 359.35V358.9H268.178ZM298.666 377.26C298.666 377.26 296.686 372.13 291.166 358.9H290.746L289.036 363.46L293.026 373.42H285.286C282.826 379.57 282.076 379.54 281.176 379.57V380.02H288.196V379.57C283.756 379.75 285.316 375.07 285.736 373.87H293.176L294.136 376.27C294.496 377.11 295.426 379.57 293.446 379.57V380.02H301.156V379.57C300.346 379.51 299.686 379.66 298.666 377.26Z" fill="#AB8844"/>
<path d="M320.4 156.01C321.6 159.95 327.54 159.21 329.76 161.82C331.26 163.58 332.85 164.48 334.38 165.93C336.03 167.49 335.6 168.33 338.11 168.61C340.34 168.86 342.6 169.67 344.69 169.55C346.92 169.42 348.46 169.08 350.18 169.67C350.68 169.04 350.63 168.4 350.01 167.27C349.17 165.76 347.57 164.39 346.15 163.19C345.32 162.49 344.13 161.94 342.88 161.36C340.75 160.37 338.34 159.25 337.08 156.98C336.43 155.81 336.17 154.72 335.94 153.75C335.66 152.59 335.44 151.66 334.63 150.73C333.46 149.38 333.01 147.91 332.62 146.61C332.32 145.61 332.05 144.76 331.52 144.02C331.21 143.6 330.5 143.16 329.8 142.73C328.48 141.91 326.83 140.9 326.6 139.04C326.47 138 326.86 137.19 327.13 136.66C327.39 136.14 327.38 136.08 327.34 135.95C327.22 135.6 327 135.31 326.75 134.98C326.1 134.13 325.13 132.85 326.07 130.51C326.64 129.11 328.08 127.77 329.58 127.26C330.69 126.88 331.75 126.95 332.66 127.47C333.65 128.04 334.09 128.98 334.41 129.67C334.61 130.1 334.78 130.48 334.99 130.61C335.65 131 336.44 130.77 337.67 130.35L338.1 130.21C338.7 130.02 339.3 129.81 339.9 129.6C343.11 128.48 346.75 127.2 350.57 128.81C355.02 130.68 358.81 131.26 361.83 130.53C363.92 130.03 365.85 129.56 368.24 130.33C369.29 130.66 370.1 130.72 371.13 130.78C371.72 130.82 372.39 130.86 373.15 130.96C375.23 131.25 376.69 132.5 377.99 133.6C379.08 134.53 379.84 135.14 380.67 135.31C380.63 134.51 380.74 133.68 381.13 132.84C381.39 132.27 382 131.93 382.61 131.97C383.57 132.05 384.48 132.21 385.36 132.38C386.72 132.63 388.01 132.87 389.34 132.73C389.48 132.72 389.82 132.68 390.06 132.63C389.85 131.93 387.8 131.55 386.8 131.36C386.3 131.27 385.82 131.18 385.43 131.06L385.04 130.95C383.83 130.62 382 130.13 381.32 128.75C380.89 127.85 381.09 126.92 381.25 126.17C381.29 125.97 381.36 125.67 381.36 125.56C381.26 124.26 379.77 123.23 378.43 122.83C378.1 122.73 377.83 122.52 377.64 122.25C377.16 122.44 376.67 122.5 376.21 122.5C375.86 122.5 375.52 122.47 375.21 122.44C373.28 122.24 371.05 121.93 369.12 121.18C368.6 120.98 368.21 120.69 367.9 120.45C367.73 120.32 367.56 120.2 367.44 120.14C366.94 119.91 366.03 119.81 365.3 119.73C365.01 119.7 364.73 119.67 364.48 119.63C364.21 119.59 363.93 119.56 363.65 119.53C362.41 119.4 361.01 119.25 359.75 118.36C359.3 118.04 358.98 117.67 358.7 117.35C358.57 117.19 358.43 117.04 358.28 116.9C357.09 115.82 355.49 115.29 353.8 114.74C353.26 114.56 352.72 114.38 352.18 114.19C349.46 113.19 347.24 111.89 345.61 110.33C345.01 109.76 344.53 109.18 344.16 108.58C342.61 109.17 341.06 108.93 339.74 108.73C338.45 108.53 337.34 108.35 336.33 108.85C336.01 109.01 335.82 109.27 335.48 109.76C335.16 110.23 334.76 110.81 334.11 111.3C333.21 111.98 332.2 112.12 331.39 112.24C330.94 112.31 330.51 112.37 330.18 112.51C328.58 113.17 328.08 114.17 327.23 115.82C327.07 116.13 326.91 116.45 326.73 116.78C325.56 118.94 323.67 119.26 322.29 119.5C321.25 119.67 320.64 119.8 320.16 120.31C319.73 120.77 319.5 121.61 319.26 122.5C319 123.46 318.71 124.54 318.07 125.47C316.84 127.26 314.46 127.78 311.56 126.9C310.74 126.65 310.04 126.31 309.37 125.98C308.46 125.54 307.68 125.15 306.74 125.08C304.69 124.92 301.93 125.52 300.83 126.8C299.05 128.87 298.03 129.01 295.69 129.15L295.4 129.17C293.45 129.29 291.19 130.25 291.04 131.02C291.19 132.13 291.62 133.18 292.28 134.16C293.59 136.1 293.59 136.02 294.15 138C294.81 140.34 295.12 141.53 298.11 141.1C302.11 140.52 301.02 135.73 302.53 132.65C302.97 131.76 303.84 129.82 304.64 129.33C305.27 128.95 309.55 128.81 310.17 129.12C311.79 129.93 311.46 132.12 311.89 133.52C312.62 135.9 313.62 136.74 315.3 138.64C317.62 141.25 318.47 144.62 321.19 146.76C323.59 148.65 325.94 150.09 327.53 152.85C325.43 153.53 318.78 150.73 320.39 156.03L320.4 156.01Z" fill="#DBDBDB"/>
<path d="M406.92 185.52C406.61 185.71 406.38 185.93 406.17 186.18C405.68 187.75 406.2 188.13 408.38 189.36L409.06 189.75C411.9 191.4 413.13 193.17 414.31 195.68C414.88 196.91 415.17 198.21 415.31 199.54C416.2 198.41 417.19 197.4 418.25 196.74C419.5 195.95 420.94 195.55 422.33 195.17C423.02 194.98 423.68 194.8 424.26 194.58C424.81 194.37 425.38 194.09 425.98 193.79C426.93 193.32 427.92 192.82 428.98 192.56C430.97 192.07 433.11 192.16 435.19 192.25C435.9 192.28 436.6 192.31 437.26 192.31C438.33 192.31 439.15 192.1 440.1 191.85C440.55 191.73 441.01 191.61 441.49 191.52C442.2 191.38 443.18 191.25 444.27 191.19C444.09 190.78 443.84 190.36 443.5 189.84C443.04 189.13 442.53 188.34 442.19 187.34C441.24 184.56 442.25 181.14 442.58 180.16C443.19 178.37 444.62 176.97 446 175.63C447.22 174.44 448.49 173.21 448.45 172.26C448.42 171.53 447.63 170.73 446.97 170.18C445.28 168.79 443.77 167.48 442.37 165.53C440.44 162.82 440.37 161.19 440.67 158.13C440.91 155.63 440.74 153.04 440.57 150.54C440.48 149.14 440.38 147.69 440.35 146.26C440.35 145.76 440.39 145.23 440.43 144.72C440.52 143.59 440.63 142.31 440.14 141.7C439.59 141.01 439.21 140.91 436.89 142.5C436.32 142.89 435.74 143.29 435.15 143.58C433.29 144.51 430.84 145.42 428.39 144.27C427.42 143.81 426.66 143.09 426 142.45C425.42 141.9 424.88 141.38 424.29 141.11C423.83 140.91 423.37 140.77 422.93 140.64C421.4 140.19 419.32 139.57 419.55 136.09C419.63 134.86 420.25 133.91 420.74 133.14C421.18 132.46 421.44 132.03 421.42 131.62C421.27 129.55 417.53 128.05 415.29 127.16C414.82 126.97 414.39 126.8 414.02 126.64C410.08 124.92 408.66 121.33 407.52 118.45C406.46 115.81 404.62 114.46 402.28 112.75C401.7 112.33 401.1 111.89 400.51 111.42C400 111.44 399.5 111.45 399 111.46C398.51 111.46 398.02 111.41 397.55 111.36C396.76 111.27 395.94 111.19 395.44 111.4C394.3 111.88 393.11 112.62 392.78 113.06C392.65 113.24 392.55 113.47 392.44 113.75C392.22 114.29 391.91 115.02 391.17 115.63C390.46 116.22 389.7 116.51 388.98 116.76C387.77 117.19 386.49 117.35 385.25 117.5C383.62 117.7 382.07 117.9 380.9 118.7C380.88 118.71 380.86 118.73 380.84 118.74C380.77 118.79 380.71 118.85 380.64 118.9C380.39 119.15 380.22 119.53 380.25 120.33C382.18 121.17 384.15 122.85 384.35 125.35C384.39 125.86 384.29 126.35 384.18 126.82C384.14 127 384.08 127.27 384.06 127.45C384.44 127.7 385.42 127.96 385.81 128.07C385.98 128.11 386.13 128.16 386.26 128.19C386.54 128.27 386.92 128.34 387.34 128.42C389.33 128.79 392.66 129.41 393.04 132.32C393.15 133.21 392.98 133.95 392.52 134.53C391.76 135.5 390.49 135.63 389.65 135.72C387.87 135.91 386.31 135.62 384.8 135.34C384.41 135.27 384.03 135.2 383.66 135.14C383.66 135.34 383.69 135.55 383.73 135.77C386.44 136.38 389.48 137.61 389.42 141.59C389.4 142.85 389.38 144.41 388.83 145.77C388.5 146.6 387.92 147.24 387.41 147.81C387.04 148.22 386.65 148.65 386.55 148.96C386.38 149.5 389.02 150.66 390.02 151.09C392.33 152.1 394.51 153.06 394.87 154.99C395.06 156.03 394.66 157.06 393.66 158.04C392.87 158.82 392.01 158.94 391.44 159.03C390.99 159.1 390.94 159.12 390.85 159.22C390.64 159.45 390.52 159.57 390.88 160.3C391.01 160.56 391.19 160.78 391.41 161.04C391.9 161.64 392.57 162.45 392.58 163.87C392.58 164.1 392.56 164.32 392.53 164.54C394.18 165.48 395.3 167.62 395.45 169.27C395.48 169.56 395.48 169.84 395.49 170.11C395.49 170.55 395.51 170.81 395.59 171.03C395.85 171.7 396.4 172.52 396.99 173.12C397.27 173.41 397.53 173.43 398.4 173.4C399.39 173.36 400.88 173.3 402.11 174.67C402.27 174.84 402.39 174.99 402.49 175.11C402.53 175.16 402.57 175.2 402.6 175.24C402.77 175.27 403.06 175.31 403.2 175.32C404.98 175.53 405.54 176.76 405.88 177.5C405.97 177.71 406.06 177.89 406.16 178.04H406.18C406.56 178.02 407.2 177.98 407.88 178.35C408.68 178.78 409.24 179.47 409.48 180.34C409.76 181.36 409.59 182.54 409.02 183.5C408.4 184.56 407.7 185.04 406.92 185.52Z" fill="#AB8844"/>
<path d="M295.42 124.29C294.37 125.8 292.98 125.85 292.03 126.84C293.26 126.41 294.48 126.22 295.21 126.17L295.51 126.15C297.46 126.03 297.54 126.03 298.56 124.84C300.44 122.65 304.24 121.88 306.97 122.09C308.48 122.21 309.65 122.78 310.69 123.28C311.28 123.57 311.84 123.84 312.44 124.02C313.63 124.38 315.09 124.5 315.6 123.75C315.95 123.25 316.15 122.5 316.37 121.71C316.68 120.57 317.03 119.27 317.96 118.26C319.16 116.97 320.62 116.72 321.79 116.53C323.05 116.32 323.63 116.19 324.09 115.35C324.25 115.05 324.41 114.74 324.56 114.45C325.47 112.66 326.41 110.81 329.04 109.73C329.72 109.45 330.38 109.36 330.96 109.27C331.53 109.19 332.02 109.11 332.31 108.9C332.57 108.7 332.77 108.41 333.02 108.05C333.45 107.43 333.98 106.67 335.01 106.16C336.88 105.24 338.65 105.52 340.22 105.77C341.47 105.97 342.35 106.08 343.11 105.78C342.93 105.31 342.71 104.86 342.46 104.34C342.31 104.04 342.16 103.72 342 103.39C341.69 102.7 341.48 102.02 341.28 101.37C341.1 100.76 340.92 100.19 340.69 99.6802L340.46 99.2002C340.25 98.7702 340.04 98.3402 339.84 97.8902C339.31 97.9302 338.83 97.8502 338.42 97.7802C338.12 97.7302 337.84 97.6802 337.56 97.6802C335.71 97.6802 334.57 97.8402 333.09 98.7802C332.49 99.1602 331.93 99.5402 331.36 99.9302C329.89 100.93 328.38 101.97 326.52 102.71C325.13 103.26 323.72 103.22 322.47 103.18C322.15 103.18 321.84 103.13 321.52 103.16H321.51C320.64 103.16 319.83 102.94 319.12 102.75C318.46 102.57 317.84 102.4 317.38 102.47C317.02 102.52 316.63 102.73 316.18 102.98C315.56 103.32 314.79 103.74 313.82 103.85C312.1 104.05 310.44 103.88 308.83 103.72C307.78 103.61 306.79 103.51 305.8 103.51H305.74C305.47 103.51 305.2 103.51 304.94 103.51C303.51 103.49 302.28 103.48 301.15 104C300.63 104.24 299.89 105.03 299.18 105.79C298.89 106.17 298.55 106.52 298.17 106.85C298.17 106.85 298.11 106.91 298.07 106.94C297.44 107.47 296.82 107.9 296.22 108.31C294.64 109.4 293.6 110.11 293.24 111.91C293.09 112.69 293.11 113.51 293.13 114.38C293.18 116.11 293.21 118.06 291.79 119.83C294.84 120.02 297.37 121.55 295.47 124.27L295.42 124.29Z" fill="#DBDBDB"/>
<path d="M225.47 196.5C225.37 194.66 225.55 192.79 225.07 191.01C224.54 189.03 224.2 187.94 224.45 185.91C224.64 184.35 224.77 182.38 223.74 181.05C221.78 178.52 221.41 182.81 221.24 185.65C221.16 186.86 221.12 187.81 221.01 187.84C220.07 188.15 219.7 186.55 218.47 186.76C217.16 186.98 216.4 188.7 215.17 189.19C214.16 189.59 212.97 189.82 212.08 190.49C210.8 191.45 211.37 191.56 210.92 193.07C210.69 193.84 209.69 194.25 209.54 194.91C209.22 196.33 210.42 196.03 210.46 196.46C210.57 197.66 208.69 198.09 208.67 199.19C208.64 200.73 210.76 200.25 211.11 201.56C211.47 202.92 210.31 202.39 209.9 203.36C209.18 205.11 210.26 204.48 211.24 204.94C212.33 205.46 213.01 208.03 211.12 207.24C210.87 207.13 211.05 208.59 211.22 208.8C211.61 209.27 212.45 209 212.92 209.25C214.57 210.1 214.35 212.04 212.11 211.64C212.25 212.5 212.3 213.77 213.09 214.31C213.94 214.89 215.33 214.15 216.22 214.64C217.19 215.18 216.74 216 217.29 216.7C219.99 220.17 220.4 214.28 220.95 213.24C221.44 212.32 222.02 211.93 222.28 210.9C222.76 208.98 222.9 207.02 222.8 205.06C222.69 202.92 223.2 202.82 224.49 201.05C225.53 199.62 225.55 198.19 225.46 196.48L225.47 196.5ZM190.01 45.2C186.48 45.28 182.84 45.36 179.6 44.2C176.42 43.07 173.36 41.5 170.4 39.98C166.7 38.08 162.87 36.12 158.82 35.03C155.83 34.23 153.87 32.77 151.98 31.36C150.76 30.45 149.61 29.59 148.15 28.86C147.09 28.32 145.8 28.04 144.43 27.74C141.79 27.15 138.79 26.49 136.59 23.78C135.88 22.9 135.58 21.68 135.32 20.6C135.2 20.09 135.01 19.33 134.87 19.12C134.58 18.88 134.28 18.87 133.45 18.92C132.67 18.97 131.61 19.03 130.51 18.44C125.84 15.95 123.15 11.34 120.78 7.27L120.49 6.77C119.29 4.71 117.51 2.86 115.63 0.89C115.35 0.6 115.06 0.3 114.78 0C113.76 1.05 112.29 1.28 110.24 1.36C106.84 1.48 104.19 1.36 102.45 4.61C100.87 7.54 101.5 11.01 101.5 14.19C98.5302 17.94 101.89 25.39 96.2802 26.3C94.8502 26.53 93.6702 26.4 92.3602 26.77C89.6802 27.53 89.2502 27.95 86.2802 27.69C83.5902 27.45 78.8302 27.76 77.9302 30.98C77.2202 33.53 79.9002 36.39 79.8202 39.16C77.4402 40.04 74.4602 39.96 71.9402 40.07C69.6002 40.18 65.6802 40.77 63.4402 40.09C62.2702 39.73 61.3802 38.77 60.3302 38.21C57.6802 36.76 58.0002 37.19 57.1802 34.77C56.5802 33.01 56.7302 32.55 54.5602 31.96C53.1702 31.58 51.2002 31.48 49.7502 31.68C48.9602 31.79 46.7602 32.03 46.2602 32.84C44.7602 35.25 48.9802 36.27 49.9902 37.69C51.1502 39.32 51.1502 43.78 51.0702 45.87C50.9902 47.98 51.2102 47.47 52.0802 49.59C52.6102 50.88 52.7302 51.99 52.0502 53.26C50.4002 56.32 46.7202 53.89 43.8802 54.07C41.3302 54.23 38.5602 54.47 36.4402 55.53C33.4102 57.04 34.3002 56.92 32.4302 53.93C31.2802 52.1 29.0202 51.01 27.1002 49.88C23.8802 47.99 18.7802 53.26 16.9002 53.88C14.2702 54.73 11.7002 52.54 9.34024 53.55C7.16024 54.49 8.03024 55.98 5.50024 56C3.43024 56.02 1.16024 55.43 0.270239 57.76C-0.549761 59.89 0.620239 60.36 2.55024 60.37C3.43024 60.37 10.0102 59.72 8.30024 62.44C7.20024 64.22 4.29024 62.12 3.06024 62.64C2.38024 62.93 2.17024 63.65 2.37024 64.43C2.74024 65.91 4.47024 65.75 5.74024 66.15C10.2002 67.52 5.67024 69.63 3.77024 67.49C1.22024 69.11 4.80024 70.89 5.53024 71.95C6.48024 73.36 5.61024 74.84 8.22024 74.56C10.0202 74.37 11.3602 72.19 13.3602 72.99C14.9402 73.62 14.6302 74.87 16.6402 74.62C17.9502 74.45 17.7802 73.97 18.9202 74.44C19.8602 74.83 19.9902 75.48 20.4102 76.14C21.2002 77.39 21.1702 77.62 22.5302 78.22C23.4002 78.6 23.5702 78.21 24.3902 78.94C25.8102 80.19 25.9802 81.65 27.9202 79.77C28.5002 79.2 28.0602 78.78 28.8602 78.33C30.1202 77.63 31.5302 77.96 32.8702 77.94C33.4902 77.94 35.5202 77.46 35.9902 77.88C37.2102 78.98 35.0202 80.25 34.5202 81.2C33.9202 82.37 34.8902 84.29 35.4602 85.21C38.3602 89.98 41.4002 84.68 45.2002 84.51C46.2502 84.47 49.0802 84.46 49.7402 85.39C50.6802 86.73 49.2302 88.15 48.2302 88.53C45.1902 89.7 42.1502 88.59 42.7502 93.26C42.9002 94.46 43.0802 94.89 42.9802 95.92C42.8202 97.46 42.7302 97.28 43.8602 98.58C44.8902 99.77 45.6102 101.47 46.6402 102.54C47.6802 103.61 49.1702 103.47 50.5302 103.87C51.2502 104.08 52.1802 104.27 52.7402 104.81C53.3702 105.42 53.1302 105.97 53.5902 106.51C54.7102 107.8 56.4202 107.31 57.6302 108.16C59.7902 109.69 57.8002 111.9 57.6302 113.93C57.4502 116.03 56.5802 116.61 55.7702 118.44C54.6702 120.94 57.0002 120.86 58.8302 121.55C61.3302 122.51 63.3702 124.56 65.2402 126.41C67.4302 128.56 67.7002 130.79 67.7602 133.77C65.2502 134.31 65.2902 131.98 64.4002 130.19C63.6202 128.61 62.7202 127.66 61.1202 126.92C58.7902 125.84 57.5802 126.63 57.4402 129.24C57.3102 131.6 56.3902 133.15 56.3902 135.58C55.7302 136.72 55.6202 138.66 55.6802 139.95C55.7802 141.59 56.0102 141.62 57.1502 142.51C61.4202 145.82 55.6202 148.07 55.3302 151.73C55.1602 153.9 56.5902 155.4 56.7302 157.32C56.8402 158.64 56.0802 159.01 55.5002 160.21C54.1802 162.96 53.9402 165.76 51.6502 167.94C52.2002 168.39 52.6702 168.84 53.0202 169.25C54.1502 170.56 54.4102 172.09 54.6402 173.44C54.8202 174.51 54.9802 175.43 55.5202 176.06C56.2302 176.88 57.5002 176.83 59.5102 176.65C60.7602 176.54 62.0602 176.42 63.2902 176.69C65.5202 177.19 66.8002 178.61 67.9402 179.86C69.1002 181.14 70.0202 182.16 71.8502 182.4L72.1402 182.44C74.6402 182.76 75.4502 182.93 77.5902 184.52C78.9102 185.5 78.9402 185.52 80.5502 185.53H81.6402C85.1702 185.58 87.5002 185.61 90.4602 184.04C93.5002 182.43 95.5802 183.37 97.4202 184.2C98.2302 184.56 98.9902 184.91 99.8802 185.09C100.2 185.16 100.66 185.12 101.13 185.07C101.71 185.02 102.38 184.96 103.06 185.07C104.42 185.28 105.39 185.88 106.24 186.41C106.76 186.73 107.2 187.01 107.7 187.19C108.49 187.47 109.13 187.31 110.19 187.01C111.05 186.76 112.02 186.48 113.19 186.58C114.12 186.65 114.98 187.01 115.74 187.33C116.12 187.49 116.48 187.64 116.79 187.73C117.11 187.82 117.53 187.89 117.98 187.97C118.65 188.08 119.41 188.2 120.1 188.46C121.1 188.83 121.9 189.39 122.61 189.88C123.4 190.43 124.08 190.9 124.92 191.07C124.8 187.62 122.64 184.67 124.14 181.23C125.43 178.27 127.96 173.39 129.83 170.74C132.62 166.8 139.03 166.47 143.2 169.07C145.61 170.57 145.51 172.01 149.21 171.27C150.82 170.95 151.86 169.93 153.47 169.51C158.56 168.21 158.63 172.89 162.2 174.96C163.83 175.91 164.89 175.38 166.44 175.72C168.99 176.28 171.06 177.36 173.91 176.96C176.01 176.67 178.21 175.78 179.94 174.51C182.19 172.88 182.11 171.17 183.68 169.18C185.58 166.78 190.69 164.24 193.4 163.26C193.86 163.09 194.45 162.95 195.1 162.8C195.08 162.75 195.06 162.7 195.03 162.64C194.71 161.99 194.01 161.47 193.27 160.92C192.13 160.07 190.71 159.02 190.44 157.12C190.26 155.82 190.62 154.75 190.91 153.9C191.08 153.41 191.22 152.98 191.26 152.57C191.34 151.78 189.94 151.35 187.81 150.94L187.28 150.84C187.05 150.8 186.79 150.77 186.52 150.74C185.72 150.66 184.73 150.56 183.89 150.03C182.7 149.28 182.17 147.93 181.78 146.95L181.65 146.62C180.99 144.99 180.76 143.64 180.9 142.21C180.96 141.6 181.11 140.95 181.28 140.26C181.48 139.41 181.76 138.24 181.63 137.72C181.54 137.38 181.03 136.98 180.55 136.6C179.59 135.84 178.27 134.8 178.31 132.88C178.36 130.82 179.68 129.5 182.24 128.95C184.31 128.52 184.99 128.29 185.41 127.16C185.81 126.08 185.72 125.65 184.43 125.12C182.87 124.48 179.96 123.29 180.18 119.76C180.26 118.63 180.74 117.86 181.09 117.3C181.29 116.98 181.44 116.73 181.49 116.5C181.49 116.41 181.37 116.22 181.3 116.09C181 115.59 180.5 114.74 180.68 113.51C180.89 111.97 180.89 111.77 180.11 110.86C179.39 110.02 178.97 109.03 178.56 108.07C177.9 106.53 177.48 105.65 176.51 105.43C175.83 105.28 175.54 105.32 174.78 107.76C174.56 108.46 174.34 109.18 174.02 109.8C172.61 112.5 168.91 114.9 165.63 114.15C164.6 113.92 163.8 113.32 163.38 112.46C162.91 111.53 162.93 110.39 163.43 109.27C163.97 108.05 164.85 107.46 165.76 107.1C165.68 106.72 165.65 106.26 165.8 105.75C166.04 104.85 166.59 104.39 166.96 104.09C167.03 104.03 167.11 103.97 167.18 103.9C167.29 103.79 167.41 103.69 167.53 103.58C168.15 103.02 168.31 102.84 168.31 102.51C168.47 96.62 170.4 92.01 174.76 87.09C177.36 84.16 177.64 82.9 178.21 80.4C178.43 79.44 178.67 78.34 179.09 76.96C179.23 76.51 179.57 76.14 180.02 75.98C180.46 75.82 180.96 75.88 181.36 76.14C184.62 78.3 189.18 78.71 193.53 77.3C193.15 76.54 192.56 75.79 191.95 75.01C191.01 73.82 189.95 72.46 189.45 70.78C188.51 67.64 189.25 62.82 189.78 60.24C190.85 54.93 193.23 50.77 195.53 46.75C195.81 46.27 196.08 45.78 196.36 45.3C194.38 45.05 192.23 45.1 189.98 45.14L190.01 45.2Z" fill="#DBDBDB"/>
<path d="M378.8 232.55C377.2 231.17 374.98 231.42 373.18 230.67C370.19 229.44 367.89 226.3 364.8 224.73C360.23 222.4 358.45 222.07 354.97 218.28C352.07 215.13 350.52 214.43 346.27 213.59C343.92 213.13 334.54 212.96 334.73 209.25C334.82 207.56 337.87 207.51 338.47 205.71C339.48 202.68 336.54 201.49 334.22 201.15C329.87 200.5 325.28 201.26 320.88 200.97C317 200.73 315.74 199.25 313.51 196.13C312.08 194.12 308.94 190.87 308.2 188.43C307.7 186.8 308.3 185.71 306.6 184.51C304.13 182.76 302.14 183.41 300.99 180.06C299.67 176.19 299.5 172.53 296.95 169.07C295.82 167.53 294.11 167.57 292.52 166.74C290.47 165.68 289.74 164.55 288.61 162.76C285.99 158.62 281.35 158.31 277.28 155.95C273.31 153.64 273.98 151.89 273.4 147.94C273.22 146.76 273.27 146.1 272.37 145.17C271.64 144.42 269.79 144.26 269.41 143.42C268.84 142.13 271.93 138.86 272.25 137.38C272.96 134.06 270.39 133.72 269.32 131.28C267.34 126.79 273.94 127.23 276.45 127.08C279.45 126.9 281.17 124.73 283.74 123.43C284.37 121.55 285.88 120.56 287.15 119.75C287.88 119.28 288.57 118.84 289.16 118.24C290.1 117.29 290.12 116.24 290.07 114.47C290.05 113.52 290.02 112.45 290.24 111.34C290.84 108.34 292.77 107.02 294.46 105.85C294.99 105.49 295.53 105.11 296.04 104.69C296.3 104.42 296.56 104.15 296.81 103.89C297.17 103.39 297.47 102.74 297.43 101.95C297.42 101.79 297.38 101.7 297.37 101.68C297.28 101.6 296.89 101.42 295.37 101.53C293.24 101.68 290.68 101.76 287.77 101.19C286.3 100.9 284.69 100.58 283.32 99.55C283.01 99.31 282.75 99.02 282.53 98.77C282.4 98.62 282.21 98.4 282.12 98.34C281.74 98.19 280.88 98.2 280.13 98.22C279.43 98.23 278.71 98.25 278.02 98.14L277.42 98.04C275.36 97.71 273.23 97.37 271.22 96.36C269.82 95.65 268.98 94.52 268.24 93.51C267.45 92.44 266.93 91.77 266.07 91.48C265.25 91.21 264.66 91.37 263.52 91.75L263.36 91.8C261.94 92.26 261.1 91.91 260.44 91.62C260.21 91.52 259.99 91.42 259.7 91.35C258.83 91.12 257.28 91.36 256.69 91.83C256.5 91.98 256.34 92.26 256.14 92.61C255.77 93.27 255.25 94.18 254.09 94.7C252.34 95.48 249.47 96.04 247.14 95.07C246.63 94.86 246.19 94.56 245.8 94.23C245.22 95.16 244.3 95.49 243.68 95.7C243.47 95.77 243.16 95.88 243.08 95.95C242.87 96.37 242.85 97.59 242.83 98.57C242.79 100.86 242.74 103.47 240.71 104.5C239.88 104.92 238.99 104.94 238.21 104.95C237.64 104.95 237.05 104.97 236.73 105.16C236.517 105.287 236.427 105.647 236.46 106.24L236.49 106.72C236.49 106.83 236.51 106.96 236.52 107.09C236.59 107.93 236.69 109.08 236.01 110.01C234.89 111.58 232.49 111.54 230.78 111.03C229.8 110.74 229.13 110.11 228.59 109.6C228.32 109.35 228.01 109.06 227.81 108.97C227.73 108.98 227.64 109.01 227.56 109.04C227.31 109.11 227.01 109.2 226.65 109.22C225.08 109.32 224.1 108.83 223.14 108.34L222.95 108.24C222.79 108.16 222.64 108.07 222.49 107.98C222.25 107.84 221.92 107.66 221.82 107.67C221.02 107.81 221.15 109.75 221.36 111.73C221.47 112.78 221.57 113.69 221.46 114.44C221.3 115.5 220.77 116.33 219.92 116.83C218.24 117.83 215.91 117.23 214.66 116.78C212.42 115.97 211.92 114.36 211.61 112.78C211.58 112.6 211.55 112.41 211.52 112.21C211.49 111.98 211.43 111.59 211.36 111.38C211.33 111.38 211.29 111.38 211.26 111.37C211 111.33 210.64 111.28 210.23 111.11C208.22 110.28 208.17 108.61 208.14 107.72C208.13 107.37 208.12 107.07 208.04 106.83C207.82 106.15 206.83 105.43 206.12 105.64C205.83 105.86 205.58 107.27 205.47 107.87C205.39 108.32 205.31 108.75 205.22 109.11C204.22 112.97 201.03 116.77 196.87 116.55C196.46 116.53 196.03 116.47 195.59 116.41C194.86 116.31 194.11 116.2 193.64 116.37C193.36 116.47 193.02 116.78 192.66 117.12C192.06 117.67 191.31 118.36 190.24 118.61C189.42 118.8 188.5 118.7 187.69 118.62C187.08 118.56 186.55 118.55 186.01 118.53C185.49 118.52 185 118.5 184.62 118.59C184.45 118.63 184.29 118.7 184.12 118.77C183.97 118.83 183.81 118.89 183.65 118.95C183.38 119.38 183.24 119.63 183.21 119.98C183.14 121.06 183.66 121.57 185.6 122.36C188.29 123.46 189.24 125.54 188.26 128.21C187.23 130.99 184.95 131.46 182.94 131.88C181.36 132.22 181.35 132.61 181.35 132.95C181.35 133.31 181.62 133.59 182.45 134.24C183.24 134.87 184.23 135.64 184.57 136.94C184.9 138.19 184.55 139.65 184.24 140.94C184.1 141.52 183.97 142.07 183.93 142.48C183.84 143.42 184 144.32 184.47 145.48L184.61 145.84C184.85 146.44 185.18 147.26 185.54 147.49C185.78 147.64 186.39 147.7 186.87 147.76C187.24 147.8 187.59 147.84 187.91 147.9L188.41 148C190.43 148.39 194.63 149.19 194.28 152.86C194.2 153.62 193.98 154.28 193.79 154.87C193.55 155.57 193.37 156.12 193.45 156.71C193.54 157.33 194.13 157.8 195.09 158.52C196.04 159.22 197.11 160.02 197.75 161.32C197.89 161.61 198.02 161.89 198.12 162.18C199.6 161.84 200.99 161.41 201.77 160.74C204.18 158.68 204.78 155.07 207.72 152.98C212.02 149.94 218.29 150.16 223.48 149.93C227.28 149.76 230.53 149.04 233.17 151.74C235.02 153.63 236.13 157.66 237.18 160.08C238.33 162.73 240.07 164.17 241.43 166.54C242.86 168.98 243.02 172.52 244.15 175.21C245.79 179.14 247.97 179.72 251.01 181.85C253.93 183.89 254.07 187.8 256.55 189.77C259.41 192.04 263.41 191.01 265.59 194.88C266.73 196.9 266.61 199.2 267.5 201.27C268.54 203.68 270.44 204.9 272.3 206.62C273.97 208.15 275.63 207.52 277.21 208.36C279.2 209.41 280.09 211.1 281.52 212.65C285.03 216.47 287.94 216.86 293.38 217.12C298.71 217.37 305.88 221.59 308.45 226.12C310.52 229.77 314.54 227.52 316.96 229.48C319.51 228.24 320.7 233.24 320.93 234.84C321.49 238.77 323.42 239.91 327.6 240.22C331.19 240.48 329.62 240.48 330.85 243.01C331.72 244.79 336.47 247.03 337.04 244.12C338.9 244.28 337.97 253.51 338.42 255.51C339.1 258.57 340.4 260.55 341.81 263.24C342.67 264.89 343.49 266.98 343.09 268.89C342.56 271.36 341.55 270.4 339.81 271.5C338 272.65 338.55 273.94 338.41 275.89C338.3 277.52 338.05 279.72 336.79 280.93C335.9 281.78 334.09 281.71 333.04 282.65C332.73 281.48 331.01 280.09 329.13 281.77C328.62 282.23 328.4 283.07 327.89 283.48C327.32 283.94 326.69 283.73 326 283.8C325.18 283.88 325.03 284.69 324.57 285.22C323.06 286.95 320.72 284.63 318.93 284.82C316.95 285.03 316.4 287.17 315.32 288.47C314.4 289.57 312.71 289.79 311.32 289.77C309.58 289.74 307.88 289.16 306.13 289.17C305.27 289.17 304.37 289.17 303.6 289.6C302.6 290.16 302.22 291.53 301 291.78C297.54 292.48 294.27 287.36 291.19 286.41C287.1 285.14 288.61 293.72 283.24 290.38C280.81 288.87 281.09 287.84 278.69 290.46C278.32 290.87 277.53 291.47 277.38 292.03C277.15 292.88 277.88 293.46 277.63 294.41C277.16 296.16 275.96 296.05 276.84 298.05C277.47 299.48 278.93 301.07 280.29 301.82C282.03 302.79 283.88 301.28 285.8 302.02C286.71 302.37 287.74 302.73 288.67 303.12C290.79 304.01 291.93 306.15 293.96 307.13C295.1 307.68 296.34 307.2 297.31 307.53C298.44 307.91 298.52 309.09 299.5 309.62C302.34 311.13 305.49 310.24 308.25 311.36C311.87 312.83 310.97 315.72 313 318.13C315.22 320.76 318.09 319.68 320.87 319.88C323.22 320.05 326.4 320.43 323.58 316.88C325.65 313.14 328.67 312.21 327.49 307.73C326.78 305.01 324.95 305.25 324.08 303.01C323.33 301.08 324.79 300.17 325.76 298.86C326.82 297.43 325.95 297.06 325.94 295.61C325.94 295.07 327.13 292.44 328.38 289.79C329.8 286.76 331.28 283.69 331.1 283.63C331.62 283.8 332.02 283.84 332.32 283.8C331.89 285.8 333.79 288.97 335.27 289.87C337.51 291.23 339.31 288.11 341.84 287.79C341.78 288.16 341.94 288.66 341.83 289.04C347.11 290.42 344.69 285.27 345.84 282.8C346.42 281.56 347.52 281.88 348.47 280.96C349.52 279.94 349.65 278.62 350.04 277.3C350.55 275.61 350.3 273.7 350.75 271.84C351.41 269.09 352.97 269 355.5 268.64C362.74 267.6 357.23 258.02 354.68 254.6C352.87 252.17 348.24 251.63 348.19 248.51C348.15 245.78 350.96 244.43 349.26 241.34C350.35 240.72 353.16 240.79 353.79 239.67C354.1 239.12 353.72 237.86 353.79 237.25C354.08 234.82 354.89 233.66 357.68 232.78C359.84 232.1 359.98 232.45 361.67 233.87C363.51 235.42 363.39 235.23 365.26 235.26C370 235.33 371.08 235.9 371.75 240.39C372.06 242.46 373.4 246.62 375.97 246.72C379.56 246.85 378.5 241.74 378.84 239.47C379.22 236.86 381.11 234.55 378.73 232.51L378.8 232.55ZM227.9 230.49C227.76 229.67 228.1 228.34 227.36 227.72C226.9 227.33 225.67 227.64 225.36 227.02C224.82 225.94 227.19 226.06 227.13 225.08C227.09 224.37 226.05 224.87 225.67 224.63C225.24 224.36 225.22 223.44 225.1 222.96C224.76 221.65 224.27 220.45 222.93 219.89C222.9 219.92 222.88 219.95 222.85 219.98C222.98 220.5 222.71 221.17 222.82 221.7C221.33 221.91 220.71 220.76 220.9 219.39C218.07 219.58 219.15 220.3 218.16 221.88C217.35 223.18 216.71 223.05 215.54 223.96C214.5 224.76 214.08 226.35 213.24 227.21C212.43 228.04 212.13 228.11 211.07 227.9C210.37 227.76 210.08 227.82 209.94 227.99C209.71 228.27 209.86 228.84 209.25 229.4C208.74 229.86 207.79 229.56 207.21 229.5C206.51 229.43 205.47 229.17 204.89 228.74C204.3 228.3 204.28 227.65 203.82 227.11C203.45 226.68 201.88 226.29 201.41 226.8C200.81 227.44 202.03 228.32 202.23 228.9C202.46 229.57 201.92 230.36 201.94 231.06C201.97 231.89 202.37 232.94 201.78 233.67C201.55 233.96 201.12 233.87 201.25 234.64C201.51 236.19 202.96 235.36 204 235.76C205.28 236.25 205.71 238.08 205.54 239.32C205.37 240.52 206.73 241.34 206.93 242.56C207.19 244.11 206.97 245.7 205.9 246.9C205.4 247.46 205.37 247.49 205.41 248.22C205.45 248.94 205.43 250 206.01 250.53C206.65 251.11 207.73 250.86 208.39 251.43C209.66 252.52 207.14 253.19 206.65 253.94C206.1 254.78 206.39 255.72 206.49 256.67C206.54 257.08 206.88 258.11 206.67 258.44C206.42 258.82 205.72 258.65 205.4 258.95C204.78 259.53 205.16 260.23 205.27 260.92C205.38 261.63 205.13 262 205.11 262.7C205.11 263.28 205.39 263.39 205.09 263.99C204.96 264.26 204.58 264.41 204.46 264.69C204.2 265.31 204.36 265.6 204.92 266.04C205.33 266.37 205.9 266.64 205.82 267.27C205.7 268.23 204.99 267.4 204.45 267.89C204.1 268.21 204.12 269.52 204.23 269.95C204.36 270.43 204.93 271.64 205.48 271.79C206.53 272.08 206.45 270.71 206.88 270.26C208.31 268.78 208.82 272.23 209.34 272.71C209.94 273.27 211 273.57 211.8 273.46C213.51 273.23 215.42 271.47 216.26 269.79C216.8 268.71 216.3 266.86 217.08 265.96C217.73 265.21 220.22 265.67 221.16 265.96C222.26 266.3 222.97 267.47 224.22 267.46C226.27 267.45 226.11 265.16 226.22 263.63C226.39 261.16 227.41 259.36 227.72 257.04C228 254.94 226.89 253.02 227.39 250.89C227.76 249.33 228.48 247.28 227.82 245.7C227.25 244.34 225.87 243.88 226.47 242.23C226.94 240.92 228.19 240.01 229.1 239.03C230.64 237.37 229.83 235.53 228.86 233.84C228.33 232.92 228.04 231.5 227.86 230.46L227.9 230.49Z" fill="#DBDBDB"/>
</svg>
