<svg width="108" height="45" viewBox="0 0 108 45" fill="none" xmlns="http://www.w3.org/2000/svg">
<g clip-path="url(#clip0_669_772)">
<path fill-rule="evenodd" clip-rule="evenodd" d="M98.3633 11.1993V9.84083C98.9957 9.75781 99.5734 9.56913 100.049 9.21442C100.787 8.588 101.416 7.66725 101.416 5.73517C101.416 3.8031 100.443 1.9314 98.3633 1.41442V0.712531C99.4966 0.79555 100.601 0.984229 101.441 1.44461C102.706 2.17668 103.653 3.48234 103.653 5.38423C103.653 7.82951 101.705 9.32385 100.363 9.84083C100.257 10.0295 100.337 10.2748 100.469 10.5201C102.575 14.0257 103.997 16.2257 105.865 17.9088C106.366 18.3691 106.998 18.5616 107.865 18.588C107.945 18.671 107.945 18.8597 107.865 18.9125C107.602 18.9654 107.207 19.0484 106.786 19.0484C104.366 19.0484 103.101 18.3691 101.208 15.5993C100.524 14.5955 99.4162 12.7465 98.5753 11.471C98.4949 11.3616 98.4437 11.2823 98.3633 11.1993ZM98.3633 0.712531V1.41819C98.0196 1.33517 97.6248 1.28234 97.2044 1.28234C96.4147 1.28234 95.6763 1.36536 95.5191 1.52763C95.3619 1.63706 95.3363 1.988 95.307 2.96913V9.02574C95.307 9.4597 95.3582 9.62196 95.4386 9.7314C95.5446 9.84083 96.0455 9.92008 97.2007 9.92008C97.5956 9.92008 97.9904 9.89366 98.3596 9.83706V11.1955C98.0452 10.7616 97.676 10.5427 96.8059 10.5427C95.3582 10.5427 95.307 10.5955 95.307 11.222V14.3729C95.307 15.9767 95.3874 17.3352 95.6763 17.7427C95.9395 18.0974 96.5171 18.2031 96.9412 18.2861L97.4676 18.3955C97.548 18.5314 97.548 18.7503 97.4164 18.8295C96.1515 18.7767 95.3619 18.7465 94.309 18.7465C93.2561 18.7465 92.4665 18.7729 91.0992 18.8295C90.9676 18.7465 90.9676 18.5314 91.048 18.3955L91.706 18.2861C92.1265 18.2031 92.6785 18.0974 92.9417 17.7427C93.2305 17.3352 93.311 15.9767 93.311 14.3729V5.0597C93.311 3.51253 93.2049 2.39555 92.9966 2.04461C92.7845 1.66347 92.4701 1.41819 91.8377 1.36536L91.2308 1.31253C91.1248 1.2031 91.1248 1.01442 91.2564 0.878569C93.2817 0.689889 95.0731 0.659701 97.2044 0.659701C97.5736 0.659701 97.9685 0.686116 98.3633 0.712531ZM74.1728 19.188V18.5616H74.4872C77.909 18.5616 80.9872 16.2522 80.9872 10.3842C80.9872 6.17291 79.1447 1.12008 74.1691 0.957814V0.304984H74.2751C80.2487 0.304984 83.3818 4.788 83.3818 9.65215C83.3818 15.222 79.3823 19.188 74.2203 19.188H74.1691H74.1728ZM6.18563 0.304984C2.8954 0.304984 0.972446 2.42574 0.972446 4.92385C0.972446 7.42196 2.36897 8.75404 3.91903 9.76159L6.23682 11.2559C8.15977 12.4786 8.44858 13.9201 8.44858 15.1427C8.44858 16.9918 7.34453 18.5654 5.13276 18.5654C2.21177 18.5654 0.921265 15.8748 0.446009 14.4635C0.339991 14.354 0.102363 14.3276 0 14.4899C0 16.0672 0.3144 17.6408 0.764065 18.1842C1.23932 18.4823 2.581 19.188 4.66116 19.188C8.05741 19.188 10.2399 17.1238 10.2399 14.1616C10.2399 11.554 8.52901 9.97668 7.34453 9.21819L4.86954 7.61442C3.94828 7.01819 2.581 5.84838 2.581 4.19178C2.581 3.05215 3.15862 0.931399 5.76522 0.931399C8.37181 0.931399 9.02986 2.78046 9.47587 4.02951C9.60747 4.13895 9.89628 4.08234 9.97671 3.94649C9.97671 2.99555 9.71349 1.39178 9.47587 0.738946C9.16147 0.712531 8.869 0.629512 8.58019 0.576682C7.92214 0.440833 6.9497 0.304984 6.18563 0.304984ZM74.1764 0.304984V0.957814C74.0704 0.931399 73.9936 0.931399 73.8876 0.931399C70.9666 0.931399 67.3327 2.8597 67.3327 8.99932C67.3327 13.0748 69.1753 18.3201 74.1764 18.5616V19.188C68.3856 19.1616 64.9638 14.8408 64.9638 9.95027C64.9638 4.5163 68.8609 0.388003 74.1764 0.304984ZM34.2988 7.45215C34.2988 6.47479 34.2732 2.83329 34.6937 1.82951C34.7997 1.55781 35.3005 1.33895 35.7977 1.23329L36.5362 1.09744C36.6422 0.935172 36.6166 0.742719 36.5106 0.663474C35.5893 0.716304 34.8801 0.746493 33.904 0.746493C32.9279 0.746493 31.9299 0.720078 30.877 0.663474C30.771 0.716304 30.7454 0.988003 30.8514 1.09744L31.6411 1.20687C32.2991 1.3163 32.7744 1.50498 32.9571 1.8031C33.4032 2.64461 33.458 6.17668 33.458 7.45593V11.071C33.458 15.1993 32.0103 18.2974 27.9048 18.2974C23.7993 18.2974 22.4028 15.2823 22.4028 11.0974V5.11253C22.4028 3.53517 22.4832 2.17668 22.7721 1.74272C23.0609 1.388 23.6129 1.28234 24.037 1.19932L24.695 1.08989C24.801 0.927625 24.801 0.735172 24.6694 0.655927C23.4849 0.708757 22.5381 0.738946 21.4048 0.738946C20.2715 0.738946 19.4818 0.712531 18.2462 0.655927C18.1145 0.765361 18.1145 0.927625 18.2206 1.08989L18.7982 1.19932C19.2186 1.28234 19.7706 1.388 20.0338 1.74272C20.3227 2.15027 20.4031 3.53517 20.4031 5.11253V11.4974C20.4031 14.4597 21.0355 16.471 22.4028 17.6635C23.7189 18.8333 25.4042 19.1842 27.4551 19.1842C29.5061 19.1842 31.4546 18.505 32.5879 17.2295C34.01 15.5729 34.2988 13.2635 34.2988 11.0069V7.44838V7.45215ZM46.1693 0.738946C45.4856 0.738946 44.5644 0.655927 44.2755 0.550267C43.9867 0.444606 43.8807 0.19555 43.8295 0.0597007C43.7235 -0.0233182 43.5919 -0.0233182 43.4603 0.0597007C43.3031 1.06347 42.8534 2.69366 42.433 3.81064C42.4842 3.99932 42.7474 4.05593 42.9083 3.99932C43.2775 3.32008 43.5663 2.69366 44.1732 2.07102C44.7252 1.44461 45.8585 1.36536 47.489 1.36536H49.0171C49.8324 1.36536 49.858 1.39178 49.858 2.45215V14.4333C49.858 16.0371 49.7775 17.3955 49.4631 17.7767C49.1999 18.1012 48.7247 18.2106 48.3042 18.2672L47.1454 18.4031C47.0393 18.5389 47.0393 18.7276 47.1709 18.8371C48.2494 18.7842 49.3279 18.754 50.8816 18.754C52.2233 18.754 53.1994 18.7805 54.329 18.8371C54.435 18.7276 54.435 18.5389 54.3546 18.4031L53.4589 18.2937C53.0385 18.2408 52.4865 18.105 52.2233 17.7767C51.9345 17.3691 51.854 16.0371 51.854 14.4333V2.45215C51.854 1.39178 51.8796 1.36536 52.6693 1.36536H54.4606C55.9083 1.36536 56.9356 1.50121 57.6193 2.12762C57.9337 2.39932 58.1457 3.05215 58.3285 4.11253C58.4601 4.22196 58.7233 4.19555 58.8037 4.0597C58.7233 3.40687 58.9098 1.18046 59.1986 0.120078C59.1474 0.0106441 58.9353 -0.015771 58.8293 0.0370592C58.6721 0.308757 58.4601 0.527625 58.2517 0.580455C57.8057 0.716304 57.25 0.74272 56.4092 0.74272H46.1693V0.738946Z" fill="#231F20"/>
<path fill-rule="evenodd" clip-rule="evenodd" d="M104.549 39.4565V38.9396C105.602 37.8528 106.208 36.5773 106.442 35.6792C106.336 35.3811 106.073 35.1094 105.678 35.1094C105.309 35.1094 105.046 35.2981 104.574 35.7358C104.574 35.7358 104.574 35.7622 104.549 35.7622V35.1094C104.629 35.0565 104.706 34.9999 104.761 34.9735C105.368 34.6188 105.762 34.5131 106.157 34.5131C106.314 34.5131 106.42 34.566 106.526 34.6226C106.578 34.649 106.739 34.7848 106.815 34.9471L107.261 33.9433C107.499 33.8075 107.919 33.9698 108 34.1622C107.762 34.7584 106.446 38.2377 105.945 39.6792C105.865 39.9509 105.945 40.0603 106.051 40.0603C106.314 40.0603 106.76 39.7886 107.631 38.9999C107.737 38.9999 107.843 39.083 107.843 39.1886C107.21 40.0867 106.132 40.9547 105.291 40.9547C104.922 40.9547 104.845 40.6565 104.845 40.5471C104.845 40.4377 104.87 40.2754 105.002 39.9207L105.503 38.5094L105.452 38.483C105.188 38.8377 104.874 39.1622 104.556 39.4603L104.549 39.4565ZM104.549 35.1094V35.7622C103.576 36.6867 102.681 38.7245 102.681 39.8113C102.681 39.9999 102.761 40.1358 102.893 40.1358C103.05 40.1358 103.525 39.9169 104.391 39.1018L104.549 38.9396V39.4565C103.627 40.3547 102.626 40.9509 102.074 40.9509C101.653 40.9509 101.39 40.5169 101.39 40.083C101.39 39.7018 101.734 38.4528 102.757 37.0113C103.39 36.0867 103.993 35.4905 104.549 35.1094ZM77.3568 40.7056V39.9169C77.4079 39.8339 77.4884 39.7547 77.5396 39.6716C78.2232 38.7207 78.9361 36.6565 78.9872 35.815C78.9872 35.3245 78.9068 34.7547 78.3548 34.7547C78.0916 34.7547 77.7479 34.8905 77.3531 35.3811V34.566C77.7479 34.3773 78.1172 34.2943 78.4572 34.2943C79.5612 34.2943 80.0876 35.1358 80.0365 36.2792C79.9853 37.1471 79.5356 38.6716 78.406 39.8641C78.0367 40.2716 77.6675 40.5433 77.3531 40.7056H77.3568ZM85.7797 32.283C86.3318 30.5698 86.4634 30.1358 86.6754 29.566L86.595 29.4565C85.8858 29.5396 84.9353 29.8377 84.672 29.9471C84.5916 29.9999 84.5916 30.1358 84.672 30.1924L84.9353 30.3282C85.1729 30.4377 85.3301 30.5999 84.9608 31.6867L82.5115 39.132C82.2482 39.9471 82.1971 40.2452 82.1971 40.4905C82.1971 40.7358 82.3287 40.9509 82.7747 40.9509C84.0396 40.9509 85.012 39.6452 85.4069 38.8603C85.4069 38.6981 85.3264 38.615 85.1692 38.6415C84.46 39.4565 83.7471 40.2452 83.4071 40.2452C83.2499 40.2452 83.2243 40.083 83.3559 39.7018L85.7761 32.283H85.7797ZM87.3846 40.3811C87.3042 40.5698 87.3591 40.7056 87.4358 40.815C87.5126 40.9245 87.6186 40.9509 87.699 40.9509C88.7519 40.9509 90.3312 39.5396 90.5433 39.0754C90.5433 38.9396 90.4921 38.8301 90.3312 38.8037C89.8048 39.4301 88.9895 39.9735 88.7263 39.9735C88.6203 39.9735 88.6203 39.7848 88.7007 39.6188L90.5177 35.1358C90.7005 34.6754 90.7005 34.5396 90.5981 34.4565C90.5469 34.3735 90.4665 34.2943 90.3605 34.2943C89.8596 34.2943 88.6751 34.8641 87.8343 35.8716C87.8087 36.0075 87.8855 36.1169 88.0463 36.1433C88.8104 35.4905 89.2052 35.3018 89.3113 35.3018C89.4173 35.3018 89.4173 35.4377 89.3368 35.5999L87.3883 40.3811H87.3846ZM90.7553 30.5169C90.1484 30.5169 89.9401 31.1698 89.9401 31.5207C89.9401 31.7924 90.0717 32.1169 90.4921 32.1169C90.9673 32.1169 91.2817 31.6264 91.2817 31.1396C91.2817 30.7848 91.099 30.5131 90.7553 30.5131V30.5169ZM95.9392 34.9471C96.0708 34.566 95.9137 34.2943 95.5444 34.2943C94.7803 34.2943 93.8335 34.9471 93.2559 35.7622C93.2559 35.8981 93.3363 36.0075 93.4387 36.0075C93.9395 35.5471 94.4915 35.2188 94.8352 35.2188C94.9668 35.2188 94.9668 35.3547 94.8864 35.5735C94.8059 35.7924 93.1755 40.3547 93.095 40.5471C92.9634 40.9282 93.3838 40.9547 93.541 40.9547C93.6982 40.9547 93.7531 40.9282 93.8298 40.766C94.7255 39.0264 95.358 37.8037 96.1732 36.7735C97.0141 35.6867 97.9097 34.8716 98.279 34.8716C98.5166 34.8716 98.5166 35.0603 98.5166 35.2528C98.5166 35.5773 98.3338 36.1207 98.2022 36.4226C97.8585 37.2113 97.2809 38.7584 96.9665 39.5207C96.6521 40.3094 96.5973 40.4452 96.5973 40.5811C96.5973 40.7698 96.8349 40.9622 96.9665 40.9622C97.8074 40.9622 99.0211 40.1999 99.5987 39.1962C99.5987 39.0867 99.5731 38.9509 99.3611 38.9773C98.9151 39.5207 98.1766 40.0641 97.9134 40.0641C97.8074 40.0641 97.833 39.9018 97.8878 39.766C97.9426 39.6301 99.0211 37.049 99.3099 36.2603C99.4415 35.9056 99.5475 35.4188 99.5475 35.1471C99.5475 34.6301 99.2843 34.3056 98.7067 34.3056C97.5478 34.3056 96.0233 36.0452 94.9412 37.7547L94.89 37.7282L95.9429 34.9584L95.9392 34.9471ZM77.3568 34.566V35.3811C77.3056 35.4339 77.2763 35.4905 77.2507 35.5169C76.3551 36.766 75.7519 38.6414 75.7226 39.483C75.697 40.0264 75.9054 40.4867 76.3551 40.4867C76.6183 40.4867 76.9619 40.3773 77.3568 39.9169V40.7056C76.8559 40.9245 76.4611 40.9509 76.2235 40.9509C75.251 40.9509 74.593 40.2188 74.6953 38.8603C74.7465 37.883 75.3278 36.3622 76.3551 35.3282C76.6987 34.9735 77.0387 34.732 77.3568 34.566ZM68.9594 39.8641V39.1584C69.0398 39.1056 69.091 39.0226 69.1714 38.9396C70.3559 37.6905 70.8019 36.7396 71.0395 35.8981C71.2223 35.2452 71.0139 34.7584 70.6447 34.7584C70.2755 34.7584 69.8806 35.0565 69.4858 35.4377C69.3286 35.5999 69.1422 35.7924 68.9594 36.0075V34.8943C69.5918 34.4867 70.195 34.2981 70.6703 34.2981C70.9079 34.2981 71.2771 34.4603 71.4599 34.7886L72.5384 31.5547C72.8528 30.6867 72.9076 30.3848 72.6956 30.249L72.3264 30.0037C72.3008 29.9207 72.3264 29.8414 72.3775 29.7584C72.6663 29.649 73.5364 29.4603 74.1945 29.4603L74.2457 29.5698C73.9824 30.4377 73.7448 31.0641 73.2732 32.3698C71.7743 36.6641 71.0359 39.1886 70.9042 39.6528C70.8531 39.8716 70.8787 40.0075 71.0103 40.0075C71.2479 40.0075 72.2203 39.2188 72.6956 38.5962C72.8272 38.5962 72.9076 38.649 72.9076 38.815C72.5128 39.683 71.1163 40.9622 70.3266 40.9622C69.983 40.9622 69.8258 40.7169 69.8258 40.4716C69.8258 40.283 69.877 40.0113 70.0378 39.5735L70.5643 37.9962L70.5131 37.9698C70.0122 38.649 69.5114 39.3282 68.9594 39.8716V39.8641ZM68.9594 34.8905V36.0037C68.3525 36.7358 67.6433 37.7698 67.274 38.532C66.7988 39.5358 66.7988 39.8075 66.7988 40.0264C66.7988 40.215 66.956 40.3509 67.0876 40.3509C67.3252 40.3509 68.0088 40.1056 68.9557 39.1547V39.8603C68.3232 40.5131 67.614 40.9471 66.7988 40.9471C66.2212 40.9471 65.9031 40.4565 65.9031 39.8075C65.9031 38.6943 66.7183 36.8188 67.9284 35.7056C68.2721 35.3811 68.6121 35.1094 68.9557 34.8905H68.9594ZM58.6427 39.4565V38.9396C59.6955 37.8528 60.3024 36.5773 60.5108 35.6792C60.4048 35.3811 60.1415 35.1094 59.7467 35.1094C59.3775 35.1094 59.1398 35.2981 58.6682 35.7358L58.6427 35.7622V35.1094C58.7231 35.0565 58.7743 34.9999 58.8547 34.9735C59.4616 34.6188 59.8271 34.5131 60.222 34.5131C60.4048 34.5131 60.5108 34.566 60.5912 34.6226C60.6716 34.649 60.8288 34.7848 60.9056 34.9471L61.326 33.9433C61.5892 33.8075 61.9841 33.9698 62.0901 34.1622C61.8525 34.7584 60.5108 38.2377 60.0355 39.6792C59.9295 39.9509 60.0099 40.0603 60.1415 40.0603C60.4048 40.0603 60.8508 39.7886 61.7208 38.9999C61.8269 38.9999 61.9329 39.083 61.9329 39.1886C61.2748 40.0867 60.1964 40.9547 59.3519 40.9547C59.0082 40.9547 58.9059 40.6565 58.9059 40.5471C58.9059 40.4377 58.9571 40.2754 59.0631 39.9207L59.5639 38.5094L59.5383 38.483C59.2495 38.8377 58.9607 39.1622 58.6427 39.4603V39.4565ZM58.6427 35.1094V35.7622C57.6702 36.6867 56.7489 38.7245 56.7489 39.8113C56.7489 39.9999 56.855 40.1358 56.9866 40.1358C57.1438 40.1358 57.5934 39.9169 58.4855 39.1018L58.6427 38.9396V39.4565C57.7214 40.3547 56.6941 40.9509 56.1677 40.9509C55.7217 40.9509 55.484 40.5169 55.484 40.083C55.484 39.7018 55.8277 38.4528 56.8257 37.0113C57.4838 36.0867 58.0906 35.4905 58.6427 35.1094ZM51.4041 40.7886V38.7245C51.5102 39.0226 51.6418 39.3207 51.7185 39.4867C51.9013 39.8415 52.0622 40.0037 52.2194 40.0037C52.4022 40.0037 52.6946 39.815 53.1407 39.2716C53.2723 39.2716 53.3234 39.3245 53.3234 39.4603C52.797 40.6565 52.0329 40.9547 51.7697 40.9547C51.6381 40.9547 51.5065 40.9018 51.4005 40.7924L51.4041 40.7886ZM51.4041 37.6641V37.1471C51.6162 37.0377 51.8502 36.8754 52.1134 36.7131C52.7714 36.2792 53.0858 35.7094 53.0858 35.3811C53.0858 35.1924 52.9542 34.9735 52.6106 34.9735C52.2669 34.9735 51.8209 35.2188 51.4005 35.5433V34.9999C51.4261 34.9735 51.4809 34.9169 51.5321 34.8905C51.9525 34.566 52.5045 34.2943 53.1626 34.2943C54.0583 34.2943 54.2666 34.8377 54.2666 35.1622C54.2666 35.3509 54.2155 35.7886 53.6342 36.3018C52.9762 36.9547 52.2669 37.4716 51.3968 37.6603L51.4041 37.6641ZM51.4041 32.2037V29.649C51.6418 29.5962 51.905 29.5131 52.1682 29.4603L52.2486 29.5433C52.1426 30.0037 51.9598 30.5207 51.5102 31.8792L51.4041 32.2037ZM51.4041 29.649V32.2037L49.9309 36.5245H49.9564C50.3769 35.9547 50.8521 35.4377 51.4041 35.0037V35.5471C51.2981 35.6301 51.2214 35.7094 51.1153 35.7924C50.5633 36.283 49.9053 37.0415 49.7188 37.5056C49.6676 37.6679 49.6676 37.7773 49.876 37.7509C50.1136 37.7245 50.6657 37.5622 51.4041 37.1547V37.6716C51.3237 37.6981 51.2725 37.6981 51.1921 37.7245C51.0861 37.7773 51.1117 37.9131 51.1665 38.0226C51.2177 38.2113 51.2981 38.483 51.4041 38.7282V40.7924C51.2981 40.683 51.1921 40.5471 51.0897 40.332C50.907 39.9773 50.5121 39.083 50.3805 38.649C50.2489 38.2414 50.0917 38.0528 49.8029 38.132C49.5141 38.2113 49.4337 38.2679 49.2509 38.7584L48.4612 40.7698C48.3808 40.9056 48.3296 40.9584 48.198 40.9584C48.0152 40.9584 47.5655 40.932 47.6972 40.5509L50.5121 31.8565C50.8558 30.7698 50.8814 30.5509 50.6181 30.415L50.3293 30.2792C50.2489 30.2264 50.2233 30.1169 50.3037 30.0339C50.5926 29.8981 50.9874 29.7622 51.4078 29.6528L51.4041 29.649ZM29.3998 39.4565V38.9396C30.4527 37.8528 31.0596 36.5773 31.2935 35.6792C31.1875 35.3811 30.9243 35.1094 30.5295 35.1094C30.1602 35.1094 29.897 35.2981 29.4254 35.7358C29.4254 35.7358 29.4254 35.7622 29.3998 35.7622V35.1094C29.4802 35.0565 29.557 34.9999 29.6119 34.9735C30.2187 34.6188 30.5843 34.5131 31.0084 34.5131C31.1656 34.5131 31.2716 34.566 31.3776 34.6226C31.4288 34.649 31.5896 34.7848 31.6664 34.9471L32.0868 33.9433C32.3501 33.8075 32.7449 33.9698 32.8509 34.1622C32.6133 34.7584 31.2972 38.2377 30.7963 39.6792C30.7159 39.9509 30.7707 40.0603 30.9024 40.0603C31.1656 40.0603 31.6116 39.7886 32.4817 38.9999C32.5877 38.9999 32.6937 39.083 32.6937 39.1886C32.0612 40.0867 30.9572 40.9547 30.1127 40.9547C29.7691 40.9547 29.6923 40.6565 29.6923 40.5471C29.6923 40.4377 29.7179 40.2754 29.8239 39.9207L30.3503 38.5094L30.2991 38.483C30.0103 38.8377 29.7215 39.1622 29.4035 39.4603L29.3998 39.4565ZM35.6366 38.5056C35.4246 39.1018 35.2674 39.6754 35.2674 39.9999C35.2674 40.4905 35.5562 40.9509 35.951 40.9509C36.3203 40.9509 37.1867 40.815 38.3456 39.8113C39.6617 38.6716 40.8206 36.415 40.8206 35.2754C40.8206 34.8679 40.7146 34.2981 40.2137 34.2981C39.9249 34.2981 39.6873 34.5433 39.6617 34.8679C39.7677 35.2226 39.7933 35.5999 39.7933 35.9811C39.7933 36.7131 39.3729 37.966 38.4772 38.9962C37.7936 39.8113 37.1611 40.166 36.7919 40.166C36.4775 40.166 36.3714 39.8679 36.3714 39.5962C36.3714 39.4075 36.4226 39.0792 36.5031 38.8641L37.8191 35.332C38.0568 34.7622 37.7131 34.2981 37.3439 34.2981C36.4482 34.2981 35.4209 35.332 34.9237 36.0377C34.9237 36.1735 35.0298 36.3094 35.1614 36.3094C35.6366 35.7924 36.2947 35.2226 36.5835 35.2226C36.7955 35.2226 36.7955 35.3584 36.6895 35.683L35.6366 38.5094V38.5056ZM45.1637 34.2943C44.9516 34.2943 44.48 34.4301 44.0304 34.8113C43.3723 35.4075 43.1091 35.8716 43.1091 36.4679C43.1091 36.7396 43.2407 37.283 43.6355 37.9358C44.0304 38.5886 44.2132 39.0754 44.2132 39.3207C44.2132 39.8377 43.8439 40.2452 43.4747 40.2452C43.0799 40.2452 42.6046 39.8377 42.4218 39.5924C42.2902 39.483 42.133 39.483 42.0014 39.5924C41.8442 39.7811 41.7638 39.9735 41.7638 40.1358C41.7638 40.4905 42.133 40.9509 42.7106 40.9509C43.2882 40.9509 43.8439 40.7622 44.2388 40.3811C44.8164 39.8905 45.0284 39.2943 45.054 38.8867C45.0796 38.1811 44.842 37.7735 44.4764 37.1207C44.0304 36.3584 43.9499 36.0075 43.9499 35.6792C43.9499 35.4339 44.1327 35.0528 44.5824 35.0528C45.0577 35.0528 45.2404 35.2981 45.5037 35.5433C45.6097 35.6792 45.6865 35.7056 45.7925 35.6792C45.9241 35.6264 46.0813 35.4339 46.0813 35.1886C46.0813 34.8075 45.712 34.2905 45.16 34.2905L45.1637 34.2943ZM29.3962 35.1094V35.7622C28.4237 36.6867 27.528 38.7245 27.528 39.8113C27.528 39.9999 27.6085 40.1358 27.7401 40.1358C27.8973 40.1358 28.3725 39.9169 29.239 39.1018L29.3962 38.9396V39.4565C28.4749 40.3547 27.4476 40.9509 26.9212 40.9509C26.5008 40.9509 26.2375 40.5169 26.2375 40.083C26.2375 39.7018 26.5812 38.4528 27.6048 37.0113C28.2373 36.0867 28.8405 35.4905 29.3962 35.1094ZM21.6824 40.5698V39.9735C21.92 39.7848 22.1577 39.5131 22.3916 39.132C23.1301 37.9622 23.2873 36.8754 23.2873 36.1698C23.2873 35.3811 22.7353 34.9999 22.0772 34.9999C21.92 34.9999 21.7884 34.9999 21.6824 35.0264V33.2867C21.8944 33.3396 22.1028 33.449 22.1284 33.5848L21.814 34.5358C21.9456 34.5358 22.1028 34.5094 22.3916 34.5094C23.1009 34.5094 24.4718 34.8075 24.4718 36.3018C24.4718 37.7962 23.6017 39.0452 22.4465 40.0528C22.2088 40.2716 21.9456 40.4339 21.6824 40.5698ZM21.6824 33.2867V35.0528L20.1031 39.6188C20.0227 39.8075 20.0519 39.9735 20.1031 40.0528C20.2091 40.215 20.4467 40.4339 20.6807 40.4339C20.8123 40.4339 21.2327 40.3245 21.6824 39.9735V40.5698C20.9439 40.9245 20.3151 40.9509 20.2603 40.9509C20.1287 40.9509 19.9971 40.9245 19.785 40.8679C19.6534 40.8943 19.6022 41.0037 19.5474 41.1396L18.9149 43.015C18.4945 44.2377 18.5201 44.3735 19.0466 44.4565L19.6534 44.5396C19.7338 44.649 19.7338 44.8377 19.6022 44.8943C18.4433 44.8943 17.2845 44.9773 16.2608 45.0037C16.2608 44.9773 16.2352 44.9773 16.2352 44.9773V44.6792L16.2608 44.6528L16.6045 44.5999C17.4746 44.4377 17.5257 44.0565 17.7634 43.4301L20.6076 35.1698C20.0556 35.332 19.7119 35.4943 19.0539 35.8226C18.9478 35.7962 18.8711 35.6603 18.8967 35.5245C19.4487 35.1169 20.0556 34.8452 20.7904 34.6565L21.2656 33.3811C21.3461 33.2981 21.5289 33.2716 21.6861 33.2981L21.6824 33.2867ZM16.2352 34.8641C16.3157 34.6452 16.2864 34.5396 16.2352 34.4565V34.8641ZM16.2352 32.1207V30.5433C16.2864 30.5433 16.3413 30.5169 16.3924 30.5169C16.7361 30.5169 16.9189 30.7886 16.9189 31.1433C16.9189 31.5773 16.6301 32.0415 16.2352 32.1207ZM4.86566 37.4716C4.86566 36.0301 5.52371 34.566 6.05014 33.5056C6.70819 32.1999 7.57827 31.0603 8.04987 30.4339C8.02428 30.3245 7.91826 30.2716 7.83784 30.2716C7.65505 30.3811 7.54903 30.4075 7.3114 30.4075H5.15447C3.07431 30.4075 1.60102 30.8981 0.811366 31.9018C0.336111 32.5282 0.15332 33.0981 0.15332 33.5848C0.15332 34.2905 0.599329 34.7245 1.0234 34.7245C1.3378 34.7245 1.70704 34.5358 1.70704 34.0452C1.70704 33.8565 1.65586 33.6905 1.46941 33.5848C1.25738 33.5018 0.917385 33.2037 0.917385 32.7962C0.917385 32.5245 1.12942 32.0905 1.46941 31.8716C1.8094 31.6528 2.6283 31.3282 3.83838 31.3282H5.20565C6.04649 31.3282 6.57293 31.2754 6.89098 31.2188C5.75768 32.7962 5.15447 33.7471 4.49642 35.1584C3.91881 36.3547 3.70677 37.4679 3.70677 38.2565C3.70677 39.615 4.49642 40.9999 6.18175 40.9999C7.02259 40.9999 8.33868 40.6754 9.81563 39.2075C11.8702 37.1962 12.9487 33.9924 12.9487 32.1433C12.9487 31.166 12.8171 30.0792 12.1078 30.0792C11.713 30.0792 11.5302 30.4339 11.5302 30.6754C11.5302 30.8943 11.6106 31.0565 11.6362 31.1924C11.819 31.6528 11.925 32.2264 11.925 33.2037C11.925 34.4528 11.3986 36.3547 10.4517 37.6603C9.4793 38.9358 8.13396 40.0528 6.89829 40.0528C5.50177 40.0528 4.87297 39.0754 4.87297 37.4716H4.86566ZM16.2352 30.5433V32.1207H16.1036C15.7088 32.1207 15.5516 31.7962 15.5516 31.5245C15.5516 31.1999 15.7636 30.6264 16.2352 30.5471V30.5433ZM16.2352 34.4565V34.8641C16.2096 34.9471 16.1841 35.0264 16.1292 35.1358L14.3123 39.6188C14.2611 39.7811 14.2319 39.9735 14.3635 39.9735C14.6267 39.9735 15.4419 39.4301 15.9428 38.8037C16.1 38.8301 16.1804 38.9396 16.1804 39.0754C15.9428 39.5358 14.3635 40.9509 13.3106 40.9509C13.2302 40.9509 13.1534 40.9245 13.073 40.815C12.9925 40.7056 12.9413 40.5698 13.0218 40.3811L14.9703 35.5999C15.0215 35.4377 15.0215 35.3018 14.9191 35.3018C14.8168 35.3018 14.4183 35.4905 13.6542 36.1433C13.5226 36.1169 13.4166 36.0075 13.4714 35.8716C14.3123 34.8679 15.4712 34.2943 15.972 34.2943C16.1036 34.2943 16.1548 34.3773 16.2352 34.4565ZM16.2352 44.6716V44.9698C16.1841 44.8603 16.1841 44.7509 16.2352 44.6716Z" fill="#231F20"/>
</g>
<defs>
<clipPath id="clip0_669_772">
<rect width="108" height="45" fill="white"/>
</clipPath>
</defs>
</svg>
