<svg width="122" height="77" viewBox="0 0 122 77" fill="none" xmlns="http://www.w3.org/2000/svg">
<g clip-path="url(#clip0_924_308)">
<path d="M46.7192 75.4501L45.0041 71.8707L43.2891 75.4501L41.5561 72.1375H40.7882L43.2891 76.997L45.0041 73.4775L46.7192 76.997L49.2201 72.1375H48.4522L46.7192 75.4501V75.4501ZM68.7313 75.564L64.0253 71.8707V76.7572H64.7274V73.3636L69.4304 76.997V72.1375H68.7283V75.567L68.7313 75.564ZM55.9848 76.7572H56.6869V72.1375H55.9848V76.7572ZM76.6343 76.7572H81.2148V76.1366H77.3365V74.6467H80.6053V74.0261H77.3454V72.758H81.2148V72.1375H76.6343V76.7572V76.7572ZM115.94 38.3906V37.9769H110.661V42.3118H111.055C111.575 39.9585 112.534 38.4565 115.943 38.3906H115.94ZM30.2647 53.257V53.6707H36.3063V48.7002H35.9119C35.4577 51.6231 34.4358 53.191 30.2647 53.257V53.257ZM32.1979 48.3315H32.5684V42.5756H32.1979C31.917 44.3233 31.436 45.1897 29.7239 45.3666V45.7833C31.3523 45.9572 31.7856 46.6317 32.1979 48.3315ZM34.7436 42.3388H35.132V37.9799H30.2647V38.3936C33.3064 38.5675 34.2177 39.7876 34.7406 42.3388H34.7436ZM10.649 38.3936H12.8003L9.51953 47.8758L9.80339 48.5323L13.3232 38.3966H14.7125V37.9829H10.652V38.3966L10.649 38.3936ZM23.0548 38.3936H25.1822V53.26H23.0548V53.6737H28.4839V37.9799H23.0548V38.3936ZM6.58539 38.3936V37.9799H0V38.3936H1.43719L6.84534 53.9345H7.90904L9.04146 50.6638L4.84642 38.3936H6.58539ZM72.8606 37.9799H68.9075V43.0163H69.302C69.7561 40.0304 70.8856 38.6544 72.8606 38.4176V37.9799V37.9799ZM78.6631 38.4176C80.5933 38.6994 81.7048 40.1173 82.2038 43.0163H82.5683V37.9799H78.6631V38.4176V38.4176ZM92.5301 38.3936H94.6605V53.26H92.5301V53.6737H100.069V53.26H97.9621V38.3936H100.069V37.9799H92.5301V38.3936ZM115.725 53.26V53.6737H121.833V48.7722H121.441C121.095 51.824 119.678 53.197 115.725 53.26ZM118.788 37.9799L109.69 53.26V53.6737H112.902L122.006 38.3936V37.9799H118.788ZM60.2187 53.17C59.5912 53.17 59.3492 52.7803 59.2834 51.842C59.2177 50.9906 59.1729 49.9653 59.155 49.3538C58.9996 47.0034 57.3084 45.7383 54.5057 45.4985V45.4355C56.6122 45.1508 58.656 44.0385 58.656 41.988C58.656 39.4158 56.182 38.2167 53.4241 37.9769V38.3906C54.8972 38.6514 55.5724 39.5897 55.5724 41.7482V41.988C55.5724 44.4283 54.7926 45.1478 53.4241 45.3246V45.7353C55.0495 45.8043 55.7666 46.3469 55.8533 48.0257C55.919 48.8771 55.8533 49.5096 55.919 50.379C55.9818 52.3216 57.1142 53.7366 59.3731 53.7366C60.4816 53.7366 61.0015 53.4548 61.3272 52.9991L61.0911 52.7143C60.8939 53.0201 60.5862 53.17 60.2216 53.17H60.2187ZM79.5954 53.257H77.4052V37.9769H74.1275V53.257H71.8865V53.6707H79.5954V53.257ZM51.7031 37.9769H46.2889V38.3906H48.3984V53.257H46.2889V53.6707H54.0247V53.257H51.7031V37.9769ZM56.5077 13.6582L60.9298 20.5533L65.4445 13.5773L68.5699 18.4458L78.8812 2.3803H76.1264L68.5669 14.1499L66.828 11.4398L74.232 0H71.4772L60.9268 16.2544L50.5228 0.0359743H47.768L55.1272 11.5118L53.4331 14.1499L45.8736 2.3803H43.1188L53.4331 18.4488L56.5047 13.6612L56.5077 13.6582ZM61.0015 6.65525L62.7674 9.40728L64.1448 7.25782L61.0105 2.3773L61.0045 2.40428L60.9895 2.3773L57.8552 7.25782L59.2356 9.40728L61.0015 6.65525V6.65525Z" fill="#231F20"/>
</g>
<defs>
<clipPath id="clip0_924_308">
<rect width="122" height="77" fill="white"/>
</clipPath>
</defs>
</svg>
