<svg width="32" height="32" viewBox="0 0 32 32" fill="none" xmlns="http://www.w3.org/2000/svg">
<path d="M19.4437 13.9926L17.0917 6.94525H11.1328L12.6652 11.5388C12.9768 12.4684 14.7867 13.1384 15.2264 14.4658L18.9187 25.5289H22.5171L23.9129 21.3373L22.4659 16.9196C22.1543 15.99 19.8834 15.32 19.4395 13.9926H19.4437Z" fill="#AB8844"/>
<path d="M11.2011 12.0078L9.51074 6.94525H2.40356C2.40356 6.94525 3.80793 7.3263 4.58481 9.621L9.88638 25.5289H14.1251L10.898 15.856C10.4541 14.5286 11.5084 12.9416 11.1968 12.012L11.2011 12.0078Z" fill="#AB8844"/>
<path d="M21.8853 6.94525L23.772 12.6024C24.2159 13.9298 22.8158 15.6257 23.1274 16.5595L24.3141 20.1397L27.8186 9.62518C28.5997 7.33049 29.9998 6.94944 29.9998 6.94944H21.8853V6.94525Z" fill="#AB8844"/>
</svg>
